<svg xmlns="http://www.w3.org/2000/svg" width="111" height="18">
  <g>
    <path d="M 0 18 L 0 0 L 110.891 0 L 110.891 18 Z" fill="transparent"></path>
    <path
      d="M 97.861 3.648 C 97.793 3.776 97.694 3.84 97.565 3.84 C 97.466 3.84 97.338 3.771 97.181 3.631 C 97.026 3.492 96.814 3.338 96.547 3.169 C 96.28 3 95.947 2.844 95.546 2.701 C 95.147 2.558 94.654 2.487 94.067 2.487 C 93.479 2.487 92.963 2.569 92.518 2.735 C 92.072 2.9 91.698 3.126 91.396 3.411 C 91.096 3.697 90.867 4.028 90.711 4.404 C 90.554 4.78 90.476 5.175 90.476 5.588 C 90.476 6.129 90.592 6.577 90.825 6.93 C 91.057 7.284 91.363 7.584 91.743 7.832 C 92.124 8.081 92.555 8.289 93.039 8.458 C 93.521 8.628 94.018 8.795 94.528 8.96 C 95.037 9.126 95.534 9.308 96.016 9.507 C 96.501 9.707 96.932 9.957 97.312 10.257 C 97.692 10.558 97.999 10.928 98.23 11.368 C 98.463 11.808 98.579 12.355 98.579 13.009 C 98.579 13.678 98.463 14.308 98.231 14.898 C 98 15.488 97.663 16.002 97.223 16.438 C 96.782 16.874 96.243 17.218 95.605 17.469 C 94.966 17.721 94.238 17.847 93.417 17.847 C 92.353 17.847 91.437 17.661 90.67 17.289 C 89.902 16.917 89.231 16.408 88.653 15.761 L 88.972 15.265 C 89.064 15.152 89.17 15.095 89.292 15.095 C 89.36 15.095 89.447 15.141 89.554 15.231 C 89.66 15.321 89.789 15.432 89.942 15.563 C 90.094 15.695 90.277 15.838 90.49 15.992 C 90.702 16.146 90.95 16.289 91.231 16.421 C 91.513 16.552 91.836 16.663 92.201 16.753 C 92.566 16.844 92.981 16.889 93.445 16.889 C 94.085 16.889 94.655 16.793 95.156 16.601 C 95.659 16.409 96.084 16.148 96.43 15.817 C 96.775 15.486 97.04 15.094 97.223 14.639 C 97.405 14.184 97.496 13.697 97.496 13.178 C 97.496 12.614 97.381 12.15 97.149 11.785 C 96.916 11.421 96.61 11.116 96.229 10.872 C 95.849 10.628 95.417 10.423 94.934 10.257 C 94.451 10.092 93.955 9.93 93.445 9.772 C 92.935 9.614 92.439 9.438 91.956 9.242 C 91.472 9.047 91.04 8.797 90.661 8.492 C 90.28 8.188 89.974 7.808 89.743 7.353 C 89.51 6.898 89.394 6.329 89.394 5.645 C 89.394 5.111 89.497 4.596 89.703 4.099 C 89.908 3.603 90.208 3.165 90.604 2.786 C 91 2.406 91.488 2.101 92.07 1.872 C 92.652 1.643 93.315 1.528 94.061 1.528 C 94.898 1.528 95.649 1.66 96.315 1.923 C 96.981 2.186 97.588 2.588 98.134 3.13 Z"
      fill="rgb(255,255,255)"></path>
    <path
      d="M 109.997 3.648 C 109.93 3.776 109.83 3.84 109.701 3.84 C 109.602 3.84 109.474 3.771 109.318 3.631 C 109.162 3.492 108.95 3.338 108.683 3.169 C 108.417 3 108.083 2.844 107.683 2.701 C 107.283 2.558 106.789 2.487 106.203 2.487 C 105.616 2.487 105.099 2.569 104.654 2.735 C 104.209 2.9 103.834 3.126 103.534 3.411 C 103.232 3.697 103.003 4.028 102.847 4.404 C 102.691 4.78 102.613 5.175 102.613 5.588 C 102.613 6.129 102.729 6.577 102.961 6.93 C 103.193 7.284 103.499 7.584 103.879 7.832 C 104.26 8.081 104.692 8.289 105.174 8.458 C 105.658 8.628 106.154 8.795 106.665 8.96 C 107.174 9.126 107.67 9.308 108.154 9.507 C 108.636 9.707 109.068 9.957 109.449 10.257 C 109.829 10.558 110.135 10.928 110.367 11.368 C 110.599 11.808 110.715 12.355 110.715 13.009 C 110.715 13.678 110.599 14.308 110.368 14.898 C 110.136 15.488 109.8 16.002 109.359 16.438 C 108.919 16.874 108.379 17.218 107.741 17.469 C 107.103 17.721 106.373 17.847 105.553 17.847 C 104.489 17.847 103.574 17.661 102.806 17.289 C 102.039 16.917 101.367 16.408 100.789 15.761 L 101.109 15.265 C 101.199 15.152 101.306 15.095 101.428 15.095 C 101.496 15.095 101.584 15.141 101.691 15.231 C 101.797 15.321 101.926 15.432 102.078 15.563 C 102.23 15.695 102.413 15.838 102.626 15.992 C 102.84 16.146 103.086 16.289 103.368 16.421 C 103.649 16.552 103.972 16.663 104.338 16.753 C 104.703 16.844 105.117 16.889 105.582 16.889 C 106.221 16.889 106.791 16.793 107.293 16.601 C 107.796 16.409 108.22 16.148 108.566 15.817 C 108.912 15.486 109.177 15.094 109.359 14.639 C 109.542 14.184 109.633 13.697 109.633 13.178 C 109.633 12.614 109.517 12.15 109.284 11.785 C 109.052 11.421 108.746 11.116 108.366 10.872 C 107.986 10.628 107.554 10.423 107.07 10.257 C 106.588 10.092 106.091 9.93 105.582 9.772 C 105.072 9.614 104.575 9.438 104.092 9.242 C 103.609 9.047 103.178 8.797 102.797 8.492 C 102.416 8.188 102.111 7.808 101.878 7.353 C 101.646 6.898 101.53 6.329 101.53 5.645 C 101.53 5.111 101.633 4.596 101.838 4.099 C 102.043 3.603 102.344 3.165 102.74 2.786 C 103.136 2.406 103.624 2.101 104.207 1.872 C 104.789 1.643 105.451 1.528 106.198 1.528 C 107.035 1.528 107.786 1.66 108.452 1.923 C 109.117 2.186 109.724 2.588 110.271 3.13 Z"
      fill="rgb(255,255,255)"></path>
    <path
      d="M 86.192 9.682 C 86.192 8.569 86.036 7.569 85.725 6.682 C 85.413 5.795 84.975 5.043 84.409 4.426 C 83.843 3.81 83.161 3.338 82.363 3.011 C 81.565 2.684 80.68 2.521 79.708 2.521 C 78.75 2.521 77.875 2.684 77.081 3.011 C 76.287 3.338 75.603 3.81 75.03 4.426 C 74.456 5.043 74.012 5.795 73.696 6.682 C 73.381 7.569 73.224 8.569 73.224 9.682 C 73.224 10.802 73.381 11.804 73.696 12.688 C 74.012 13.571 74.456 14.321 75.03 14.938 C 75.603 15.554 76.287 16.024 77.081 16.347 C 77.875 16.671 78.75 16.832 79.708 16.832 C 80.68 16.832 81.565 16.671 82.363 16.347 C 83.161 16.024 83.843 15.554 84.409 14.938 C 84.975 14.321 85.413 13.571 85.725 12.688 C 86.036 11.804 86.192 10.802 86.192 9.682 Z M 87.4 9.682 C 87.4 10.915 87.214 12.033 86.841 13.037 C 86.47 14.041 85.945 14.898 85.269 15.609 C 84.592 16.319 83.783 16.868 82.842 17.255 C 81.9 17.643 80.855 17.836 79.708 17.836 C 78.576 17.836 77.539 17.643 76.596 17.255 C 75.655 16.868 74.846 16.319 74.17 15.609 C 73.493 14.898 72.967 14.041 72.591 13.037 C 72.215 12.033 72.027 10.915 72.027 9.682 C 72.027 8.457 72.215 7.342 72.591 6.338 C 72.967 5.334 73.493 4.477 74.17 3.767 C 74.846 3.056 75.655 2.506 76.596 2.114 C 77.539 1.724 78.576 1.528 79.708 1.528 C 80.855 1.528 81.9 1.722 82.842 2.109 C 83.783 2.496 84.592 3.047 85.269 3.761 C 85.945 4.475 86.47 5.334 86.841 6.338 C 87.214 7.342 87.4 8.457 87.4 9.682 Z"
      fill="rgb(255,255,255)"></path>
    <path
      d="M 60.373 9.796 L 60.373 16.486 L 64.382 16.486 C 65.79 16.486 66.851 16.185 67.567 15.582 C 68.282 14.98 68.64 14.132 68.64 13.04 C 68.64 12.539 68.544 12.088 68.352 11.687 C 68.16 11.287 67.883 10.947 67.521 10.666 C 67.16 10.385 66.716 10.17 66.189 10.021 C 65.662 9.871 65.063 9.796 64.393 9.796 Z M 60.373 8.954 L 63.84 8.954 C 64.578 8.954 65.208 8.861 65.731 8.674 C 66.255 8.487 66.684 8.24 67.019 7.933 C 67.354 7.626 67.601 7.278 67.759 6.889 C 67.917 6.5 67.996 6.1 67.996 5.688 C 67.996 4.618 67.655 3.808 66.974 3.258 C 66.292 2.708 65.24 2.433 63.817 2.433 L 60.373 2.433 Z M 59.22 17.406 L 59.22 1.524 L 63.817 1.524 C 64.728 1.524 65.517 1.614 66.183 1.793 C 66.85 1.973 67.401 2.237 67.838 2.585 C 68.274 2.933 68.6 3.357 68.815 3.859 C 69.029 4.36 69.137 4.929 69.137 5.565 C 69.137 5.984 69.063 6.388 68.916 6.777 C 68.769 7.166 68.557 7.525 68.278 7.854 C 68 8.184 67.659 8.47 67.256 8.713 C 66.853 8.956 66.392 9.141 65.873 9.269 C 67.13 9.456 68.098 9.871 68.775 10.514 C 69.453 11.158 69.792 12.007 69.792 13.062 C 69.792 13.736 69.671 14.342 69.43 14.881 C 69.189 15.42 68.839 15.876 68.38 16.25 C 67.921 16.624 67.356 16.911 66.686 17.109 C 66.016 17.307 65.255 17.406 64.404 17.406 Z"
      fill="rgb(255,255,255)"></path>
    <path
      d="M 47.408 13.455 C 47.453 13.336 47.5 13.218 47.55 13.102 C 47.599 12.986 47.653 12.875 47.714 12.771 L 54.02 1.737 C 54.081 1.64 54.141 1.58 54.202 1.558 C 54.262 1.535 54.345 1.524 54.451 1.524 L 55.257 1.524 L 55.257 17.406 L 54.236 17.406 L 54.236 3.87 C 54.236 3.675 54.247 3.47 54.27 3.252 L 47.952 14.353 C 47.846 14.548 47.695 14.645 47.499 14.645 L 47.317 14.645 C 47.128 14.645 46.977 14.548 46.864 14.353 L 40.376 3.241 C 40.398 3.458 40.41 3.668 40.41 3.87 L 40.41 17.406 L 39.4 17.406 L 39.4 1.524 L 40.194 1.524 C 40.3 1.524 40.385 1.535 40.449 1.558 C 40.514 1.58 40.576 1.64 40.636 1.737 L 47.113 12.782 C 47.226 12.991 47.325 13.216 47.408 13.455 Z"
      fill="rgb(255,255,255)"></path>
    <path
      d="M 26.273 11.637 L 33.587 11.637 L 30.253 3.612 C 30.199 3.484 30.145 3.34 30.092 3.18 C 30.038 3.019 29.984 2.848 29.93 2.669 C 29.876 2.848 29.823 3.019 29.769 3.18 C 29.715 3.34 29.661 3.488 29.607 3.623 Z M 37.198 17.406 L 36.287 17.406 C 36.179 17.406 36.09 17.378 36.021 17.322 C 35.952 17.266 35.898 17.193 35.86 17.103 L 33.933 12.49 L 25.916 12.49 L 24.001 17.103 C 23.97 17.186 23.916 17.257 23.839 17.316 C 23.762 17.376 23.67 17.406 23.562 17.406 L 22.663 17.406 L 29.342 1.524 L 30.519 1.524 Z"
      fill="rgb(255,255,255)"></path>
    <path
      d="M 13.649 16.695 L 3.898 16.695 L 4.514 15.569 L 13.033 15.569 Z M 10.068 5.422 L 15.005 14.443 L 13.704 14.443 L 10.061 7.787 L 9.417 8.962 L 12.417 14.443 L 5.131 14.443 Z M 16.908 15.569 L 10.061 3.058 L 9.424 4.246 L 3.844 14.443 L 2.542 14.443 L 9.417 1.882 L 8.774 0.706 L 0.639 15.569 L 3.227 15.569 L 1.995 17.821 L 15.553 17.821 L 14.32 15.569 Z"
      fill="rgb(10,166,184)"></path>
  </g>
</svg>
