<svg xmlns="http://www.w3.org/2000/svg" width="76" height="20">
  <g transform="translate(-0.073 -0.134)">
    <path d="M 0.073 20.134 L 0.073 0.134 L 76.03 0.134 L 76.03 20.134 Z" fill="transparent"></path>
    <path
      d="M 76.031 1.198 C 76.031 5.832 76.031 10.466 76.031 15.241 C 75.328 15.241 74.626 15.241 73.903 15.241 C 73.833 15.03 73.762 14.819 73.69 14.602 C 73.479 14.738 73.269 14.874 73.052 15.015 C 71.906 15.662 70.952 15.731 69.661 15.547 C 68.339 15.158 67.237 14.393 66.363 13.339 C 65.596 11.836 65.261 10.189 65.766 8.546 C 66.398 7.051 67.177 5.993 68.633 5.231 C 69.789 4.832 71.003 4.83 72.201 5.028 C 72.692 5.309 73.184 5.59 73.69 5.879 C 73.76 4.405 73.831 2.93 73.903 1.411 C 74.967 0.985 74.967 0.985 76.031 1.198 Z M 68.198 8.233 C 67.62 9.176 67.633 10.127 67.733 11.198 C 68.038 12.082 68.483 12.765 69.236 13.342 C 70.125 13.767 71.039 13.734 71.988 13.539 C 72.801 13.101 73.309 12.54 73.783 11.757 C 74.087 10.338 73.983 9.276 73.265 8.007 C 72.675 7.331 72.355 7.011 71.477 6.848 C 70.042 6.783 69.163 7.134 68.198 8.233 Z"
      fill="rgb(255,255,255)"></path>
    <path
      d="M 61.683 5.274 C 61.994 5.469 62.304 5.667 62.61 5.87 C 63.361 6.247 63.953 6.051 64.754 5.879 C 64.967 6.092 64.967 6.092 64.992 6.642 C 64.992 6.888 64.991 7.133 64.991 7.385 C 64.991 7.662 64.991 7.939 64.991 8.224 C 64.989 8.529 64.989 8.833 64.987 9.138 C 64.987 9.448 64.987 9.757 64.987 10.067 C 64.985 10.884 64.983 11.701 64.981 12.517 C 64.979 13.35 64.978 14.183 64.977 15.016 C 64.975 16.651 64.971 18.286 64.967 19.922 C 64.328 20.134 64.328 20.134 62.839 20.134 C 62.733 17.396 62.733 17.396 62.626 14.602 C 61.889 15.024 61.889 15.024 61.137 15.453 C 59.738 15.798 58.618 15.633 57.307 15.028 C 56.107 14.247 55.107 13.251 54.754 11.836 C 54.592 10.301 54.471 8.668 55.307 7.307 C 56.875 5.393 59.218 4.163 61.683 5.274 Z M 57.52 7.794 C 56.648 8.991 56.72 10.195 56.881 11.624 C 57.325 12.577 57.812 13.153 58.796 13.539 C 59.869 13.684 60.675 13.661 61.655 13.18 C 62.374 12.531 62.784 11.984 62.931 11.014 C 62.933 9.608 62.869 8.701 61.988 7.581 C 61.186 6.85 60.358 6.834 59.315 6.868 C 58.539 6.98 58.096 7.274 57.52 7.794 Z"
      fill="rgb(255,255,255)"></path>
    <path
      d="M 51.655 5.36 C 52.86 6.079 53.671 7.109 54.115 8.432 C 54.218 9.033 54.218 9.033 54.275 9.642 C 54.295 9.845 54.316 10.048 54.338 10.256 C 54.328 10.773 54.328 10.773 53.902 11.198 C 53.353 11.235 52.827 11.247 52.278 11.24 C 52.038 11.239 52.038 11.239 51.793 11.238 C 51.282 11.235 50.77 11.23 50.259 11.225 C 49.912 11.223 49.565 11.221 49.219 11.219 C 48.369 11.214 47.518 11.207 46.668 11.198 C 47.274 12.477 47.274 12.477 48.37 13.326 C 49.36 13.471 50.204 13.457 51.123 13.047 C 51.563 12.708 51.563 12.708 51.881 12.315 C 51.986 12.227 52.091 12.14 52.2 12.049 C 52.811 12.11 53.319 12.28 53.902 12.475 C 53.813 13.513 53.408 13.939 52.625 14.602 C 51.31 15.531 50.057 15.829 48.452 15.58 C 47.022 15.215 45.927 14.584 45.119 13.327 C 44.274 11.728 44.112 10.195 44.567 8.432 C 45.016 7.059 45.762 6.11 47.001 5.36 C 48.42 4.731 50.235 4.731 51.655 5.36 Z M 47.153 7.836 C 46.792 8.29 46.792 8.29 46.668 9.283 C 48.423 9.283 50.179 9.283 51.987 9.283 C 51.777 8.232 51.618 7.913 50.923 7.156 C 49.561 6.474 48.22 6.865 47.153 7.836 Z"
      fill="rgb(255,255,255)"></path>
    <path
      d="M 35.179 0.985 C 37.094 1.198 37.094 1.198 37.307 1.411 C 37.34 1.727 37.36 2.045 37.374 2.363 C 37.387 2.649 37.387 2.649 37.401 2.942 C 37.409 3.143 37.418 3.345 37.426 3.552 C 37.435 3.754 37.445 3.956 37.454 4.164 C 37.477 4.665 37.498 5.165 37.519 5.666 C 37.74 5.511 37.74 5.511 37.966 5.353 C 39.04 4.788 40.165 4.895 41.349 5.028 C 42.094 5.374 42.094 5.374 42.626 5.879 C 42.819 6.059 43.012 6.239 43.211 6.424 C 44.437 7.998 44.175 10.516 44.155 12.395 C 44.155 12.646 44.155 12.898 44.155 13.157 C 44.145 14.998 44.145 14.998 43.902 15.241 C 43.579 15.256 43.255 15.259 42.931 15.254 C 42.668 15.251 42.668 15.251 42.399 15.248 C 42.195 15.244 42.195 15.244 41.987 15.241 C 41.983 15.068 41.979 14.895 41.975 14.717 C 41.954 13.93 41.931 13.143 41.907 12.355 C 41.901 12.083 41.895 11.812 41.888 11.532 C 41.903 9.322 41.903 9.322 41.003 7.382 C 40.115 6.984 39.211 7.025 38.291 7.315 C 37.845 7.658 37.725 7.905 37.519 8.432 C 37.473 8.937 37.449 9.444 37.439 9.951 C 37.435 10.095 37.431 10.24 37.428 10.389 C 37.416 10.849 37.408 11.31 37.4 11.77 C 37.39 12.233 37.38 12.695 37.369 13.158 C 37.359 13.576 37.351 13.994 37.343 14.412 C 37.307 15.028 37.307 15.028 37.094 15.241 C 36.462 15.241 35.83 15.241 35.179 15.241 C 35.179 10.536 35.179 5.832 35.179 0.985 Z"
      fill="rgb(255,255,255)"></path>
    <path
      d="M 33.198 5.414 C 33.734 5.768 34.129 6.04 34.541 6.517 C 34.507 7.053 34.363 7.321 34.049 7.754 C 33.69 8.007 33.69 8.007 33.291 7.98 C 32.839 7.794 32.839 7.794 32.386 7.461 C 31.476 7.006 30.646 7.016 29.647 7.156 C 28.771 7.538 28.342 7.933 27.958 8.791 C 27.654 9.765 27.677 10.643 27.945 11.624 C 28.4 12.487 28.744 12.966 29.647 13.326 C 30.67 13.471 31.641 13.508 32.519 12.914 C 32.695 12.769 32.871 12.624 33.051 12.475 C 33.192 12.405 33.332 12.334 33.477 12.262 C 33.898 12.613 34.319 12.964 34.754 13.326 C 34.384 14.267 33.729 14.761 32.867 15.256 C 31.68 15.773 30.241 15.799 29.011 15.42 C 27.5 14.785 26.541 13.988 25.791 12.527 C 25.21 11.036 25.251 9.556 25.796 8.065 C 26.407 6.804 27.41 5.726 28.704 5.161 C 30.163 4.786 31.822 4.755 33.198 5.414 Z"
      fill="rgb(255,255,255)"></path>
    <path
      d="M 6.243 15.879 C 9.613 15.879 12.983 15.879 16.456 15.879 C 16.456 16.09 16.456 16.3 16.456 16.517 C 15.752 16.927 15.047 17.334 14.341 17.741 C 14.144 17.855 13.947 17.97 13.744 18.088 C 10.033 20.224 10.033 20.224 8.796 19.922 C 7.505 18.922 6.947 17.286 6.243 15.879 Z"
      fill="rgb(254,111,10)"></path>
    <path
      d="M 2.413 10.56 C 3.092 11.185 3.539 11.813 3.993 12.614 C 4.195 12.967 4.195 12.967 4.401 13.327 C 4.541 13.575 4.681 13.823 4.82 14.07 C 5.094 14.551 5.368 15.032 5.642 15.513 C 5.776 15.749 5.91 15.985 6.047 16.227 C 6.672 17.322 7.308 18.409 7.945 19.496 C 7.735 19.601 7.735 19.601 7.52 19.709 C 7.049 19.499 7.049 19.499 6.468 19.169 C 6.256 19.05 6.044 18.93 5.826 18.807 C 5.604 18.679 5.382 18.551 5.153 18.419 C 4.935 18.297 4.718 18.175 4.494 18.049 C 1.297 16.226 1.297 16.226 0.498 15.028 C 0.545 13.801 0.952 12.974 1.576 11.956 C 1.656 11.821 1.736 11.685 1.819 11.546 C 2.015 11.216 2.214 10.888 2.413 10.56 Z"
      fill="rgb(254,90,3)"></path>
    <path
      d="M 9.86 0.134 C 10.371 0.609 10.371 0.609 10.697 1.238 C 10.809 1.443 10.921 1.648 11.036 1.859 C 11.139 2.062 11.242 2.265 11.349 2.475 C 11.468 2.667 11.586 2.859 11.709 3.057 C 11.987 3.539 11.987 3.539 11.987 3.964 C 8.547 3.964 5.106 3.964 1.562 3.964 C 2.603 2.923 3.72 2.295 4.993 1.57 C 5.225 1.432 5.457 1.294 5.696 1.152 C 7.036 0.389 8.292 -0.299 9.86 0.134 Z"
      fill="rgb(254,101,7)"></path>
    <path
      d="M 1.358 4.578 C 1.544 4.579 1.73 4.58 1.922 4.582 C 2.122 4.582 2.323 4.583 2.53 4.584 C 2.742 4.585 2.953 4.587 3.171 4.589 C 3.383 4.59 3.595 4.591 3.814 4.592 C 4.34 4.595 4.865 4.598 5.391 4.602 C 4.469 6.303 3.531 7.995 2.586 9.682 C 2.455 9.916 2.324 10.151 2.189 10.392 C 2.062 10.618 1.936 10.844 1.805 11.077 C 1.635 11.38 1.635 11.38 1.462 11.69 C 1.354 11.879 1.247 12.068 1.136 12.262 C 1.026 12.462 0.915 12.662 0.802 12.868 C 0.651 13.095 0.651 13.095 0.498 13.326 C 0.357 13.326 0.217 13.326 0.072 13.326 C 0.057 12.285 0.045 11.244 0.037 10.203 C 0.034 9.849 0.03 9.495 0.024 9.141 C 0.016 8.631 0.013 8.122 0.01 7.612 C 0.007 7.454 0.003 7.297 0 7.135 C 0 6.177 0.133 5.584 0.711 4.815 C 0.923 4.602 0.923 4.602 1.358 4.578 Z"
      fill="rgb(254,85,1)"></path>
    <path
      d="M 10.711 0.347 C 13.149 1.23 16.483 2.835 17.945 5.028 C 18.062 6.063 18.101 6.496 17.519 7.368 C 16.815 7.838 16.44 7.919 15.618 7.935 C 14.258 7.497 13.596 5.927 12.945 4.762 C 12.847 4.59 12.749 4.418 12.648 4.241 C 12.453 3.896 12.258 3.551 12.065 3.206 C 11.867 2.852 11.666 2.498 11.465 2.146 C 11.367 1.975 11.27 1.803 11.17 1.627 C 11.082 1.473 10.993 1.319 10.902 1.16 C 10.711 0.773 10.711 0.773 10.711 0.347 Z"
      fill="rgb(254,122,14)"></path>
    <path
      d="M 16.669 12.049 C 17.243 12.432 17.635 12.705 17.945 13.326 C 18.044 14.678 18.044 14.678 17.685 15.178 C 17.197 15.534 16.914 15.527 16.314 15.516 C 16.124 15.514 15.934 15.512 15.738 15.51 C 15.442 15.502 15.442 15.502 15.139 15.493 C 14.939 15.49 14.739 15.488 14.533 15.485 C 14.039 15.477 13.545 15.467 13.052 15.453 C 13.706 13.73 14.533 11.744 16.669 12.049 Z"
      fill="rgb(254,125,15)"></path>
  </g>
</svg>
