<svg width="112" height="50" viewBox="0 0 112 50" fill="none" xmlns="http://www.w3.org/2000/svg">
  <path d="M0 0H7.51383V48.4531H0V0Z" fill="#1D1D1D" />
  <path d="M0 0H7.51383V48.4531H0V0Z" fill="#E45C96" />
  <path
    d="M27.0605 0H35.1165L51.68 34.2502H51.8605V0H58.3768V48.4531H51.4796L33.9185 11.2806H33.6476V48.4531H27.0605V0Z"
    fill="#1D1D1D" />
  <path
    d="M27.0605 0H35.1165L51.68 34.2502H51.8605V0H58.3768V48.4531H51.4796L33.9185 11.2806H33.6476V48.4531H27.0605V0Z"
    fill="#E45C96" />
  <path
    d="M78.0293 0H85.5432V23.853L101.561 0H109.071L96.5017 18.4833L109.263 48.4496H101.29L91.0774 23.7133L85.5432 31.4641V48.4531H78.0293V0Z"
    fill="#1D1D1D" />
  <path
    d="M78.0293 0H85.5432V23.853L101.561 0H109.071L96.5017 18.4833L109.263 48.4496H101.29L91.0774 23.7133L85.5432 31.4641V48.4531H78.0293V0Z"
    fill="#E45C96" />
</svg>
  
