<svg xmlns="http://www.w3.org/2000/svg" width="100" height="20">
  <g>
    <path
      d="M 22.843 2.438 L 20.442 2.438 L 20.442 14.877 L 28.54 14.877 L 28.54 12.74 L 22.843 12.74 Z M 36.036 7.142 C 35.799 6.895 35.525 6.694 35.205 6.53 C 34.721 6.283 34.183 6.155 33.58 6.155 C 32.786 6.155 32.083 6.347 31.471 6.74 C 30.85 7.132 30.366 7.662 30.01 8.329 C 29.654 9.005 29.481 9.763 29.481 10.612 C 29.481 11.461 29.654 12.201 30.01 12.877 C 30.366 13.553 30.85 14.082 31.471 14.466 C 32.092 14.859 32.786 15.05 33.571 15.05 C 34.183 15.05 34.739 14.922 35.223 14.676 C 35.543 14.511 35.817 14.311 36.045 14.073 L 36.045 14.868 L 38.382 14.868 L 38.382 6.329 L 36.045 6.329 L 36.045 7.132 Z M 35.579 12.256 C 35.178 12.694 34.657 12.913 34.009 12.913 C 33.598 12.913 33.224 12.813 32.895 12.612 C 32.567 12.411 32.311 12.137 32.128 11.799 C 31.946 11.461 31.854 11.059 31.854 10.594 C 31.854 10.128 31.946 9.753 32.128 9.406 C 32.311 9.069 32.567 8.795 32.886 8.594 C 33.206 8.393 33.58 8.292 34.009 8.292 C 34.438 8.292 34.822 8.393 35.141 8.585 C 35.461 8.776 35.716 9.05 35.899 9.406 C 36.091 9.763 36.182 10.164 36.182 10.612 C 36.182 11.269 35.981 11.817 35.579 12.256 Z M 46.873 6.621 C 46.38 6.311 45.823 6.155 45.184 6.155 C 44.545 6.155 43.952 6.292 43.441 6.575 C 43.167 6.731 42.92 6.913 42.71 7.132 L 42.71 6.329 L 40.391 6.329 L 40.391 14.877 L 42.71 14.877 L 42.71 9.973 C 42.71 9.644 42.783 9.343 42.929 9.078 C 43.075 8.813 43.276 8.612 43.541 8.466 C 43.796 8.32 44.098 8.256 44.427 8.256 C 44.919 8.256 45.33 8.411 45.65 8.731 C 45.969 9.05 46.124 9.461 46.124 9.973 L 46.124 14.877 L 48.462 14.877 L 48.462 9.443 C 48.462 8.877 48.316 8.347 48.033 7.845 C 47.75 7.343 47.366 6.941 46.873 6.621 Z M 56.341 7.069 C 56.122 6.859 55.866 6.685 55.583 6.539 C 55.09 6.283 54.533 6.155 53.922 6.155 C 53.127 6.155 52.424 6.347 51.812 6.74 C 51.192 7.132 50.699 7.662 50.334 8.329 C 49.968 9.005 49.786 9.763 49.786 10.612 C 49.786 11.461 49.968 12.201 50.334 12.877 C 50.699 13.553 51.192 14.082 51.812 14.466 C 52.433 14.859 53.137 15.05 53.922 15.05 C 54.543 15.05 55.108 14.922 55.602 14.667 C 55.894 14.521 56.14 14.338 56.359 14.128 L 56.359 14.877 L 58.697 14.877 L 58.697 2.082 L 56.341 2.082 L 56.341 7.059 Z M 56.222 11.799 C 56.04 12.137 55.784 12.411 55.455 12.612 C 55.127 12.813 54.753 12.913 54.323 12.913 C 53.894 12.913 53.538 12.813 53.21 12.621 C 52.881 12.429 52.625 12.155 52.443 11.808 C 52.26 11.461 52.169 11.059 52.169 10.594 C 52.169 10.128 52.26 9.744 52.443 9.397 C 52.625 9.05 52.881 8.776 53.2 8.585 C 53.529 8.393 53.903 8.292 54.342 8.292 C 54.78 8.292 55.136 8.393 55.465 8.594 C 55.784 8.795 56.04 9.069 56.222 9.406 C 56.405 9.744 56.496 10.146 56.496 10.612 C 56.496 11.078 56.405 11.452 56.222 11.799 Z M 61.874 2.301 C 61.5 2.301 61.18 2.429 60.933 2.694 C 60.687 2.95 60.559 3.269 60.559 3.635 C 60.559 4 60.687 4.329 60.933 4.585 C 61.18 4.84 61.49 4.968 61.874 4.968 C 62.257 4.968 62.577 4.84 62.823 4.585 C 63.061 4.329 63.188 4.018 63.188 3.635 C 63.188 3.251 63.07 2.959 62.823 2.694 C 62.586 2.438 62.267 2.301 61.874 2.301 Z M 60.687 14.877 L 63.043 14.877 L 63.043 6.329 L 60.687 6.329 Z M 71.57 6.621 C 71.077 6.311 70.52 6.155 69.881 6.155 C 69.242 6.155 68.648 6.292 68.137 6.575 C 67.863 6.731 67.616 6.913 67.406 7.132 L 67.406 6.329 L 65.088 6.329 L 65.088 14.877 L 67.406 14.877 L 67.406 9.973 C 67.406 9.644 67.48 9.343 67.626 9.078 C 67.771 8.813 67.972 8.612 68.237 8.466 C 68.493 8.32 68.794 8.256 69.123 8.256 C 69.616 8.256 70.027 8.411 70.346 8.731 C 70.666 9.05 70.821 9.461 70.821 9.973 L 70.821 14.877 L 73.159 14.877 L 73.159 9.443 C 73.159 8.877 73.012 8.347 72.73 7.845 C 72.447 7.343 72.063 6.941 71.57 6.621 Z M 80.937 6.329 L 80.937 7.041 C 80.718 6.831 80.472 6.658 80.18 6.511 C 79.687 6.274 79.12 6.146 78.5 6.146 C 77.733 6.146 77.039 6.329 76.427 6.703 C 75.816 7.078 75.331 7.58 74.985 8.219 C 74.638 8.859 74.464 9.571 74.464 10.374 C 74.464 11.178 74.638 11.9 74.985 12.548 C 75.331 13.196 75.816 13.708 76.427 14.082 C 77.039 14.457 77.733 14.639 78.5 14.639 C 79.12 14.639 79.678 14.511 80.171 14.265 C 80.453 14.119 80.709 13.945 80.919 13.735 L 80.919 14.475 C 80.919 15.096 80.709 15.598 80.28 15.973 C 79.86 16.347 79.294 16.53 78.582 16.53 C 78.006 16.53 77.514 16.429 77.103 16.219 C 76.692 16.009 76.327 15.717 75.998 15.324 L 74.51 16.795 C 74.93 17.388 75.487 17.845 76.181 18.164 C 76.874 18.484 77.678 18.648 78.591 18.648 C 79.504 18.648 80.298 18.475 80.992 18.128 C 81.686 17.781 82.234 17.288 82.627 16.648 C 83.019 16.009 83.22 15.279 83.22 14.438 L 83.22 6.329 L 80.919 6.329 Z M 80.791 11.507 C 80.618 11.836 80.38 12.082 80.07 12.256 C 79.759 12.429 79.385 12.521 78.947 12.521 C 78.545 12.521 78.18 12.429 77.861 12.247 C 77.532 12.064 77.285 11.808 77.112 11.489 C 76.938 11.16 76.847 10.795 76.847 10.384 C 76.847 9.973 76.938 9.616 77.121 9.297 C 77.304 8.968 77.55 8.722 77.861 8.539 C 78.171 8.356 78.545 8.265 78.965 8.265 C 79.385 8.265 79.741 8.356 80.061 8.539 C 80.38 8.722 80.627 8.977 80.791 9.297 C 80.964 9.626 81.047 9.991 81.047 10.402 C 81.047 10.813 80.964 11.187 80.791 11.507 Z"
      fill="rgb(255,255,255)"></path>
    <path
      d="M 89.712 2.438 L 84.69 14.877 L 87.237 14.877 L 88.123 12.557 L 93.227 12.557 L 94.103 14.877 L 96.669 14.877 L 91.702 2.438 L 89.72 2.438 Z M 88.89 10.539 L 90.679 5.845 L 92.451 10.539 L 88.881 10.539 Z M 96.943 14.877 L 99.344 14.877 L 99.344 2.438 L 96.943 2.438 Z"
      fill="rgb(2,126,234)"></path>
    <path d="M 0 11.991 L 0 16.119 L 3.314 17.9 L 3.314 13.763 Z" fill="rgb(90,184,255)"></path>
    <path d="M 0 7.142 L 0 11.269 L 3.314 13.05 L 3.314 8.913 Z" fill="rgb(2,126,234)"></path>
    <path d="M 0 2.292 L 0 6.42 L 3.314 8.201 L 3.314 4.073 Z" fill="rgb(90,184,255)"></path>
    <path d="M 11.851 13.763 L 11.851 17.9 L 15.165 16.119 L 15.165 11.991 Z" fill="rgb(98,209,52)"></path>
    <path d="M 3.953 8.913 L 3.953 13.05 L 7.267 11.269 L 7.267 7.142 Z" fill="rgb(255,255,255)"></path>
    <path d="M 3.953 4.073 L 3.953 8.201 L 7.267 6.42 L 7.267 2.292 Z" fill="rgb(98,209,52)"></path>
    <path d="M 6.93 1.772 L 3.634 0 L 0.338 1.772 L 3.634 3.534 Z" fill="rgb(255,255,255)"></path>
    <path d="M 3.953 14.091 L 3.953 18.219 L 7.267 20 L 7.267 15.872 Z" fill="rgb(2,126,234)"></path>
    <path d="M 7.907 15.872 L 7.907 20 L 11.221 18.219 L 11.221 14.091 Z" fill="rgb(90,184,255)"></path>
    <path d="M 4.291 13.571 L 7.587 15.342 L 10.874 13.571 L 7.587 11.808 Z" fill="rgb(98,209,52)"></path>
    <path d="M 14.837 11.461 L 11.541 9.699 L 8.245 11.461 L 11.541 13.233 Z"
      fill="rgb(255,255,255)"></path>
  </g>
</svg>
