<svg width="281" height="46" viewBox="0 0 281 46" fill="none" xmlns="http://www.w3.org/2000/svg">
  <g clip-path="url(#clip0_24_463)">
    <path
      d="M42.1074 24.797V1.18262L59.6618 19.7048V2.12877H62.1621V25.8154L44.6077 7.29317V24.7904H42.1074V24.797ZM68.0375 22.4184H79.9906V24.797H63.8529L76.139 4.50729H65.4392V2.12877H80.3301L68.044 22.4184H68.0375ZM190.997 13.4169H200.384V13.9622C200.384 16.4787 199.64 19.1923 198.223 21.1306C197.551 22.0505 195.018 25.2109 189.848 25.2109C183.163 25.2109 178.169 20.0793 178.169 13.4891C178.169 6.89894 183.202 1.76739 189.92 1.76739C192.08 1.76739 194.613 2.31274 196.807 4.00793C197.819 4.78982 198.765 5.80824 199.405 6.69526L197.551 8.39701C196.911 7.47715 196.167 6.66241 195.423 6.05135C194.346 5.16433 192.655 4.14591 189.952 4.14591C184.514 4.14591 180.734 8.25903 180.734 13.522C180.734 19.7048 185.631 22.8324 189.887 22.8324C192.89 22.8324 195.488 21.3015 196.774 19.0281C197.179 18.3119 197.616 17.2278 197.688 15.802H191.003V13.4234L190.997 13.4169ZM208.584 2.13534C210.105 2.13534 212.364 2.24047 214.054 3.3903C215.373 4.27075 216.522 6.00536 216.522 8.41673C216.522 11.8859 214.263 14.4287 210.849 14.6718L218.004 24.797H214.968L208.114 14.8755H207.474V24.797H204.974V2.12877H208.584V2.13534ZM207.467 12.635H209.054C212.161 12.635 214.015 11.1369 214.015 8.489C214.015 7.23404 213.643 5.9725 212.226 5.15776C211.215 4.57956 210.066 4.51386 208.988 4.51386H207.467V12.635ZM220.7 13.4826C220.7 6.72154 225.936 1.76082 232.418 1.76082C238.901 1.76082 244.136 6.72154 244.136 13.4826C244.136 20.2436 238.94 25.2043 232.418 25.2043C225.896 25.2043 220.7 20.2108 220.7 13.4826ZM223.266 13.4826C223.266 18.6798 227.352 22.8258 232.418 22.8258C237.484 22.8258 241.571 18.6798 241.571 13.4826C241.571 8.28532 237.484 4.13934 232.418 4.13934C227.352 4.13934 223.266 8.28532 223.266 13.4826ZM249.868 16.0319C249.868 17.9374 249.868 20.0071 251.657 21.538C252.571 22.3199 254.124 22.8324 255.371 22.8324C256.618 22.8324 258.172 22.3199 259.086 21.538C260.875 20.0071 260.875 17.9374 260.875 16.0319V2.12877H263.375V16.7087C263.375 18.6141 263.173 20.4473 261.958 22.1425C260.607 24.0085 258.244 25.1978 255.378 25.1978C252.512 25.1978 250.142 24.0085 248.797 22.1425C247.583 20.4407 247.381 18.6076 247.381 16.7087V2.12877H249.881V16.0319H249.868ZM273.272 2.12877C275.537 2.12877 277.424 2.39816 278.945 3.7254C280.596 5.15119 281.001 7.15519 281.001 8.58756C281.001 11.7808 279.01 14.9412 273.879 14.9412H271.685V24.797H269.185V2.12877H273.272ZM271.685 12.5627H273.748C276.719 12.5627 278.507 11.0646 278.507 8.44958C278.507 4.84895 275.165 4.50729 273.546 4.50729H271.685V12.5627Z"
      fill="#EF6400" />
    <path
      d="M18.1822 17.0831C20.1543 17.0831 21.7531 15.474 21.7531 13.4891C21.7531 11.5041 20.1543 9.89502 18.1822 9.89502C16.21 9.89502 14.6113 11.5041 14.6113 13.4891C14.6113 15.474 16.21 17.0831 18.1822 17.0831Z"
      fill="white" />
    <path
      d="M31.1526 16.8336H36.8125L31.4855 11.9123C30.7021 5.21697 25.0422 0 18.181 0C11.8617 0 6.56085 4.43508 5.15728 10.3682H0L4.85046 14.8427C5.3923 20.3028 9.18518 24.8102 14.2445 26.3805V43.8186H17.2606L17.2867 36.3611L19.5454 36.3479L19.5128 43.8186H22.4374V26.2688C26.7134 24.8233 30.0232 21.2687 31.1526 16.827V16.8336ZM18.181 24.7445C12.7888 24.7445 8.27776 20.881 7.23325 15.7626L13.0695 10.3748H7.44868C8.80002 5.68347 13.0956 2.24054 18.181 2.24054C23.7692 2.24054 28.3977 6.38652 29.2202 11.7809L23.7496 16.8336H28.8612C27.4446 21.4132 23.1947 24.7445 18.1876 24.7445H18.181Z"
      fill="#EF6400" />
    <path d="M90.9254 4.50742V24.7971H88.4251V4.50742H82.9609V2.12891H96.396V4.50742H90.9254Z"
      fill="white" />
    <path
      d="M106.996 14.6717C110.404 14.4352 112.669 11.8859 112.669 8.41664C112.669 6.00527 111.521 4.27066 110.202 3.39022C108.511 2.23381 106.252 2.13525 104.731 2.13525H101.121V24.7969H103.621V14.8754H104.261L111.116 24.7969H114.151L106.996 14.6717ZM103.621 12.6349V4.5072H105.142C106.22 4.5072 107.369 4.57291 108.38 5.15111C109.797 5.96585 110.169 7.22738 110.169 8.48235C110.169 11.1303 108.315 12.6283 105.208 12.6283H103.621V12.6349Z"
      fill="white" />
    <path
      d="M126.478 1.04492L116.111 24.7972H118.879L121.581 18.4107H131.171L133.802 24.7972H136.57L126.478 1.04492ZM122.561 16.0322L126.412 6.95836L130.192 16.0322H122.561Z"
      fill="white" />
    <path
      d="M153.315 4.78316C150.482 2.37179 147.27 2.13525 145.011 2.13525H140.422V24.7969H144.979C148.993 24.7969 151.154 23.9493 153.217 22.1818C154.836 20.7889 157.167 18.2395 157.167 13.4825C157.167 9.40222 155.378 6.51777 153.315 4.78316ZM151.559 20.3815C149.366 22.2147 146.898 22.4184 145.109 22.4184H142.916V4.5072H145.109C150.815 4.5072 154.595 8.04212 154.595 13.4759C154.595 16.702 153.243 18.9491 151.559 20.3749V20.3815Z"
      fill="white" />
    <path
      d="M173.435 4.50742H164.256V11.2356H173.167V13.6141H164.256V22.4186H173.435V24.7971H161.756V2.12891H173.435V4.50742Z"
      fill="white" />
    <path
      d="M46.3377 35.6842C46.2202 35.4411 46.0179 35.1717 45.8155 35.0074C45.6392 34.8694 45.3193 34.6986 44.8101 34.6986C43.9288 34.6986 43.3086 35.2505 43.3086 36.085C43.3086 36.4332 43.4 36.6369 43.6416 36.8669C43.9092 37.1362 44.2422 37.2874 44.5816 37.4319L45.4368 37.8064C45.9591 38.0364 46.4422 38.2795 46.8143 38.654C47.2713 39.114 47.4606 39.6396 47.4606 40.2835C47.4606 41.9393 46.2398 43.0497 44.6339 43.0497C44.0463 43.0497 43.3086 42.9314 42.6885 42.3204C42.2445 41.8867 41.9769 41.2691 41.8594 40.7303L42.8256 40.4609C42.8908 40.934 43.1063 41.3348 43.3609 41.6107C43.7526 41.9984 44.19 42.1101 44.6469 42.1101C45.8677 42.1101 46.4422 41.2362 46.4422 40.3295C46.4422 39.9221 46.3247 39.5739 45.9983 39.2782C45.7437 39.0351 45.3977 38.8709 44.9276 38.6606L44.1247 38.2861C43.7787 38.1218 43.3348 37.9378 42.93 37.5436C42.5383 37.1625 42.3164 36.7486 42.3164 36.0718C42.3164 34.6855 43.3739 33.7524 44.8232 33.7524C45.3716 33.7524 45.8155 33.8641 46.2594 34.1598C46.6184 34.4029 46.9318 34.7643 47.1276 35.1585L46.3377 35.6842Z"
      fill="white" />
    <path
      d="M50.0053 45.9999H49.0391V37.3006H50.0053V38.0825C50.6647 37.2612 51.5068 37.1626 51.905 37.1626C53.6481 37.1626 54.6142 38.6212 54.6142 40.1325C54.6142 41.6437 53.635 43.0563 51.9507 43.0563C51.0498 43.0563 50.4231 42.649 50.0053 42.1102V45.9933V45.9999ZM53.6219 40.1325C53.6219 38.7592 52.6949 38.0299 51.8006 38.0299C50.9062 38.0299 49.9531 38.7724 49.9531 40.1193C49.9531 41.2626 50.6777 42.1956 51.8136 42.1956C52.9495 42.1956 53.6219 41.2494 53.6219 40.1325Z"
      fill="white" />
    <path
      d="M60.3531 37.307H61.3192V42.905H60.3531V42.1231C60.0332 42.5436 59.426 43.0693 58.4533 43.0693C57.0433 43.0693 55.7441 42.0706 55.7441 40.106C55.7441 38.1414 57.0302 37.1821 58.4533 37.1821C59.524 37.1821 60.0985 37.7735 60.3531 38.1151V37.3201V37.307ZM56.7364 40.0994C56.7364 41.3018 57.4088 42.202 58.5578 42.202C59.7068 42.202 60.4053 41.2164 60.4053 40.1126C60.4053 38.6671 59.413 38.0363 58.5578 38.0363C57.6047 38.0363 56.7364 38.7393 56.7364 40.0994Z"
      fill="white" />
    <path
      d="M63.1348 37.3069H64.101V37.9114C64.1923 37.7603 64.6102 37.1689 65.3609 37.1689C65.6547 37.1689 65.9745 37.2741 66.2161 37.3989L65.7591 38.2728C65.5437 38.1217 65.3413 38.0822 65.1977 38.0822C64.806 38.0822 64.571 38.2465 64.4208 38.4305C64.2576 38.6473 64.101 39.0218 64.101 39.9417V42.8918H63.1348V37.2938V37.3069Z"
      fill="white" />
    <path
      d="M68.0697 33.0691V39.3767L70.1065 37.3005H71.3664L68.9836 39.6987L71.7973 42.892H70.5374L68.3112 40.3426L68.0697 40.5857V42.892H67.1035V33.0625H68.0697V33.0691Z"
      fill="white" />
    <path
      d="M73.2402 34.5015C73.6123 34.5015 73.9256 34.8103 73.9256 35.1914C73.9256 35.5725 73.6188 35.8813 73.2402 35.8813C72.8615 35.8813 72.5547 35.5725 72.5547 35.1914C72.5547 34.8103 72.8615 34.5015 73.2402 34.5015ZM73.7232 37.3071V42.9051H72.7571V37.3071H73.7232Z"
      fill="white" />
    <path
      d="M75.5443 37.3069H76.5106V37.9508C76.6868 37.7209 77.183 37.1689 78.1035 37.1689C78.7628 37.1689 79.3634 37.4383 79.6963 37.9377C79.9771 38.3582 80.0162 38.8116 80.0162 39.4358V42.8984H79.0501V39.462C79.0501 39.127 79.0239 38.7327 78.7955 38.4371C78.6061 38.1939 78.3124 38.0297 77.8815 38.0297C77.5486 38.0297 77.183 38.1217 76.9023 38.4633C76.5302 38.9101 76.4975 39.5672 76.4975 39.9745V42.8984H75.5312V37.3004L75.5443 37.3069Z"
      fill="white" />
    <path
      d="M86.1004 37.3071H87.0666V42.7672C87.0666 43.3717 87.0666 44.239 86.5313 44.9618C86.1135 45.5268 85.3497 45.9999 84.3052 45.9999C83.3521 45.9999 82.6992 45.6188 82.3206 45.2443C81.9485 44.8632 81.596 44.2587 81.596 43.4374H82.5491C82.5491 43.9105 82.7384 44.3244 82.98 44.5938C83.3847 45.0406 83.8939 45.1326 84.3182 45.1326C85.0037 45.1326 85.4737 44.8895 85.7936 44.3507C86.0743 43.8908 86.1004 43.3914 86.1004 42.9183V42.1102C85.7806 42.5307 85.1734 43.0563 84.2007 43.0563C83.3847 43.0563 82.7254 42.7344 82.301 42.3007C81.9289 41.9262 81.498 41.2232 81.498 40.0865C81.498 38.9498 81.9028 38.319 82.301 37.9182C82.771 37.4583 83.4565 37.1626 84.2007 37.1626C85.0167 37.1626 85.663 37.5108 86.1004 38.0956V37.3006V37.3071ZM83.0452 38.5621C82.5752 39.0483 82.4838 39.6397 82.4838 40.0996C82.4838 40.5858 82.5752 41.2429 83.1105 41.7422C83.4173 42.0248 83.796 42.2022 84.3052 42.2022C84.8144 42.2022 85.2191 42.0379 85.5259 41.7291C85.8981 41.3677 86.1527 40.7698 86.1527 40.1127C86.1527 39.4557 85.9111 38.8709 85.5651 38.5358C85.2583 38.227 84.8013 38.0365 84.3052 38.0365C83.7176 38.0365 83.3129 38.2927 83.0452 38.5621Z"
      fill="white" />
    <path
      d="M93.2358 37.7602L97.0417 33.9033H98.38L94.2019 38.0953L98.5171 42.8983H97.1527L93.4969 38.7721L93.2423 39.0283V42.8983H92.25V33.9033H93.2423V37.7602H93.2358Z"
      fill="white" />
    <path
      d="M100.098 34.5015C100.47 34.5015 100.784 34.8103 100.784 35.1914C100.784 35.5725 100.477 35.8813 100.098 35.8813C99.7189 35.8813 99.4121 35.5725 99.4121 35.1914C99.4121 34.8103 99.7189 34.5015 100.098 34.5015ZM100.581 37.3071V42.9051H99.6145V37.3071H100.581Z"
      fill="white" />
    <path
      d="M102.67 37.307L104.315 41.1113L106.058 36.8799L107.788 41.1113L109.446 37.307H110.517L107.756 43.2927L106.039 39.1138L104.322 43.2927L101.586 37.307H102.657H102.67Z"
      fill="white" />
    <path
      d="M112.024 34.5015C112.396 34.5015 112.709 34.8103 112.709 35.1914C112.709 35.5725 112.402 35.8813 112.024 35.8813C111.645 35.8813 111.338 35.5725 111.338 35.1914C111.338 34.8103 111.645 34.5015 112.024 34.5015ZM112.507 37.3071V42.9051H111.541V37.3071H112.507Z"
      fill="white" />
    <path
      d="M122.378 41.4729C122.214 41.7817 121.973 42.1234 121.692 42.3796C121.183 42.8395 120.556 43.0695 119.845 43.0695C118.506 43.0695 117.096 42.2219 117.096 40.1456C117.096 38.4767 118.115 37.1758 119.792 37.1758C120.876 37.1758 121.561 37.7146 121.894 38.2008C122.24 38.7001 122.443 39.5609 122.417 40.3033H118.088C118.102 41.4597 118.891 42.2022 119.858 42.2022C120.315 42.2022 120.674 42.0642 120.994 41.7948C121.248 41.578 121.451 41.2955 121.568 41.0261L122.371 41.4729H122.378ZM121.424 39.4886C121.261 38.6147 120.608 38.0299 119.792 38.0299C118.976 38.0299 118.304 38.6476 118.16 39.4886H121.431H121.424Z"
      fill="white" />
    <path d="M124.853 33.0688V42.8983H123.887V33.0688H124.853Z" fill="white" />
    <path
      d="M131.607 41.4729C131.444 41.7817 131.203 42.1234 130.922 42.3796C130.413 42.8395 129.786 43.0695 129.075 43.0695C127.736 43.0695 126.326 42.2219 126.326 40.1456C126.326 38.4767 127.345 37.1758 129.022 37.1758C130.106 37.1758 130.791 37.7146 131.124 38.2008C131.47 38.7001 131.673 39.5609 131.647 40.3033H127.318C127.331 41.4597 128.121 42.2022 129.088 42.2022C129.545 42.2022 129.904 42.0642 130.223 41.7948C130.478 41.578 130.68 41.2955 130.798 41.0261L131.601 41.4729H131.607ZM130.654 39.4886C130.491 38.6147 129.838 38.0299 129.022 38.0299C128.206 38.0299 127.534 38.6476 127.39 39.4886H130.661H130.654Z"
      fill="white" />
    <path
      d="M137.471 38.871C136.962 38.2271 136.224 38.0365 135.728 38.0365C134.697 38.0365 133.756 38.7658 133.756 40.1259C133.756 41.486 134.723 42.2022 135.715 42.2022C136.289 42.2022 137.001 41.946 137.51 41.3283V42.4913C136.91 42.9381 136.263 43.0695 135.741 43.0695C134.011 43.0695 132.764 41.8277 132.764 40.1456C132.764 38.4636 134.024 37.1758 135.741 37.1758C136.622 37.1758 137.203 37.524 137.471 37.7146V38.871Z"
      fill="white" />
    <path
      d="M139.978 38.1939V42.8984H139.011V38.1939H138.424V37.3069H139.011V35.2832H139.978V37.3069H140.944V38.1939H139.978Z"
      fill="white" />
    <path
      d="M141.852 37.3069H142.818V37.9114C142.909 37.7603 143.327 37.1689 144.078 37.1689C144.371 37.1689 144.691 37.2741 144.933 37.3989L144.476 38.2728C144.26 38.1217 144.058 38.0822 143.914 38.0822C143.523 38.0822 143.288 38.2465 143.138 38.4305C142.974 38.6473 142.818 39.0218 142.818 39.9417V42.8918H141.852V37.2938V37.3069Z"
      fill="white" />
    <path
      d="M146.303 34.5015C146.675 34.5015 146.988 34.8103 146.988 35.1914C146.988 35.5725 146.681 35.8813 146.303 35.8813C145.924 35.8813 145.617 35.5725 145.617 35.1914C145.617 34.8103 145.924 34.5015 146.303 34.5015ZM146.786 37.3071V42.9051H145.82V37.3071H146.786Z"
      fill="white" />
    <path
      d="M152.963 38.871C152.454 38.2271 151.716 38.0365 151.22 38.0365C150.189 38.0365 149.249 38.7658 149.249 40.1259C149.249 41.486 150.215 42.2022 151.207 42.2022C151.782 42.2022 152.493 41.946 153.002 41.3283V42.4913C152.402 42.9381 151.755 43.0695 151.233 43.0695C149.503 43.0695 148.256 41.8277 148.256 40.1456C148.256 38.4636 149.516 37.1758 151.233 37.1758C152.115 37.1758 152.696 37.524 152.963 37.7146V38.871Z"
      fill="white" />
    <path
      d="M154.954 34.5015C155.326 34.5015 155.639 34.8103 155.639 35.1914C155.639 35.5725 155.332 35.8813 154.954 35.8813C154.575 35.8813 154.268 35.5725 154.268 35.1914C154.268 34.8103 154.575 34.5015 154.954 34.5015ZM155.437 37.3071V42.9051H154.47V37.3071H155.437Z"
      fill="white" />
    <path
      d="M161.521 37.307H162.487V42.905H161.521V42.1231C161.201 42.5436 160.594 43.0693 159.621 43.0693C158.211 43.0693 156.912 42.0706 156.912 40.106C156.912 38.1414 158.198 37.1821 159.621 37.1821C160.692 37.1821 161.266 37.7735 161.521 38.1151V37.3201V37.307ZM157.904 40.0994C157.904 41.3018 158.577 42.202 159.726 42.202C160.875 42.202 161.573 41.2164 161.573 40.1126C161.573 38.6671 160.581 38.0363 159.726 38.0363C158.773 38.0363 157.904 38.7393 157.904 40.0994Z"
      fill="white" />
    <path
      d="M164.308 37.3069H165.275V37.9508C165.451 37.7209 165.947 37.1689 166.868 37.1689C167.527 37.1689 168.127 37.4383 168.46 37.9377C168.741 38.3582 168.78 38.8116 168.78 39.4358V42.8984H167.814V39.462C167.814 39.127 167.788 38.7327 167.56 38.4371C167.37 38.1939 167.076 38.0297 166.646 38.0297C166.313 38.0297 165.947 38.1217 165.666 38.4633C165.294 38.9101 165.262 39.5672 165.262 39.9745V42.8984H164.295V37.3004L164.308 37.3069Z"
      fill="white" />
    <path
      d="M172.894 38.6014C172.757 38.2794 172.476 38.0363 172.117 38.0363C171.758 38.0363 171.445 38.24 171.445 38.6671C171.445 39.0744 171.713 39.1927 172.346 39.4621C173.149 39.7972 173.527 40.0534 173.736 40.3228C173.978 40.6185 174.03 40.9142 174.03 41.2296C174.03 42.4057 173.188 43.0627 172.117 43.0627C171.889 43.0627 170.642 43.0364 170.172 41.6369L171.001 41.2887C171.105 41.5844 171.432 42.2086 172.124 42.2086C172.751 42.2086 173.038 41.7355 173.038 41.3215C173.038 40.7959 172.666 40.6185 172.137 40.3885C171.464 40.0929 171.04 39.876 170.786 39.5672C170.57 39.2978 170.531 39.0284 170.531 38.7459C170.531 37.7603 171.216 37.1821 172.15 37.1821C172.444 37.1821 173.234 37.2347 173.678 38.194L172.888 38.6145L172.894 38.6014Z"
      fill="white" />
  </g>
  <defs>
    <clipPath id="clip0_24_463">
      <rect width="281" height="46" fill="white" />
    </clipPath>
  </defs>
</svg>
  
