<svg xmlns="http://www.w3.org/2000/svg" width="90" height="20">
  <path
    d="M 2.331 1.281 C 2.397 1.28 2.463 1.279 2.532 1.278 C 2.754 1.276 2.977 1.277 3.199 1.277 C 3.359 1.277 3.518 1.275 3.678 1.274 C 4.111 1.272 4.545 1.271 4.978 1.271 C 5.34 1.271 5.702 1.27 6.064 1.269 C 6.918 1.267 7.772 1.266 8.626 1.267 C 9.506 1.267 10.387 1.264 11.268 1.26 C 12.024 1.256 12.78 1.254 13.536 1.255 C 13.988 1.255 14.44 1.254 14.891 1.251 C 15.316 1.248 15.741 1.248 16.166 1.251 C 16.322 1.251 16.477 1.251 16.633 1.249 C 17.955 1.235 17.955 1.235 18.406 1.621 C 18.551 1.782 18.551 1.782 18.678 1.947 C 18.775 2.058 18.873 2.168 18.97 2.279 C 19.02 2.338 19.069 2.396 19.12 2.457 C 19.331 2.695 19.554 2.918 19.78 3.142 C 20.107 3.466 20.417 3.799 20.716 4.151 C 20.923 4.384 21.144 4.603 21.365 4.823 C 21.752 5.206 22.117 5.601 22.467 6.018 C 22.532 6.093 22.532 6.093 22.599 6.17 C 22.916 6.539 23.006 6.783 23.008 7.265 C 23.008 7.359 23.009 7.452 23.009 7.548 C 23.009 7.701 23.009 7.701 23.01 7.858 C 23.01 7.966 23.01 8.074 23.011 8.185 C 23.012 8.481 23.013 8.776 23.013 9.072 C 23.013 9.257 23.014 9.442 23.014 9.627 C 23.015 10.206 23.016 10.785 23.016 11.364 C 23.017 12.032 23.018 12.7 23.021 13.368 C 23.023 13.884 23.024 14.401 23.024 14.917 C 23.024 15.226 23.024 15.534 23.026 15.842 C 23.028 16.186 23.027 16.531 23.027 16.875 C 23.028 16.977 23.028 17.078 23.029 17.183 C 23.026 17.717 22.998 18.117 22.731 18.584 C 22.47 18.715 22.205 18.687 21.92 18.687 C 21.853 18.688 21.787 18.688 21.719 18.689 C 21.496 18.691 21.273 18.691 21.05 18.692 C 20.89 18.693 20.731 18.694 20.571 18.696 C 20.047 18.699 19.522 18.701 18.997 18.703 C 18.908 18.703 18.818 18.704 18.726 18.704 C 17.885 18.707 17.043 18.71 16.201 18.712 C 15.124 18.714 14.048 18.719 12.971 18.726 C 12.214 18.731 11.457 18.734 10.7 18.734 C 10.248 18.735 9.795 18.737 9.343 18.741 C 8.918 18.745 8.492 18.746 8.066 18.744 C 7.91 18.744 7.754 18.745 7.598 18.748 C 6.274 18.766 6.274 18.766 5.823 18.379 C 5.678 18.218 5.678 18.218 5.551 18.053 C 5.454 17.942 5.356 17.832 5.259 17.721 C 5.184 17.633 5.184 17.633 5.108 17.543 C 4.898 17.305 4.675 17.082 4.449 16.858 C 4.122 16.534 3.812 16.201 3.513 15.849 C 3.306 15.616 3.085 15.397 2.864 15.177 C 2.477 14.794 2.111 14.4 1.762 13.982 C 1.651 13.881 1.651 13.881 1.536 13.777 C 1.19 13.355 1.261 12.837 1.266 12.316 C 1.266 12.202 1.265 12.088 1.264 11.97 C 1.263 11.657 1.264 11.345 1.265 11.032 C 1.267 10.705 1.266 10.378 1.266 10.05 C 1.265 9.501 1.267 8.952 1.269 8.402 C 1.272 7.767 1.272 7.132 1.27 6.497 C 1.269 5.885 1.27 5.274 1.271 4.662 C 1.272 4.402 1.272 4.142 1.271 3.882 C 1.27 3.519 1.272 3.157 1.275 2.794 C 1.274 2.686 1.274 2.578 1.273 2.466 C 1.275 2.318 1.275 2.318 1.276 2.167 C 1.277 2.081 1.277 1.996 1.277 1.907 C 1.393 1.319 1.809 1.276 2.331 1.281 Z M 2.731 2.832 C 2.731 5.957 2.731 9.081 2.731 12.301 C 7.238 12.301 11.744 12.301 16.388 12.301 C 16.417 11.396 16.446 10.49 16.476 9.558 C 16.563 9.382 16.65 9.207 16.74 9.027 C 17.07 8.936 17.389 8.878 17.709 9.027 C 17.792 9.277 17.81 9.438 17.813 9.698 C 17.814 9.822 17.814 9.822 17.816 9.947 C 17.817 10.036 17.818 10.124 17.818 10.215 C 17.819 10.306 17.82 10.398 17.82 10.491 C 17.822 10.684 17.823 10.877 17.823 11.07 C 17.825 11.365 17.829 11.66 17.832 11.955 C 17.833 12.142 17.834 12.329 17.835 12.516 C 17.836 12.605 17.838 12.693 17.839 12.784 C 17.839 12.907 17.839 12.907 17.839 13.034 C 17.839 13.106 17.84 13.178 17.84 13.253 C 17.78 13.532 17.666 13.628 17.445 13.805 C 17.19 13.85 17.19 13.85 16.887 13.851 C 16.715 13.853 16.715 13.853 16.54 13.855 C 16.413 13.855 16.286 13.854 16.159 13.854 C 16.026 13.854 15.892 13.855 15.758 13.856 C 15.395 13.859 15.032 13.859 14.669 13.859 C 14.29 13.859 13.911 13.862 13.531 13.864 C 12.813 13.867 12.095 13.869 11.376 13.87 C 10.559 13.872 9.741 13.875 8.923 13.879 C 7.241 13.886 5.559 13.891 3.877 13.894 C 3.913 13.936 3.95 13.979 3.987 14.023 C 4.035 14.079 4.083 14.135 4.132 14.192 C 4.179 14.248 4.226 14.303 4.275 14.36 C 4.369 14.47 4.462 14.581 4.555 14.691 C 4.913 15.113 5.298 15.501 5.689 15.89 C 6.001 16.2 6.297 16.52 6.581 16.856 C 6.796 17.121 6.796 17.121 7.122 17.19 C 7.23 17.19 7.338 17.19 7.449 17.189 C 7.539 17.19 7.539 17.19 7.63 17.19 C 7.832 17.19 8.033 17.189 8.235 17.188 C 8.379 17.188 8.523 17.188 8.667 17.188 C 9.059 17.188 9.451 17.187 9.843 17.186 C 10.253 17.185 10.662 17.185 11.072 17.185 C 11.847 17.184 12.623 17.183 13.399 17.181 C 14.447 17.179 15.495 17.178 16.543 17.177 C 18.194 17.175 19.846 17.171 21.498 17.168 C 21.498 14.043 21.498 10.919 21.498 7.699 C 16.991 7.699 12.485 7.699 7.841 7.699 C 7.812 8.634 7.783 9.568 7.753 10.531 C 7.577 10.885 7.577 10.885 7.401 10.973 C 6.886 11.015 6.886 11.015 6.696 10.973 C 6.463 10.72 6.399 10.552 6.4 10.21 C 6.4 10.129 6.4 10.049 6.4 9.966 C 6.401 9.879 6.402 9.793 6.403 9.704 C 6.403 9.615 6.403 9.525 6.403 9.433 C 6.404 9.245 6.405 9.057 6.407 8.868 C 6.41 8.579 6.411 8.291 6.411 8.002 C 6.412 7.819 6.413 7.636 6.414 7.453 C 6.414 7.366 6.415 7.28 6.415 7.19 C 6.416 7.11 6.417 7.03 6.418 6.947 C 6.418 6.876 6.419 6.806 6.419 6.733 C 6.432 6.549 6.432 6.549 6.52 6.283 C 6.81 6.165 7.117 6.182 7.426 6.181 C 7.54 6.18 7.654 6.179 7.772 6.178 C 7.898 6.178 8.024 6.177 8.15 6.177 C 8.283 6.176 8.415 6.175 8.548 6.174 C 8.909 6.171 9.269 6.17 9.63 6.168 C 10.007 6.166 10.384 6.163 10.761 6.161 C 11.474 6.157 12.188 6.153 12.901 6.149 C 13.714 6.145 14.526 6.14 15.339 6.135 C 17.01 6.125 18.681 6.115 20.352 6.106 C 20.316 6.064 20.279 6.021 20.242 5.977 C 20.194 5.921 20.147 5.865 20.097 5.808 C 20.026 5.725 20.026 5.725 19.954 5.64 C 19.859 5.529 19.765 5.417 19.671 5.306 C 19.37 4.952 19.052 4.619 18.722 4.292 C 18.382 3.954 18.057 3.611 17.748 3.244 C 17.706 3.196 17.664 3.147 17.621 3.097 C 17.587 3.051 17.553 3.005 17.518 2.957 C 17.274 2.768 17.074 2.799 16.77 2.8 C 16.71 2.8 16.65 2.799 16.588 2.799 C 16.387 2.799 16.185 2.8 15.984 2.802 C 15.84 2.802 15.696 2.802 15.552 2.802 C 15.16 2.802 14.768 2.803 14.377 2.805 C 13.967 2.807 13.558 2.807 13.149 2.807 C 12.374 2.808 11.599 2.81 10.824 2.813 C 9.777 2.816 8.729 2.818 7.682 2.819 C 6.032 2.822 4.382 2.827 2.731 2.832 Z"
    fill="rgb(236,49,49)"></path>
  <path
    d="M 54.36 5.221 C 54.912 5.221 55.465 5.221 56.034 5.221 C 56.063 7.032 56.092 8.842 56.122 10.708 C 56.849 10.053 56.849 10.053 57.543 9.369 C 57.888 9.018 58.238 8.681 58.614 8.363 C 58.774 8.229 58.774 8.229 58.921 8.047 C 59.165 7.835 59.277 7.834 59.595 7.842 C 59.731 7.843 59.731 7.843 59.869 7.845 C 60.009 7.849 60.009 7.849 60.153 7.854 C 60.295 7.856 60.295 7.856 60.441 7.859 C 60.675 7.863 60.91 7.869 61.144 7.876 C 60.811 8.277 60.465 8.656 60.092 9.021 C 59.736 9.374 59.395 9.733 59.071 10.116 C 58.891 10.324 58.698 10.516 58.501 10.708 C 58.63 11.1 58.844 11.388 59.101 11.704 C 59.189 11.813 59.276 11.923 59.363 12.032 C 59.409 12.09 59.455 12.148 59.502 12.207 C 59.753 12.525 59.997 12.847 60.241 13.169 C 60.595 13.636 60.95 14.101 61.313 14.56 C 61.408 14.69 61.408 14.69 61.408 14.779 C 59.721 14.959 59.721 14.959 59.205 14.684 C 58.912 14.435 58.712 14.122 58.515 13.794 C 58.343 13.516 58.14 13.265 57.939 13.009 C 57.871 12.918 57.803 12.826 57.733 12.732 C 57.532 12.479 57.324 12.26 57.091 12.035 C 56.979 12.133 56.867 12.231 56.755 12.329 C 56.662 12.41 56.662 12.41 56.566 12.493 C 56.507 12.547 56.448 12.6 56.386 12.655 C 56.34 12.693 56.293 12.731 56.246 12.771 C 56.082 12.969 56.085 13.097 56.077 13.353 C 56.074 13.436 56.071 13.519 56.068 13.604 C 56.066 13.691 56.064 13.777 56.062 13.866 C 56.058 13.954 56.055 14.041 56.052 14.131 C 56.045 14.347 56.039 14.563 56.034 14.779 C 55.481 14.779 54.929 14.779 54.36 14.779 C 54.36 11.625 54.36 8.471 54.36 5.221 Z"
    fill="rgb(255,255,255)"></path>
  <path
    d="M 80.411 8.425 C 81.115 8.971 81.501 9.759 81.673 10.619 C 81.673 11.028 81.673 11.437 81.673 11.858 C 79.928 11.858 78.184 11.858 76.387 11.858 C 76.649 12.45 76.649 12.45 77.036 12.865 C 77.084 12.906 77.132 12.947 77.181 12.989 C 77.774 13.358 78.444 13.337 79.118 13.274 C 79.499 13.165 79.805 13.001 80.12 12.76 C 80.167 12.725 80.214 12.691 80.263 12.655 C 80.596 12.766 80.683 12.915 80.896 13.191 C 80.959 13.273 81.022 13.354 81.087 13.438 C 81.135 13.501 81.183 13.564 81.232 13.628 C 80.761 14.28 80.166 14.61 79.382 14.779 C 78.154 14.878 76.92 14.869 75.929 14.043 C 75.234 13.391 74.754 12.68 74.692 11.706 C 74.663 10.591 74.818 9.699 75.594 8.85 C 76.894 7.502 78.866 7.439 80.411 8.425 Z M 76.739 9.735 C 76.508 10.06 76.387 10.297 76.387 10.708 C 77.607 10.708 78.829 10.708 80.087 10.708 C 79.834 9.944 79.742 9.699 79.118 9.292 C 78.298 8.965 77.371 9.082 76.739 9.735 Z"
    fill="rgb(255,255,255)"></path>
  <path
    d="M 44.538 8.5 C 45.198 9.022 45.658 9.692 45.814 10.531 C 45.886 11.669 45.823 12.64 45.076 13.56 C 44.408 14.292 43.589 14.761 42.583 14.808 C 41.314 14.831 40.273 14.658 39.316 13.747 C 38.603 12.961 38.373 12.067 38.391 11.017 C 38.452 10.153 38.795 9.359 39.402 8.738 C 40.837 7.503 42.992 7.432 44.538 8.5 Z M 40.577 9.834 C 40.204 10.333 40.055 10.895 40.093 11.515 C 40.192 12.186 40.454 12.664 40.988 13.081 C 41.513 13.433 42.14 13.445 42.746 13.325 C 43.229 13.172 43.577 12.887 43.875 12.478 C 44.172 11.899 44.238 11.29 44.085 10.66 C 43.89 10.083 43.592 9.711 43.083 9.381 C 42.226 9.027 41.235 9.14 40.577 9.834 Z"
    fill="rgb(255,255,255)"></path>
  <path
    d="M 67.052 8.431 C 67.552 8.879 67.813 9.484 67.855 10.152 C 67.86 10.44 67.86 10.729 67.857 11.017 C 67.857 11.123 67.856 11.228 67.856 11.336 C 67.855 11.671 67.853 12.005 67.851 12.34 C 67.85 12.567 67.849 12.794 67.848 13.022 C 67.846 13.578 67.843 14.134 67.84 14.69 C 67.345 14.69 66.851 14.69 66.342 14.69 C 66.313 14.515 66.284 14.34 66.254 14.159 C 66.118 14.263 66.118 14.263 65.979 14.369 C 65.252 14.924 64.302 14.857 63.434 14.779 C 63.127 14.708 62.899 14.607 62.642 14.425 C 62.584 14.385 62.527 14.346 62.468 14.305 C 62.108 14.027 61.851 13.731 61.761 13.274 C 61.655 12.08 61.655 12.08 62.025 11.593 C 62.566 10.992 63.123 10.74 63.93 10.687 C 64.283 10.682 64.635 10.685 64.988 10.691 C 65.111 10.693 65.234 10.694 65.358 10.695 C 65.656 10.698 65.955 10.702 66.254 10.708 C 66.217 10.566 66.177 10.424 66.138 10.282 C 66.117 10.203 66.095 10.124 66.073 10.043 C 65.942 9.697 65.77 9.577 65.461 9.381 C 64.639 9.106 63.755 9.281 62.994 9.646 C 62.907 9.704 62.82 9.763 62.73 9.823 C 62.642 9.823 62.555 9.823 62.466 9.823 C 62.377 9.65 62.289 9.477 62.201 9.303 C 62.152 9.207 62.103 9.11 62.053 9.011 C 61.937 8.761 61.937 8.761 61.937 8.584 C 63.529 7.733 65.458 7.273 67.052 8.431 Z M 63.434 12.212 C 63.307 12.469 63.314 12.635 63.346 12.92 C 63.527 13.224 63.71 13.426 64.051 13.54 C 64.685 13.601 65.238 13.625 65.761 13.228 C 66.026 12.981 66.24 12.76 66.267 12.384 C 66.265 12.29 66.265 12.29 66.262 12.195 C 66.26 12.084 66.257 11.973 66.254 11.858 C 65.883 11.848 65.512 11.842 65.142 11.836 C 65.037 11.833 64.932 11.83 64.824 11.827 C 64.057 11.814 64.057 11.814 63.434 12.212 Z"
    fill="rgb(255,255,255)"></path>
  <path
    d="M 87.637 8.333 C 88.115 8.716 88.394 9.235 88.544 9.823 C 88.569 10.195 88.565 10.567 88.562 10.94 C 88.562 11.047 88.561 11.154 88.561 11.265 C 88.56 11.606 88.558 11.948 88.556 12.29 C 88.555 12.522 88.554 12.754 88.553 12.986 C 88.551 13.554 88.548 14.122 88.544 14.69 C 88.05 14.69 87.556 14.69 87.047 14.69 C 87.018 14.515 86.989 14.34 86.959 14.159 C 86.823 14.263 86.823 14.263 86.684 14.369 C 85.977 14.909 85.072 14.859 84.227 14.779 C 83.612 14.639 83.089 14.347 82.708 13.834 C 82.404 13.323 82.389 12.793 82.465 12.212 C 82.612 11.711 82.894 11.328 83.346 11.062 C 84.119 10.677 84.851 10.664 85.698 10.686 C 85.821 10.688 85.944 10.689 86.066 10.691 C 86.364 10.695 86.661 10.701 86.959 10.708 C 86.917 10.566 86.874 10.424 86.832 10.282 C 86.809 10.203 86.785 10.124 86.761 10.043 C 86.712 9.88 86.66 9.719 86.606 9.558 C 86.397 9.453 86.397 9.453 86.166 9.381 C 86.079 9.351 85.991 9.322 85.901 9.292 C 84.972 9.224 84.232 9.338 83.434 9.823 C 83.088 9.707 83.057 9.573 82.889 9.253 C 82.843 9.166 82.796 9.078 82.748 8.988 C 82.642 8.761 82.642 8.761 82.642 8.584 C 84.194 7.743 86.048 7.318 87.637 8.333 Z M 84.139 12.212 C 84.034 12.556 84.014 12.741 84.15 13.075 C 84.402 13.379 84.635 13.523 85.028 13.578 C 85.822 13.579 86.186 13.491 86.777 12.948 C 86.963 12.647 86.98 12.573 86.97 12.238 C 86.968 12.167 86.967 12.096 86.965 12.022 C 86.963 11.968 86.961 11.914 86.959 11.858 C 86.588 11.848 86.217 11.842 85.846 11.836 C 85.742 11.833 85.637 11.83 85.529 11.827 C 84.759 11.81 84.759 11.81 84.139 12.212 Z"
    fill="rgb(255,255,255)"></path>
  <path
    d="M 32.246 8.407 C 32.043 8.816 31.839 9.225 31.629 9.646 C 31.526 9.606 31.422 9.566 31.315 9.524 C 30.475 9.246 29.484 9.047 28.634 9.381 C 28.436 9.499 28.436 9.499 28.281 9.646 C 28.223 9.867 28.223 9.867 28.281 10.089 C 28.548 10.34 28.797 10.412 29.151 10.487 C 29.253 10.509 29.354 10.531 29.458 10.554 C 29.671 10.597 29.884 10.639 30.097 10.68 C 30.86 10.829 31.631 10.992 32.163 11.604 C 32.497 12.101 32.473 12.605 32.422 13.186 C 32.287 13.706 31.989 14.015 31.555 14.314 C 30.473 14.944 28.951 14.977 27.756 14.689 C 27.25 14.543 26.787 14.357 26.343 14.071 C 26.479 13.586 26.709 13.176 26.96 12.743 C 27.055 12.781 27.151 12.818 27.25 12.856 C 27.377 12.905 27.504 12.954 27.632 13.003 C 27.694 13.028 27.757 13.052 27.822 13.078 C 28.677 13.405 29.613 13.521 30.484 13.186 C 30.691 13.018 30.691 13.018 30.671 12.732 C 30.668 12.648 30.664 12.564 30.66 12.478 C 30.08 12.125 29.423 12.065 28.764 11.953 C 28.028 11.818 27.249 11.642 26.778 11.012 C 26.482 10.485 26.416 9.936 26.576 9.347 C 26.807 8.76 27.144 8.401 27.706 8.122 C 29.109 7.529 30.935 7.617 32.246 8.407 Z"
    fill="rgb(255,255,255)"></path>
  <path
    d="M 52.343 8.36 C 52.715 8.662 53.062 9.009 53.215 9.469 C 52.604 9.819 52.604 9.819 51.981 10.177 C 51.836 10.031 51.69 9.885 51.541 9.735 C 51.065 9.424 50.619 9.206 50.043 9.292 C 49.464 9.425 49.022 9.729 48.633 10.177 C 48.352 10.64 48.301 11.15 48.369 11.681 C 48.5 12.21 48.71 12.648 49.173 12.957 C 49.696 13.251 50.152 13.38 50.748 13.274 C 51.222 13.12 51.525 12.899 51.805 12.478 C 52.163 12.529 52.408 12.645 52.713 12.837 C 52.83 12.91 52.83 12.91 52.949 12.984 C 53.008 13.022 53.066 13.059 53.126 13.097 C 53.057 13.522 52.915 13.782 52.598 14.071 C 51.601 14.784 50.617 14.883 49.426 14.779 C 48.507 14.59 47.669 14.05 47.135 13.274 C 46.578 12.356 46.458 11.343 46.706 10.299 C 47.01 9.309 47.547 8.644 48.451 8.164 C 49.698 7.581 51.177 7.577 52.343 8.36 Z"
    fill="rgb(255,255,255)"></path>
  <path
    d="M 34.172 6.45 C 34.241 6.451 34.311 6.451 34.383 6.452 C 34.496 6.452 34.496 6.452 34.611 6.452 C 34.69 6.453 34.769 6.454 34.851 6.455 C 34.93 6.455 35.009 6.455 35.091 6.456 C 35.288 6.457 35.485 6.458 35.682 6.46 C 35.682 6.986 35.682 7.512 35.682 8.053 C 36.322 8.053 36.961 8.053 37.62 8.053 C 37.62 8.491 37.62 8.929 37.62 9.381 C 36.981 9.381 36.341 9.381 35.682 9.381 C 35.691 9.85 35.7 10.319 35.71 10.788 C 35.713 10.948 35.716 11.107 35.719 11.267 C 35.723 11.496 35.728 11.726 35.734 11.956 C 35.735 12.027 35.736 12.098 35.737 12.17 C 35.747 12.571 35.797 12.897 35.946 13.274 C 36.554 13.357 37.034 13.375 37.62 13.186 C 37.694 13.342 37.768 13.499 37.841 13.656 C 37.882 13.743 37.922 13.831 37.965 13.92 C 38.061 14.159 38.061 14.159 38.061 14.425 C 37.259 14.868 36.336 14.913 35.448 14.731 C 35.269 14.668 35.269 14.668 34.977 14.513 C 34.885 14.468 34.792 14.422 34.696 14.375 C 34.172 13.919 33.997 13.329 33.92 12.655 C 33.909 12.396 33.91 12.137 33.911 11.878 C 33.912 11.806 33.912 11.735 33.912 11.661 C 33.912 11.433 33.913 11.206 33.915 10.979 C 33.915 10.824 33.915 10.669 33.916 10.514 C 33.917 10.136 33.918 9.758 33.92 9.381 C 33.542 9.381 33.164 9.381 32.775 9.381 C 32.775 8.942 32.775 8.504 32.775 8.053 C 33.153 8.053 33.531 8.053 33.92 8.053 C 33.918 7.892 33.918 7.892 33.917 7.727 C 33.916 7.587 33.915 7.447 33.915 7.306 C 33.914 7.235 33.913 7.164 33.912 7.091 C 33.911 6.91 33.915 6.729 33.92 6.549 C 34.008 6.46 34.008 6.46 34.172 6.45 Z"
    fill="rgb(255,255,255)"></path>
  <path
    d="M 73.919 7.788 C 73.919 8.313 73.919 8.839 73.919 9.381 C 73.701 9.391 73.701 9.391 73.479 9.403 C 72.885 9.458 72.456 9.606 72.036 10.039 C 71.7 10.571 71.687 11.025 71.68 11.642 C 71.679 11.731 71.677 11.821 71.675 11.914 C 71.67 12.199 71.666 12.485 71.662 12.771 C 71.658 12.965 71.655 13.159 71.652 13.353 C 71.643 13.828 71.636 14.304 71.629 14.779 C 71.076 14.779 70.524 14.779 69.955 14.779 C 69.955 12.501 69.955 10.223 69.955 7.876 C 70.478 7.876 71.001 7.876 71.54 7.876 C 71.57 8.11 71.599 8.343 71.629 8.584 C 71.703 8.517 71.778 8.449 71.855 8.379 C 72.492 7.846 73.114 7.788 73.919 7.788 Z"
    fill="rgb(255,255,255)"></path>
</svg>
