<svg width="148" height="50" viewBox="0 0 148 50" fill="none" xmlns="http://www.w3.org/2000/svg">
<path d="M2.37305 10.9177C3.99172 10.9177 5.61039 10.9177 7.27811 10.9177C8.67318 14.5449 10.0408 18.1813 11.3951 21.8238C11.4583 21.9939 11.5216 22.164 11.5867 22.3392C11.6497 22.5085 11.7126 22.6778 11.7775 22.8523C12.4206 24.5814 13.0678 26.3089 13.716 28.036C13.7676 28.1736 13.8193 28.3111 13.8724 28.4529C14.1531 29.2007 14.4339 29.9485 14.7148 30.6962C15.4514 29.2557 16.147 27.8037 16.7935 26.3206C16.9327 26.0026 17.0744 25.6858 17.2162 25.369C17.3055 25.1649 17.3948 24.9607 17.4838 24.7565C17.5638 24.575 17.6437 24.3936 17.7261 24.2066C17.9345 23.5642 17.8296 23.3273 17.547 22.7386C17.4747 22.606 17.4025 22.4733 17.328 22.3367C17.2463 22.186 17.1645 22.0353 17.0802 21.88C16.9915 21.7184 16.9028 21.5569 16.8113 21.3904C16.7202 21.2233 16.629 21.0561 16.5351 20.8839C15.7249 19.4033 14.8967 17.9331 14.0621 16.4662C13.9867 16.3318 13.9112 16.1974 13.8334 16.059C13.6812 15.7936 13.5237 15.5312 13.3612 15.272C12.7988 14.3511 12.7988 14.3511 12.8797 13.8326C12.9632 13.7061 13.0466 13.5797 13.1325 13.4494C13.2452 13.2526 13.3575 13.0556 13.4694 12.8585C13.5971 12.6463 13.7255 12.4345 13.8545 12.2231C13.9196 12.1148 13.9848 12.0065 14.0519 11.8949C14.5332 11.0993 14.5332 11.0993 14.7148 10.9177C14.9711 10.9025 15.228 10.8984 15.4847 10.8987C15.6514 10.8985 15.818 10.8983 15.9897 10.898C16.2662 10.8989 16.2662 10.8989 16.5484 10.8998C16.7413 10.8997 16.9343 10.8997 17.133 10.8997C17.6636 10.8998 18.1941 10.9006 18.7247 10.9017C19.2786 10.9027 19.8325 10.9028 20.3864 10.903C21.436 10.9034 22.4856 10.9047 23.5352 10.9063C24.7298 10.9081 25.9245 10.909 27.1191 10.9098C29.5772 10.9114 32.0352 10.9142 34.4933 10.9177C33.6262 11.7882 33.6262 11.7882 33.2182 12.1347C33.0892 12.2448 33.0892 12.2448 32.9576 12.357C32.8671 12.4336 32.7767 12.5101 32.6836 12.589C32.4866 12.7567 32.2896 12.9244 32.0927 13.0921C31.9924 13.1773 31.8922 13.2625 31.7889 13.3503C31.4954 13.6004 31.203 13.8516 30.9109 14.1033C29.9298 14.9486 28.9411 15.7813 27.9343 16.596C27.4031 17.0367 26.8944 17.5 26.3884 17.9694C26.1072 18.1962 26.1072 18.1962 25.7908 18.1962C25.6881 17.6831 25.5952 17.1687 25.504 16.6535C25.4747 16.5079 25.4454 16.3622 25.4153 16.2122C25.3793 16.0011 25.3793 16.0011 25.3427 15.7857C25.3186 15.6564 25.2946 15.5272 25.2698 15.394C25.3161 15.0317 25.3161 15.0317 26.1072 14.3987C23.3398 14.3987 20.5724 14.3987 17.7211 14.3987C19.0567 16.8036 19.0567 16.8036 20.4308 19.1851C20.6193 19.5084 20.8078 19.8316 20.9963 20.1549C21.309 20.6895 21.6249 21.2217 21.9469 21.7508C22.0078 21.8524 22.0687 21.954 22.1314 22.0587C22.2863 22.3172 22.4435 22.5742 22.6009 22.8312C22.8221 23.3473 22.7744 23.5176 22.6262 24.0506C22.4936 24.3385 22.3499 24.6214 22.1985 24.8999C22.1097 25.0642 22.0208 25.2285 21.9293 25.3978C21.833 25.5733 21.7366 25.7488 21.6373 25.9296C21.5376 26.1126 21.438 26.2957 21.3354 26.4842C19.7441 29.4024 18.0834 32.2794 16.4042 35.1476C15.9847 35.865 15.5669 36.5834 15.1499 37.3022C15.0781 37.4257 15.0063 37.5491 14.9323 37.6763C14.8662 37.7903 14.8002 37.9042 14.7321 38.0217C14.675 38.1201 14.6178 38.2186 14.5589 38.32C14.3901 38.6224 14.2345 38.9296 14.0819 39.2405C13.9775 39.2405 13.873 39.2405 13.7655 39.2405C13.7085 39.0996 13.6515 38.9587 13.5928 38.8136C12.101 35.126 10.5992 31.4425 9.09152 27.7613C8.66702 26.7248 8.24286 25.6882 7.81893 24.6514C6.70242 21.921 5.58536 19.1908 4.46606 16.4615C4.35826 16.1987 4.25048 15.9358 4.14271 15.6729C4.04171 15.4266 3.94069 15.1803 3.83963 14.934C3.74489 14.703 3.65025 14.4721 3.5557 14.2411C3.21464 13.4092 2.86369 12.5817 2.50613 11.7568C2.37305 11.3924 2.37305 11.3924 2.37305 10.9177Z" fill="#EEB200"/>
<path d="M111.521 18.8001C113.079 20.096 113.657 21.8031 113.888 23.7747C114.177 27.27 114.312 31.4985 111.96 34.3762C110.79 35.6607 109.482 36.2902 107.735 36.3998C106.858 36.3856 105.857 36.3147 105.063 35.9177C105.063 38.163 105.063 40.4082 105.063 42.7215C103.653 42.7215 102.244 42.7215 100.791 42.7215C100.791 34.7326 100.791 26.7437 100.791 18.5127C101.835 18.5127 102.88 18.5127 103.956 18.5127C104.312 19.5807 104.312 19.5807 104.272 20.2532C104.376 20.2532 104.481 20.2532 104.588 20.2532C104.629 20.1604 104.67 20.0676 104.712 19.9719C105.192 19.0964 106.015 18.513 106.952 18.2061C108.483 17.831 110.171 17.9281 111.521 18.8001ZM105.854 22.3101C104.972 23.2676 104.947 24.2694 104.958 25.5173C104.957 25.7006 104.957 25.8838 104.956 26.0725C104.955 26.4578 104.957 26.8431 104.96 27.2283C104.964 27.8194 104.96 28.41 104.955 29.0011C104.956 29.376 104.957 29.7509 104.958 30.1257C104.956 30.3027 104.955 30.4797 104.953 30.6621C104.96 31.1098 104.972 31.5236 105.063 31.962C105.697 32.5491 106.345 32.5183 107.175 32.4905C107.79 32.4117 108.1 32.2367 108.544 31.8038C109.571 30.2923 109.551 28.5201 109.553 26.7603C109.557 26.5549 109.561 26.3495 109.565 26.1379C109.569 24.7155 109.472 23.3204 108.495 22.2112C107.524 21.7147 106.784 21.7418 105.854 22.3101Z" fill="#EEB200"/>
<path d="M83.0703 11.5506C84.4801 11.5506 85.8899 11.5506 87.3425 11.5506C87.3947 14.1092 87.4469 16.6677 87.5007 19.3038C87.9184 18.9905 88.3361 18.6772 88.7665 18.3544C90.1556 17.8254 91.572 17.9223 92.9311 18.4626C94.221 19.0962 94.9058 20.0383 95.4121 21.3608C95.9481 22.9913 96.0781 24.5567 96.083 26.2664C96.0845 26.5876 96.0894 26.9086 96.0944 27.2297C96.1164 29.9546 95.5813 32.5075 93.666 34.5147C91.9648 36.1408 90.1101 36.2955 87.8654 36.2688C86.1184 36.2183 84.6822 35.843 83.0703 35.1266C83.0703 27.3465 83.0703 19.5665 83.0703 11.5506ZM87.635 22.839C87.1488 23.6047 87.265 24.5053 87.2807 25.3795C87.2816 25.5678 87.2824 25.7561 87.2834 25.9501C87.2869 26.5499 87.2948 27.1495 87.3029 27.7492C87.3061 28.1565 87.309 28.5638 87.3116 28.9711C87.3185 29.9682 87.3291 30.9651 87.3425 31.962C88.168 32.4024 88.9534 32.4147 89.8741 32.2785C90.6634 31.8907 91.028 31.3313 91.3544 30.5247C91.5228 30.0242 91.5974 29.5177 91.6542 28.9952C91.667 28.8805 91.6797 28.7658 91.6929 28.6475C91.8659 26.8462 92.0768 24.1396 90.9014 22.6383C90.4303 22.1789 90.1265 22.0085 89.4687 21.9047C88.6735 22.0348 88.1842 22.241 87.635 22.839Z" fill="#EEB200"/>
<path d="M60.1271 12.3418C59.7875 13.6944 59.3439 14.9906 58.8613 16.2975C58.2646 16.194 57.7289 16.0184 57.1603 15.8129C56.2907 15.5412 55.5026 15.4419 54.599 15.4371C54.4868 15.4356 54.3745 15.434 54.2589 15.4324C53.5181 15.4444 53.0029 15.5927 52.3739 15.981C51.9907 16.4408 51.905 16.7189 51.8399 17.3161C51.9717 18.568 52.703 19.3225 53.6397 20.0949C54.2204 20.5064 54.8174 20.8929 55.4133 21.282C57.6868 22.7706 59.7601 24.5205 60.493 27.2548C60.9751 29.8492 60.4003 32.0434 58.9997 34.2267C57.289 35.8258 55.1409 36.39 52.8486 36.3924C48.0892 36.2216 48.0892 36.2216 46.8359 34.9684C47.0261 33.59 47.5988 32.3018 48.1018 31.0127C48.7606 31.1204 49.3388 31.3379 49.9609 31.5764C51.4567 32.1063 53.18 32.2585 54.7177 31.784C55.342 31.4168 55.572 31.21 55.8549 30.538C56.0053 29.6118 56.0018 28.7473 55.5286 27.9173C54.5435 26.6311 52.9857 25.7447 51.6223 24.911C49.652 23.6755 48.0403 21.9998 47.4017 19.7259C47.2522 19.0332 47.2333 18.3589 47.2414 17.6523C47.2424 17.5072 47.2433 17.362 47.2443 17.2125C47.2694 16.1264 47.422 15.2073 47.9435 14.2405C48.0757 13.9909 48.0757 13.9909 48.2105 13.7362C49.5867 12.0625 51.048 11.3729 53.1811 11.1161C55.5346 10.9628 58.0235 11.2126 60.1271 12.3418Z" fill="#EEB200"/>
<path d="M65.0318 18.5127C66.4417 18.5127 67.8515 18.5127 69.304 18.5127C69.3063 18.8695 69.3086 19.2263 69.311 19.594C69.319 20.7769 69.3295 21.9597 69.3413 23.1426C69.3484 23.8593 69.3546 24.576 69.3588 25.2928C69.3629 25.9853 69.3694 26.6778 69.3773 27.3703C69.3799 27.6337 69.3817 27.897 69.3827 28.1604C69.3797 30.1098 69.3797 30.1098 69.9369 31.962C70.4145 32.307 70.6937 32.2791 71.2818 32.2686C72.1033 32.0486 72.4502 31.6003 72.9037 30.9039C73.2544 30.2551 73.2833 29.8603 73.2922 29.1108C73.2937 28.9965 73.2953 28.8823 73.2969 28.7646C73.3019 28.3861 73.3058 28.0077 73.3098 27.6293C73.313 27.3672 73.3163 27.1052 73.3197 26.8431C73.3285 26.1528 73.3363 25.4624 73.3439 24.772C73.3518 24.0678 73.3607 23.3636 73.3694 22.6593C73.3864 21.2771 73.4024 19.8949 73.4179 18.5127C74.8277 18.5127 76.2375 18.5127 77.6901 18.5127C77.6948 19.1614 77.6948 19.1614 77.6996 19.8233C77.7102 21.2613 77.7225 22.6993 77.7356 24.1374C77.7434 25.0082 77.7508 25.879 77.7568 26.7499C77.7627 27.5922 77.7701 28.4345 77.7784 29.2768C77.7813 29.5962 77.7837 29.9156 77.7855 30.235C77.7968 32.1057 77.8927 33.9074 78.1648 35.7595C77.0682 35.7595 75.9717 35.7595 74.842 35.7595C74.6331 35.1329 74.4242 34.5063 74.2091 33.8608C74.1046 33.9685 74.0002 34.0762 73.8926 34.1871C73.7351 34.3428 73.5768 34.4976 73.4179 34.6519C73.3223 34.7451 73.2266 34.8383 73.128 34.9344C71.8397 36.1312 70.7116 36.352 68.9752 36.2886C67.8886 36.1933 67.0154 35.9133 66.2383 35.1266C65.2124 33.781 65.0061 31.969 65.0139 30.3322C65.0139 30.204 65.0138 30.0758 65.0138 29.9437C65.0139 29.5224 65.0151 29.1012 65.0164 28.68C65.0167 28.387 65.0169 28.0939 65.0171 27.8008C65.0177 27.0313 65.0192 26.2619 65.021 25.4925C65.0226 24.7065 65.0233 23.9206 65.0241 23.1346C65.0258 21.594 65.0286 20.0533 65.0318 18.5127Z" fill="#EEB200"/>
<path d="M128.342 18.7698C129.733 19.9189 130.546 21.1578 130.854 22.9431C130.889 23.5888 130.883 24.2348 130.884 24.8813C130.886 25.0545 130.888 25.2277 130.89 25.4061C130.89 25.5764 130.89 25.7467 130.891 25.9222C130.891 26.0754 130.892 26.2286 130.893 26.3865C130.843 27.0409 130.68 27.6822 130.538 28.3228C127.823 28.375 125.107 28.4272 122.31 28.481C122.596 30.5628 122.596 30.5628 123.823 32.1203C125.252 32.7065 126.699 32.538 128.105 31.9732C128.446 31.8195 128.781 31.6583 129.114 31.4874C129.266 31.7871 129.417 32.0871 129.569 32.3873C129.653 32.5543 129.737 32.7214 129.824 32.8935C130.384 34.0488 130.384 34.0488 130.368 34.5128C129.981 35.2973 128.825 35.6252 128.054 35.9258C126.223 36.4761 123.588 36.6276 121.835 35.7595C120.031 34.782 119.108 33.4169 118.522 31.467C117.665 28.1605 117.558 23.9404 119.304 20.8861C121.426 17.9922 125.125 17.0968 128.342 18.7698ZM123.071 22.5277C122.576 23.3435 122.31 24.5255 122.31 25.4747C123.824 25.4747 125.338 25.4747 126.898 25.4747C126.951 23.675 126.951 23.675 126.266 22.1519C125.804 21.7398 125.546 21.685 124.93 21.6179C124.111 21.7042 123.632 21.9192 123.071 22.5277Z" fill="#EEB200"/>
<path d="M36.0751 10.9177C37.6938 10.9177 39.3125 10.9177 40.9802 10.9177C40.8689 11.4743 40.769 11.8905 40.5637 12.4019C40.5105 12.5355 40.4572 12.6691 40.4023 12.8068C40.344 12.9511 40.2856 13.0955 40.2255 13.2442C40.1642 13.3974 40.1028 13.5506 40.0396 13.7085C39.8363 14.2158 39.632 14.7226 39.4276 15.2294C39.2837 15.5876 39.1399 15.9457 38.996 16.3039C37.9134 18.9974 36.8179 21.6856 35.7182 24.3722C34.4963 27.3584 33.2891 30.3504 32.084 33.3435C31.3123 35.2596 30.5371 37.1741 29.746 39.0823C29.5894 39.0823 29.4327 39.0823 29.2713 39.0823C28.9664 38.5157 28.6772 37.9436 28.3993 37.3633C28.3034 37.1681 28.2039 36.9747 28.1003 36.7835C27.5889 35.8341 27.2421 34.9955 27.5209 33.9166C27.743 33.23 28.0194 32.568 28.3046 31.9055C28.5937 31.2169 28.8348 30.5118 29.0822 29.8074C29.1869 29.5164 29.2919 29.2256 29.3973 28.9348C29.4508 28.7869 29.5043 28.639 29.5595 28.4866C29.6145 28.3346 29.6695 28.1827 29.7262 28.0261C29.7835 27.8678 29.8408 27.7095 29.8998 27.5465C31.0986 24.2344 32.317 20.9298 33.5426 17.6276C33.8051 16.9201 34.0672 16.2124 34.3292 15.5047C34.5229 14.9814 34.7168 14.4581 34.9107 13.9349C35.0005 13.6926 35.0903 13.4502 35.18 13.2078C35.3018 12.8787 35.4239 12.5496 35.5461 12.2206C35.6143 12.0366 35.6825 11.8526 35.7528 11.663C35.9169 11.2342 35.9169 11.2342 36.0751 10.9177Z" fill="#EEB200"/>
<path d="M144.366 18.3588C144.45 18.4095 144.534 18.4603 144.621 18.5127C144.549 19.9092 144.439 21.2561 144.146 22.6266C143.984 22.6211 143.822 22.6156 143.654 22.6099C143.439 22.6054 143.224 22.6011 143.009 22.5969C142.902 22.5929 142.795 22.589 142.686 22.5849C141.973 22.5744 141.534 22.6456 140.981 23.1013C140.404 23.8273 140.268 24.3112 140.262 25.2332C140.26 25.3476 140.259 25.4619 140.257 25.5797C140.252 25.9547 140.252 26.3296 140.252 26.7047C140.25 26.9658 140.247 27.227 140.244 27.4881C140.237 28.1733 140.234 28.8584 140.232 29.5436C140.228 30.2437 140.222 30.9437 140.215 31.6437C140.204 33.0156 140.196 34.3875 140.19 35.7595C138.78 35.7595 137.371 35.7595 135.918 35.7595C135.918 30.068 135.918 24.3766 135.918 18.5127C137.014 18.5127 138.111 18.5127 139.241 18.5127C139.397 19.087 139.554 19.6614 139.715 20.2532C139.846 20.0606 139.977 19.8681 140.111 19.6697C141.149 18.3136 142.675 17.632 144.366 18.3588Z" fill="#EDB200"/>
</svg>
