<svg xmlns="http://www.w3.org/2000/svg" xmlns:xlink="http://www.w3.org/1999/xlink"
    viewBox="0 0 19 24">
    <path
        d="M 15.72 12.859 C 15.73 11.977 15.961 11.113 16.392 10.346 C 16.823 9.579 17.439 8.935 18.184 8.475 C 17.71 7.794 17.088 7.234 16.364 6.837 C 15.641 6.441 14.836 6.219 14.013 6.19 C 12.238 6.008 10.549 7.246 9.649 7.246 C 8.749 7.246 7.359 6.216 5.886 6.245 C 4.919 6.272 3.976 6.552 3.149 7.059 C 2.322 7.565 1.64 8.279 1.168 9.133 C -0.841 12.658 0.655 17.88 2.613 20.741 C 3.571 22.139 4.713 23.714 6.213 23.657 C 7.658 23.6 8.204 22.714 9.949 22.714 C 11.694 22.714 12.185 23.657 13.712 23.629 C 15.265 23.6 16.251 22.201 17.202 20.798 C 17.882 19.788 18.413 18.684 18.78 17.521 C 17.875 17.13 17.103 16.481 16.559 15.653 C 16.016 14.824 15.724 13.853 15.72 12.859 Z M 12.85 4.297 C 13.711 3.277 14.137 1.955 14.036 0.619 C 12.737 0.746 11.535 1.371 10.678 2.365 C 10.25 2.846 9.922 3.41 9.714 4.022 C 9.506 4.635 9.423 5.283 9.468 5.929 C 10.118 5.938 10.761 5.795 11.348 5.512 C 11.934 5.229 12.449 4.814 12.85 4.297 Z"
        fill="rgb(247,248,248)"></path>
    <path
        d="M 15.72 12.859 C 15.73 11.977 15.961 11.113 16.392 10.346 C 16.823 9.579 17.439 8.935 18.184 8.475 C 17.71 7.794 17.088 7.234 16.364 6.837 C 15.641 6.441 14.836 6.219 14.013 6.19 C 12.238 6.008 10.549 7.246 9.649 7.246 C 8.749 7.246 7.359 6.216 5.886 6.245 C 4.919 6.272 3.976 6.552 3.149 7.059 C 2.322 7.565 1.64 8.279 1.168 9.133 C -0.841 12.658 0.655 17.88 2.613 20.741 C 3.571 22.139 4.713 23.714 6.213 23.657 C 7.658 23.6 8.204 22.714 9.949 22.714 C 11.694 22.714 12.185 23.657 13.712 23.629 C 15.265 23.6 16.251 22.201 17.202 20.798 C 17.882 19.788 18.413 18.684 18.78 17.521 C 17.875 17.13 17.103 16.481 16.559 15.653 C 16.016 14.824 15.724 13.853 15.72 12.859 Z M 12.85 4.297 C 13.711 3.277 14.137 1.955 14.036 0.619 C 12.737 0.746 11.535 1.371 10.678 2.365 C 10.25 2.846 9.922 3.41 9.714 4.022 C 9.506 4.635 9.423 5.283 9.468 5.929 C 10.118 5.938 10.761 5.795 11.348 5.512 C 11.934 5.229 12.449 4.814 12.85 4.297 Z"
        fill="rgba(120,118,127,0.02)"></path>
    <path
        d="M 15.72 12.859 C 15.73 11.977 15.961 11.113 16.392 10.346 C 16.823 9.579 17.439 8.935 18.184 8.475 C 17.71 7.794 17.088 7.234 16.364 6.837 C 15.641 6.441 14.836 6.219 14.013 6.19 C 12.238 6.008 10.549 7.246 9.649 7.246 C 8.749 7.246 7.359 6.216 5.886 6.245 C 4.919 6.272 3.976 6.552 3.149 7.059 C 2.322 7.565 1.64 8.279 1.168 9.133 C -0.841 12.658 0.655 17.88 2.613 20.741 C 3.571 22.139 4.713 23.714 6.213 23.657 C 7.658 23.6 8.204 22.714 9.949 22.714 C 11.694 22.714 12.185 23.657 13.712 23.629 C 15.265 23.6 16.251 22.201 17.202 20.798 C 17.882 19.788 18.413 18.684 18.78 17.521 C 17.875 17.13 17.103 16.481 16.559 15.653 C 16.016 14.824 15.724 13.853 15.72 12.859 Z M 12.85 4.297 C 13.711 3.277 14.137 1.955 14.036 0.619 C 12.737 0.746 11.535 1.371 10.678 2.365 C 10.25 2.846 9.922 3.41 9.714 4.022 C 9.506 4.635 9.423 5.283 9.468 5.929 C 10.118 5.938 10.761 5.795 11.348 5.512 C 11.934 5.229 12.449 4.814 12.85 4.297 Z"
        fill="rgba(93,52,242,0.05)"></path>
</svg>