<svg viewBox="0 0 16 16" fill="none" xmlns="http://www.w3.org/2000/svg" id="svg-2062914581_3171">
    <path
        d="M14.5286 0.478943H10.0917C9.89563 0.478943 9.70754 0.556852 9.56886 0.695531C9.43018 0.834211 9.35227 1.0223 9.35227 1.21842C9.35227 1.41454 9.43018 1.60263 9.56886 1.74131C9.70754 1.87999 9.89563 1.9579 10.0917 1.9579H13.7891V5.6553C13.7891 5.85142 13.8671 6.03951 14.0057 6.17819C14.1444 6.31687 14.3325 6.39478 14.5286 6.39478C14.7247 6.39478 14.9128 6.31687 15.0515 6.17819C15.1902 6.03951 15.2681 5.85142 15.2681 5.6553V1.21842C15.2681 1.0223 15.1902 0.834211 15.0515 0.695531C14.9128 0.556852 14.7247 0.478943 14.5286 0.478943V0.478943ZM14.5286 9.3527C14.3325 9.3527 14.1444 9.4306 14.0057 9.56928C13.8671 9.70796 13.7891 9.89605 13.7891 10.0922V13.7896H10.0917C9.89563 13.7896 9.70754 13.8675 9.56886 14.0062C9.43018 14.1448 9.35227 14.3329 9.35227 14.5291C9.35227 14.7252 9.43018 14.9133 9.56886 15.0519C9.70754 15.1906 9.89563 15.2685 10.0917 15.2685H14.5286C14.7247 15.2685 14.9128 15.1906 15.0515 15.0519C15.1902 14.9133 15.2681 14.7252 15.2681 14.5291V10.0922C15.2681 9.89605 15.1902 9.70796 15.0515 9.56928C14.9128 9.4306 14.7247 9.3527 14.5286 9.3527ZM7.87331 3.43686C7.28494 3.43686 6.72067 3.67059 6.30464 4.08663C5.8886 4.50266 5.65487 5.06693 5.65487 5.6553V6.39478C5.26263 6.39478 4.88645 6.5506 4.60909 6.82796C4.33173 7.10531 4.17591 7.48149 4.17591 7.87374V10.8317C4.17591 11.2239 4.33173 11.6001 4.60909 11.8774C4.88645 12.1548 5.26263 12.3106 5.65487 12.3106H10.0917C10.484 12.3106 10.8602 12.1548 11.1375 11.8774C11.4149 11.6001 11.5707 11.2239 11.5707 10.8317V7.87374C11.5707 7.48149 11.4149 7.10531 11.1375 6.82796C10.8602 6.5506 10.484 6.39478 10.0917 6.39478V5.6553C10.0917 5.06693 9.85802 4.50266 9.44198 4.08663C9.02594 3.67059 8.46168 3.43686 7.87331 3.43686ZM7.13383 5.6553C7.13383 5.45918 7.21174 5.27109 7.35042 5.13241C7.4891 4.99373 7.67719 4.91582 7.87331 4.91582C8.06943 4.91582 8.25752 4.99373 8.3962 5.13241C8.53488 5.27109 8.61279 5.45918 8.61279 5.6553V6.39478H7.13383V5.6553ZM10.0917 10.8317H5.65487V7.87374H10.0917V10.8317ZM1.21799 6.39478C1.41412 6.39478 1.60221 6.31687 1.74089 6.17819C1.87957 6.03951 1.95747 5.85142 1.95747 5.6553V1.9579H5.65487C5.85099 1.9579 6.03908 1.87999 6.17776 1.74131C6.31644 1.60263 6.39435 1.41454 6.39435 1.21842C6.39435 1.0223 6.31644 0.834211 6.17776 0.695531C6.03908 0.556852 5.85099 0.478943 5.65487 0.478943H1.21799C1.02187 0.478943 0.833783 0.556852 0.695104 0.695531C0.556425 0.834211 0.478516 1.0223 0.478516 1.21842V5.6553C0.478516 5.85142 0.556425 6.03951 0.695104 6.17819C0.833783 6.31687 1.02187 6.39478 1.21799 6.39478ZM5.65487 13.7896H1.95747V10.0922C1.95747 9.89605 1.87957 9.70796 1.74089 9.56928C1.60221 9.4306 1.41412 9.3527 1.21799 9.3527C1.02187 9.3527 0.833783 9.4306 0.695104 9.56928C0.556425 9.70796 0.478516 9.89605 0.478516 10.0922V14.5291C0.478516 14.7252 0.556425 14.9133 0.695104 15.0519C0.833783 15.1906 1.02187 15.2685 1.21799 15.2685H5.65487C5.85099 15.2685 6.03908 15.1906 6.17776 15.0519C6.31644 14.9133 6.39435 14.7252 6.39435 14.5291C6.39435 14.3329 6.31644 14.1448 6.17776 14.0062C6.03908 13.8675 5.85099 13.7896 5.65487 13.7896Z"
        fill="white"></path>
</svg>