<svg viewBox="0 0 16 16" fill="none" xmlns="http://www.w3.org/2000/svg" id="svg-1844377059_4240">
    <path
        d="M7.87331 13.7896H2.69695C2.50083 13.7896 2.31274 13.7117 2.17406 13.573C2.03538 13.4343 1.95747 13.2462 1.95747 13.0501V2.69738C1.95747 2.50126 2.03538 2.31317 2.17406 2.17449C2.31274 2.03581 2.50083 1.9579 2.69695 1.9579H6.39435V4.17634C6.39435 4.76471 6.62808 5.32897 7.04412 5.74501C7.46015 6.16105 8.02442 6.39478 8.61279 6.39478H10.8312V7.13426C10.8312 7.33038 10.9091 7.51847 11.0478 7.65715C11.1865 7.79583 11.3746 7.87374 11.5707 7.87374C11.7668 7.87374 11.9549 7.79583 12.0936 7.65715C12.2323 7.51847 12.3102 7.33038 12.3102 7.13426V5.6553C12.3102 5.6553 12.3102 5.6553 12.3102 5.61093C12.3025 5.543 12.2876 5.47607 12.2658 5.41127V5.34472C12.2303 5.26868 12.1828 5.19879 12.1253 5.13766V5.13766L7.68844 0.700787C7.62731 0.643267 7.55742 0.59584 7.48139 0.560286C7.45931 0.55715 7.43691 0.55715 7.41483 0.560286C7.33971 0.517204 7.25675 0.48955 7.1708 0.478943H2.69695C2.10859 0.478943 1.54432 0.712671 1.12828 1.12871C0.712243 1.54475 0.478516 2.10901 0.478516 2.69738V13.0501C0.478516 13.6385 0.712243 14.2027 1.12828 14.6188C1.54432 15.0348 2.10859 15.2685 2.69695 15.2685H7.87331C8.06943 15.2685 8.25752 15.1906 8.3962 15.0519C8.53488 14.9133 8.61279 14.7252 8.61279 14.5291C8.61279 14.3329 8.53488 14.1448 8.3962 14.0062C8.25752 13.8675 8.06943 13.7896 7.87331 13.7896ZM7.87331 3.00057L9.78856 4.91582H8.61279C8.41667 4.91582 8.22858 4.83791 8.0899 4.69923C7.95122 4.56055 7.87331 4.37246 7.87331 4.17634V3.00057ZM4.17591 4.91582C3.97979 4.91582 3.7917 4.99373 3.65302 5.13241C3.51434 5.27109 3.43643 5.45918 3.43643 5.6553C3.43643 5.85142 3.51434 6.03951 3.65302 6.17819C3.7917 6.31687 3.97979 6.39478 4.17591 6.39478H4.91539C5.11151 6.39478 5.2996 6.31687 5.43828 6.17819C5.57696 6.03951 5.65487 5.85142 5.65487 5.6553C5.65487 5.45918 5.57696 5.27109 5.43828 5.13241C5.2996 4.99373 5.11151 4.91582 4.91539 4.91582H4.17591ZM15.0537 14.004L14.1885 13.1462C14.465 12.6635 14.5757 12.1035 14.5036 11.5519C14.4314 11.0003 14.1805 10.4875 13.7891 10.0922V10.0922C13.429 9.71923 12.965 9.46339 12.4574 9.35798C11.9498 9.25256 11.4222 9.30246 10.9434 9.50117C10.4645 9.69989 10.0567 10.0382 9.77286 10.472C9.48906 10.9059 9.3425 11.4151 9.35227 11.9335C9.34972 12.3795 9.46383 12.8185 9.68327 13.2068C9.90272 13.5952 10.2199 13.9194 10.6033 14.1473C10.9867 14.3753 11.423 14.499 11.869 14.5063C12.315 14.5136 12.7551 14.4042 13.1458 14.1889L14.0036 15.0541C14.0723 15.1234 14.1541 15.1784 14.2442 15.2159C14.3343 15.2535 14.431 15.2728 14.5286 15.2728C14.6262 15.2728 14.7229 15.2535 14.813 15.2159C14.9031 15.1784 14.9849 15.1234 15.0537 15.0541C15.123 14.9853 15.178 14.9035 15.2155 14.8134C15.2531 14.7233 15.2724 14.6267 15.2724 14.5291C15.2724 14.4314 15.2531 14.3348 15.2155 14.2447C15.178 14.1546 15.123 14.0728 15.0537 14.004V14.004ZM12.7095 12.7099C12.4983 12.9086 12.2193 13.0191 11.9294 13.0191C11.6394 13.0191 11.3604 12.9086 11.1492 12.7099C10.9456 12.5027 10.8315 12.2239 10.8312 11.9335C10.8297 11.7876 10.8577 11.643 10.9137 11.5082C10.9696 11.3735 11.0522 11.2515 11.1566 11.1496C11.3537 10.9535 11.6181 10.8399 11.8961 10.8317C12.0456 10.8225 12.1954 10.8443 12.336 10.8957C12.4767 10.9471 12.6053 11.0271 12.7136 11.1306C12.8219 11.234 12.9077 11.3587 12.9655 11.4969C13.0233 11.6351 13.052 11.7837 13.0497 11.9335C13.0435 12.2271 12.9212 12.5064 12.7095 12.7099V12.7099ZM8.61279 7.87374H4.17591C3.97979 7.87374 3.7917 7.95165 3.65302 8.09033C3.51434 8.229 3.43643 8.41709 3.43643 8.61322C3.43643 8.80934 3.51434 8.99743 3.65302 9.13611C3.7917 9.27479 3.97979 9.3527 4.17591 9.3527H8.61279C8.80891 9.3527 8.997 9.27479 9.13568 9.13611C9.27436 8.99743 9.35227 8.80934 9.35227 8.61322C9.35227 8.41709 9.27436 8.229 9.13568 8.09033C8.997 7.95165 8.80891 7.87374 8.61279 7.87374ZM7.13383 12.3106C7.32995 12.3106 7.51804 12.2327 7.65672 12.094C7.7954 11.9553 7.87331 11.7673 7.87331 11.5711C7.87331 11.375 7.7954 11.1869 7.65672 11.0482C7.51804 10.9096 7.32995 10.8317 7.13383 10.8317H4.17591C3.97979 10.8317 3.7917 10.9096 3.65302 11.0482C3.51434 11.1869 3.43643 11.375 3.43643 11.5711C3.43643 11.7673 3.51434 11.9553 3.65302 12.094C3.7917 12.2327 3.97979 12.3106 4.17591 12.3106H7.13383Z"
        fill="white"></path>
</svg>