<svg xmlns="http://www.w3.org/2000/svg" width="24" height="24">
  <path
    d="M 4.8 0 C 2.149 0 0 2.149 0 4.8 L 0 19.2 C 0 21.851 2.149 24 4.8 24 L 19.2 24 C 21.851 24 24 21.851 24 19.2 L 24 4.8 C 24 2.149 21.851 0 19.2 0 Z M 14.402 6.001 C 15.603 6.208 16.751 6.57 17.822 7.061 C 17.831 7.065 17.839 7.072 17.844 7.081 C 19.741 9.872 20.678 13.02 20.328 16.644 C 20.326 16.659 20.318 16.673 20.306 16.682 C 18.869 17.738 17.477 18.378 16.104 18.803 C 16.082 18.81 16.058 18.802 16.045 18.783 C 15.728 18.342 15.44 17.876 15.188 17.388 C 15.173 17.359 15.186 17.324 15.216 17.313 C 15.674 17.14 16.109 16.934 16.527 16.689 C 16.56 16.67 16.562 16.622 16.532 16.6 C 16.443 16.534 16.355 16.464 16.271 16.395 C 16.255 16.382 16.234 16.38 16.216 16.388 C 13.499 17.644 10.522 17.644 7.773 16.388 C 7.755 16.38 7.734 16.383 7.719 16.396 C 7.635 16.465 7.547 16.534 7.458 16.6 C 7.428 16.622 7.431 16.67 7.464 16.689 C 7.882 16.929 8.317 17.14 8.774 17.314 C 8.804 17.325 8.818 17.359 8.803 17.388 C 8.556 17.877 8.268 18.342 7.945 18.784 C 7.931 18.802 7.908 18.81 7.886 18.803 C 6.52 18.378 5.128 17.738 3.691 16.682 C 3.679 16.673 3.671 16.658 3.669 16.643 C 3.377 13.509 3.973 10.335 6.151 7.081 C 6.157 7.072 6.165 7.065 6.174 7.061 C 7.245 6.57 8.394 6.208 9.593 6.001 C 9.615 5.998 9.637 6.008 9.648 6.027 C 9.797 6.29 9.966 6.626 10.081 6.901 C 11.346 6.708 12.63 6.708 13.922 6.901 C 14.036 6.632 14.2 6.29 14.347 6.027 C 14.359 6.007 14.38 5.997 14.402 6.001 Z M 7.704 13.041 C 7.704 13.975 8.386 14.734 9.214 14.734 C 10.055 14.734 10.724 13.975 10.724 13.041 C 10.737 12.115 10.062 11.348 9.214 11.348 C 8.373 11.348 7.704 12.108 7.704 13.041 Z M 13.286 13.041 C 13.286 13.975 13.969 14.734 14.796 14.734 C 15.644 14.734 16.306 13.975 16.306 13.041 C 16.319 12.115 15.644 11.348 14.796 11.348 C 13.955 11.348 13.286 12.108 13.286 13.041 Z"
    fill="rgb(247,248,248)"></path>
  <path
    d="M 4.8 0 C 2.149 0 0 2.149 0 4.8 L 0 19.2 C 0 21.851 2.149 24 4.8 24 L 19.2 24 C 21.851 24 24 21.851 24 19.2 L 24 4.8 C 24 2.149 21.851 0 19.2 0 Z M 14.402 6.001 C 15.603 6.208 16.751 6.57 17.822 7.061 C 17.831 7.065 17.839 7.072 17.844 7.081 C 19.741 9.872 20.678 13.02 20.328 16.644 C 20.326 16.659 20.318 16.673 20.306 16.682 C 18.869 17.738 17.477 18.378 16.104 18.803 C 16.082 18.81 16.058 18.802 16.045 18.783 C 15.728 18.342 15.44 17.876 15.188 17.388 C 15.173 17.359 15.186 17.324 15.216 17.313 C 15.674 17.14 16.109 16.934 16.527 16.689 C 16.56 16.67 16.562 16.622 16.532 16.6 C 16.443 16.534 16.355 16.464 16.271 16.395 C 16.255 16.382 16.234 16.38 16.216 16.388 C 13.499 17.644 10.522 17.644 7.773 16.388 C 7.755 16.38 7.734 16.383 7.719 16.396 C 7.635 16.465 7.547 16.534 7.458 16.6 C 7.428 16.622 7.431 16.67 7.464 16.689 C 7.882 16.929 8.317 17.14 8.774 17.314 C 8.804 17.325 8.818 17.359 8.803 17.388 C 8.556 17.877 8.268 18.342 7.945 18.784 C 7.931 18.802 7.908 18.81 7.886 18.803 C 6.52 18.378 5.128 17.738 3.691 16.682 C 3.679 16.673 3.671 16.658 3.669 16.643 C 3.377 13.509 3.973 10.335 6.151 7.081 C 6.157 7.072 6.165 7.065 6.174 7.061 C 7.245 6.57 8.394 6.208 9.593 6.001 C 9.615 5.998 9.637 6.008 9.648 6.027 C 9.797 6.29 9.966 6.626 10.081 6.901 C 11.346 6.708 12.63 6.708 13.922 6.901 C 14.036 6.632 14.2 6.29 14.347 6.027 C 14.359 6.007 14.38 5.997 14.402 6.001 Z M 7.704 13.041 C 7.704 13.975 8.386 14.734 9.214 14.734 C 10.055 14.734 10.724 13.975 10.724 13.041 C 10.737 12.115 10.062 11.348 9.214 11.348 C 8.373 11.348 7.704 12.108 7.704 13.041 Z M 13.286 13.041 C 13.286 13.975 13.969 14.734 14.796 14.734 C 15.644 14.734 16.306 13.975 16.306 13.041 C 16.319 12.115 15.644 11.348 14.796 11.348 C 13.955 11.348 13.286 12.108 13.286 13.041 Z"
    fill="rgba(120,118,127,0.02)"></path>
  <path
    d="M 4.8 0 C 2.149 0 0 2.149 0 4.8 L 0 19.2 C 0 21.851 2.149 24 4.8 24 L 19.2 24 C 21.851 24 24 21.851 24 19.2 L 24 4.8 C 24 2.149 21.851 0 19.2 0 Z M 14.402 6.001 C 15.603 6.208 16.751 6.57 17.822 7.061 C 17.831 7.065 17.839 7.072 17.844 7.081 C 19.741 9.872 20.678 13.02 20.328 16.644 C 20.326 16.659 20.318 16.673 20.306 16.682 C 18.869 17.738 17.477 18.378 16.104 18.803 C 16.082 18.81 16.058 18.802 16.045 18.783 C 15.728 18.342 15.44 17.876 15.188 17.388 C 15.173 17.359 15.186 17.324 15.216 17.313 C 15.674 17.14 16.109 16.934 16.527 16.689 C 16.56 16.67 16.562 16.622 16.532 16.6 C 16.443 16.534 16.355 16.464 16.271 16.395 C 16.255 16.382 16.234 16.38 16.216 16.388 C 13.499 17.644 10.522 17.644 7.773 16.388 C 7.755 16.38 7.734 16.383 7.719 16.396 C 7.635 16.465 7.547 16.534 7.458 16.6 C 7.428 16.622 7.431 16.67 7.464 16.689 C 7.882 16.929 8.317 17.14 8.774 17.314 C 8.804 17.325 8.818 17.359 8.803 17.388 C 8.556 17.877 8.268 18.342 7.945 18.784 C 7.931 18.802 7.908 18.81 7.886 18.803 C 6.52 18.378 5.128 17.738 3.691 16.682 C 3.679 16.673 3.671 16.658 3.669 16.643 C 3.377 13.509 3.973 10.335 6.151 7.081 C 6.157 7.072 6.165 7.065 6.174 7.061 C 7.245 6.57 8.394 6.208 9.593 6.001 C 9.615 5.998 9.637 6.008 9.648 6.027 C 9.797 6.29 9.966 6.626 10.081 6.901 C 11.346 6.708 12.63 6.708 13.922 6.901 C 14.036 6.632 14.2 6.29 14.347 6.027 C 14.359 6.007 14.38 5.997 14.402 6.001 Z M 7.704 13.041 C 7.704 13.975 8.386 14.734 9.214 14.734 C 10.055 14.734 10.724 13.975 10.724 13.041 C 10.737 12.115 10.062 11.348 9.214 11.348 C 8.373 11.348 7.704 12.108 7.704 13.041 Z M 13.286 13.041 C 13.286 13.975 13.969 14.734 14.796 14.734 C 15.644 14.734 16.306 13.975 16.306 13.041 C 16.319 12.115 15.644 11.348 14.796 11.348 C 13.955 11.348 13.286 12.108 13.286 13.041 Z"
    fill="rgba(93,52,242,0.05)"></path>
</svg>
