<svg xmlns="http://www.w3.org/2000/svg" viewBox="0 0 20 17" width="20" height="17">
    <path
        d="M 11.557 5.314 C 12.514 5.719 13.281 6.486 13.686 7.443 L 18.076 11.833 C 19.286 10.532 20 9.346 20 9 C 20 8.134 15.523 2 10 2 C 9.459 2 8.927 2.059 8.409 2.166 Z M 4.343 0.929 L 17.071 13.657 C 17.461 14.047 17.461 14.68 17.071 15.071 C 16.68 15.461 16.047 15.461 15.657 15.071 L 14.996 14.41 C 13.526 15.334 11.82 16 10 16 C 4.477 16 0 9.866 0 9 C 0 8.452 1.791 5.797 4.505 3.919 L 2.929 2.343 C 2.538 1.952 2.538 1.319 2.929 0.929 C 3.319 0.538 3.952 0.538 4.343 0.929 Z M 12.614 12.028 L 6.972 6.386 C 6.366 7.087 6 8.001 6 9 C 6 11.209 7.791 13 10 13 C 10.999 13 11.913 12.634 12.614 12.028 Z"
        fill="rgb(255, 255, 255)"></path>
</svg>