<svg viewBox="6 6 24 25" fill="none" xmlns="http://www.w3.org/2000/svg" id="svg301573132_2272"><g filter="url(#svg301573132_2272_filter0_b_1326_215341)"><g clipPath="url(#svg301573132_2272_clip0_1326_215341)"><path d="M29.999 18.6444C29.999 12.0162 24.6271 6.64435 17.999 6.64435C11.3709 6.64435 5.99902 12.0162 5.99902 18.6444C5.99902 24.635 10.3865 29.5991 16.124 30.4991V22.1131H13.0771V18.6444H16.124V16.0006C16.124 12.9935 17.9147 11.3318 20.6568 11.3318C21.9693 11.3318 23.3428 11.5662 23.3428 11.5662V14.5193H21.8287C20.3381 14.5193 19.874 15.4451 19.874 16.3943V18.6444H23.2021L22.6701 22.1131H19.874V30.4991C25.6115 29.5991 29.999 24.635 29.999 18.6444Z" fill="#F7F8F8"></path><path d="M29.999 18.6444C29.999 12.0162 24.6271 6.64435 17.999 6.64435C11.3709 6.64435 5.99902 12.0162 5.99902 18.6444C5.99902 24.635 10.3865 29.5991 16.124 30.4991V22.1131H13.0771V18.6444H16.124V16.0006C16.124 12.9935 17.9147 11.3318 20.6568 11.3318C21.9693 11.3318 23.3428 11.5662 23.3428 11.5662V14.5193H21.8287C20.3381 14.5193 19.874 15.4451 19.874 16.3943V18.6444H23.2021L22.6701 22.1131H19.874V30.4991C25.6115 29.5991 29.999 24.635 29.999 18.6444Z" fill="#78767F" fillOpacity="0.02"></path><path d="M29.999 18.6444C29.999 12.0162 24.6271 6.64435 17.999 6.64435C11.3709 6.64435 5.99902 12.0162 5.99902 18.6444C5.99902 24.635 10.3865 29.5991 16.124 30.4991V22.1131H13.0771V18.6444H16.124V16.0006C16.124 12.9935 17.9147 11.3318 20.6568 11.3318C21.9693 11.3318 23.3428 11.5662 23.3428 11.5662V14.5193H21.8287C20.3381 14.5193 19.874 15.4451 19.874 16.3943V18.6444H23.2021L22.6701 22.1131H19.874V30.4991C25.6115 29.5991 29.999 24.635 29.999 18.6444Z" fill="#5D34F2" fillOpacity="0.05"></path></g></g><defs><filter id="svg301573132_2272_filter0_b_1326_215341" x="-7.64498" y="-6.98912" width="51.288" height="51.288" filterUnits="userSpaceOnUse" color-interpolation-filters="sRGB"><feFlood flood-opacity="0" result="BackgroundImageFix"></feFlood><feGaussianBlur in="BackgroundImageFix" stdDeviation="3.822"></feGaussianBlur><feComposite in2="SourceAlpha" operator="in" result="effect1_backgroundBlur_1326_215341"></feComposite><feBlend mode="normal" in="SourceGraphic" in2="effect1_backgroundBlur_1326_215341" result="shape"></feBlend></filter><clipPath id="svg301573132_2272_clip0_1326_215341"><rect width="24" height="24" fill="white" transform="translate(5.99902 6.64435)"></rect></clipPath></defs></svg>