<svg width="24" height="25" viewBox="0 0 24 25" fill="none" xmlns="http://www.w3.org/2000/svg">
  <path
    d="M11.999 0.944351C9.14956 0.944469 6.39317 1.95849 4.22298 3.80498C2.0528 5.65147 0.610453 8.20993 0.154015 11.0226C-0.302423 13.8352 0.256836 16.7185 1.73172 19.1565C3.20661 21.5946 5.50088 23.4282 8.20402 24.3294C8.80402 24.4345 9.02902 24.0745 9.02902 23.7594C9.02902 23.4744 9.01401 22.5294 9.01401 21.5244C5.99901 22.0794 5.21902 20.7895 4.97902 20.1145C4.71271 19.458 4.29056 18.8762 3.74903 18.4194C3.32903 18.1944 2.72904 17.6394 3.73402 17.6244C4.11776 17.6661 4.48581 17.7996 4.80698 18.0137C5.12815 18.2278 5.39298 18.5162 5.57902 18.8544C5.74314 19.1493 5.96383 19.4088 6.22844 19.6182C6.49305 19.8276 6.79638 19.9827 7.12105 20.0747C7.44571 20.1667 7.78533 20.1937 8.12045 20.1542C8.45557 20.1146 8.7796 20.0094 9.07397 19.8444C9.12592 19.2344 9.3978 18.664 9.83899 18.2395C7.16901 17.9395 4.37903 16.9044 4.37903 12.3144C4.36216 11.1218 4.80225 9.96792 5.60902 9.08942C5.24216 8.05288 5.28508 6.91535 5.72902 5.90941C5.72902 5.90941 6.73397 5.59439 9.02899 7.13941C10.9925 6.59938 13.0654 6.59938 15.029 7.13941C17.3239 5.57941 18.3289 5.90941 18.3289 5.90941C18.7729 6.91534 18.8158 8.05289 18.4489 9.08942C19.2581 9.96641 19.6986 11.1213 19.6789 12.3144C19.6789 16.9194 16.8739 17.9395 14.204 18.2395C14.4903 18.5297 14.7109 18.8782 14.8507 19.2613C14.9904 19.6443 15.0461 20.053 15.014 20.4595C15.014 22.0645 14.9989 23.3545 14.9989 23.7595C14.9989 24.0745 15.2239 24.4495 15.8239 24.3295C18.5223 23.4209 20.81 21.583 22.2786 19.1437C23.7472 16.7044 24.3011 13.8226 23.8415 11.0127C23.3819 8.20276 21.9387 5.64762 19.7695 3.80338C17.6002 1.95914 14.8462 0.945833 11.999 0.944351Z"
    fill="#F7F8F8" />
  <path
    d="M11.999 0.944351C9.14956 0.944469 6.39317 1.95849 4.22298 3.80498C2.0528 5.65147 0.610453 8.20993 0.154015 11.0226C-0.302423 13.8352 0.256836 16.7185 1.73172 19.1565C3.20661 21.5946 5.50088 23.4282 8.20402 24.3294C8.80402 24.4345 9.02902 24.0745 9.02902 23.7594C9.02902 23.4744 9.01401 22.5294 9.01401 21.5244C5.99901 22.0794 5.21902 20.7895 4.97902 20.1145C4.71271 19.458 4.29056 18.8762 3.74903 18.4194C3.32903 18.1944 2.72904 17.6394 3.73402 17.6244C4.11776 17.6661 4.48581 17.7996 4.80698 18.0137C5.12815 18.2278 5.39298 18.5162 5.57902 18.8544C5.74314 19.1493 5.96383 19.4088 6.22844 19.6182C6.49305 19.8276 6.79638 19.9827 7.12105 20.0747C7.44571 20.1667 7.78533 20.1937 8.12045 20.1542C8.45557 20.1146 8.7796 20.0094 9.07397 19.8444C9.12592 19.2344 9.3978 18.664 9.83899 18.2395C7.16901 17.9395 4.37903 16.9044 4.37903 12.3144C4.36216 11.1218 4.80225 9.96792 5.60902 9.08942C5.24216 8.05288 5.28508 6.91535 5.72902 5.90941C5.72902 5.90941 6.73397 5.59439 9.02899 7.13941C10.9925 6.59938 13.0654 6.59938 15.029 7.13941C17.3239 5.57941 18.3289 5.90941 18.3289 5.90941C18.7729 6.91534 18.8158 8.05289 18.4489 9.08942C19.2581 9.96641 19.6986 11.1213 19.6789 12.3144C19.6789 16.9194 16.8739 17.9395 14.204 18.2395C14.4903 18.5297 14.7109 18.8782 14.8507 19.2613C14.9904 19.6443 15.0461 20.053 15.014 20.4595C15.014 22.0645 14.9989 23.3545 14.9989 23.7595C14.9989 24.0745 15.2239 24.4495 15.8239 24.3295C18.5223 23.4209 20.81 21.583 22.2786 19.1437C23.7472 16.7044 24.3011 13.8226 23.8415 11.0127C23.3819 8.20276 21.9387 5.64762 19.7695 3.80338C17.6002 1.95914 14.8462 0.945833 11.999 0.944351Z"
    fill="#78767F" fill-opacity="0.02" />
  <path
    d="M11.999 0.944351C9.14956 0.944469 6.39317 1.95849 4.22298 3.80498C2.0528 5.65147 0.610453 8.20993 0.154015 11.0226C-0.302423 13.8352 0.256836 16.7185 1.73172 19.1565C3.20661 21.5946 5.50088 23.4282 8.20402 24.3294C8.80402 24.4345 9.02902 24.0745 9.02902 23.7594C9.02902 23.4744 9.01401 22.5294 9.01401 21.5244C5.99901 22.0794 5.21902 20.7895 4.97902 20.1145C4.71271 19.458 4.29056 18.8762 3.74903 18.4194C3.32903 18.1944 2.72904 17.6394 3.73402 17.6244C4.11776 17.6661 4.48581 17.7996 4.80698 18.0137C5.12815 18.2278 5.39298 18.5162 5.57902 18.8544C5.74314 19.1493 5.96383 19.4088 6.22844 19.6182C6.49305 19.8276 6.79638 19.9827 7.12105 20.0747C7.44571 20.1667 7.78533 20.1937 8.12045 20.1542C8.45557 20.1146 8.7796 20.0094 9.07397 19.8444C9.12592 19.2344 9.3978 18.664 9.83899 18.2395C7.16901 17.9395 4.37903 16.9044 4.37903 12.3144C4.36216 11.1218 4.80225 9.96792 5.60902 9.08942C5.24216 8.05288 5.28508 6.91535 5.72902 5.90941C5.72902 5.90941 6.73397 5.59439 9.02899 7.13941C10.9925 6.59938 13.0654 6.59938 15.029 7.13941C17.3239 5.57941 18.3289 5.90941 18.3289 5.90941C18.7729 6.91534 18.8158 8.05289 18.4489 9.08942C19.2581 9.96641 19.6986 11.1213 19.6789 12.3144C19.6789 16.9194 16.8739 17.9395 14.204 18.2395C14.4903 18.5297 14.7109 18.8782 14.8507 19.2613C14.9904 19.6443 15.0461 20.053 15.014 20.4595C15.014 22.0645 14.9989 23.3545 14.9989 23.7595C14.9989 24.0745 15.2239 24.4495 15.8239 24.3295C18.5223 23.4209 20.81 21.583 22.2786 19.1437C23.7472 16.7044 24.3011 13.8226 23.8415 11.0127C23.3819 8.20276 21.9387 5.64762 19.7695 3.80338C17.6002 1.95914 14.8462 0.945833 11.999 0.944351Z"
    fill="#5D34F2" fill-opacity="0.05" />
</svg>
  
