<svg xmlns="http://www.w3.org/2000/svg" xmlns:xlink="http://www.w3.org/1999/xlink" viewBox="0 0 23 24"><path d="M 22.539 12.401 C 22.539 11.584 22.466 10.798 22.33 10.044 L 11.499 10.044 L 11.499 14.5 L 17.688 14.5 C 17.422 15.94 16.611 17.16 15.393 17.977 L 15.393 20.868 L 19.11 20.868 C 21.284 18.862 22.539 15.909 22.539 12.401 Z" fill="rgb(247,248,248)"></path><path d="M 22.539 12.401 C 22.539 11.584 22.466 10.798 22.33 10.044 L 11.499 10.044 L 11.499 14.5 L 17.688 14.5 C 17.422 15.94 16.611 17.16 15.393 17.977 L 15.393 20.868 L 19.11 20.868 C 21.284 18.862 22.539 15.909 22.539 12.401 Z" fill="rgba(120,118,127,0.02)"></path><path d="M 22.539 12.401 C 22.539 11.584 22.466 10.798 22.33 10.044 L 11.499 10.044 L 11.499 14.5 L 17.688 14.5 C 17.422 15.94 16.611 17.16 15.393 17.977 L 15.393 20.868 L 19.11 20.868 C 21.284 18.862 22.539 15.909 22.539 12.401 Z" fill="rgba(93,52,242,0.05)"></path><path d="M 11.499 23.659 C 14.604 23.659 17.207 22.627 19.11 20.868 L 15.393 17.977 C 14.364 18.668 13.046 19.077 11.499 19.077 C 8.504 19.077 5.969 17.05 5.064 14.327 L 1.222 14.327 L 1.222 17.312 C 3.115 21.077 7.004 23.659 11.499 23.659 Z" fill="rgb(247,248,248)"></path><path d="M 11.499 23.659 C 14.604 23.659 17.207 22.627 19.11 20.868 L 15.393 17.977 C 14.364 18.668 13.046 19.077 11.499 19.077 C 8.504 19.077 5.969 17.05 5.064 14.327 L 1.222 14.327 L 1.222 17.312 C 3.115 21.077 7.004 23.659 11.499 23.659 Z" fill="rgba(120,118,127,0.02)"></path><path d="M 11.499 23.659 C 14.604 23.659 17.207 22.627 19.11 20.868 L 15.393 17.977 C 14.364 18.668 13.046 19.077 11.499 19.077 C 8.504 19.077 5.969 17.05 5.064 14.327 L 1.222 14.327 L 1.222 17.312 C 3.115 21.077 7.004 23.659 11.499 23.659 Z" fill="rgba(93,52,242,0.05)"></path><path d="M 5.064 14.327 C 4.834 13.636 4.704 12.898 4.704 12.138 C 4.704 11.379 4.834 10.641 5.064 9.95 L 5.064 6.965 L 1.222 6.965 C 0.443 8.52 -0.001 10.279 -0.001 12.138 C -0.001 13.997 0.443 15.757 1.222 17.312 Z" fill="rgb(247,248,248)"></path><path d="M 5.064 14.327 C 4.834 13.636 4.704 12.898 4.704 12.138 C 4.704 11.379 4.834 10.641 5.064 9.95 L 5.064 6.965 L 1.222 6.965 C 0.443 8.52 -0.001 10.279 -0.001 12.138 C -0.001 13.997 0.443 15.757 1.222 17.312 Z" fill="rgba(120,118,127,0.02)"></path><path d="M 5.064 14.327 C 4.834 13.636 4.704 12.898 4.704 12.138 C 4.704 11.379 4.834 10.641 5.064 9.95 L 5.064 6.965 L 1.222 6.965 C 0.443 8.52 -0.001 10.279 -0.001 12.138 C -0.001 13.997 0.443 15.757 1.222 17.312 Z" fill="rgba(93,52,242,0.05)"></path><path d="M 11.499 5.2 C 13.187 5.2 14.703 5.782 15.895 6.923 L 19.194 3.619 C 17.202 1.76 14.599 0.619 11.499 0.619 C 7.004 0.619 3.115 3.2 1.222 6.965 L 5.064 9.95 C 5.969 7.227 8.504 5.2 11.499 5.2 Z" fill="rgb(247,248,248)"></path><path d="M 11.499 5.2 C 13.187 5.2 14.703 5.782 15.895 6.923 L 19.194 3.619 C 17.202 1.76 14.599 0.619 11.499 0.619 C 7.004 0.619 3.115 3.2 1.222 6.965 L 5.064 9.95 C 5.969 7.227 8.504 5.2 11.499 5.2 Z" fill="rgba(120,118,127,0.02)"></path><path d="M 11.499 5.2 C 13.187 5.2 14.703 5.782 15.895 6.923 L 19.194 3.619 C 17.202 1.76 14.599 0.619 11.499 0.619 C 7.004 0.619 3.115 3.2 1.222 6.965 L 5.064 9.95 C 5.969 7.227 8.504 5.2 11.499 5.2 Z" fill="rgba(93,52,242,0.05)"></path></svg>