<svg xmlns="http://www.w3.org/2000/svg" xmlns:xlink="http://www.w3.org/1999/xlink"
    viewBox="0 0 32 32">
    <path
        d="M 16 10.074 C 15.214 10.074 14.461 10.386 13.905 10.942 C 13.349 11.498 13.037 12.251 13.037 13.037 C 13.04 13.554 13.179 14.062 13.439 14.509 C 13.698 14.956 14.071 15.327 14.519 15.585 L 14.519 20.445 C 14.519 20.838 14.675 21.214 14.953 21.492 C 15.23 21.77 15.607 21.926 16 21.926 C 16.393 21.926 16.77 21.77 17.048 21.492 C 17.326 21.214 17.482 20.838 17.482 20.445 L 17.482 15.585 C 17.929 15.327 18.302 14.956 18.562 14.509 C 18.822 14.062 18.96 13.554 18.963 13.037 C 18.963 12.251 18.651 11.498 18.095 10.942 C 17.54 10.386 16.786 10.074 16 10.074 Z M 16 1.185 C 13.07 1.185 10.206 2.054 7.769 3.682 C 5.333 5.31 3.434 7.624 2.313 10.331 C 1.192 13.038 0.898 16.017 1.47 18.89 C 2.042 21.764 3.453 24.404 5.524 26.476 C 7.596 28.548 10.236 29.959 13.11 30.53 C 15.984 31.102 18.962 30.809 21.67 29.687 C 24.377 28.566 26.69 26.667 28.318 24.231 C 29.946 21.794 30.815 18.93 30.815 16 C 30.815 14.055 30.432 12.128 29.687 10.331 C 28.943 8.533 27.852 6.9 26.476 5.524 C 25.1 4.149 23.467 3.058 21.67 2.313 C 19.872 1.569 17.946 1.185 16 1.185 Z M 16 27.852 C 13.656 27.852 11.365 27.157 9.416 25.855 C 7.467 24.552 5.948 22.701 5.05 20.536 C 4.153 18.37 3.919 15.987 4.376 13.688 C 4.833 11.389 5.962 9.277 7.62 7.62 C 9.277 5.962 11.389 4.833 13.688 4.376 C 15.987 3.919 18.37 4.153 20.536 5.05 C 22.701 5.948 24.552 7.467 25.855 9.416 C 27.157 11.365 27.852 13.656 27.852 16 C 27.852 19.143 26.603 22.158 24.381 24.381 C 22.158 26.603 19.143 27.852 16 27.852 Z"
        fill="rgba(255, 255, 255, 0.8)"></path>
</svg>