<svg viewBox="0 0 12 14" fill="none" xmlns="http://www.w3.org/2000/svg" id="svg-1047769097_2043">
    <path
        d="M5.99242 7.50049C5.79225 7.4982 5.59616 7.55593 5.43055 7.6659C5.26494 7.77588 5.13777 7.93282 5.06614 8.11561C4.99452 8.29839 4.98189 8.49825 5.02994 8.68826C5.07799 8.87828 5.18443 9.04935 5.33492 9.17843V10.072C5.33492 10.2425 5.40419 10.4061 5.5275 10.5266C5.6508 10.6472 5.81804 10.7149 5.99242 10.7149C6.1668 10.7149 6.33404 10.6472 6.45734 10.5266C6.58065 10.4061 6.64992 10.2425 6.64992 10.072V9.17843C6.80041 9.04935 6.90685 8.87828 6.9549 8.68826C7.00296 8.49825 6.99032 8.29839 6.9187 8.11561C6.84708 7.93282 6.7199 7.77588 6.55429 7.6659C6.38869 7.55593 6.1926 7.4982 5.99242 7.50049V7.50049ZM9.27992 4.92893V3.64316C9.27992 2.79063 8.93356 1.97303 8.31704 1.3702C7.70051 0.767375 6.86432 0.428711 5.99242 0.428711C5.12052 0.428711 4.28433 0.767375 3.66781 1.3702C3.05128 1.97303 2.70492 2.79063 2.70492 3.64316V4.92893C2.18178 4.92893 1.68007 5.13213 1.31015 5.49383C0.940238 5.85552 0.732422 6.34609 0.732422 6.8576V11.3578C0.732422 11.8693 0.940238 12.3599 1.31015 12.7216C1.68007 13.0833 2.18178 13.2865 2.70492 13.2865H9.27992C9.80306 13.2865 10.3048 13.0833 10.6747 12.7216C11.0446 12.3599 11.2524 11.8693 11.2524 11.3578V6.8576C11.2524 6.34609 11.0446 5.85552 10.6747 5.49383C10.3048 5.13213 9.80306 4.92893 9.27992 4.92893ZM4.01992 3.64316C4.01992 3.13164 4.22774 2.64108 4.59765 2.27938C4.96757 1.91769 5.46928 1.71449 5.99242 1.71449C6.51556 1.71449 7.01728 1.91769 7.38719 2.27938C7.75711 2.64108 7.96492 3.13164 7.96492 3.64316V4.92893H4.01992V3.64316ZM9.93742 11.3578C9.93742 11.5283 9.86815 11.6918 9.74485 11.8124C9.62154 11.933 9.4543 12.0007 9.27992 12.0007H2.70492C2.53054 12.0007 2.3633 11.933 2.24 11.8124C2.11669 11.6918 2.04742 11.5283 2.04742 11.3578V6.8576C2.04742 6.68709 2.11669 6.52357 2.24 6.40301C2.3633 6.28244 2.53054 6.21471 2.70492 6.21471H9.27992C9.4543 6.21471 9.62154 6.28244 9.74485 6.40301C9.86815 6.52357 9.93742 6.68709 9.93742 6.8576V11.3578Z"
        fill="white" fill-opacity="0.7"></path>
</svg>