<svg height="32" viewBox="0 0 93 72" fill="none" xmlns="http://www.w3.org/2000/svg"
    id="svg-1990980963_1847">
    <path
        d="M0 10.2857C0 4.60507 4.60507 0 10.2857 0H82.2857C87.9664 0 92.5714 4.60507 92.5714 10.2857V61.7143C92.5714 67.3949 87.9664 72 82.2857 72H10.2857C4.60507 72 0 67.3949 0 61.7143V10.2857Z"
        fill="white" fill-opacity="0.2"></path>
    <rect y="20.572" width="92.5714" height="5.14286" fill="white" fill-opacity="0.4"></rect>
    <path
        d="M51.4277 12.8576C51.4277 11.4374 52.579 10.2861 53.9992 10.2861H79.7134C81.1336 10.2861 82.2849 11.4374 82.2849 12.8576C82.2849 14.2777 81.1336 15.429 79.7134 15.429H53.9992C52.579 15.429 51.4277 14.2777 51.4277 12.8576Z"
        fill="white" fill-opacity="0.6"></path>
    <rect x="10.2852" y="10.2861" width="5.14286" height="5.14286" rx="2.57143" fill="white"
        fill-opacity="0.8"></rect>
    <path
        d="M51.4277 38.5712C51.4277 37.151 52.579 35.9998 53.9992 35.9998H79.7134C81.1336 35.9998 82.2849 37.151 82.2849 38.5712C82.2849 39.9913 81.1336 41.1426 79.7134 41.1426H53.9992C52.579 41.1426 51.4277 39.9913 51.4277 38.5712Z"
        fill="white" fill-opacity="0.6"></path>
    <rect x="10.2852" y="35.9998" width="5.14286" height="5.14286" rx="2.57143" fill="white"
        fill-opacity="0.8"></rect>
    <rect x="20.5723" y="35.9998" width="5.14286" height="5.14286" rx="2.57143" fill="white"
        fill-opacity="0.8"></rect>
    <path
        d="M51.4277 64.286C51.4277 62.8659 52.579 61.7146 53.9992 61.7146H79.7134C81.1336 61.7146 82.2849 62.8659 82.2849 64.286C82.2849 65.7062 81.1336 66.8575 79.7134 66.8575H53.9992C52.579 66.8575 51.4277 65.7062 51.4277 64.286Z"
        fill="white" fill-opacity="0.6"></path>
    <rect x="10.2852" y="61.7148" width="5.14286" height="5.14286" rx="2.57143" fill="white"
        fill-opacity="0.8"></rect>
    <rect x="20.5723" y="61.7146" width="5.14286" height="5.14286" rx="2.57143" fill="white"
        fill-opacity="0.8"></rect>
    <rect y="46.2856" width="92.5714" height="5.14286" fill="white" fill-opacity="0.4"></rect>
</svg>