<svg xmlns="http://www.w3.org/2000/svg" viewBox="0 0 25 29" height="24">
    <path
        d="M 12.89 0.8 C 9.908 0.8 7.491 3.218 7.491 6.2 L 7.491 7.4 C 7.491 10.382 9.908 12.8 12.89 12.8 C 15.873 12.8 18.29 10.382 18.29 7.4 L 18.29 6.2 C 18.29 3.218 15.873 0.8 12.89 0.8 Z M 12.891 28.4 C 24.891 28.4 24.891 24.499 24.891 24.499 C 24.891 19.44 22.379 14.723 15.891 14.6 C 15.863 14.599 15.676 14.782 15.404 15.046 C 14.691 15.739 13.398 16.998 12.891 16.998 C 12.383 16.998 11.09 15.739 10.377 15.046 C 10.105 14.782 9.918 14.599 9.891 14.6 C 3.402 14.723 0.891 19.44 0.891 24.499 C 0.891 24.499 0.891 28.4 12.891 28.4 Z"
        fill="rgba(255, 255, 255, 0.8)"></path>
</svg>