<svg viewBox="0 0 17 17" fill="none" xmlns="http://www.w3.org/2000/svg" id="svg1940910414_3813">
    <path fill-rule="evenodd" clip-rule="evenodd"
        d="M8.87406 2.5882C8.87406 2.384 8.70853 2.21846 8.50432 2.21846H4.06745C3.86325 2.21846 3.69771 2.384 3.69771 2.5882V5.17638H8.87406V2.5882ZM3.69771 0.739502C2.8809 0.739502 2.21875 1.40165 2.21875 2.21846V5.17638C2.21875 5.99318 2.8809 5.91586 3.69771 5.91586H8.87406C9.69087 5.91586 10.353 5.99318 10.353 5.17638V2.21846C10.353 1.40165 9.69087 0.739502 8.87406 0.739502H3.69771Z"
        fill="white"></path>
    <path fill-rule="evenodd" clip-rule="evenodd"
        d="M0.740234 6.65535C0.740234 5.83854 1.40239 5.17639 2.21919 5.17639H10.3535C11.1703 5.17639 11.8324 5.83854 11.8324 6.65535L2.58893 6.65535C2.38473 6.65535 2.21919 6.82089 2.21919 7.02509V15.1594C2.21919 15.3636 2.38473 15.5291 2.58893 15.5291H4.43763C4.84603 15.5291 5.17711 15.8602 5.17711 16.2686C5.17711 16.677 4.84603 17.0081 4.43763 17.0081H2.21919C1.40239 17.0081 0.740234 16.3459 0.740234 15.5291V6.65535Z"
        fill="white"></path>
    <path fill-rule="evenodd" clip-rule="evenodd"
        d="M5.17751 4.43691C4.76911 4.43691 4.43803 4.10583 4.43803 3.69743V3.69743C4.43803 3.28902 4.76911 2.95795 5.17751 2.95795V2.95795C5.58592 2.95795 5.91699 3.28902 5.91699 3.69743V3.69743C5.91699 4.10583 5.58592 4.43691 5.17751 4.43691V4.43691Z"
        fill="white"></path>
    <path fill-rule="evenodd" clip-rule="evenodd"
        d="M7.39529 4.43691C6.98688 4.43691 6.65581 4.10583 6.65581 3.69743V3.69743C6.65581 3.28902 6.98688 2.95795 7.39529 2.95795V2.95795C7.80369 2.95795 8.13477 3.28902 8.13477 3.69743V3.69743C8.13477 4.10583 7.80369 4.43691 7.39529 4.43691V4.43691Z"
        fill="white"></path>
    <path fill-rule="evenodd" clip-rule="evenodd"
        d="M12.2021 8.8738C10.2964 8.8738 8.87447 10.2628 8.87447 11.8317V16.2686C8.87447 16.677 8.54339 17.0081 8.13499 17.0081C7.72658 17.0081 7.39551 16.677 7.39551 16.2686V11.8317C7.39551 9.31655 9.61541 7.39484 12.2021 7.39484C14.7888 7.39484 17.0087 9.31655 17.0087 11.8317V13.3107C17.0087 13.7191 16.6777 14.0502 16.2693 14.0502C15.8609 14.0502 15.5298 13.7191 15.5298 13.3107V11.8317C15.5298 10.2628 14.1078 8.8738 12.2021 8.8738Z"
        fill="white"></path>
    <path fill-rule="evenodd" clip-rule="evenodd"
        d="M12.2019 11.0922C12.8824 11.0922 13.3111 11.5784 13.3111 12.0334V16.2686C13.3111 16.677 13.6422 17.0081 14.0506 17.0081C14.459 17.0081 14.79 16.677 14.79 16.2686V12.0334C14.79 10.6321 13.5634 9.61328 12.2019 9.61328C10.8404 9.61328 9.61368 10.6321 9.61368 12.0334V12.7056C9.61368 13.1141 9.94476 13.4451 10.3532 13.4451C10.7616 13.4451 11.0926 13.1141 11.0926 12.7056V12.0334C11.0926 11.5784 11.5214 11.0922 12.2019 11.0922Z"
        fill="white"></path>
    <path fill-rule="evenodd" clip-rule="evenodd"
        d="M16.2698 14.7896C16.6782 14.7896 17.0092 15.1207 17.0092 15.5291L17.0092 16.2686C17.0092 16.677 16.6782 17.008 16.2698 17.008C15.8613 17.008 15.5303 16.677 15.5303 16.2686L15.5303 15.5291C15.5303 15.1207 15.8613 14.7896 16.2698 14.7896Z"
        fill="white"></path>
    <path fill-rule="evenodd" clip-rule="evenodd"
        d="M12.2024 14.7896C12.6108 14.7896 12.9418 15.1207 12.9418 15.5291L12.9418 16.2686C12.9418 16.677 12.6108 17.008 12.2024 17.008C11.794 17.008 11.4629 16.677 11.4629 16.2686L11.4629 15.5291C11.4629 15.1207 11.794 14.7896 12.2024 14.7896Z"
        fill="white"></path>
    <path fill-rule="evenodd" clip-rule="evenodd"
        d="M10.3537 14.0501C10.7621 14.0501 11.0932 14.3812 11.0932 14.7896L11.0932 16.2685C11.0932 16.677 10.7621 17.008 10.3537 17.008C9.94533 17.008 9.61426 16.677 9.61426 16.2685L9.61426 14.7896C9.61426 14.3812 9.94533 14.0501 10.3537 14.0501Z"
        fill="white"></path>
    <path fill-rule="evenodd" clip-rule="evenodd"
        d="M12.2024 11.8317C12.6108 11.8317 12.9418 12.1627 12.9418 12.5711V13.3106C12.9418 13.719 12.6108 14.0501 12.2024 14.0501C11.794 14.0501 11.4629 13.719 11.4629 13.3106V12.5711C11.4629 12.1627 11.794 11.8317 12.2024 11.8317Z"
        fill="white"></path>
</svg>