<svg width="15" height="14" viewBox="0 0 15 14" fill="none" xmlns="http://www.w3.org/2000/svg">
<path d="M14.0094 0.142807H0.990589C0.540424 0.142807 0.174011 0.509059 0.174011 0.959385V10.5393C0.174011 10.9894 0.540263 11.3559 0.990589 11.3559H2.85857V12.5501C2.85857 12.6765 2.961 12.779 3.08744 12.779H4.2817C4.40813 12.779 4.51057 12.6765 4.51057 12.5501V11.3559H5.40204V12.5501C5.40204 12.6765 5.50448 12.779 5.63091 12.779H6.82517C6.95161 12.779 7.05404 12.6765 7.05404 12.5501V11.3559H7.94551V12.5501C7.94551 12.6765 8.04795 12.779 8.17438 12.779H9.36864C9.49508 12.779 9.59751 12.6765 9.59751 12.5501V11.3559H10.489V12.5501C10.489 12.6765 10.5914 12.779 10.7178 12.779H11.9121C12.0385 12.779 12.141 12.6765 12.141 12.5501V11.3559H14.009C14.4591 11.3559 14.8255 10.9896 14.8255 10.5393V0.959385C14.826 0.509059 14.4596 0.142807 14.0094 0.142807ZM0.990589 0.600702H14.0094C14.2072 0.600702 14.3681 0.761602 14.3681 0.959385V2.37752H0.631907V0.959385C0.631907 0.761602 0.792806 0.600702 0.990589 0.600702ZM4.05283 12.3211H3.31647V10.4879H4.05283V12.3211ZM6.59647 12.3211H5.8601V8.47319H6.59647V12.3211ZM9.13994 12.3211H8.40357V9.28751H9.13994V12.3211ZM11.6836 12.3211H10.9472V6.90655H11.6836V12.3211ZM14.0094 10.8978H12.1415V6.67768C12.1415 6.55125 12.039 6.44881 11.9126 6.44881H10.7183C10.5919 6.44881 10.4895 6.55125 10.4895 6.67768V10.8978H9.59799V9.05864C9.59799 8.93221 9.49556 8.82977 9.36913 8.82977H8.17486C8.04843 8.82977 7.94599 8.93221 7.94599 9.05864V10.8978H7.05452V8.24416C7.05452 8.11773 6.95209 8.01529 6.82566 8.01529H5.63139C5.50496 8.01529 5.40252 8.11773 5.40252 8.24416V10.8978H4.51073V10.2589C4.51073 10.1324 4.4083 10.03 4.28186 10.03H3.0876C2.96117 10.03 2.85873 10.1324 2.85873 10.2589V10.8978H0.990589C0.792806 10.8978 0.631907 10.7369 0.631907 10.5391V2.83542H14.3681V10.5393C14.3681 10.7369 14.2072 10.8978 14.0094 10.8978ZM1.94407 1.48911C1.94407 1.30003 2.09836 1.14573 2.28745 1.14573C2.47653 1.14573 2.63083 1.30003 2.63083 1.48911C2.63083 1.6782 2.47653 1.83249 2.28745 1.83249C2.09836 1.83249 1.94407 1.6782 1.94407 1.48911ZM3.26235 1.48911C3.26235 1.30003 3.41665 1.14573 3.60573 1.14573C3.79482 1.14573 3.94911 1.30003 3.94911 1.48911C3.94911 1.6782 3.79482 1.83249 3.60573 1.83249C3.41665 1.83249 3.26235 1.6782 3.26235 1.48911ZM4.58063 1.48911C4.58063 1.30003 4.73493 1.14573 4.92401 1.14573C5.1131 1.14573 5.26739 1.30003 5.26739 1.48911C5.26739 1.6782 5.1131 1.83249 4.92401 1.83249C4.73477 1.83249 4.58063 1.6782 4.58063 1.48911ZM11.3154 3.79566C10.8731 3.79566 10.5135 4.15547 10.5135 4.59758C10.5135 4.72208 10.542 4.84014 10.5929 4.94547L9.18616 6.22526C9.0652 6.15198 8.92331 6.10978 8.77191 6.10978C8.52501 6.10978 8.30387 6.22204 8.15666 6.39792L7.02457 5.91119C7.02811 5.88059 7.0302 5.84951 7.0302 5.81794C7.0302 5.37583 6.67039 5.01602 6.22828 5.01602C5.78601 5.01602 5.42636 5.37583 5.42636 5.81794C5.42636 5.91732 5.44472 6.0125 5.4779 6.10028L4.15817 7.1024C4.02545 7.00496 3.86182 6.9473 3.68481 6.9473C3.24254 6.9473 2.88289 7.30711 2.88289 7.74922C2.88289 8.19149 3.2427 8.55114 3.68481 8.55114C4.12692 8.55114 4.48673 8.19133 4.48673 7.74922C4.48673 7.64984 4.46837 7.55466 4.43519 7.46688L5.75509 6.46476C5.8878 6.5622 6.05144 6.61986 6.22844 6.61986C6.47535 6.61986 6.69648 6.5076 6.84369 6.33172L7.97579 6.81845C7.97225 6.84905 7.97015 6.88014 7.97015 6.9117C7.97015 7.35398 8.32996 7.71362 8.77207 7.71362C9.21435 7.71362 9.57399 7.35382 9.57399 6.9117C9.57399 6.7872 9.54549 6.66915 9.49459 6.56381L10.9013 5.28402C11.0223 5.35731 11.1641 5.39951 11.3155 5.39951C11.7578 5.39951 12.1175 5.0397 12.1175 4.59758C12.1173 4.15547 11.7577 3.79566 11.3154 3.79566ZM3.68465 8.09324C3.49492 8.09324 3.34062 7.93895 3.34062 7.74922C3.34062 7.55949 3.49492 7.40519 3.68465 7.40519C3.87438 7.40519 4.02868 7.55949 4.02868 7.74922C4.02868 7.93895 3.87438 8.09324 3.68465 8.09324ZM6.22828 6.16197C6.03855 6.16197 5.88426 6.00767 5.88426 5.81794C5.88426 5.62821 6.03855 5.47391 6.22828 5.47391C6.41801 5.47391 6.57231 5.62821 6.57231 5.81794C6.57231 6.00767 6.41801 6.16197 6.22828 6.16197ZM8.77191 7.25573C8.58218 7.25573 8.42789 7.10143 8.42789 6.9117C8.42789 6.72197 8.58218 6.56768 8.77191 6.56768C8.96164 6.56768 9.11594 6.72197 9.11594 6.9117C9.11594 7.10143 8.96164 7.25573 8.77191 7.25573ZM11.3154 4.94177C11.1257 4.94177 10.9714 4.78747 10.9714 4.59774C10.9714 4.40802 11.1257 4.25372 11.3154 4.25372C11.5051 4.25372 11.6594 4.40802 11.6594 4.59774C11.6594 4.78747 11.5051 4.94177 11.3154 4.94177Z" fill="black"/>
</svg>
