<svg width="25" height="26" viewBox="0 0 25 26" fill="none" xmlns="http://www.w3.org/2000/svg">
<path d="M25 1.17845V7.36533C25 8.01347 24.4886 8.54378 23.8636 8.54378C23.2386 8.54378 22.7273 8.01347 22.7273 7.36533V4.03653L15.5401 11.4606C15.3128 11.6962 15.0285 11.8144 14.7444 11.8144C14.4603 11.8144 14.176 11.6962 13.9487 11.4606C13.4942 10.9892 13.4942 10.2529 13.9487 9.78147L21.1082 2.3569H17.8977C17.2727 2.3569 16.7614 1.8266 16.7614 1.17845C16.7614 0.530302 17.2727 0 17.8977 0H23.8636C24.1761 0 24.4605 0.11819 24.6593 0.353879C24.8866 0.560108 25 0.854376 25 1.17845ZM9.3467 14.5833L2.27273 21.8899V18.5606C2.27273 17.9125 1.76136 17.3822 1.13636 17.3822C0.511363 17.3822 0 17.9125 0 18.5606V24.7475C0 25.0715 0.113969 25.3664 0.341241 25.5726C0.540105 25.8083 0.823863 25.9259 1.13636 25.9259H7.10227C7.72727 25.9259 8.23863 25.3956 8.23863 24.7475C8.23863 24.0993 7.72727 23.569 7.10227 23.569H3.89238L10.9658 16.2336C11.4203 15.7622 11.4203 15.0254 10.9658 14.554C10.5112 14.1121 9.77284 14.112 9.3467 14.5833Z" fill="white"/>
</svg>
