<svg width="50" height="51" viewBox="0 0 60 61" fill="none" xmlns="http://www.w3.org/2000/svg">
<rect y="0.5" width="60" height="60" rx="15" fill="#FFE8DA"/>
<path d="M32.9778 42.0516C36.9334 41.6272 40.5249 40.3857 43.6872 38.4981L43.5669 38.5646C44.1607 38.2163 44.7165 37.8045 45.2803 37.3992C45.8218 37.0191 45.5178 36.0341 44.441 36.4934C40.7292 38.1228 36.4188 39.1648 31.8915 39.377L31.8107 39.3802C31.3356 39.4039 30.7798 39.4166 30.2208 39.4166C28.3966 39.4166 26.604 39.2772 24.8542 39.008L25.049 39.0334C20.1131 38.3224 15.6681 36.7246 11.7014 34.3984L11.874 34.4918C11.7346 34.3984 11.5747 34.3223 11.4036 34.2717L11.391 34.2685C11.0268 34.1877 10.8193 34.6169 11.212 34.9874C16.0719 39.4815 22.5961 42.2369 29.7648 42.2369H29.7869H29.7854C30.8542 42.1767 31.9231 42.1704 32.9762 42.0516H32.9778ZM45.9422 35.2107C47.0412 35.2709 47.3816 35.6493 47.1077 36.7087C46.8258 37.8077 46.4173 38.8766 46.0768 39.9597C46.0103 40.1751 45.7648 40.4269 46.0166 40.6137C46.2922 40.8069 46.4996 40.5393 46.6849 40.3699C47.4054 39.6842 47.9723 38.8465 48.3381 37.9075L48.3539 37.8615C48.7625 36.9684 49 35.9233 49 34.8227C49 34.7974 49 34.7737 49 34.7483V34.7515C48.9842 34.2923 48.867 34.0975 48.4204 33.9724C48.0657 33.8631 47.6492 33.7792 47.2217 33.738L47.1964 33.7364C46.9066 33.7 46.5724 33.6794 46.232 33.6794C44.9081 33.6794 43.6571 33.9914 42.5471 34.544L42.5946 34.5219C42.3491 34.6549 42.1369 34.8006 41.9422 34.9653L41.9485 34.9605C41.8677 35.027 41.711 35.3532 42.1274 35.4134C42.1654 35.4166 42.2114 35.4181 42.2557 35.4181C42.365 35.4181 42.4727 35.4086 42.5756 35.3896L42.5645 35.3912C43.3974 35.2725 44.3602 35.2044 45.3373 35.2044C45.5495 35.2044 45.7601 35.2075 45.9707 35.2139H45.9406L45.9422 35.2107Z" fill="#FFA13C"/>
<path d="M30.3989 21.7447C29.3601 26.0108 29.4266 25.7828 28.4844 29.6846C28.4639 30.0441 28.1662 30.3275 27.8035 30.3275C27.7639 30.3275 27.7243 30.3243 27.6863 30.318H27.6911H26.6222C26.5905 30.3243 26.5525 30.3275 26.5161 30.3275C26.1946 30.3275 25.9302 30.0884 25.889 29.7796V29.7764C24.9753 26.8532 23.7512 22.793 22.9278 20.0773C22.6238 19.0749 22.8233 19.0986 23.6182 19.1192C23.8938 19.1272 24.1598 19.1192 24.4338 19.1192C24.4528 19.1177 24.4749 19.1161 24.4987 19.1161C24.8091 19.1161 25.0656 19.3457 25.1083 19.6434V19.6466C25.376 20.6046 25.5533 21.3394 27.0814 27.3742C27.1099 27.493 27.1479 27.6054 27.1859 27.7147H27.2667C27.3031 27.5658 27.3475 27.4265 27.3855 27.276C27.964 24.8342 28.5404 22.3903 29.1147 19.9443C29.2936 19.1842 29.6119 19.1129 30.3815 19.1129H30.9453C31.452 19.1208 31.6135 19.2237 31.7402 19.7289C32.1852 21.466 33.4853 27.2824 33.7212 27.9221C34.1012 26.5634 33.5882 28.508 35.8368 19.8334C35.992 19.2333 36.1408 19.1145 36.7505 19.1145H37.6864C38.087 19.1224 38.2058 19.2475 38.1092 19.6418C37.9302 20.3481 37.8938 20.3766 35.045 29.5041C34.8138 30.2388 34.7331 30.3053 33.9619 30.3053H33.1749C32.6333 30.3053 32.4924 30.2087 32.3594 29.6814C32.0395 28.4795 30.6301 22.5793 30.3989 21.7479V21.7447ZM20.3213 29.9966C20.429 30.2167 20.6507 30.3655 20.9072 30.3655C21.0877 30.3655 21.2493 30.2927 21.368 30.1739L21.8352 29.862C22.3419 29.5278 22.3767 29.3948 22.1028 28.8596C21.8082 28.299 21.6341 27.6355 21.6341 26.9308C21.6341 26.9071 21.6341 26.8833 21.6341 26.8596V26.8627C21.6341 26.6315 21.6784 22.7297 21.5675 21.9063C21.4694 20.5286 20.5145 19.3979 19.2382 19.0385L19.216 19.0337C18.657 18.8785 18.0157 18.7899 17.3522 18.7899C17.1526 18.7899 16.9531 18.7978 16.7583 18.8136L16.7837 18.812C15.6182 18.858 14.5351 19.1667 13.577 19.6782L13.6166 19.6592C13.4725 19.7368 13.3648 19.8651 13.3141 20.0187L13.3126 20.0234C13.2714 20.2103 13.2476 20.4257 13.2476 20.6458C13.2476 20.7424 13.2524 20.839 13.2603 20.934L13.2587 20.9213C13.3031 21.3599 13.4519 21.4407 13.8668 21.3014C14.2469 21.1747 14.6095 21.0131 14.9879 20.9007C15.5343 20.698 16.1645 20.5808 16.8233 20.5808C17.3348 20.5808 17.8288 20.6521 18.2975 20.7835L18.2595 20.774C18.7615 20.9245 19.1527 21.3029 19.3173 21.7859L19.3205 21.797C19.4424 22.2056 19.5137 22.6743 19.5137 23.1604C19.5137 23.3093 19.5074 23.4581 19.4947 23.6038L19.4963 23.5848C19.4963 23.9934 19.4884 23.9934 19.0877 23.9189C18.4068 23.7495 17.6261 23.6513 16.8217 23.6513C16.5256 23.6513 16.231 23.664 15.9412 23.6909L15.9792 23.6877C14.8296 23.7717 13.8256 24.3307 13.1495 25.1652L13.1431 25.1731C12.7314 25.7432 12.4844 26.4573 12.4844 27.2285C12.4844 27.5405 12.524 27.8414 12.6 28.1296L12.5952 28.1042C12.7599 29.1842 13.5263 30.0488 14.5351 30.356L14.5541 30.3608C14.9974 30.5191 15.5089 30.611 16.0426 30.611C17.0988 30.611 18.0727 30.2515 18.8454 29.6482L18.8359 29.6561C19.1178 29.4487 19.3712 29.1969 19.6594 28.9498C19.8906 29.3204 20.0901 29.6688 20.3197 29.9886L20.3213 29.9966ZM19.1812 25.4249H19.1891C19.3648 25.4249 19.5074 25.5674 19.5074 25.7432C19.5074 25.7653 19.5058 25.7859 19.501 25.8081V25.8065C19.4852 26.0884 19.5089 26.3703 19.4789 26.6521C19.3997 27.4803 18.8819 28.1707 18.1645 28.4954L18.1503 28.5017C17.6847 28.7456 17.1352 28.8897 16.5509 28.8897C16.4321 28.8897 16.315 28.8833 16.1994 28.8722L16.2136 28.8738C15.3759 28.8247 14.7156 28.1343 14.7156 27.2887C14.7156 27.1589 14.7314 27.0322 14.7615 26.9102L14.7599 26.9213C14.8011 26.0535 15.4883 25.3584 16.3498 25.3045H16.3545C16.6871 25.2507 17.0703 25.2206 17.4598 25.2206C18.0743 25.2206 18.6728 25.2966 19.2429 25.4391L19.1922 25.4281L19.1812 25.4249ZM45.0657 30.2563C46.3721 29.8176 47.2953 28.6046 47.2953 27.1763C47.2953 26.953 47.2731 26.7345 47.2304 26.5239L47.2335 26.5444C47.0641 25.5104 46.3404 24.6806 45.3824 24.3607L45.3634 24.3544C43.9192 23.9015 42.7363 23.4439 41.5898 22.9213L41.7941 23.0052C41.4631 22.839 41.2383 22.5064 41.2303 22.12C41.2208 22.0614 41.2161 21.9934 41.2161 21.9253C41.2161 21.2618 41.7196 20.717 42.3657 20.6505H42.3705C42.7046 20.5713 43.0878 20.527 43.4821 20.527C43.8258 20.527 44.163 20.5618 44.4877 20.6268L44.456 20.622C44.9976 20.7265 45.517 20.934 46.0443 21.0892C46.2517 21.1557 46.4829 21.2443 46.6239 20.9704C46.6967 20.8168 46.7395 20.6363 46.7395 20.4478C46.7395 19.9759 46.4766 19.5658 46.0886 19.3568L46.0823 19.3536C45.3 18.9799 44.3816 18.7629 43.4124 18.7629C42.5478 18.7629 41.7244 18.9371 40.9738 19.2507L41.015 19.2348C39.8669 19.6909 39.0704 20.793 39.0704 22.0805C39.0704 23.314 39.802 24.3782 40.855 24.8596L40.874 24.8675C41.4457 25.143 42.068 25.3061 42.6698 25.5278C43.2715 25.7495 43.8717 25.9585 44.4592 26.2024C44.8646 26.4273 45.1353 26.8532 45.1353 27.3425C45.1353 27.7954 44.9041 28.1929 44.5526 28.4257L44.5478 28.4289C42.4924 29.569 39.7339 28.2499 39.4124 28.147C39.1686 28.0662 39.0197 28.1628 38.9453 28.4225C38.8851 28.5635 38.8503 28.7281 38.8503 28.9007C38.8503 29.4851 39.2541 29.976 39.7988 30.1058L39.8067 30.1074C40.6476 30.4447 41.6215 30.6395 42.6413 30.6395C43.5059 30.6395 44.3388 30.4985 45.1163 30.2388L45.0609 30.2547L45.0657 30.2563Z" fill="#121212"/>
</svg>
