<svg width="50" height="51" viewBox="0 0 60 61" fill="none" xmlns="http://www.w3.org/2000/svg">
<rect y="0.500244" width="60" height="60" rx="15" fill="#E4F5FF"/>
<path fill-rule="evenodd" clip-rule="evenodd" d="M34.007 31.1329C33.9795 31.1387 31.5843 31.5627 28.6844 32.075L23.4118 33.0065L32.1128 33.0077L40.8138 33.0088L40.7781 32.9465C40.7585 32.9122 38.6479 29.2534 36.0879 24.8158C33.3535 20.0759 31.4296 16.754 31.4243 16.7633C31.4084 16.791 28.5814 24.5769 28.5814 24.593C28.5814 24.6015 29.8134 26.074 31.3192 27.8654L34.057 31.1223L34.007 31.1329ZM21.109 26.1047C19.5322 28.8375 18.2422 31.0772 18.2422 31.0818C18.2422 31.0864 19.4081 31.0887 20.8331 31.0869L23.424 31.0836L26.9871 23.441C28.9467 19.2376 30.5792 15.7357 30.6148 15.659C30.6504 15.5823 30.6746 15.5215 30.6685 15.5237C30.6625 15.5261 29.1541 16.7898 27.3166 18.332L23.9757 21.136L21.109 26.1047ZM28.8253 43.2168C29.0295 44.6286 29.7998 45.3829 31.1242 45.4678C31.7363 45.507 32.1842 45.4196 32.6309 45.1738C33.0035 44.9687 33.3435 44.6282 33.5476 44.2559C33.5775 44.2015 33.6079 44.155 33.6152 44.1525C33.6243 44.1495 33.6286 44.3321 33.6286 44.7222V45.2963H34.2209H34.8131V41.6778V38.0593H34.2147H33.6162L33.6124 40.3611L33.6085 42.6629L33.574 42.8179C33.4714 43.2776 33.2593 43.6841 32.9727 43.9707C32.7212 44.2221 32.4362 44.3769 32.0805 44.4552C31.9296 44.4883 31.4588 44.4883 31.2933 44.455C30.9424 44.3845 30.689 44.2517 30.4725 44.0248C30.202 43.7413 30.0431 43.3464 29.9633 42.7591C29.9436 42.6143 29.941 42.3731 29.9369 40.316L29.9322 38.0335H29.3461H28.7599L28.7653 40.3933C28.7708 42.8314 28.771 42.8412 28.8253 43.2168ZM43.2055 45.0171C43.6079 45.266 44.1001 45.4268 44.5677 45.4619C44.7893 45.4786 45.4692 45.4685 45.6545 45.4458C46.2754 45.3696 46.8618 45.1663 47.3736 44.8497L47.4949 44.7747L47.4953 44.23C47.4956 43.7916 47.4925 43.6873 47.4793 43.6956C47.4703 43.7013 47.4193 43.7386 47.3661 43.7785C46.9136 44.1178 46.3533 44.349 45.7639 44.4396C45.5574 44.4713 45.0954 44.489 44.9141 44.4722C44.4253 44.4267 43.9785 44.2378 43.6135 43.9222C43.4354 43.7683 43.218 43.4502 43.0917 43.159C42.9452 42.8212 42.8605 42.4242 42.8605 42.0756V41.9611L45.4259 41.9579L47.9914 41.9546L47.9979 41.6456C48.0015 41.4756 48.0003 41.2148 47.9952 41.0661C47.9627 40.1171 47.7078 39.3463 47.2442 38.7948C46.7879 38.2519 46.1166 37.9069 45.3841 37.839C45.0925 37.812 44.6092 37.8402 44.3347 37.9003C43.8637 38.0033 43.42 38.2151 43.0407 38.518C42.9003 38.6301 42.6458 38.8846 42.5337 39.0251C42.0962 39.5731 41.789 40.3407 41.6942 41.1226C41.6518 41.4725 41.6579 42.0257 41.7087 42.4375C41.8556 43.6276 42.3574 44.4924 43.2055 45.0171ZM46.2063 39.3014C46.5544 39.6354 46.8004 40.284 46.8004 40.8679V40.9695H44.8361H42.8718L42.8801 40.9084C42.8977 40.78 42.9544 40.5492 43.0029 40.4086C43.1377 40.0177 43.352 39.6746 43.6378 39.3921C43.9095 39.1236 44.2209 38.9581 44.5974 38.882C44.7754 38.846 45.1315 38.836 45.3004 38.8621C45.6575 38.9174 45.9578 39.0631 46.2063 39.3014ZM13.936 40.1937C12.8743 42.9824 12.0031 45.2713 12.0001 45.2802C11.9958 45.2929 12.1325 45.2962 12.6559 45.296L13.3171 45.2958L13.8058 43.9214C14.0745 43.1654 14.3028 42.5252 14.3131 42.4987L14.3318 42.4504L16.4833 42.4504L18.6348 42.4504L19.1692 43.8732L19.7035 45.296L20.3634 45.2962C20.7263 45.2962 21.0233 45.2936 21.0233 45.2903C21.0233 45.2853 17.3158 35.6586 17.1586 35.2553L17.1071 35.1233H16.4868H15.8665L13.936 40.1937ZM17.443 39.198C17.8825 40.3874 18.2421 41.3624 18.2421 41.3646C18.2421 41.3669 17.4512 41.3687 16.4846 41.3687C15.5179 41.3687 14.727 41.3638 14.727 41.3577C14.727 41.3516 15.0798 40.3854 15.5109 39.2104C15.942 38.0355 16.3123 37.0191 16.3337 36.9518C16.3769 36.8162 16.4329 36.5718 16.4459 36.4625C16.464 36.3097 16.4794 36.3143 16.5098 36.4818C16.5748 36.8391 16.6208 36.9729 17.443 39.198ZM21.4224 44.9257V45.111V45.2963H24.4031H27.3839V44.8005V44.3047H25.2658C24.1009 44.3047 23.1478 44.302 23.1478 44.2986C23.1478 44.2953 24.1125 42.9591 25.2916 41.3294L27.4354 38.3663V38.1999V38.0335H24.6283H21.8212L21.8246 38.5261L21.828 39.0186L23.7688 39.0251L25.7095 39.0315L23.566 41.9786L21.4224 44.9257ZM37.1436 41.6563C37.1436 43.6488 37.1475 45.283 37.1522 45.2877C37.1569 45.2924 37.4205 45.2963 37.738 45.2963H38.3151L38.3184 43.252C38.3207 41.8684 38.3264 41.1666 38.336 41.0804C38.3896 40.6002 38.5712 40.0778 38.826 39.6713C39.002 39.3905 39.2538 39.1849 39.5643 39.0683C39.7152 39.0117 39.8391 38.9874 40.0278 38.9776C40.3178 38.9625 40.5591 39.011 40.8036 39.1334L40.942 39.2027V38.5945V37.9863L40.8937 37.9706C40.7403 37.9204 40.6084 37.902 40.3561 37.8954C40.1553 37.8902 40.0703 37.8932 39.9699 37.9094C39.6123 37.9671 39.3093 38.1178 39.0442 38.3697C38.7499 38.6494 38.5215 39.0013 38.3898 39.3779C38.361 39.46 38.3325 39.5273 38.3264 39.5273C38.3203 39.5273 38.3153 39.1912 38.3153 38.7804V38.0335H37.7295H37.1436V41.6563Z" fill="#31B5FF"/>
</svg>
