<svg width="14" height="14" viewBox="0 0 20 20" fill="none" xmlns="http://www.w3.org/2000/svg">
<rect width="20" height="20" rx="10" fill="#7A43FE"/>
<path d="M14.2824 10.0001C14.2824 10.3382 14.0083 10.6123 13.6701 10.6123H10.6089V13.6735C10.6089 14.0117 10.3348 14.2858 9.99665 14.2858C9.65852 14.2858 9.38441 14.0117 9.38441 13.6735V10.6123H6.32318C5.98505 10.6123 5.71094 10.3382 5.71094 10.0001C5.71094 9.66194 5.98505 9.38782 6.32318 9.38782H9.38441V6.3266C9.38441 5.98847 9.65852 5.71436 9.99665 5.71436C10.3348 5.71436 10.6089 5.98847 10.6089 6.3266V9.38782H13.6701C14.0083 9.38782 14.2824 9.66194 14.2824 10.0001Z" fill="white" stroke="white" stroke-width="0.285714"/>
</svg>
