<svg width="16" height="15" viewBox="0 0 16 15" fill="none" xmlns="http://www.w3.org/2000/svg">
<path d="M3.89375 7.4997C1.86904 7.4997 0.221985 9.14675 0.221985 11.1715C0.221985 13.1962 1.86904 14.8432 3.89375 14.8432C5.91845 14.8432 7.56551 13.1962 7.56551 11.1715C7.56551 9.14675 5.91845 7.4997 3.89375 7.4997ZM3.89375 14.3186C2.15851 14.3186 0.746597 12.9067 0.746597 11.1715C0.746597 9.43596 2.15851 8.02405 3.89375 8.02405C5.62924 8.02405 7.04116 9.43596 7.04116 11.1715C7.04116 12.9067 5.62924 14.3186 3.89375 14.3186ZM14.1495 0.146729H8.32526C7.90143 0.146729 7.55658 0.491571 7.55658 0.91567V6.73994C7.55658 7.16378 7.90143 7.50862 8.32526 7.50862H14.1495C14.5734 7.50862 14.9185 7.16378 14.9185 6.73994V0.91567C14.9185 0.491571 14.5736 0.146729 14.1495 0.146729ZM14.3939 6.73994C14.3939 6.87483 14.2844 6.98401 14.1495 6.98401H8.32526C8.19037 6.98401 8.08119 6.87457 8.08119 6.73994V0.91567C8.08119 0.781039 8.19063 0.671341 8.32526 0.671341H14.1495C14.2842 0.671341 14.3939 0.780777 14.3939 0.91567V6.73994ZM13.0733 8.8111V10.6471C13.0733 11.0809 12.7203 11.4339 12.2865 11.4339H9.24825L9.58732 11.773C9.68994 11.8753 9.68994 12.0412 9.58732 12.1438C9.53615 12.195 9.46896 12.2204 9.40178 12.2204C9.3346 12.2204 9.26741 12.195 9.21624 12.1438L8.42945 11.357C8.38011 11.3079 8.35256 11.241 8.35256 11.1715C8.35256 11.1016 8.38011 11.0353 8.42945 10.9859L9.21624 10.1991C9.31859 10.0965 9.48445 10.0965 9.58706 10.1991C9.68967 10.3015 9.68967 10.4676 9.58706 10.57L9.24799 10.909H12.2865C12.4314 10.909 12.5487 10.7912 12.5487 10.6468V8.81083C12.5487 8.6657 12.6662 8.5484 12.8111 8.5484C12.956 8.5484 13.0733 8.66597 13.0733 8.8111ZM2.05826 4.61446V2.77845C2.05826 2.34464 2.41124 1.99166 2.84505 1.99166H5.62163L5.28256 1.65259C5.18021 1.55024 5.18021 1.38438 5.28256 1.28177C5.38518 1.17916 5.55077 1.17916 5.65339 1.28177L6.44044 2.06856C6.48978 2.11789 6.51707 2.18429 6.51707 2.2541C6.51707 2.32391 6.48951 2.39057 6.44044 2.43964L5.65339 3.22669C5.60221 3.27787 5.53503 3.30332 5.46784 3.30332C5.40066 3.30332 5.33374 3.27787 5.2823 3.22669C5.17995 3.12408 5.17995 2.95796 5.2823 2.85587L5.62137 2.5168H2.84478C2.70018 2.5168 2.58235 2.63411 2.58235 2.77897V4.61499C2.58235 4.75959 2.46477 4.87742 2.32017 4.87742C2.17557 4.8769 2.05826 4.75933 2.05826 4.61446Z" fill="black"/>
</svg>
