<svg width="20" height="21" viewBox="0 0 30 31" fill="none" xmlns="http://www.w3.org/2000/svg">
<rect y="0.5" width="30" height="30" rx="7.5" fill="#7A43FE"/>
<path d="M23.625 15.5C23.625 16.1805 23.0734 16.7321 22.3929 16.7321H16.2321V22.8929C16.2321 23.5734 15.6805 24.125 15 24.125C14.3195 24.125 13.7679 23.5734 13.7679 22.8929V16.7321H7.60714C6.92665 16.7321 6.375 16.1805 6.375 15.5C6.375 14.8195 6.92665 14.2679 7.60714 14.2679H13.7679V8.10714C13.7679 7.42665 14.3195 6.875 15 6.875C15.6805 6.875 16.2321 7.42665 16.2321 8.10714V14.2679H22.3929C23.0734 14.2679 23.625 14.8195 23.625 15.5Z" fill="white" stroke="white" stroke-width="0.75"/>
</svg>
