<svg width="15" height="15" viewBox="0 0 30 31" fill="none" xmlns="http://www.w3.org/2000/svg">
<rect y="0.812012" width="30" height="30" rx="15" fill="white" fill-opacity="0.25"/>
<path d="M20.5512 11.5017C20.8947 11.1582 20.8947 10.6011 20.5512 10.2576C20.2076 9.91403 19.6506 9.91403 19.3071 10.2576L14.9968 14.5679L10.6865 10.2576C10.3429 9.91403 9.78592 9.91403 9.44237 10.2576C9.09882 10.6011 9.09882 11.1582 9.44237 11.5017L13.7527 15.812L9.44237 20.1223C9.09882 20.4658 9.09882 21.0229 9.44237 21.3664C9.78592 21.71 10.3429 21.71 10.6865 21.3664L14.9968 17.0561L19.3071 21.3664C19.6506 21.71 20.2076 21.71 20.5512 21.3664C20.8947 21.0229 20.8947 20.4658 20.5512 20.1223L16.2409 15.812L20.5512 11.5017Z" fill="white"/>
</svg>
