<?xml version="1.0" encoding="UTF-8" standalone="no"?>
<svg
   viewBox="0 0 26.543708 26.512968"
   x="0px"
   y="0px"
   version="1.1"
   id="svg2"
   width="16" 
   height="15"
>
   <defs
      id="defs2" />

   <g
      data-name="Layer 20"
      id="g1"
      transform="translate(-2.728146,-2.728146)">
      <path
         d="M 16,3 A 13,13 0 1 0 29,16 13,13 0 0 0 16,3 Z m 7,14 h -6 v 6 a 1,1 0 0 1 -2,0 V 17 H 9 a 1,1 0 0 1 0,-2 h 6 V 9 a 1,1 0 0 1 2,0 v 6 h 6 a 1,1 0 0 1 0,2 z"
         id="path1" />
   </g>
</svg>