<svg width="16" height="16" viewBox="0 0 23 23" fill="none" xmlns="http://www.w3.org/2000/svg">
<path d="M9.92352 4.56667H13.393L17.1978 0.750288C17.3053 0.641893 17.4332 0.555857 17.5741 0.497144C17.7151 0.438431 17.8662 0.408203 18.0189 0.408203C18.1716 0.408203 18.3227 0.438431 18.4636 0.497144C18.6046 0.555857 18.7325 0.641893 18.84 0.750288L21.8237 3.74557C22.0391 3.96225 22.16 4.25537 22.16 4.56089C22.16 4.86642 22.0391 5.15953 21.8237 5.37621L19.1754 8.03612H9.92352V10.3491C9.92352 10.6558 9.80167 10.9499 9.58479 11.1668C9.36791 11.3837 9.07376 11.5056 8.76704 11.5056C8.46032 11.5056 8.16617 11.3837 7.94928 11.1668C7.7324 10.9499 7.61056 10.6558 7.61056 10.3491V6.87963C7.61056 6.2662 7.85424 5.67789 8.28801 5.24412C8.72177 4.81036 9.31008 4.56667 9.92352 4.56667ZM2.98464 10.3491V14.975L0.336296 17.6233C0.120901 17.84 0 18.1331 0 18.4387C0 18.7442 0.120901 19.0373 0.336296 19.254L3.32002 22.2493C3.42753 22.3577 3.55543 22.4437 3.69636 22.5024C3.83729 22.5611 3.98845 22.5913 4.14112 22.5913C4.29379 22.5913 4.44494 22.5611 4.58587 22.5024C4.7268 22.4437 4.85471 22.3577 4.96222 22.2493L9.92352 17.288H14.5494C14.8562 17.288 15.1503 17.1661 15.3672 16.9492C15.5841 16.7324 15.7059 16.4382 15.7059 16.1315V14.975H16.8624C17.1691 14.975 17.4633 14.8532 17.6802 14.6363C17.897 14.4194 18.0189 14.1252 18.0189 13.8185V12.662H19.1754C19.4821 12.662 19.7762 12.5402 19.9931 12.3233C20.21 12.1064 20.3318 11.8123 20.3318 11.5056V10.3491H12.2365V11.5056C12.2365 12.119 11.9928 12.7073 11.559 13.1411C11.1253 13.5748 10.537 13.8185 9.92352 13.8185H7.61056C6.99712 13.8185 6.40881 13.5748 5.97505 13.1411C5.54128 12.7073 5.2976 12.119 5.2976 11.5056V8.03612L2.98464 10.3491Z" fill="currentColor" fill-opacity="1"/>
</svg>
