<svg width="900" height="860" viewBox="0 0 900 860" fill="none" xmlns="http://www.w3.org/2000/svg">
<g clip-path="url(#clip0_2551_48831)">
<g clip-path="url(#clip1_2551_48831)">
<g opacity="0.4">
<g filter="url(#filter0_f_2551_48831)">
<circle cx="549.5" cy="529.5" r="234.5" fill="url(#paint0_radial_2551_48831)"/>
</g>
<g filter="url(#filter1_f_2551_48831)">
<ellipse cx="293.06" cy="322.82" rx="165.06" ry="165.06" fill="url(#paint1_radial_2551_48831)"/>
</g>
</g>
</g>
<g opacity="0.2">
<ellipse cx="330.57" cy="330.498" rx="169.05" ry="169.05" transform="rotate(-45 330.57 330.498)" stroke="white"/>
<ellipse cx="569.501" cy="330.569" rx="169.05" ry="169.05" transform="rotate(45 569.501 330.569)" stroke="white"/>
<ellipse cx="569.43" cy="569.5" rx="169.05" ry="169.05" transform="rotate(135 569.43 569.5)" stroke="white"/>
<ellipse cx="330.499" cy="569.429" rx="169.05" ry="169.05" transform="rotate(-135 330.499 569.429)" stroke="white"/>
<ellipse cx="330.499" cy="569.429" rx="69.9535" ry="69.9536" transform="rotate(-135 330.499 569.429)" stroke="white"/>
</g>
<path opacity="0.2" d="M212.001 212.001L275.539 275.539" stroke="white" stroke-width="0.864" stroke-linecap="round"/>
<path d="M230.144 212.057V230.201H212" stroke="white" stroke-width="0.864"/>
<path opacity="0.2" d="M275.937 257.848V275.992H257.793" stroke="white" stroke-width="0.864"/>
<path opacity="0.2" d="M623.993 623.971L687.531 687.509" stroke="white" stroke-width="0.864" stroke-linecap="round"/>
<path d="M669.273 687.456V669.312H687.417" stroke="white" stroke-width="0.864"/>
<path opacity="0.2" d="M623.481 641.663V623.519H641.625" stroke="white" stroke-width="0.864"/>
<path opacity="0.2" d="M624.001 275.538L687.539 212" stroke="white" stroke-width="0.864" stroke-linecap="round"/>
<g filter="url(#filter2_d_2551_48831)">
<path d="M658.264 269.083C642.637 269.083 629.968 256.414 629.968 240.787C629.968 225.159 642.637 212.491 658.264 212.491C673.892 212.491 686.56 225.159 686.56 240.787C686.56 256.414 673.892 269.083 658.264 269.083Z" stroke="white" stroke-width="0.864" shape-rendering="crispEdges"/>
</g>
<path d="M658.266 240.674L678.241 220.699" stroke="white" stroke-width="0.864"/>
<path opacity="0.2" d="M212 687.538L275.538 624" stroke="white" stroke-width="0.864" stroke-linecap="round"/>
<g filter="url(#filter3_d_2551_48831)">
<path d="M239.728 688.024C224.101 688.024 211.432 675.355 211.432 659.728C211.432 644.101 224.101 631.432 239.728 631.432C255.356 631.432 268.024 644.101 268.024 659.728C268.024 675.355 255.356 688.024 239.728 688.024Z" stroke="white" stroke-width="0.864" shape-rendering="crispEdges"/>
</g>
<path d="M239.729 659.616L259.704 639.641" stroke="white" stroke-width="0.864"/>
<path d="M450.004 449.618L277.996 350.309L277.996 548.927L450.004 648.237L450.004 449.618Z" fill="url(#paint2_linear_2551_48831)"/>
<path d="M622.013 350.31L450.004 449.619L450.004 648.238L622.013 548.928L622.013 350.31Z" fill="url(#paint3_linear_2551_48831)"/>
<path d="M622.013 350.309L450.004 251L277.996 350.309L450.004 449.619L622.013 350.309Z" fill="url(#paint4_linear_2551_48831)"/>
<g style="mix-blend-mode:soft-light">
<path d="M450.004 449.618L277.996 548.928L277.996 350.309L450.004 251L450.004 449.618Z" fill="url(#paint5_linear_2551_48831)"/>
<path d="M622.013 548.928L450.004 449.618L450.004 250.999L622.013 350.309L622.013 548.928Z" fill="url(#paint6_linear_2551_48831)"/>
<path d="M622.013 548.928L450.004 648.237L277.996 548.928L450.004 449.619L622.013 548.928Z" fill="url(#paint7_linear_2551_48831)"/>
</g>
<path d="M278.004 350.618L192 300.963L192 400.272L278.004 449.927L278.004 350.618Z" fill="url(#paint8_linear_2551_48831)"/>
<path d="M364.009 300.963L278.004 350.617L278.004 449.926L364.009 400.272L364.009 300.963Z" fill="url(#paint9_linear_2551_48831)"/>
<path d="M364.009 300.963L278.004 251.309L192 300.963L278.004 350.618L364.009 300.963Z" fill="url(#paint10_linear_2551_48831)"/>
<path d="M622.009 548.926L536.004 499.271L536.004 598.581L622.009 648.235L622.009 548.926Z" fill="url(#paint11_linear_2551_48831)"/>
<path d="M708.013 499.272L622.009 548.927L622.009 648.236L708.013 598.581L708.013 499.272Z" fill="url(#paint12_linear_2551_48831)"/>
<path d="M708.013 499.272L622.009 449.617L536.004 499.272L622.009 548.926L708.013 499.272Z" fill="url(#paint13_linear_2551_48831)"/>
</g>
<defs>
<filter id="filter0_f_2551_48831" x="225" y="205" width="649" height="649" filterUnits="userSpaceOnUse" color-interpolation-filters="sRGB">
<feFlood flood-opacity="0" result="BackgroundImageFix"/>
<feBlend mode="normal" in="SourceGraphic" in2="BackgroundImageFix" result="shape"/>
<feGaussianBlur stdDeviation="45" result="effect1_foregroundBlur_2551_48831"/>
</filter>
<filter id="filter1_f_2551_48831" x="-2" y="27.7598" width="590.121" height="590.12" filterUnits="userSpaceOnUse" color-interpolation-filters="sRGB">
<feFlood flood-opacity="0" result="BackgroundImageFix"/>
<feBlend mode="normal" in="SourceGraphic" in2="BackgroundImageFix" result="shape"/>
<feGaussianBlur stdDeviation="65" result="effect1_foregroundBlur_2551_48831"/>
</filter>
<filter id="filter2_d_2551_48831" x="574.24" y="156.763" width="168.048" height="168.047" filterUnits="userSpaceOnUse" color-interpolation-filters="sRGB">
<feFlood flood-opacity="0" result="BackgroundImageFix"/>
<feColorMatrix in="SourceAlpha" type="matrix" values="0 0 0 0 0 0 0 0 0 0 0 0 0 0 0 0 0 0 127 0" result="hardAlpha"/>
<feOffset/>
<feGaussianBlur stdDeviation="27.648"/>
<feComposite in2="hardAlpha" operator="out"/>
<feColorMatrix type="matrix" values="0 0 0 0 0 0 0 0 0 0 0 0 0 0 0 0 0 0 0.25 0"/>
<feBlend mode="normal" in2="BackgroundImageFix" result="effect1_dropShadow_2551_48831"/>
<feBlend mode="normal" in="SourceGraphic" in2="effect1_dropShadow_2551_48831" result="shape"/>
</filter>
<filter id="filter3_d_2551_48831" x="155.704" y="575.704" width="168.048" height="168.048" filterUnits="userSpaceOnUse" color-interpolation-filters="sRGB">
<feFlood flood-opacity="0" result="BackgroundImageFix"/>
<feColorMatrix in="SourceAlpha" type="matrix" values="0 0 0 0 0 0 0 0 0 0 0 0 0 0 0 0 0 0 127 0" result="hardAlpha"/>
<feOffset/>
<feGaussianBlur stdDeviation="27.648"/>
<feComposite in2="hardAlpha" operator="out"/>
<feColorMatrix type="matrix" values="0 0 0 0 0 0 0 0 0 0 0 0 0 0 0 0 0 0 0.25 0"/>
<feBlend mode="normal" in2="BackgroundImageFix" result="effect1_dropShadow_2551_48831"/>
<feBlend mode="normal" in="SourceGraphic" in2="effect1_dropShadow_2551_48831" result="shape"/>
</filter>
<radialGradient id="paint0_radial_2551_48831" cx="0" cy="0" r="1" gradientUnits="userSpaceOnUse" gradientTransform="translate(650.749 466.547) rotate(101.821) scale(276.564 276.564)">
<stop stop-color="#82FFC3"/>
<stop offset="0.368796" stop-color="#40ACE3"/>
<stop offset="0.830677" stop-color="#EF7261"/>
</radialGradient>
<radialGradient id="paint1_radial_2551_48831" cx="0" cy="0" r="1" gradientUnits="userSpaceOnUse" gradientTransform="translate(224.089 298.061) rotate(43.9621) scale(230.133 230.133)">
<stop stop-color="#82FFC3"/>
<stop offset="0.368796" stop-color="#40ACE3"/>
<stop offset="0.830677" stop-color="#EF7A61"/>
</radialGradient>
<linearGradient id="paint2_linear_2551_48831" x1="364" y1="399.963" x2="277.996" y2="548.927" gradientUnits="userSpaceOnUse">
<stop stop-color="#E4E1AE"/>
<stop offset="1" stop-color="#ED7B5D"/>
</linearGradient>
<linearGradient id="paint3_linear_2551_48831" x1="536.009" y1="399.964" x2="622.013" y2="548.928" gradientUnits="userSpaceOnUse">
<stop offset="0.211338" stop-color="#ED7B5D"/>
<stop offset="1" stop-color="#806D8E"/>
</linearGradient>
<linearGradient id="paint4_linear_2551_48831" x1="536.009" y1="300.655" x2="450.004" y2="449.619" gradientUnits="userSpaceOnUse">
<stop stop-color="#C2D8BD"/>
<stop offset="1" stop-color="#ED7B5D"/>
</linearGradient>
<linearGradient id="paint5_linear_2551_48831" x1="364" y1="499.273" x2="277.996" y2="350.309" gradientUnits="userSpaceOnUse">
<stop stop-color="#E4E1AE"/>
<stop offset="1" stop-color="#ED7B5D"/>
</linearGradient>
<linearGradient id="paint6_linear_2551_48831" x1="536.009" y1="499.273" x2="622.013" y2="350.309" gradientUnits="userSpaceOnUse">
<stop offset="0.211338" stop-color="#ED7B5D"/>
<stop offset="1" stop-color="#806D8E"/>
</linearGradient>
<linearGradient id="paint7_linear_2551_48831" x1="536.009" y1="598.583" x2="450.004" y2="449.619" gradientUnits="userSpaceOnUse">
<stop stop-color="#C2D8BD"/>
<stop offset="1" stop-color="#ED7B5D"/>
</linearGradient>
<linearGradient id="paint8_linear_2551_48831" x1="235.002" y1="325.79" x2="192" y2="400.272" gradientUnits="userSpaceOnUse">
<stop stop-color="#E4E1AE"/>
<stop offset="1" stop-color="#ED7B5D"/>
</linearGradient>
<linearGradient id="paint9_linear_2551_48831" x1="321.007" y1="325.79" x2="364.009" y2="400.272" gradientUnits="userSpaceOnUse">
<stop offset="0.211338" stop-color="#ED7B5D"/>
<stop offset="1" stop-color="#806D8E"/>
</linearGradient>
<linearGradient id="paint10_linear_2551_48831" x1="321.007" y1="276.136" x2="278.004" y2="350.618" gradientUnits="userSpaceOnUse">
<stop stop-color="#C2D8BD"/>
<stop offset="1" stop-color="#ED7B5D"/>
</linearGradient>
<linearGradient id="paint11_linear_2551_48831" x1="579.007" y1="524.099" x2="536.004" y2="598.581" gradientUnits="userSpaceOnUse">
<stop stop-color="#E4E1AE"/>
<stop offset="1" stop-color="#ED7B5D"/>
</linearGradient>
<linearGradient id="paint12_linear_2551_48831" x1="665.011" y1="524.099" x2="708.013" y2="598.581" gradientUnits="userSpaceOnUse">
<stop offset="0.211338" stop-color="#ED7B5D"/>
<stop offset="1" stop-color="#806D8E"/>
</linearGradient>
<linearGradient id="paint13_linear_2551_48831" x1="665.011" y1="474.444" x2="622.009" y2="548.926" gradientUnits="userSpaceOnUse">
<stop stop-color="#C2D8BD"/>
<stop offset="1" stop-color="#ED7B5D"/>
</linearGradient>
<clipPath id="clip0_2551_48831">
<rect width="900" height="900" fill="white"/>
</clipPath>
<clipPath id="clip1_2551_48831">
<rect width="900" height="900" fill="white"/>
</clipPath>
</defs>
</svg>
