<svg width="900" height="900" viewBox="0 0 900 900" fill="none" xmlns="http://www.w3.org/2000/svg">
<g clip-path="url(#clip0_2721_11049)">
<g clip-path="url(#clip1_2721_11049)">
<g opacity="0.4">
<g filter="url(#filter0_f_2721_11049)">
<circle cx="549.5" cy="529.5" r="234.5" fill="url(#paint0_radial_2721_11049)"/>
</g>
<g filter="url(#filter1_f_2721_11049)">
<ellipse cx="293.06" cy="322.82" rx="165.06" ry="165.06" fill="url(#paint1_radial_2721_11049)"/>
</g>
</g>
</g>
<g opacity="0.2">
<ellipse cx="330.57" cy="330.498" rx="169.05" ry="169.05" transform="rotate(-45 330.57 330.498)" stroke="white"/>
<ellipse cx="569.501" cy="330.569" rx="169.05" ry="169.05" transform="rotate(45 569.501 330.569)" stroke="white"/>
<ellipse cx="569.43" cy="569.5" rx="169.05" ry="169.05" transform="rotate(135 569.43 569.5)" stroke="white"/>
<ellipse cx="330.499" cy="569.429" rx="169.05" ry="169.05" transform="rotate(-135 330.499 569.429)" stroke="white"/>
<ellipse cx="330.499" cy="569.43" rx="69.9535" ry="69.9536" transform="rotate(-135 330.499 569.43)" stroke="white"/>
</g>
<path opacity="0.2" d="M212.001 212.001L275.539 275.539" stroke="white" stroke-width="0.864" stroke-linecap="round"/>
<path d="M230.144 212.057V230.201H212" stroke="white" stroke-width="0.864"/>
<path opacity="0.2" d="M275.937 257.848V275.992H257.793" stroke="white" stroke-width="0.864"/>
<path opacity="0.2" d="M623.993 623.972L687.53 687.51" stroke="white" stroke-width="0.864" stroke-linecap="round"/>
<path d="M669.273 687.457V669.313H687.417" stroke="white" stroke-width="0.864"/>
<path opacity="0.2" d="M623.48 641.664V623.52H641.624" stroke="white" stroke-width="0.864"/>
<path opacity="0.2" d="M624.001 275.538L687.539 212" stroke="white" stroke-width="0.864" stroke-linecap="round"/>
<g filter="url(#filter2_d_2721_11049)">
<path d="M658.264 269.083C642.637 269.083 629.968 256.414 629.968 240.787C629.968 225.159 642.637 212.491 658.264 212.491C673.892 212.491 686.56 225.159 686.56 240.787C686.56 256.414 673.892 269.083 658.264 269.083Z" stroke="white" stroke-width="0.864" shape-rendering="crispEdges"/>
</g>
<path d="M658.266 240.674L678.241 220.699" stroke="white" stroke-width="0.864"/>
<path opacity="0.2" d="M212 687.538L275.538 624" stroke="white" stroke-width="0.864" stroke-linecap="round"/>
<g filter="url(#filter3_d_2721_11049)">
<path d="M239.728 688.024C224.101 688.024 211.432 675.355 211.432 659.728C211.432 644.101 224.101 631.432 239.728 631.432C255.356 631.432 268.024 644.101 268.024 659.728C268.024 675.355 255.356 688.024 239.728 688.024Z" stroke="white" stroke-width="0.864" shape-rendering="crispEdges"/>
</g>
<path d="M239.729 659.616L259.704 639.641" stroke="white" stroke-width="0.864"/>
<path d="M483.409 569.763L451.119 449.258L362.903 537.474L395.192 657.979L483.409 569.763Z" fill="url(#paint2_linear_2721_11049)"/>
<path d="M603.912 602.053L483.406 569.764L395.19 657.98L515.696 690.269L603.912 602.053Z" fill="url(#paint3_linear_2721_11049)"/>
<path d="M603.912 602.054L571.623 481.549L451.118 449.259L483.407 569.765L603.912 602.054Z" fill="url(#paint4_linear_2721_11049)"/>
<path d="M539.371 361.011L507.082 240.506L418.866 328.722L451.155 449.227L539.371 361.011Z" fill="url(#paint5_linear_2721_11049)"/>
<path d="M659.877 393.301L539.371 361.012L451.155 449.228L571.661 481.517L659.877 393.301Z" fill="url(#paint6_linear_2721_11049)"/>
<path d="M659.875 393.302L627.586 272.797L507.08 240.508L539.37 361.013L659.875 393.302Z" fill="url(#paint7_linear_2721_11049)"/>
<path d="M330.616 416.97L298.326 296.465L210.11 384.681L242.399 505.186L330.616 416.97Z" fill="url(#paint8_linear_2721_11049)"/>
<path d="M451.119 449.26L330.613 416.971L242.397 505.187L362.903 537.476L451.119 449.26Z" fill="url(#paint9_linear_2721_11049)"/>
<path d="M451.119 449.261L418.83 328.756L298.325 296.467L330.614 416.972L451.119 449.261Z" fill="url(#paint10_linear_2721_11049)"/>
</g>
<defs>
<filter id="filter0_f_2721_11049" x="225" y="205" width="649" height="649" filterUnits="userSpaceOnUse" color-interpolation-filters="sRGB">
<feFlood flood-opacity="0" result="BackgroundImageFix"/>
<feBlend mode="normal" in="SourceGraphic" in2="BackgroundImageFix" result="shape"/>
<feGaussianBlur stdDeviation="45" result="effect1_foregroundBlur_2721_11049"/>
</filter>
<filter id="filter1_f_2721_11049" x="-2" y="27.7598" width="590.12" height="590.121" filterUnits="userSpaceOnUse" color-interpolation-filters="sRGB">
<feFlood flood-opacity="0" result="BackgroundImageFix"/>
<feBlend mode="normal" in="SourceGraphic" in2="BackgroundImageFix" result="shape"/>
<feGaussianBlur stdDeviation="65" result="effect1_foregroundBlur_2721_11049"/>
</filter>
<filter id="filter2_d_2721_11049" x="574.24" y="156.763" width="168.048" height="168.047" filterUnits="userSpaceOnUse" color-interpolation-filters="sRGB">
<feFlood flood-opacity="0" result="BackgroundImageFix"/>
<feColorMatrix in="SourceAlpha" type="matrix" values="0 0 0 0 0 0 0 0 0 0 0 0 0 0 0 0 0 0 127 0" result="hardAlpha"/>
<feOffset/>
<feGaussianBlur stdDeviation="27.648"/>
<feComposite in2="hardAlpha" operator="out"/>
<feColorMatrix type="matrix" values="0 0 0 0 0 0 0 0 0 0 0 0 0 0 0 0 0 0 0.25 0"/>
<feBlend mode="normal" in2="BackgroundImageFix" result="effect1_dropShadow_2721_11049"/>
<feBlend mode="normal" in="SourceGraphic" in2="effect1_dropShadow_2721_11049" result="shape"/>
</filter>
<filter id="filter3_d_2721_11049" x="155.704" y="575.704" width="168.048" height="168.047" filterUnits="userSpaceOnUse" color-interpolation-filters="sRGB">
<feFlood flood-opacity="0" result="BackgroundImageFix"/>
<feColorMatrix in="SourceAlpha" type="matrix" values="0 0 0 0 0 0 0 0 0 0 0 0 0 0 0 0 0 0 127 0" result="hardAlpha"/>
<feOffset/>
<feGaussianBlur stdDeviation="27.648"/>
<feComposite in2="hardAlpha" operator="out"/>
<feColorMatrix type="matrix" values="0 0 0 0 0 0 0 0 0 0 0 0 0 0 0 0 0 0 0.25 0"/>
<feBlend mode="normal" in2="BackgroundImageFix" result="effect1_dropShadow_2721_11049"/>
<feBlend mode="normal" in="SourceGraphic" in2="effect1_dropShadow_2721_11049" result="shape"/>
</filter>
<radialGradient id="paint0_radial_2721_11049" cx="0" cy="0" r="1" gradientUnits="userSpaceOnUse" gradientTransform="translate(650.749 466.547) rotate(101.821) scale(276.564 276.564)">
<stop stop-color="#82FFC3"/>
<stop offset="0.368796" stop-color="#40ACE3"/>
<stop offset="0.830677" stop-color="#EF7261"/>
</radialGradient>
<radialGradient id="paint1_radial_2721_11049" cx="0" cy="0" r="1" gradientUnits="userSpaceOnUse" gradientTransform="translate(224.089 298.061) rotate(43.9621) scale(230.133 230.133)">
<stop stop-color="#82FFC3"/>
<stop offset="0.368796" stop-color="#40ACE3"/>
<stop offset="0.830677" stop-color="#EF7A61"/>
</radialGradient>
<linearGradient id="paint2_linear_2721_11049" x1="467.264" y1="509.51" x2="362.903" y2="537.474" gradientUnits="userSpaceOnUse">
<stop stop-color="#E4E1AE"/>
<stop offset="1" stop-color="#ED7B5D"/>
</linearGradient>
<linearGradient id="paint3_linear_2721_11049" x1="543.659" y1="585.908" x2="515.696" y2="690.269" gradientUnits="userSpaceOnUse">
<stop offset="0.211338" stop-color="#ED7B5D"/>
<stop offset="1" stop-color="#806D8E"/>
</linearGradient>
<linearGradient id="paint4_linear_2721_11049" x1="587.768" y1="541.801" x2="483.407" y2="569.765" gradientUnits="userSpaceOnUse">
<stop stop-color="#C2D8BD"/>
<stop offset="1" stop-color="#ED7B5D"/>
</linearGradient>
<linearGradient id="paint5_linear_2721_11049" x1="523.227" y1="300.759" x2="418.866" y2="328.722" gradientUnits="userSpaceOnUse">
<stop stop-color="#E4E1AE"/>
<stop offset="1" stop-color="#ED7B5D"/>
</linearGradient>
<linearGradient id="paint6_linear_2721_11049" x1="599.624" y1="377.156" x2="571.661" y2="481.517" gradientUnits="userSpaceOnUse">
<stop offset="0.211338" stop-color="#ED7B5D"/>
<stop offset="1" stop-color="#806D8E"/>
</linearGradient>
<linearGradient id="paint7_linear_2721_11049" x1="643.731" y1="333.05" x2="539.37" y2="361.013" gradientUnits="userSpaceOnUse">
<stop stop-color="#C2D8BD"/>
<stop offset="1" stop-color="#ED7B5D"/>
</linearGradient>
<linearGradient id="paint8_linear_2721_11049" x1="314.471" y1="356.718" x2="210.11" y2="384.681" gradientUnits="userSpaceOnUse">
<stop stop-color="#E4E1AE"/>
<stop offset="1" stop-color="#ED7B5D"/>
</linearGradient>
<linearGradient id="paint9_linear_2721_11049" x1="390.866" y1="433.115" x2="362.903" y2="537.476" gradientUnits="userSpaceOnUse">
<stop offset="0.211338" stop-color="#ED7B5D"/>
<stop offset="1" stop-color="#806D8E"/>
</linearGradient>
<linearGradient id="paint10_linear_2721_11049" x1="434.975" y1="389.009" x2="330.614" y2="416.972" gradientUnits="userSpaceOnUse">
<stop stop-color="#C2D8BD"/>
<stop offset="1" stop-color="#ED7B5D"/>
</linearGradient>
<clipPath id="clip0_2721_11049">
<rect width="900" height="900" fill="white"/>
</clipPath>
<clipPath id="clip1_2721_11049">
<rect width="900" height="900" fill="white"/>
</clipPath>
</defs>
</svg>
