
<svg
   version="1.1"
   x="0px"
   y="0px"
   viewBox="0 0 94.011055 99.047913"

   id="svg1086"

   width="20.011055"
   height="20.047913"
  
 >
 <title>Delete</title>
 <defs
     id="defs1090" />

     
   
       
       <g
  
       id="g1078">
       
       
       <g
         id="g1076"><path
           d="M 88.3,11.6 H 67.5 L 61.8,4.1 C 61,3.1 59.9,2.5 58.6,2.5 H 41.3 c -1.3,0 -2.4,0.6 -3.2,1.6 l -5.7,7.5 H 11.7 c -4.1,0 -7.4,3.3 -7.4,7.4 0,1 0.8,1.7 1.7,1.7 h 4 l 5.2,65 c 0.5,6.6 6.1,11.8 12.8,11.8 h 44 c 6.6,0 12.2,-5.2 12.8,-11.8 l 5.2,-65 h 4 c 1,0 1.7,-0.8 1.7,-1.7 0,-4.1 -3.3,-7.4 -7.4,-7.4 z M 77.5,85.1 c -0.2,2.8 -2.6,5 -5.5,5 H 28 c -2.8,0 -5.2,-2.2 -5.5,-5 L 17.4,20.7 h 65.3 z"
           id="path1068" /><path
           d="m 34,79.4 c 2,0 3.7,-1.6 3.7,-3.7 v -40 c 0,-2 -1.6,-3.7 -3.7,-3.7 -2,0 -3.7,1.6 -3.7,3.7 v 40 c 0,2.1 1.6,3.7 3.7,3.7 z"
           id="path1070" /><path
           d="m 50,79.4 c 2,0 3.7,-1.6 3.7,-3.7 v -40 c 0,-2 -1.6,-3.7 -3.7,-3.7 -2,0 -3.7,1.6 -3.7,3.7 v 40 c 0,2.1 1.7,3.7 3.7,3.7 z"
           id="path1072" /><path
           d="m 66,79.4 c 2,0 3.7,-1.6 3.7,-3.7 v -40 c 0,-2 -1.6,-3.7 -3.7,-3.7 -2,0 -3.7,1.6 -3.7,3.7 v 40 c 0.1,2.1 1.7,3.7 3.7,3.7 z"
           id="path1074" /></g></g></svg>
