<svg width="35" height="38" viewBox="0 0 60 61" fill="none" xmlns="http://www.w3.org/2000/svg">
<rect y="0.5" width="60" height="60" rx="15" fill="#7A43FE"/>
<path d="M19.7302 17.3C18.1022 17.3 16.7969 18.6054 16.7969 20.2334V40.7667C16.7969 41.5447 17.1059 42.2908 17.656 42.8409C18.2061 43.391 18.9522 43.7001 19.7302 43.7001H40.2635C41.0415 43.7001 41.7876 43.391 42.3377 42.8409C42.8878 42.2908 43.1969 41.5447 43.1969 40.7667V30.5H40.2635V40.7667H19.7302V20.2334H29.9969V17.3H19.7302ZM38.4742 18.7667C38.2249 18.7667 37.9609 18.8694 37.7702 19.06L35.9809 20.8347L39.6475 24.5014L41.4369 22.7267C41.8182 22.3454 41.8182 21.7 41.4369 21.3334L39.1635 19.06C38.9729 18.8694 38.7235 18.7667 38.4742 18.7667ZM34.9395 21.876L24.1302 32.7V36.3667H27.7969L38.6062 25.5427L34.9395 21.876Z" fill="white"/>
</svg>
