<?xml version="1.0" encoding="UTF-8" standalone="no"?>
<svg
   viewBox="0 0 26.103194 26.289927"
   x="0px"
   y="0px"
   version="1.1"
   id="svg12361"
  
   width="26.103193"
   height="26.289927"
>
  <defs
     id="defs12365" />


  <g
     data-name="Layer 12"
     id="g12355"
     transform="translate(-2.8992629,-2.9484029)">
    <path
       d="M 28,11.067 16.354,3.448 a 0.651,0.651 0 0 0 -0.709,0 L 4,11.068 a 0.647,0.647 0 0 0 -0.292,0.541 v 16.4 a 0.649,0.649 0 0 0 0.648,0.647 h 23.286 a 0.649,0.649 0 0 0 0.648,-0.647 v -16.4 A 0.648,0.648 0 0 0 28,11.067 Z M 16,4.093 27.556,11.609 v 4.166 L 16,23.409 4.415,15.756 4.405,11.682 Z M 4.444,27.923 4.417,16.637 15.644,24.053 a 0.65,0.65 0 0 0 0.713,0 l 11.2,-7.4 v 11.27 z m 7.7,-9.893 a 5.277,5.277 0 0 0 3.873,1.449 7.267,7.267 0 0 0 2.852,-0.489 V 18.171 A 6.524,6.524 0 0 1 16.083,18.713 4.385,4.385 0 0 1 12.8,17.468 4.476,4.476 0 0 1 11.582,14.2 a 4.842,4.842 0 0 1 1.281,-3.434 4.247,4.247 0 0 1 3.243,-1.373 4.3,4.3 0 0 1 3.182,1.149 4.009,4.009 0 0 1 1.15,2.965 3.79,3.79 0 0 1 -0.473,2 1.374,1.374 0 0 1 -1.185,0.772 q -0.786,0 -0.786,-1.367 0,-0.066 0.311,-3.7 h -0.826 q -0.053,0.574 -0.066,0.759 h -0.026 a 1.086,1.086 0 0 0 -0.479,-0.614 1.514,1.514 0 0 0 -0.848,-0.244 2.414,2.414 0 0 0 -2,0.987 3.937,3.937 0 0 0 -0.762,2.48 2.732,2.732 0 0 0 0.551,1.8 1.8,1.8 0 0 0 1.456,0.667 1.9,1.9 0 0 0 1.895,-1.583 h 0.033 q 0.006,1.572 1.453,1.572 a 2.319,2.319 0 0 0 1.892,-1.007 4.107,4.107 0 0 0 0.776,-2.579 4.474,4.474 0 0 0 -1.473,-3.48 5.329,5.329 0 0 0 -3.717,-1.334 5.247,5.247 0 0 0 -3.939,1.591 5.528,5.528 0 0 0 -1.542,4.009 5.1,5.1 0 0 0 1.464,3.794 z m 4.616,-2.582 a 1.455,1.455 0 0 1 -1.3,0.815 1.081,1.081 0 0 1 -0.908,-0.449 1.988,1.988 0 0 1 -0.34,-1.228 3.482,3.482 0 0 1 0.5,-1.935 1.523,1.523 0 0 1 1.324,-0.779 q 1.2,0 1.2,1.413 a 4.254,4.254 0 0 1 -0.473,2.163 z"
       id="path12353" />
  </g>
</svg>
