<svg width="15" height="25" viewBox="0 0 15 25" fill="none" xmlns="http://www.w3.org/2000/svg">
<g clip-path="url(#clip0_861_1381)">
<path d="M13.3496 7.29563H11.1359V4.71819C11.1314 4.39811 11.0012 4.09263 10.7735 3.86762C10.5458 3.64261 10.2388 3.5161 9.91874 3.51538H7.9742V0.65156C7.9742 0.518642 7.9214 0.391167 7.82741 0.29718C7.73342 0.203192 7.60595 0.150391 7.47303 0.150391C7.34011 0.150391 7.21264 0.203192 7.11865 0.29718C7.02466 0.391167 6.97186 0.518642 6.97186 0.65156V3.51538H5.03019C4.70663 3.51538 4.39632 3.64392 4.16753 3.87271C3.93873 4.1015 3.8102 4.41181 3.8102 4.73537V7.31281H1.60219C1.27913 7.31281 0.96925 7.44096 0.74054 7.66913C0.511829 7.8973 0.382961 8.20687 0.382202 8.52994V24.1349C0.382202 24.2678 0.435004 24.3953 0.528991 24.4893C0.622979 24.5833 0.750453 24.6361 0.883371 24.6361C1.01629 24.6361 1.14376 24.5833 1.23775 24.4893C1.33174 24.3953 1.38454 24.2678 1.38454 24.1349V8.51276C1.38454 8.48431 1.39019 8.45614 1.40116 8.4299C1.41213 8.40365 1.42821 8.37984 1.44846 8.35986C1.46871 8.33988 1.49273 8.32411 1.51912 8.31349C1.54551 8.30287 1.57375 8.29759 1.60219 8.29797H13.3439C13.4011 8.29797 13.456 8.3205 13.4968 8.3607C13.5375 8.4009 13.5608 8.45553 13.5615 8.51276V24.1349C13.5615 24.2678 13.6143 24.3953 13.7083 24.4893C13.8023 24.5833 13.9298 24.6361 14.0627 24.6361C14.1956 24.6361 14.3231 24.5833 14.4171 24.4893C14.5111 24.3953 14.5639 24.2678 14.5639 24.1349V8.51276C14.5631 8.19068 14.435 7.88197 14.2076 7.65396C13.9801 7.42595 13.6717 7.29714 13.3496 7.29563ZM4.81254 4.71819C4.81254 4.66047 4.83547 4.6051 4.87629 4.56429C4.9171 4.52347 4.97246 4.50054 5.03019 4.50054H9.91874C9.97596 4.50129 10.0306 4.52456 10.0708 4.56529C10.111 4.60603 10.1335 4.66096 10.1335 4.71819V7.29563H4.81254V4.71819Z" fill="#7E22CE"/>
<path d="M4.32575 10.0337C4.19307 10.0344 4.06603 10.0875 3.9722 10.1813C3.87838 10.2751 3.82534 10.4022 3.82458 10.5349V22.2622C3.82458 22.3951 3.87739 22.5226 3.97137 22.6166C4.06536 22.7106 4.19284 22.7634 4.32575 22.7634C4.45867 22.7634 4.58615 22.7106 4.68013 22.6166C4.77412 22.5226 4.82692 22.3951 4.82692 22.2622V10.5349C4.82692 10.4019 4.77412 10.2745 4.68013 10.1805C4.58615 10.0865 4.45867 10.0337 4.32575 10.0337Z" fill="#7E22CE"/>
<path d="M10.6262 10.0337C10.4935 10.0344 10.3664 10.0875 10.2726 10.1813C10.1788 10.2751 10.1258 10.4022 10.125 10.5349V22.2622C10.125 22.3951 10.1778 22.5226 10.2718 22.6166C10.3658 22.7106 10.4933 22.7634 10.6262 22.7634C10.7591 22.7634 10.8866 22.7106 10.9805 22.6166C11.0745 22.5226 11.1273 22.3951 11.1273 22.2622V10.5349C11.1273 10.4019 11.0745 10.2745 10.9805 10.1805C10.8866 10.0865 10.7591 10.0337 10.6262 10.0337Z" fill="#7E22CE"/>
<path d="M7.4759 10.0337C7.34321 10.0344 7.21618 10.0875 7.12235 10.1813C7.02853 10.2751 6.97548 10.4022 6.97473 10.5349V22.2622C6.97473 22.3951 7.02753 22.5226 7.12152 22.6166C7.21551 22.7106 7.34298 22.7634 7.4759 22.7634C7.60882 22.7634 7.73629 22.7106 7.83028 22.6166C7.92427 22.5226 7.97707 22.3951 7.97707 22.2622V10.5349C7.97707 10.4019 7.92427 10.2745 7.83028 10.1805C7.73629 10.0865 7.60882 10.0337 7.4759 10.0337Z" fill="#7E22CE"/>
</g>
<defs>
<clipPath id="clip0_861_1381">
<rect width="14.9519" height="25" fill="white"/>
</clipPath>
</defs>
</svg>
