<svg width="17" height="18" viewBox="0 0 22 23" fill="none" xmlns="http://www.w3.org/2000/svg">
<path fill-rule="evenodd" clip-rule="evenodd" d="M7.33333 2.94444V0.5H9.77778V2.94444H12.2222V0.5H14.6667V2.94444H17.1111C17.7594 2.94444 18.3812 3.20198 18.8396 3.66041C19.298 4.11883 19.5556 4.74058 19.5556 5.38889V7.83333H22V10.2778H19.5556V12.7222H22V15.1667H19.5556V17.6111C19.5556 18.2594 19.298 18.8812 18.8396 19.3396C18.3812 19.798 17.7594 20.0556 17.1111 20.0556H14.6667V22.5H12.2222V20.0556H9.77778V22.5H7.33333V20.0556H4.88889C4.24058 20.0556 3.61883 19.798 3.16041 19.3396C2.70198 18.8812 2.44444 18.2594 2.44444 17.6111V15.1667H0V12.7222H2.44444V10.2778H0V7.83333H2.44444V5.38889C2.44444 4.74058 2.70198 4.11883 3.16041 3.66041C3.61883 3.20198 4.24058 2.94444 4.88889 2.94444H7.33333ZM7.20026 8.51265H8.28668C8.57481 8.51265 8.85115 8.62711 9.05489 8.83085C9.25864 9.0346 9.3731 9.31093 9.3731 9.59907V13.9447H8.28668V11.7719H7.20026V13.9447H6.11384V9.59907C6.11384 9.31093 6.2283 9.0346 6.43204 8.83085C6.63579 8.62711 6.91212 8.51265 7.20026 8.51265ZM7.20026 10.6855H8.28668V9.59907H7.20026V10.6855ZM9.91631 8.51265H12.0891C12.3773 8.51265 12.6536 8.62711 12.8574 8.83085C13.0611 9.0346 13.1756 9.31093 13.1756 9.59907V10.6855C13.1756 10.9736 13.0611 11.25 12.8574 11.4537C12.6536 11.6574 12.3773 11.7719 12.0891 11.7719H11.0027V13.9447H9.91631V8.51265ZM11.0027 10.6855H12.0891V9.59907H11.0027V10.6855ZM15.3484 12.8583V9.59907H15.8916V8.51265H13.7188V9.59907H14.262V12.8583H13.7188V13.9447H15.8916V12.8583H15.3484Z" fill="currentColor" fill-opacity="1"/>
</svg>
