<svg width="15" height="15" viewBox="0 0 30 31" fill="none" xmlns="http://www.w3.org/2000/svg">
<path d="M29.4698 1.38915V8.68219C29.4698 9.44622 28.867 10.0713 28.1303 10.0713C27.3935 10.0713 26.7907 9.44622 26.7907 8.68219V4.75823L18.3186 13.5096C18.0507 13.7874 17.7155 13.9267 17.3806 13.9267C17.0457 13.9267 16.7106 13.7874 16.4427 13.5096C15.9069 12.954 15.9069 12.086 16.4427 11.5303L24.8822 2.7783H21.0977C20.361 2.7783 19.7582 2.15318 19.7582 1.38915C19.7582 0.625116 20.361 0 21.0977 0H28.1303C28.4986 0 28.8338 0.139322 29.0682 0.41715C29.3361 0.660251 29.4698 1.00713 29.4698 1.38915ZM11.0178 17.1907L2.67907 25.8037V21.8791C2.67907 21.1151 2.07628 20.49 1.33954 20.49C0.602791 20.49 0 21.1151 0 21.8791V29.1721C0 29.5541 0.134346 29.9017 0.402252 30.1448C0.636671 30.4226 0.971164 30.5613 1.33954 30.5613H8.3721C9.10885 30.5613 9.71164 29.9362 9.71164 29.1721C9.71164 28.4081 9.10885 27.783 8.3721 27.783H4.58831L12.9264 19.1361C13.4622 18.5804 13.4622 17.7118 12.9264 17.1561C12.3906 16.6352 11.5201 16.6351 11.0178 17.1907Z" fill="white"/>
</svg>
