
<svg
   viewBox="0 0 16.153232 15.809992"
   version="1.1"
   x="0px"
   y="0px"
   id="svg637"

   width="16.153233"
   height="15.809993"

>
  <defs
     id="defs641" />
  
  <g
     id="g631"
     transform="translate(-0.44205572,-0.59807538)">
    <path
       style="color:#000000"
       d="m 8.4658928,0.79375017 c -4.2344975,0 -7.67188473,3.43945303 -7.67188473,7.67395103 0,4.2344968 3.43738723,7.6718818 7.67188473,7.6718818 4.2344952,0 7.6734322,-3.437385 7.6734322,-7.6718818 0,-4.234498 -3.438937,-7.67395103 -7.6734322,-7.67395103 z m 0,0.52916603 c 1.8792062,0 3.5873322,0.724501 4.8622342,1.908929 l -1.919263,1.917195 0.375171,0.373105 1.917195,-1.917198 c 1.18451,1.274919 1.908929,2.983471 1.908929,4.862754 0,3.9485118 -3.195754,7.1427148 -7.1442662,7.1427148 -1.8791396,0 -3.5872976,-0.724006 -4.8617187,-1.907894 L 5.5224032,11.783776 5.1492984,11.41119 3.2300347,13.328385 c -1.1834574,-1.274339 -1.90686,-2.981931 -1.90686,-4.8606838 0,-3.948515 3.1942034,-7.144785 7.1427181,-7.144785 z m -0.1136889,2.121318 v 0.265618 1.296562 H 7.7842785 c -1.0532454,0 -1.9182265,0.829082 -1.9182292,1.861383 0,1.032288 0.8649944,1.863452 1.9182292,1.863452 H 8.4658928 8.731508 9.1495708 c 0.7786925,0 1.3885462,0.5953 1.3885462,1.3337698 0,0.738489 -0.609851,1.334286 -1.3885462,1.334286 H 6.54973 6.2861786 v 0.529167 H 6.54973 8.3522039 v 1.295011 0.265615 h 0.5296826 v -0.265615 -1.295011 h 0.2676843 c 1.0532352,0 1.9177132,-0.831152 1.9177132,-1.863453 0,-1.0322868 -0.864473,-1.8629358 -1.9177132,-1.8629358 H 8.731508 8.4658928 7.7842785 c -0.7787085,0 -1.3890625,-0.595815 -1.3890625,-1.334286 0,-0.738489 0.6103646,-1.333767 1.3890625,-1.333767 h 2.5972585 0.265618 V 5.0064142 H 10.381537 8.8818865 v -1.296562 -0.265618 z"
       fill="#000000"
       stroke-width="1"
       stroke-linecap="square"
       stroke-linejoin="round"
       id="path629" />
  </g>
</svg>
