<svg width="19" height="18" viewBox="0 0 19 18" fill="none" xmlns="http://www.w3.org/2000/svg">
<g clip-path="url(#clip0_452_4008)">
<path d="M9.29687 15.4053C9.27423 15.4053 9.25158 15.4053 9.22894 15.4053C5.67381 15.3601 2.79801 12.439 2.8433 8.8612C2.86595 5.30607 5.80968 2.40763 9.3648 2.45292C12.9426 2.4982 15.7957 5.41929 15.7731 8.99706C15.7504 12.5295 12.852 15.4053 9.29687 15.4053ZM9.29687 3.13224C6.1267 3.13224 3.54527 5.69102 3.49998 8.8612C3.47734 12.0767 6.05876 14.6807 9.25158 14.726C12.4444 14.7713 15.0711 12.1899 15.0938 8.99706C15.1164 5.7816 12.5576 3.17753 9.3648 3.13224C9.34216 3.13224 9.31952 3.13224 9.29687 3.13224Z" fill="#6B7280"/>
<path d="M9.36449 15.36C9.27391 15.36 9.18333 15.3147 9.1154 15.2468C9.00218 15.1109 9.00218 14.8845 9.13804 14.7713C10.8137 13.2994 11.7648 11.1935 11.7648 8.99701C11.7648 6.75524 10.7684 4.6267 9.04747 3.15483C8.9116 3.04161 8.88896 2.81517 9.00218 2.6793C9.1154 2.54344 9.34184 2.5208 9.47771 2.63402C11.3572 4.24175 12.4441 6.55145 12.4441 8.99701C12.4441 11.3973 11.4025 13.6843 9.56828 15.2694C9.52299 15.3374 9.43242 15.36 9.36449 15.36Z" fill="#6B7280"/>
<path d="M9.11561 15.2469C9.02503 15.2469 8.9571 15.2242 8.88917 15.1563C7.16822 13.5712 6.17188 11.3294 6.17188 8.9971C6.17188 6.55153 7.25879 4.21919 9.13825 2.61146C9.27412 2.49824 9.50056 2.49824 9.61378 2.65675C9.727 2.79261 9.727 3.01905 9.56849 3.13227C7.82489 4.60414 6.82855 6.75533 6.82855 8.9971C6.82855 11.1709 7.71167 13.1863 9.34205 14.6581C9.47791 14.794 9.50056 14.9978 9.36469 15.1337C9.29676 15.2016 9.20619 15.2469 9.11561 15.2469Z" fill="#6B7280"/>
<path d="M14.3465 6.03064H4.08869C3.90753 6.03064 3.74902 5.87213 3.74902 5.69098C3.74902 5.50983 3.90753 5.35132 4.08869 5.35132H14.3465C14.5276 5.35132 14.6861 5.50983 14.6861 5.69098C14.6861 5.87213 14.5276 6.03064 14.3465 6.03064Z" fill="#6B7280"/>
<path d="M15.433 9.20081H3.29572C3.11456 9.20081 2.95605 9.0423 2.95605 8.86115C2.95605 8.67999 3.11456 8.52148 3.29572 8.52148H15.433C15.6141 8.52148 15.7726 8.67999 15.7726 8.86115C15.7726 9.0423 15.6141 9.20081 15.433 9.20081Z" fill="#6B7280"/>
<path d="M14.347 12.756H4.27033C4.08917 12.756 3.93066 12.5975 3.93066 12.4163C3.93066 12.2352 4.08917 12.0767 4.27033 12.0767H14.347C14.5281 12.0767 14.6866 12.2352 14.6866 12.4163C14.6866 12.5975 14.5281 12.756 14.347 12.756Z" fill="#6B7280"/>
<path d="M7.10059 6.41553C7.50078 6.41553 7.8252 6.09111 7.8252 5.69092C7.8252 5.29073 7.50078 4.96631 7.10059 4.96631C6.7004 4.96631 6.37598 5.29073 6.37598 5.69092C6.37598 6.09111 6.7004 6.41553 7.10059 6.41553Z" fill="#6B7280"/>
<path d="M12.1045 9.5857C12.5047 9.5857 12.8291 9.26128 12.8291 8.86109C12.8291 8.46089 12.5047 8.13647 12.1045 8.13647C11.7043 8.13647 11.3799 8.46089 11.3799 8.86109C11.3799 9.26128 11.7043 9.5857 12.1045 9.5857Z" fill="#6B7280"/>
<path d="M7.23633 13.1409C7.63652 13.1409 7.96094 12.8165 7.96094 12.4163C7.96094 12.0161 7.63652 11.6917 7.23633 11.6917C6.83614 11.6917 6.51172 12.0161 6.51172 12.4163C6.51172 12.8165 6.83614 13.1409 7.23633 13.1409Z" fill="#6B7280"/>
<path d="M9.74982 17.1943C9.56867 17.1943 9.41016 17.0358 9.41016 16.8546C9.41016 16.6735 9.56867 16.515 9.74982 16.515C13.939 16.515 17.3356 13.1183 17.3356 8.92919C17.3356 4.94383 14.2334 1.63779 10.2706 1.36606C10.0895 1.34341 9.93097 1.1849 9.95361 1.00375C9.97626 0.822598 10.1348 0.664089 10.3159 0.686734C14.6409 0.981107 18.0149 4.60416 18.0149 8.92919C18.0149 13.4807 14.3239 17.1943 9.74982 17.1943Z" fill="#6B7280"/>
<path d="M9.75 1.00379L10.5199 1.84162L11.1992 1.88691L10.4293 1.04907L11.2898 0.279175L10.6105 0.233887L9.75 1.00379Z" fill="#6B7280"/>
<path d="M7.98336 17.1716H7.96071C3.63569 16.8772 0.261719 13.2542 0.261719 8.92916C0.261719 4.3777 3.97535 0.664062 8.52682 0.664062C8.70797 0.664062 8.86648 0.822571 8.86648 1.00372C8.86648 1.18488 8.70797 1.34339 8.52682 1.34339C4.33766 1.34339 0.941042 4.74 0.941042 8.92916C0.941042 12.9145 4.04328 16.2206 8.006 16.4923C8.18716 16.5149 8.34566 16.6734 8.32302 16.8546C8.30038 17.0358 8.16451 17.1716 7.98336 17.1716Z" fill="#6B7280"/>
<path d="M8.5271 16.8546L7.7572 16.0167L7.07788 15.9714L7.84778 16.8093L6.9873 17.5792L7.68927 17.6245L8.5271 16.8546Z" fill="#6B7280"/>
</g>
<defs>
<clipPath id="clip0_452_4008">
<rect width="18.3752" height="18" fill="white"/>
</clipPath>
</defs>
</svg>
