<?xml version="1.0" encoding="utf-8"?>
<!-- Generator: Adobe Illustrator 19.2.1, SVG Export Plug-In . SVG Version: 6.00 Build 0)  -->
<svg version="1.1" id="Layer_1" xmlns="http://www.w3.org/2000/svg" xmlns:xlink="http://www.w3.org/1999/xlink" x="0px" y="0px"
	 viewBox="0 0 32 32" style="enable-background:new 0 0 32 32;" xml:space="preserve">
<style type="text/css">
	.st0{fill:#FB8C2B;}
	.st1{fill:#79C143;}
	.st2{fill:none;stroke:#79C143;stroke-width:1.5;stroke-miterlimit:100;}
</style>
<g id="Shape_2">
	<g>
		<path class="st0" d="M22.5,2.4l6.1,5.7l-2.3,2.5l-6.1-5.7L22.5,2.4 M22.5,0.3L18.2,5l8.3,7.7L30.8,8L22.5,0.3L22.5,0.3z"/>
	</g>
</g>
<g id="Shape_2_copy">
	<g>
		<path class="st1" d="M18.8,6.5l6.1,5.7L13.4,24.6l-6.1-5.7L18.8,6.5 M18.7,4.4L5.2,19l8.3,7.7L27,12L18.7,4.4L18.7,4.4z"/>
	</g>
</g>
<g id="Shape_1">
	<g>
		<path class="st1" d="M6.2,21.3l4.9,4.5l-7.5,3.2L6.2,21.3 M5.5,18.6l-4,12.1c0,0-0.2,0.6,0.3,0.6c0.1,0,0.2,0,0.3,0l11.7-5
			L5.5,18.6L5.5,18.6z"/>
	</g>
</g>
<line class="st2" x1="7.1" y1="28.8" x2="3.7" y2="25.7"/>
<line class="st2" x1="9.4" y1="22.9" x2="22.8" y2="8.3"/>
</svg>
