<?xml version="1.0" encoding="UTF-8" standalone="no"?>
<svg
   version="1.1"
   x="0px"
   y="0px"
   viewBox="0 0 72.512283 82.463144"
   xml:space="preserve"
   id="svg560"

   width="72.512283"
   height="82.463142"
  ><defs
     id="defs564" />
     
   
     
     
     <g
     id="g554"
     transform="translate(-13.513514,-9.0380835)"><path
       d="m 75.2,43.6 c -1.3,-1.3 -3.3,-1.3 -4.6,0 L 53.3,60.9 V 13.3 C 53.3,11.5 51.8,10 50,10 c -1.8,0 -3.3,1.5 -3.3,3.3 V 60.9 L 29.5,43.6 c -1.3,-1.3 -3.3,-1.3 -4.6,0 -1.3,1.3 -1.3,3.3 0,4.6 l 22.9,22.9 c 0.3,0.3 0.7,0.5 1.1,0.7 0.3,0.2 0.7,0.2 1.1,0.2 0.4,0 0.8,-0.1 1.2,-0.3 0.4,-0.2 0.8,-0.4 1.1,-0.7 L 75.2,48.1 c 1.2,-1.1 1.2,-3.2 0,-4.5 z"
       id="path548" /><g
       id="g552"><path
         d="M 81.3,90 H 18.7 c -1.8,0 -3.3,-1.5 -3.3,-3.3 V 65.5 c 0,-1.8 1.5,-3.3 3.3,-3.3 1.8,0 3.3,1.5 3.3,3.3 v 18 h 56 v -18 c 0,-1.8 1.5,-3.3 3.3,-3.3 1.8,0 3.3,1.5 3.3,3.3 V 86.7 C 84.5,88.5 83.1,90 81.3,90 Z"
         id="path550" /></g></g></svg>
