<svg width="15" height="16" viewBox="0 0 23 20" fill="none" xmlns="http://www.w3.org/2000/svg">
<path fill-rule="evenodd" clip-rule="evenodd" d="M11 22C17.0751 22 22 17.0751 22 11C22 4.92486 17.0751 0 11 0C4.92487 0 0 4.92486 0 11C0 17.0751 4.92487 22 11 22ZM11 20.4286C16.2072 20.4286 20.4286 16.2072 20.4286 11C20.4286 5.79274 16.2072 1.57143 11 1.57143C5.79274 1.57143 1.57143 5.79274 1.57143 11C1.57143 16.2072 5.79274 20.4286 11 20.4286ZM10.2137 6.28548V6.49998C10.2137 6.89177 10.5313 7.20938 10.9231 7.20938H11.0758C11.4675 7.20938 11.7852 6.89177 11.7852 6.49998V6.28548C11.7852 5.85155 11.4334 5.49977 10.9994 5.49977C10.5655 5.49977 10.2137 5.85155 10.2137 6.28548ZM10.2137 8.78604V10.2145V11.786V14.9288C10.2137 15.3628 10.5655 15.7145 10.9994 15.7145C11.4334 15.7145 11.7852 15.3628 11.7852 14.9288V11.786V10.2145V8.78604C11.7852 8.3521 11.4334 8.00033 10.9994 8.00033C10.5655 8.00033 10.2137 8.3521 10.2137 8.78604Z" fill="currentColor" fill-opacity="1"/>
</svg>
