<svg width="19" height="17" viewBox="0 0 24 25" fill="none" xmlns="http://www.w3.org/2000/svg">
<path d="M15.5903 19.324C17.1388 19.324 18.4006 18.0622 18.4006 16.5137C18.4006 14.9652 17.1388 13.7035 15.5903 13.7035C14.0303 13.7035 12.78 14.9652 12.78 16.5137C12.78 18.0622 14.0303 19.324 15.5903 19.324ZM21.5549 17.2937L23.2526 18.6243C23.4017 18.7505 23.4476 18.9569 23.3443 19.1405L21.7385 21.9163C21.6352 22.0884 21.4402 22.1572 21.2452 22.0884L19.2494 21.2854C18.8364 21.6066 18.3776 21.8704 17.8959 22.0769L17.5861 24.1989C17.5632 24.3939 17.3912 24.5431 17.1962 24.5431H13.9844C13.778 24.5431 13.6174 24.3939 13.583 24.1989L13.2847 22.0769C12.7915 21.8704 12.3441 21.6066 11.9312 21.2854L9.92388 22.0884C9.75182 22.1572 9.53388 22.0884 9.44212 21.9163L7.83625 19.1405C7.73302 18.9569 7.7789 18.7505 7.92802 18.6243L9.62564 17.2937L9.56829 16.5137L9.62564 15.7223L7.92802 14.4032C7.7789 14.277 7.73302 14.0591 7.83625 13.887L9.44212 11.1111C9.53388 10.9276 9.75182 10.8588 9.92388 10.9276L11.9312 11.742C12.3441 11.4208 12.7915 11.1456 13.2847 10.9506L13.583 8.81705C13.6174 8.63352 13.778 8.48441 13.9844 8.48441H17.1962C17.3912 8.48441 17.5632 8.63352 17.5861 8.81705L17.8959 10.9506C18.3776 11.1456 18.8364 11.4208 19.2494 11.742L21.2452 10.9276C21.4402 10.8588 21.6352 10.9276 21.7385 11.1111L23.3443 13.887C23.4476 14.0591 23.4017 14.277 23.2526 14.4032L21.5549 15.7223L21.6123 16.5137L21.5549 17.2937ZM5.02599 7.41765C6.02392 7.41765 6.82685 6.61472 6.82685 5.61679C6.82685 4.61886 6.02392 3.80445 5.02599 3.80445C4.54533 3.80445 4.08435 3.9954 3.74447 4.33528C3.40459 4.67515 3.21365 5.13613 3.21365 5.61679C3.21365 6.61472 4.02806 7.41765 5.02599 7.41765ZM8.85712 6.12149L9.96976 6.9703C10.0501 7.0506 10.073 7.18824 10.0042 7.30295L8.97183 9.09234C8.91448 9.20704 8.77683 9.25293 8.66212 9.20705L7.37743 8.69087L6.52862 9.19557L6.31068 10.5606C6.28774 10.6867 6.1845 10.7785 6.05833 10.7785H3.99364C3.856 10.7785 3.75276 10.6867 3.72982 10.5606L3.5463 9.19557L2.67454 8.69087L1.36691 9.20705C1.26367 9.25293 1.1375 9.20704 1.06868 9.09234L0.0363334 7.30295C-0.0324894 7.18824 0.00192226 7.0506 0.093686 6.9703L1.18338 6.12149L1.14897 5.61679L1.18338 5.11209L0.093686 4.26327C0.00192226 4.18298 -0.0324894 4.04533 0.0363334 3.93063L1.06868 2.14124C1.1375 2.02653 1.26367 1.98065 1.36691 2.02653L2.66307 2.5427L3.5463 2.038L3.72982 0.673017C3.75276 0.546842 3.856 0.455078 3.99364 0.455078H6.05833C6.1845 0.455078 6.28774 0.546842 6.31068 0.673017L6.52862 2.038L7.37743 2.5427L8.66212 2.02653C8.77683 1.98065 8.91448 2.02653 8.97183 2.14124L10.0042 3.93063C10.073 4.04533 10.0501 4.18298 9.96976 4.26327L8.85712 5.11209L8.89153 5.61679L8.85712 6.12149Z" fill="currentColor" fill-opacity="1"/>
</svg>
