<svg width="60" height="70" viewBox="0 0 50 50" fill="none" xmlns="http://www.w3.org/2000/svg">
<path d="M17.9688 42.3438H16.5625C14.0625 42.3438 12.8125 40.9375 12.8125 37.8125V30.4688C12.8125 26.5625 10.3125 25.625 8.59375 25C10.625 24.2188 12.8125 22.9688 12.8125 19.5313V12.1875C12.8125 9.21875 14.2188 7.65625 16.5625 7.65625H17.9688" stroke="#009DDC" stroke-width="2" stroke-miterlimit="10"/>
<path d="M31.0938 7.5H32.5C34.8437 7.5 36.25 8.90625 36.25 12.0312V19.375C36.25 23.2813 38.5937 24.2188 40.4688 24.8438C38.4375 25.625 36.25 26.875 36.25 30.3125V37.6563C36.25 40.625 34.8437 42.1875 32.5 42.1875H31.0938" stroke="#009DDC" stroke-width="2" stroke-miterlimit="10"/>
</svg>
