<svg width="17" height="15" viewBox="0 0 17 15" fill="none" xmlns="http://www.w3.org/2000/svg">
<g clip-path="url(#clip0_858_1790)">
<path d="M13.8215 9.04305C13.8215 7.94901 13.1299 7.03103 12.1616 6.70407C12.4131 6.4903 12.564 6.18849 12.564 5.83639C12.564 5.20763 12.061 4.70463 11.4323 4.70463C10.8035 4.70463 10.3005 5.20763 10.3005 5.83639C10.3005 6.18849 10.4514 6.4903 10.7029 6.70407C10.3634 6.81725 10.0616 7.00588 9.81007 7.2448C9.58372 7.10648 9.33222 7.00588 9.08072 6.943C9.52085 6.67892 9.81007 6.20107 9.81007 5.64776C9.81007 4.8178 9.13102 4.13875 8.30106 4.13875C7.4711 4.13875 6.79205 4.8178 6.79205 5.64776C6.79205 6.18849 7.08127 6.66635 7.5214 6.943C7.25733 7.01845 7.0184 7.11905 6.79205 7.2448C6.54054 7.00588 6.22617 6.81725 5.89921 6.70407C6.15071 6.4903 6.30162 6.18849 6.30162 5.83639C6.30162 5.20763 5.79861 4.70463 5.16986 4.70463C4.5411 4.70463 4.03809 5.20763 4.03809 5.83639C4.03809 6.18849 4.189 6.4903 4.4405 6.70407C3.44706 7.03103 2.75543 7.94901 2.75543 9.04305V9.73468H5.16986C5.15728 9.86043 5.1447 9.99875 5.1447 10.1371V10.9922H11.4323V10.1371C11.4323 9.99875 11.4197 9.873 11.4071 9.73468H13.8215V9.04305ZM11.4323 5.22021C11.7844 5.22021 12.061 5.49686 12.061 5.84896C12.061 6.20107 11.7844 6.47772 11.4323 6.47772C11.0802 6.47772 10.8035 6.20107 10.8035 5.84896C10.8035 5.49686 11.0802 5.22021 11.4323 5.22021ZM8.28848 4.65433C8.84179 4.65433 9.29449 5.10703 9.29449 5.66034C9.29449 6.21364 8.84179 6.66635 8.28848 6.66635C7.73518 6.66635 7.28248 6.21364 7.28248 5.66034C7.28248 5.10703 7.73518 4.65433 8.28848 4.65433ZM5.1447 5.22021C5.49681 5.22021 5.77346 5.49686 5.77346 5.84896C5.77346 6.20107 5.49681 6.47772 5.1447 6.47772C4.7926 6.47772 4.51595 6.20107 4.51595 5.84896C4.51595 5.49686 4.7926 5.22021 5.1447 5.22021ZM3.25844 9.23167V9.04305C3.25844 7.97416 4.10097 7.0939 5.1447 7.0939C5.59741 7.0939 6.02496 7.26995 6.35192 7.54661C5.83634 7.97416 5.45908 8.55262 5.27046 9.23167H3.25844ZM10.9293 10.4892H5.64771V10.1371C5.64771 8.60292 6.82977 7.3454 8.28848 7.3454C9.7472 7.3454 10.9293 8.60292 10.9293 10.1371V10.4892ZM13.3185 9.23167H11.3065C11.1179 8.55262 10.7406 7.97416 10.2251 7.54661C10.552 7.26995 10.9796 7.0939 11.4323 7.0939C12.476 7.0939 13.3185 7.97416 13.3185 9.04305V9.23167Z" fill="black"/>
<path d="M16.2863 7.82326L15.494 6.81725C15.4437 6.75437 15.3683 6.71664 15.2928 6.71664C15.2174 6.71664 15.1419 6.75437 15.0916 6.81725L14.3748 7.82326C14.2994 7.93643 14.3245 8.09991 14.4377 8.17536C14.488 8.20051 14.5383 8.22566 14.5886 8.22566C14.6641 8.22566 14.7395 8.18793 14.7898 8.12506L15.079 7.71008C14.9533 11.3443 11.9478 14.2617 8.28848 14.2617C4.95607 14.2617 2.1644 11.8347 1.59852 8.66579L1.39732 8.91729C1.34701 8.98017 1.27156 9.01789 1.19611 9.01789C1.19611 9.01789 1.19611 9.01789 1.18354 9.01789C1.17096 9.01789 1.15839 9.01789 1.14581 9.01789C1.86259 12.3 4.7926 14.7647 8.28848 14.7647C12.2245 14.7647 15.4311 11.6461 15.5695 7.73523L15.8839 8.12506C15.9719 8.23823 16.1228 8.25081 16.236 8.16278C16.3491 8.08733 16.3743 7.92386 16.2863 7.82326Z" fill="black"/>
<path d="M1.22125 8.33884L1.347 8.18793C1.37215 8.17536 1.3973 8.15021 1.40987 8.13763L2.20211 7.13162C2.29013 7.01845 2.26498 6.86755 2.16438 6.77952C2.05121 6.69149 1.9003 6.71664 1.81228 6.81725L1.51048 7.1945C1.6488 3.57286 4.64168 0.680587 8.28847 0.680587C11.6083 0.680587 14.3748 3.06986 14.9659 6.21364H14.991L15.0916 6.06274C15.1419 5.99986 15.2048 5.96214 15.2928 5.96214C15.3431 5.96214 15.3934 5.97471 15.4437 6.01244C14.7521 2.68003 11.8095 0.177582 8.28847 0.177582C4.33988 0.177582 1.12065 3.32136 0.994896 7.2448L0.693093 6.81725C0.617642 6.70407 0.454166 6.67892 0.34099 6.75437C0.227814 6.82982 0.202663 6.9933 0.278114 7.10647L0.994896 8.11248C1.02005 8.15021 1.07035 8.18793 1.12065 8.20051L1.22125 8.33884Z" fill="black"/>
</g>
<defs>
<clipPath id="clip0_858_1790">
<rect width="16.3846" height="15" fill="white"/>
</clipPath>
</defs>
</svg>
