<svg width="20" height="30" viewBox="0 0 30 30" fill="none" xmlns="http://www.w3.org/2000/svg">
<path d="M26.8963 1.25372V7.67171C26.8963 8.34407 26.3462 8.89418 25.6739 8.89418C25.0015 8.89418 24.4514 8.34407 24.4514 7.67171V4.21856L16.7196 11.9199C16.4751 12.1644 16.1693 12.287 15.8636 12.287C15.558 12.287 15.2522 12.1644 15.0077 11.9199C14.5187 11.4309 14.5187 10.6671 15.0077 10.1781L22.7096 2.47619H19.2559C18.5835 2.47619 18.0334 1.92608 18.0334 1.25372C18.0334 0.581362 18.5835 0.03125 19.2559 0.03125H25.6739C26.01 0.03125 26.3159 0.153855 26.5298 0.398349C26.7743 0.612281 26.8963 0.917542 26.8963 1.25372ZM10.0569 15.1594L2.4469 22.7389V19.2852C2.4469 18.6128 1.89678 18.0627 1.22442 18.0627C0.552065 18.0627 0.00195312 18.6128 0.00195312 19.2852V25.7032C0.00195312 26.0394 0.124558 26.3452 0.369052 26.5591C0.582984 26.8036 0.888245 26.9256 1.22442 26.9256H7.6424C8.31476 26.9256 8.86487 26.3755 8.86487 25.7032C8.86487 25.0308 8.31476 24.4807 7.6424 24.4807H4.18928L11.7987 16.8713C12.2877 16.3823 12.2877 15.6179 11.7987 15.1289C11.3097 14.6705 10.5153 14.6704 10.0569 15.1594Z" fill="white"/>
</svg>
