<svg width="7" height="22" viewBox="0 0 7 22" fill="none" xmlns="http://www.w3.org/2000/svg">
<path d="M3.35836 16.4294C4.06671 16.4294 4.74605 16.7108 5.24693 17.2117C5.74782 17.7126 6.02921 18.3919 6.02921 19.1003C6.02921 19.8086 5.74782 20.488 5.24693 20.9889C4.74605 21.4897 4.06671 21.7711 3.35836 21.7711C2.65 21.7711 1.97066 21.4897 1.46978 20.9889C0.968893 20.488 0.6875 19.8086 0.6875 19.1003C0.6875 18.3919 0.968893 17.7126 1.46978 17.2117C1.97066 16.7108 2.65 16.4294 3.35836 16.4294ZM3.35836 8.41686C4.06671 8.41686 4.74605 8.69826 5.24693 9.19914C5.74782 9.70002 6.02921 10.3794 6.02921 11.0877C6.02921 11.7961 5.74782 12.4754 5.24693 12.9763C4.74605 13.4772 4.06671 13.7586 3.35836 13.7586C2.65 13.7586 1.97066 13.4772 1.46978 12.9763C0.968893 12.4754 0.6875 11.7961 0.6875 11.0877C0.6875 10.3794 0.968893 9.70002 1.46978 9.19914C1.97066 8.69826 2.65 8.41686 3.35836 8.41686ZM3.35836 0.404297C4.06671 0.404297 4.74605 0.68569 5.24693 1.18657C5.74782 1.68745 6.02921 2.3668 6.02921 3.07515C6.02921 3.78351 5.74782 4.46285 5.24693 4.96373C4.74605 5.46461 4.06671 5.74601 3.35836 5.74601C2.65 5.74601 1.97066 5.46461 1.46978 4.96373C0.968893 4.46285 0.6875 3.78351 0.6875 3.07515C0.6875 2.3668 0.968893 1.68745 1.46978 1.18657C1.97066 0.68569 2.65 0.404297 3.35836 0.404297Z" fill="#EEEEEE"/>
</svg>
