<svg width="20" height="17" viewBox="0 0 29 23" fill="none" xmlns="http://www.w3.org/2000/svg">
<path d="M19.41 11.5224L10.41 2.52238C10.05 2.16238 9.55 1.94238 9 1.94238H2C0.89 1.94238 0 2.83238 0 3.94238V10.9424C0 11.4924 0.22 11.9924 0.59 12.3524L9.58 21.3524C9.95 21.7124 10.45 21.9424 11 21.9424C11.55 21.9424 12.05 21.7124 12.41 21.3524L19.41 14.3524C19.78 13.9924 20 13.4924 20 12.9424C20 12.3824 19.77 11.8824 19.41 11.5224Z" fill="#94209F"/>
<path d="M17.1559 21.6291L17.1559 21.6291L17.161 21.6341C17.615 22.0758 18.2369 22.3657 18.9297 22.3657C19.6214 22.3657 20.2461 22.0764 20.6932 21.6293L27.691 14.6315C28.1554 14.1784 28.4297 13.5505 28.4297 12.8657C28.4297 12.1653 28.1414 11.5403 27.6932 11.0922L18.6932 2.09217C18.2415 1.64043 17.6151 1.36572 16.9297 1.36572H9.92969C8.54355 1.36572 7.42969 2.47958 7.42969 3.86572V10.8657C7.42969 11.5505 7.70401 12.1783 8.16833 12.6315L17.1559 21.6291Z" fill="#FCA555" stroke="#241D35"/>
</svg>
