<svg width="40" height="25" viewBox="0 0 44 55" fill="none" xmlns="http://www.w3.org/2000/svg">
<path d="M11.6955 2.85986C10.4118 2.85986 9.18075 3.36979 8.27307 4.27747C7.3654 5.18514 6.85547 6.41622 6.85547 7.69986V36.2999C6.85547 37.5835 7.3654 38.8146 8.27307 39.7223C9.18075 40.6299 10.4118 41.1399 11.6955 41.1399H28.1603C28.2178 41.1392 28.2746 41.1272 28.3275 41.1047C28.3523 41.0922 28.3758 41.0775 28.3979 41.0607C28.4212 41.048 28.4432 41.0333 28.4639 41.0167L37.0087 32.9999C37.0521 32.9585 37.0866 32.9086 37.1101 32.8534C37.1335 32.7981 37.1454 32.7387 37.1451 32.6787V7.69986C37.1451 6.41622 36.6351 5.18514 35.7275 4.27747C34.8198 3.36979 33.5887 2.85986 32.3051 2.85986H11.6955ZM28.6003 39.6835V34.4299C28.6003 34.0798 28.7393 33.744 28.9869 33.4965C29.2344 33.2489 29.5702 33.1099 29.9203 33.1099H35.5919L28.6003 39.6835ZM36.2651 7.69986V32.2299H29.9203C29.3368 32.2299 28.7772 32.4616 28.3646 32.8742C27.9521 33.2868 27.7203 33.8464 27.7203 34.4299V40.2599H11.6955C10.6452 40.2599 9.63797 39.8427 8.89533 39.1C8.15268 38.3574 7.73547 37.3501 7.73547 36.2999V7.69986C7.73547 6.64961 8.15268 5.64236 8.89533 4.89972C9.63797 4.15708 10.6452 3.73986 11.6955 3.73986H32.3051C33.3553 3.73986 34.3626 4.15708 35.1052 4.89972C35.8479 5.64236 36.2651 6.64961 36.2651 7.69986Z" fill="black"/>
<path d="M13.8591 14.2251H14.2991C14.9217 14.2251 15.5188 13.9778 15.959 13.5375C16.3992 13.0973 16.6465 12.5002 16.6465 11.8777C16.6465 11.2551 16.3992 10.658 15.959 10.2178C15.5188 9.77759 14.9217 9.53027 14.2991 9.53027H13.8591C13.2365 9.53027 12.6395 9.77759 12.1993 10.2178C11.759 10.658 11.5117 11.2551 11.5117 11.8777C11.5117 12.5002 11.759 13.0973 12.1993 13.5375C12.6395 13.9778 13.2365 14.2251 13.8591 14.2251ZM13.8591 10.4103H14.2991C14.6883 10.4103 15.0615 10.5649 15.3367 10.8401C15.6119 11.1153 15.7665 11.4885 15.7665 11.8777C15.7665 12.2669 15.6119 12.6401 15.3367 12.9153C15.0615 13.1905 14.6883 13.3451 14.2991 13.3451H13.8591C13.4699 13.3451 13.0967 13.1905 12.8215 12.9153C12.5463 12.6401 12.3917 12.2669 12.3917 11.8777C12.3917 11.4885 12.5463 11.1153 12.8215 10.8401C13.0967 10.5649 13.4699 10.4103 13.8591 10.4103Z" fill="black"/>
<path d="M30.1385 9.53467H22.2185C21.5959 9.53467 20.9989 9.78198 20.5586 10.2222C20.1184 10.6624 19.8711 11.2595 19.8711 11.8821C19.8711 12.5046 20.1184 13.1017 20.5586 13.5419C20.9989 13.9822 21.5959 14.2295 22.2185 14.2295H30.1385C30.7611 14.2295 31.3581 13.9822 31.7984 13.5419C32.2386 13.1017 32.4859 12.5046 32.4859 11.8821C32.4859 11.2595 32.2386 10.6624 31.7984 10.2222C31.3581 9.78198 30.7611 9.53467 30.1385 9.53467ZM30.1385 13.3495H22.2185C21.8293 13.3495 21.4561 13.1949 21.1809 12.9197C20.9057 12.6445 20.7511 12.2712 20.7511 11.8821C20.7511 11.4929 20.9057 11.1197 21.1809 10.8445C21.4561 10.5693 21.8293 10.4147 22.2185 10.4147H30.1385C30.5277 10.4147 30.9009 10.5693 31.1761 10.8445C31.4513 11.1197 31.6059 11.4929 31.6059 11.8821C31.6059 12.2712 31.4513 12.6445 31.1761 12.9197C30.9009 13.1949 30.5277 13.3495 30.1385 13.3495Z" fill="black"/>
<path d="M13.8591 23.9053H14.2991C14.9217 23.9053 15.5188 23.6579 15.959 23.2177C16.3992 22.7775 16.6465 22.1804 16.6465 21.5578C16.6465 20.9353 16.3992 20.3382 15.959 19.898C15.5188 19.4578 14.9217 19.2104 14.2991 19.2104H13.8591C13.2365 19.2104 12.6395 19.4578 12.1993 19.898C11.759 20.3382 11.5117 20.9353 11.5117 21.5578C11.5117 22.1804 11.759 22.7775 12.1993 23.2177C12.6395 23.6579 13.2365 23.9053 13.8591 23.9053ZM13.8591 20.0904H14.2991C14.6883 20.0904 15.0615 20.245 15.3367 20.5202C15.6119 20.7954 15.7665 21.1687 15.7665 21.5578C15.7665 21.947 15.6119 22.3203 15.3367 22.5955C15.0615 22.8706 14.6883 23.0252 14.2991 23.0252H13.8591C13.4699 23.0252 13.0967 22.8706 12.8215 22.5955C12.5463 22.3203 12.3917 21.947 12.3917 21.5578C12.3917 21.1687 12.5463 20.7954 12.8215 20.5202C13.0967 20.245 13.4699 20.0904 13.8591 20.0904Z" fill="black"/>
<path d="M30.1385 19.2148H22.2185C21.5959 19.2148 20.9989 19.4622 20.5586 19.9024C20.1184 20.3426 19.8711 20.9397 19.8711 21.5622C19.8711 22.1848 20.1184 22.7819 20.5586 23.2221C20.9989 23.6623 21.5959 23.9096 22.2185 23.9096H30.1385C30.7611 23.9096 31.3581 23.6623 31.7984 23.2221C32.2386 22.7819 32.4859 22.1848 32.4859 21.5622C32.4859 20.9397 32.2386 20.3426 31.7984 19.9024C31.3581 19.4622 30.7611 19.2148 30.1385 19.2148ZM30.1385 23.0296H22.2185C21.8293 23.0296 21.4561 22.875 21.1809 22.5999C20.9057 22.3247 20.7511 21.9514 20.7511 21.5622C20.7511 21.1731 20.9057 20.7998 21.1809 20.5246C21.4561 20.2494 21.8293 20.0948 22.2185 20.0948H30.1385C30.5277 20.0948 30.9009 20.2494 31.1761 20.5246C31.4513 20.7998 31.6059 21.1731 31.6059 21.5622C31.6059 21.9514 31.4513 22.3247 31.1761 22.5999C30.9009 22.875 30.5277 23.0296 30.1385 23.0296Z" fill="black"/>
<path d="M11.9556 30.505H16.2104C16.3271 30.505 16.439 30.4586 16.5216 30.3761C16.6041 30.2936 16.6504 30.1817 16.6504 30.065C16.6504 29.9483 16.6041 29.8364 16.5216 29.7539C16.439 29.6714 16.3271 29.625 16.2104 29.625H11.9556C11.8389 29.625 11.727 29.6714 11.6445 29.7539C11.562 29.8364 11.5156 29.9483 11.5156 30.065C11.5156 30.1817 11.562 30.2936 11.6445 30.3761C11.727 30.4586 11.8389 30.505 11.9556 30.505Z" fill="black"/>
<path d="M22.366 34.4653H11.9556C11.8389 34.4653 11.727 34.5117 11.6445 34.5942C11.562 34.6767 11.5156 34.7886 11.5156 34.9053C11.5156 35.022 11.562 35.1339 11.6445 35.2165C11.727 35.299 11.8389 35.3453 11.9556 35.3453H22.366C22.4827 35.3453 22.5946 35.299 22.6772 35.2165C22.7597 35.1339 22.806 35.022 22.806 34.9053C22.806 34.7886 22.7597 34.6767 22.6772 34.5942C22.5946 34.5117 22.4827 34.4653 22.366 34.4653Z" fill="black"/>
</svg>
