<svg width="31" height="37" viewBox="0 0 40 40" fill="none" xmlns="http://www.w3.org/2000/svg">
<path d="M25.7865 11.7925L19.727 5.73298L19.363 6.09698C19.0708 6.38925 18.9241 6.77575 18.9241 7.16329C18.9241 7.55086 19.0708 7.9384 19.3609 8.23068L23.29 12.1565C23.5823 12.4488 23.9688 12.5955 24.3563 12.5955C24.7439 12.5955 25.1314 12.4488 25.4237 12.1587L25.7866 11.7936L25.7865 11.7925ZM10.844 21.6441L3.39469 29.0934L2.42578 28.1245L9.87511 20.6752L4.10257 14.9026L5.43547 13.5697C5.9954 13.0098 6.73305 12.7293 7.46962 12.7293C8.06916 12.7293 8.66976 12.9156 9.1751 13.286C10.7692 12.7132 12.2949 11.9841 13.7305 11.1127C15.1469 10.253 16.4819 9.24875 17.7142 8.11403C17.6071 7.80677 17.5536 7.48558 17.5536 7.16442C17.5536 6.42784 17.8341 5.6902 18.394 5.13027L19.7269 3.79736L27.7233 11.7937L26.3904 13.1267C25.8272 13.6866 25.0907 13.9681 24.3552 13.9681C24.034 13.9681 23.7128 13.9146 23.4055 13.8076C22.2707 15.0398 21.2665 16.3749 20.4069 17.7912C19.5344 19.228 18.8053 20.7545 18.2325 22.3488C18.6019 22.8541 18.7871 23.4526 18.786 24.0521C18.7892 24.7887 18.5087 25.5263 17.9477 26.0863L16.6148 27.4192L10.8423 21.6466L10.844 21.6441ZM16.9819 22.9834L8.53604 14.5386C8.24377 14.2464 7.85727 14.1007 7.46973 14.1007C7.08323 14.1007 6.69569 14.2474 6.40449 14.5397L6.04049 14.9037L16.617 25.4802L16.981 25.1162C17.2733 24.8239 17.42 24.4374 17.42 24.051C17.4232 23.6656 17.2753 23.2767 16.9819 22.9834ZM10.2693 14.335L17.1853 21.251C17.7473 19.8035 18.4357 18.4097 19.2408 17.0831C20.1134 15.6464 21.1197 14.2942 22.2461 13.0501L18.4701 9.27421C17.225 10.4005 15.8739 11.4068 14.4371 12.2794C13.1117 13.0835 11.7178 13.7729 10.2704 14.335H10.2693Z" fill="white"/>
</svg>
