<svg width="30" height="30" viewBox="0 0 39 39" fill="none" xmlns="http://www.w3.org/2000/svg">
<circle cx="19.4444" cy="19.4444" r="19.4444" fill="#D9D9D9" fill-opacity="0.75"/>
<mask id="mask0_1560_17070" style="mask-type:alpha" maskUnits="userSpaceOnUse" x="0" y="0" width="39" height="39">
<circle cx="19.4444" cy="19.4444" r="19.4444" fill="#D9D9D9" fill-opacity="0.75"/>
</mask>
<g mask="url(#mask0_1560_17070)">
<path d="M19.053 7C20.961 7 22.791 7.75798 24.1402 9.1072C25.4894 10.4564 26.2474 12.2864 26.2474 14.1944C26.2474 16.1025 25.4894 17.9325 24.1402 19.2817C22.791 20.6309 20.961 21.3889 19.053 21.3889C17.1449 21.3889 15.3149 20.6309 13.9657 19.2817C12.6165 17.9325 11.8585 16.1025 11.8585 14.1944C11.8585 12.2864 12.6165 10.4564 13.9657 9.1072C15.3149 7.75798 17.1449 7 19.053 7ZM19.053 24.9861C27.0028 24.9861 33.4418 28.2056 33.4418 32.1806V35.7778L19.053 40.4444L4.66406 35.7778V32.1806C4.66406 28.2056 11.1031 24.9861 19.053 24.9861Z" fill="white" fill-opacity="0.5"/>
</g>
</svg>
