<svg width="18" height="15" viewBox="0 0 31 28" fill="none" xmlns="http://www.w3.org/2000/svg">
<path d="M27.0703 3.8717H23.6366C22.7948 3.8717 21.9916 3.51797 21.4233 2.89687L20.4623 1.84654C19.894 1.22543 19.0909 0.871704 18.249 0.871704H11.8916C11.0498 0.871704 10.2466 1.22544 9.67834 1.84654L8.71728 2.89687C8.14898 3.51797 7.34585 3.8717 6.50398 3.8717H3.07031C2.27466 3.8717 1.5116 4.18777 0.948992 4.75038C0.386383 5.31299 0.0703125 6.07605 0.0703125 6.8717V24.8717C0.0703125 25.6674 0.386383 26.4304 0.948992 26.993C1.5116 27.5556 2.27466 27.8717 3.07031 27.8717H27.0703C27.866 27.8717 28.629 27.5556 29.1916 26.993C29.7542 26.4304 30.0703 25.6674 30.0703 24.8717V6.8717C30.0703 6.07605 29.7542 5.31299 29.1916 4.75038C28.629 4.18777 27.866 3.8717 27.0703 3.8717ZM27.0703 23.3717C27.0703 24.2001 26.3987 24.8717 25.5703 24.8717H4.57031C3.74189 24.8717 3.07031 24.2001 3.07031 23.3717V8.3717C3.07031 7.54328 3.74189 6.8717 4.57031 6.8717H7.82398C8.66585 6.8717 9.46898 6.51797 10.0373 5.89687L10.9983 4.84653C11.5666 4.22543 12.3698 3.8717 13.2116 3.8717H16.929C17.7709 3.8717 18.574 4.22544 19.1423 4.84654L20.1033 5.89687C20.6716 6.51797 21.4748 6.8717 22.3166 6.8717H25.5703C26.3987 6.8717 27.0703 7.54328 27.0703 8.3717V23.3717ZM15.0703 8.3717C13.0812 8.3717 11.1735 9.16188 9.76701 10.5684C8.36049 11.9749 7.57031 13.8826 7.57031 15.8717C7.57031 17.8608 8.36049 19.7685 9.76701 21.175C11.1735 22.5815 13.0812 23.3717 15.0703 23.3717C17.0594 23.3717 18.9671 22.5815 20.3736 21.175C21.7801 19.7685 22.5703 17.8608 22.5703 15.8717C22.5703 13.8826 21.7801 11.9749 20.3736 10.5684C18.9671 9.16188 17.0594 8.3717 15.0703 8.3717ZM15.0703 20.3717C13.8768 20.3717 12.7322 19.8976 11.8883 19.0537C11.0444 18.2098 10.5703 17.0652 10.5703 15.8717C10.5703 14.6782 11.0444 13.5336 11.8883 12.6897C12.7322 11.8458 13.8768 11.3717 15.0703 11.3717C16.2638 11.3717 17.4084 11.8458 18.2523 12.6897C19.0962 13.5336 19.5703 14.6782 19.5703 15.8717C19.5703 17.0652 19.0962 18.2098 18.2523 19.0537C17.4084 19.8976 16.2638 20.3717 15.0703 20.3717Z" fill="white"/>
</svg>
