<svg width="35" height="35" viewBox="0 0 40 41" fill="none" xmlns="http://www.w3.org/2000/svg">
<rect width="40" height="40.3333" rx="10" fill="#FFD7D1"/>
<path fill-rule="evenodd" clip-rule="evenodd" d="M20 32.3888C25.7333 30.9888 30 25.2221 30 19.0554V12.3888L20 7.94434L10 12.3888V19.0554C10 25.2221 14.2667 30.9888 20 32.3888ZM27.7778 19.2999C27.7778 24.0999 24.1667 29.0554 20 30.1666C15.8333 29.0554 12.2222 24.0999 12.2222 19.2999V13.8332L20 10.3666L27.7778 13.8332V19.2999ZM16.8564 17.0239C17.6899 16.1904 18.8204 15.7221 19.9991 15.7221C21.1779 15.7221 22.3083 16.1904 23.1418 17.0239C23.9753 17.8574 24.4436 18.9878 24.4436 20.1666C24.4436 21.648 23.688 23.0357 22.4683 23.8505V25.5987H21.4806V24.1172H20.493V25.5987H19.5053V24.1172H18.5177V25.5987H17.53V23.8554C16.3102 23.0406 15.5547 21.6629 15.5547 20.1666C15.5547 18.9878 16.0229 17.8574 16.8564 17.0239ZM18.7222 20.4558C18.537 20.2706 18.2858 20.1666 18.0238 20.1666C17.7619 20.1666 17.5107 20.2706 17.3254 20.4558C17.1402 20.6411 17.0362 20.8923 17.0362 21.1542C17.0362 21.4162 17.1402 21.6674 17.3254 21.8526C17.5107 22.0378 17.7619 22.1419 18.0238 22.1419C18.2858 22.1419 18.537 22.0378 18.7222 21.8526C18.9074 21.6674 19.0115 21.4162 19.0115 21.1542C19.0115 20.8923 18.9074 20.6411 18.7222 20.4558ZM22.6728 20.4558C22.4876 20.2706 22.2364 20.1666 21.9744 20.1666C21.7125 20.1666 21.4613 20.2706 21.2761 20.4558C21.0908 20.6411 20.9868 20.8923 20.9868 21.1542C20.9868 21.4162 21.0908 21.6674 21.2761 21.8526C21.4613 22.0378 21.7125 22.1419 21.9744 22.1419C22.2364 22.1419 22.4876 22.0378 22.6728 21.8526C22.858 21.6674 22.9621 21.4162 22.9621 21.1542C22.9621 20.8923 22.858 20.6411 22.6728 20.4558ZM20.7399 23.1295L19.9991 21.648L19.2584 23.1295H20.7399Z" fill="#FD5138"/>
</svg>
