<svg width="50" height="51" viewBox="0 0 60 61" fill="none" xmlns="http://www.w3.org/2000/svg">
<rect y="0.5" width="60" height="60" rx="15" fill="#FFE8DA"/>
<path d="M22.14 26.028C22.644 26.028 23.084 26.1 23.46 26.244C23.836 26.388 24.204 26.608 24.564 26.904L23.76 27.84C23.272 27.448 22.76 27.252 22.224 27.252C21.608 27.252 21.112 27.5 20.736 27.996C20.368 28.492 20.184 29.272 20.184 30.336C20.184 31.376 20.368 32.148 20.736 32.652C21.104 33.156 21.6 33.408 22.224 33.408C22.552 33.408 22.844 33.352 23.1 33.24C23.356 33.12 23.628 32.952 23.916 32.736L24.66 33.672C24.38 33.96 24.024 34.2 23.592 34.392C23.168 34.584 22.692 34.68 22.164 34.68C21.444 34.68 20.808 34.512 20.256 34.176C19.704 33.84 19.276 33.348 18.972 32.7C18.668 32.044 18.516 31.256 18.516 30.336C18.516 29.432 18.672 28.656 18.984 28.008C19.304 27.36 19.736 26.868 20.28 26.532C20.832 26.196 21.452 26.028 22.14 26.028ZM33.5937 34.5H32.0457L31.8297 31.032C31.7577 29.792 31.7217 28.808 31.7217 28.08V27.648L30.2097 33.6H28.7097L27.1017 27.636C27.1177 28.164 27.1257 28.564 27.1257 28.836C27.1257 29.564 27.1017 30.312 27.0537 31.08L26.8497 34.5H25.3137L25.9737 26.208H28.0137L29.4897 32.016L30.8817 26.208H32.9457L33.5937 34.5ZM37.5684 26.208C38.6324 26.208 39.4564 26.428 40.0404 26.868C40.6324 27.308 40.9284 27.968 40.9284 28.848C40.9284 29.768 40.6324 30.46 40.0404 30.924C39.4484 31.38 38.6604 31.608 37.6764 31.608H36.7044V34.5H35.1204V26.208H37.5684ZM37.5564 30.42C38.1244 30.42 38.5524 30.304 38.8404 30.072C39.1284 29.832 39.2724 29.424 39.2724 28.848C39.2724 27.864 38.7004 27.372 37.5564 27.372H36.7044V30.42H37.5564Z" fill="#121212" fill-opacity="0.75"/>
</svg>
