<?xml version="1.0" encoding="UTF-8" standalone="no"?>
<svg
   viewBox="0 0 20.609337 20.638821"
   version="1.1"
   x="0px"
   y="0px"
   id="svg572"

   width="20.609337"
   height="20.638821"
 >
  <defs
     id="defs576" />

  <g
     id="g566"
     transform="translate(-1.6216216,-1.6584767)">
    <path

       d="M 12,2 C 6.4830804,2 2,6.4830804 2,12 2,17.162435 5.92108,21.420275 10.949219,21.945312 11.797001,22.033837 12.5,21.323371 12.5,20.5 v -4 C 12.5,16.217936 12.717936,16 13,16 h 6.5 c 0.971941,0 1.946772,-0.625455 2.197266,-1.619141 C 21.892878,13.604881 21.994649,12.807453 22,12.003906 A 0.50005,0.50005 0 0 0 22,12 C 22,6.4830804 17.51692,2 12,2 Z m 0,1 c 4.975814,0 8.998923,4.0224879 9,8.998047 -0.005,0.72254 -0.09754,1.440917 -0.273438,2.138672 C 20.624543,14.541422 19.971333,15 19.5,15 H 13 c -0.822504,0 -1.5,0.677496 -1.5,1.5 v 4 c 0,0.281198 -0.195004,0.477309 -0.445312,0.451172 C 6.5277748,20.478472 3,16.656721 3,12 3,7.0235199 7.0235199,3 12,3 Z"

       stroke-linecap="round"
       stroke-linejoin="round"
       id="path556" />
    <path

       d="M 6.5,10 C 5.677496,10 5,10.677496 5,11.5 5,12.322504 5.677496,13 6.5,13 7.322504,13 8,12.322504 8,11.5 8,10.677496 7.322504,10 6.5,10 Z m 0,1 C 6.7820644,11 7,11.217936 7,11.5 7,11.782064 6.7820644,12 6.5,12 6.2179356,12 6,11.782064 6,11.5 6,11.217936 6.2179356,11 6.5,11 Z"

       stroke-linecap="round"
       stroke-linejoin="round"
       id="path558" />
    <path

       d="M 17.5,10 C 16.677496,10 16,10.677496 16,11.5 16,12.322504 16.677496,13 17.5,13 18.322504,13 19,12.322504 19,11.5 19,10.677496 18.322504,10 17.5,10 Z m 0,1 C 17.782064,11 18,11.217936 18,11.5 18,11.782064 17.782064,12 17.5,12 17.217936,12 17,11.782064 17,11.5 17,11.217936 17.217936,11 17.5,11 Z"

       stroke-linecap="round"
       stroke-linejoin="round"
       id="path560" />
    <path

       d="M 9,6 C 8.177496,6 7.5,6.677496 7.5,7.5 7.5,8.322504 8.177496,9 9,9 9.822504,9 10.5,8.322504 10.5,7.5 10.5,6.677496 9.822504,6 9,6 Z M 9,7 C 9.2820644,7 9.5,7.2179356 9.5,7.5 9.5,7.7820644 9.2820644,8 9,8 8.7179356,8 8.5,7.7820644 8.5,7.5 8.5,7.2179356 8.7179356,7 9,7 Z"

       stroke-linecap="round"
       stroke-linejoin="round"
       id="path562" />
    <path

       d="M 15,6 C 14.177496,6 13.5,6.677496 13.5,7.5 13.5,8.322504 14.177496,9 15,9 15.822504,9 16.5,8.322504 16.5,7.5 16.5,6.677496 15.822504,6 15,6 Z m 0,1 c 0.282064,0 0.5,0.2179356 0.5,0.5 C 15.5,7.7820644 15.282064,8 15,8 14.717936,8 14.5,7.7820644 14.5,7.5 14.5,7.2179356 14.717936,7 15,7 Z"

       stroke-linecap="round"
       stroke-linejoin="round"
       id="path564" />
  </g>
</svg>
