<svg width="15" height="16" viewBox="0 0 15 16" fill="none" xmlns="http://www.w3.org/2000/svg">
<path fill-rule="evenodd" clip-rule="evenodd" d="M2.20684 7.28945C2.20684 4.7584 4.25834 2.70684 6.78866 2.70684C9.31899 2.70684 11.3705 4.7584 11.3705 7.28945C11.3705 8.51737 10.8876 9.63244 10.1015 10.4551C10.0753 10.4769 10.0498 10.5001 10.0252 10.5247C10.0004 10.5495 9.97702 10.5752 9.95508 10.6017C9.13235 11.3887 8.01692 11.8721 6.78866 11.8721C4.25834 11.8721 2.20684 9.8205 2.20684 7.28945ZM10.7462 12.8065C9.63211 13.6073 8.26547 14.0789 6.78866 14.0789C3.03924 14.0789 0 11.039 0 7.28945C0 3.53988 3.03924 0.5 6.78866 0.5C10.5381 0.5 13.5773 3.53988 13.5773 7.28945C13.5773 8.76556 13.1063 10.1317 12.3064 11.2456L14.677 13.6166C15.1079 14.0476 15.1078 14.7462 14.6769 15.1771C14.246 15.608 13.5473 15.6079 13.1164 15.177L10.7462 12.8065Z" fill="white" fill-opacity="0.5"/>
</svg>
