<svg width="20" height="20" viewBox="0 0 25 26" fill="none" xmlns="http://www.w3.org/2000/svg">
<path d="M12.5028 17.3484C11.31 17.3484 10.1659 16.8745 9.32246 16.031C8.47897 15.1876 8.00511 14.0435 8.00511 12.8507C8.00511 11.6578 8.47897 10.5138 9.32246 9.67029C10.1659 8.8268 11.31 8.35293 12.5028 8.35293C13.6957 8.35293 14.8397 8.8268 15.6832 9.67029C16.5267 10.5138 17.0006 11.6578 17.0006 12.8507C17.0006 14.0435 16.5267 15.1876 15.6832 16.031C14.8397 16.8745 13.6957 17.3484 12.5028 17.3484ZM22.0509 14.0972C22.1023 13.686 22.1408 13.2747 22.1408 12.8507C22.1408 12.4266 22.1023 12.0025 22.0509 11.5656L24.7624 9.47094C25.0065 9.27818 25.0708 8.93121 24.9166 8.6485L22.3464 4.20217C22.1922 3.91945 21.8453 3.8038 21.5626 3.91945L18.3627 5.20452C17.6945 4.70334 17.0006 4.26642 16.191 3.94515L15.7155 0.539728C15.6641 0.231312 15.3942 0 15.073 0H9.9327C9.61144 0 9.34157 0.231312 9.29017 0.539728L8.8147 3.94515C8.00511 4.26642 7.31117 4.70334 6.64293 5.20452L3.44312 3.91945C3.1604 3.8038 2.81344 3.91945 2.65923 4.20217L0.0890957 8.6485C-0.077963 8.93121 -0.000858813 9.27818 0.243304 9.47094L2.95479 11.5656C2.90339 12.0025 2.86484 12.4266 2.86484 12.8507C2.86484 13.2747 2.90339 13.686 2.95479 14.0972L0.243304 16.2304C-0.000858813 16.4231 -0.077963 16.7701 0.0890957 17.0528L2.65923 21.4992C2.81344 21.7819 3.1604 21.8847 3.44312 21.7819L6.64293 20.484C7.31117 20.998 8.00511 21.4349 8.8147 21.7562L9.29017 25.1616C9.34157 25.47 9.61144 25.7013 9.9327 25.7013H15.073C15.3942 25.7013 15.6641 25.47 15.7155 25.1616L16.191 21.7562C17.0006 21.4221 17.6945 20.998 18.3627 20.484L21.5626 21.7819C21.8453 21.8847 22.1922 21.7819 22.3464 21.4992L24.9166 17.0528C25.0708 16.7701 25.0065 16.4231 24.7624 16.2304L22.0509 14.0972Z" fill="white" fill-opacity="0.75"/>
</svg>
