<svg viewBox="0 0 40 40" xmlns="http://www.w3.org/2000/svg">
    <path
        d="M29.0714 25.1429L40.5 36.5714L37.0714 40L25.6429 28.5714V26.7657L25.0257 26.1257C22.42 28.3657 19.0371 29.7143 15.3571 29.7143C11.4168 29.7143 7.63781 28.149 4.85156 25.3627C2.0653 22.5765 0.5 18.7975 0.5 14.8571C0.5 10.9168 2.0653 7.13781 4.85156 4.35156C7.63781 1.5653 11.4168 0 15.3571 0C19.2975 0 23.0765 1.5653 25.8627 4.35156C28.649 7.13781 30.2143 10.9168 30.2143 14.8571C30.2143 18.5371 28.8657 21.92 26.6257 24.5257L27.2657 25.1429H29.0714ZM15.3571 3.42857L14.1 3.49714C13.5514 4.68571 12.7057 6.69714 12.0886 9.14286H18.6257C18.0086 6.69714 17.1629 4.68571 16.6143 3.49714C16.2029 3.42857 15.7914 3.42857 15.3571 3.42857ZM25.2543 9.14286C23.9057 6.78857 21.7343 4.96 19.1286 4.06857C19.6771 5.28 20.3857 7.04 20.9114 9.14286H25.2543ZM5.46 9.14286H9.80286C10.3286 7.04 11.0371 5.28 11.5857 4.06857C8.98 4.96 6.80857 6.78857 5.46 9.14286ZM3.92857 14.8571C3.92857 16 4.11143 17.2114 4.45429 18.2857H9.34571L9.07143 14.8571L9.34571 11.4286H4.45429C4.11143 12.5029 3.92857 13.7143 3.92857 14.8571ZM26.26 18.2857C26.6029 17.2114 26.7857 16 26.7857 14.8571C26.7857 13.7143 26.6029 12.5029 26.26 11.4286H21.3686C21.5514 12.5714 21.6429 13.7143 21.6429 14.8571C21.6429 16 21.5514 17.1429 21.3686 18.2857H26.26ZM11.6314 11.4286L11.3571 14.8571L11.6314 18.2857H19.0829C19.2657 17.1429 19.3571 16 19.3571 14.8571C19.3571 13.7143 19.2657 12.5714 19.0829 11.4286H11.6314ZM15.3571 26.2857C15.7686 26.2857 16.18 26.2857 16.5686 26.2171C17.14 25.0286 18.0086 23.0171 18.6257 20.5714H12.0886C12.7057 23.0171 13.5743 25.0286 14.1457 26.2171L15.3571 26.2857ZM25.2543 20.5714H20.9114C20.3857 22.6743 19.6771 24.4343 19.1286 25.6457C21.7343 24.7543 23.9057 22.9257 25.2543 20.5714ZM5.46 20.5714C6.80857 22.9257 8.98 24.7543 11.5857 25.6457C11.0371 24.4343 10.3286 22.6743 9.80286 20.5714H5.46Z"
    />
</svg>