<svg width="50" height="65" viewBox="50 50 41 37" fill="none" xmlns="http://www.w3.org/2000/svg">
<path d="M4.13636 0C3.17194 0 2.24702 0.383116 1.56507 1.06507C0.883116 1.74702 0.5 2.67194 0.5 3.63636V25.4545C0.5 27.4727 2.13636 29.0909 4.13636 29.0909H16.8636V32.7273H14.1364C13.6343 32.7273 13.2273 33.1343 13.2273 33.6364V35.4545C13.2273 35.9566 13.6343 36.3636 14.1364 36.3636H26.8636C27.3657 36.3636 27.7727 35.9566 27.7727 35.4545V33.6364C27.7727 33.1343 27.3657 32.7273 26.8636 32.7273H24.1364V29.0909H36.8636C37.8281 29.0909 38.753 28.7078 39.4349 28.0258C40.1169 27.3439 40.5 26.419 40.5 25.4545V3.63636C40.5 2.67194 40.1169 1.74702 39.4349 1.06507C38.753 0.383116 37.8281 0 36.8636 0M4.13636 3.63636H36.8636V25.4545H4.13636M25.9545 5.45455L19.5909 11.8182L25.9545 18.1818L28.5 15.6364L24.6818 11.8182L28.5 8M15.0455 10.9091L12.5 13.4545L16.3182 17.2727L12.5 21.0909L15.0455 23.6364L21.4091 17.2727" fill="white" fill-opacity="0.5"/>
</svg>
