<svg width="20" height="27" viewBox="0 0 31 51" fill="none" xmlns="http://www.w3.org/2000/svg">
<rect width="30" height="49.2" rx="7.2" transform="matrix(1 -8.74228e-08 -8.74228e-08 -1 0.5 50.1001)" fill="#1F1D27"/>
<rect x="0.6" y="-0.6" width="28.8" height="48" rx="6.6" transform="matrix(1 -8.74228e-08 -8.74228e-08 -1 0.5 48.9001)" stroke="white" stroke-opacity="0.5" stroke-width="1.2"/>
<path d="M17.3002 16.7627C17.3005 16.7052 17.2838 16.6489 17.2522 16.6008C17.2206 16.5528 17.1755 16.5152 17.1225 16.4928C17.0696 16.4704 17.0112 16.4641 16.9547 16.4748C16.8982 16.4855 16.8461 16.5127 16.805 16.553L7.8078 25.291C7.777 25.3167 7.75184 25.3485 7.7339 25.3844C7.71595 25.4202 7.70561 25.4594 7.70352 25.4995C7.70143 25.5395 7.70764 25.5796 7.72175 25.6171C7.73586 25.6547 7.75758 25.6889 7.78553 25.7177C7.81349 25.7464 7.84709 25.7691 7.88422 25.7843C7.92135 25.7995 7.96122 25.8068 8.00132 25.8059C8.04141 25.8049 8.08088 25.7957 8.11725 25.7788C8.15362 25.7618 8.1861 25.7376 8.21266 25.7075L17.2099 16.9695C17.238 16.9428 17.2604 16.9107 17.2759 16.8752C17.2914 16.8397 17.2997 16.8014 17.3002 16.7627Z" fill="white"/>
<path d="M17.3002 34.2402C17.3004 34.2012 17.2928 34.1625 17.2778 34.1265C17.2628 34.0905 17.2407 34.0578 17.2128 34.0305L8.21558 25.2925C8.18902 25.2624 8.15654 25.2382 8.12017 25.2213C8.0838 25.2044 8.04433 25.1951 8.00423 25.1942C7.96413 25.1932 7.92427 25.2006 7.88714 25.2157C7.85001 25.2309 7.81641 25.2536 7.78845 25.2823C7.76049 25.3111 7.73878 25.3453 7.72467 25.3829C7.71055 25.4204 7.70435 25.4605 7.70644 25.5005C7.70853 25.5406 7.71887 25.5798 7.73681 25.6157C7.75476 25.6515 7.77992 25.6833 7.81072 25.709L16.808 34.447C16.849 34.4873 16.9011 34.5145 16.9576 34.5252C17.0141 34.5359 17.0725 34.5297 17.1254 34.5072C17.1784 34.4848 17.2235 34.4472 17.2551 34.3992C17.2868 34.3511 17.3035 34.2948 17.3031 34.2373L17.3002 34.2402Z" fill="white"/>
<path d="M23.3002 16.7627C23.3005 16.7052 23.2838 16.6489 23.2522 16.6008C23.2206 16.5528 23.1755 16.5152 23.1225 16.4928C23.0696 16.4704 23.0112 16.4641 22.9547 16.4748C22.8982 16.4855 22.8461 16.5127 22.805 16.553L13.8078 25.291C13.777 25.3167 13.7518 25.3485 13.7339 25.3844C13.716 25.4202 13.7056 25.4594 13.7035 25.4995C13.7014 25.5395 13.7076 25.5796 13.7217 25.6171C13.7359 25.6547 13.7576 25.6889 13.7855 25.7177C13.8135 25.7464 13.8471 25.7691 13.8842 25.7843C13.9214 25.7995 13.9612 25.8068 14.0013 25.8059C14.0414 25.8049 14.0809 25.7957 14.1173 25.7788C14.1536 25.7618 14.1861 25.7376 14.2127 25.7075L23.2099 16.9695C23.238 16.9428 23.2604 16.9107 23.2759 16.8752C23.2914 16.8397 23.2997 16.8014 23.3002 16.7627Z" fill="white"/>
<path d="M23.3017 34.2388C23.3011 34.2393 23.3002 34.2389 23.3002 34.2382C23.3002 34.1998 23.2925 34.1619 23.2778 34.1265C23.2628 34.0905 23.2407 34.0578 23.2128 34.0305L14.2156 25.2925C14.189 25.2624 14.1565 25.2382 14.1202 25.2213C14.0838 25.2044 14.0443 25.1951 14.0042 25.1942C13.9641 25.1932 13.9243 25.2006 13.8871 25.2157C13.85 25.2309 13.8164 25.2536 13.7885 25.2823C13.7605 25.3111 13.7388 25.3453 13.7247 25.3829C13.7106 25.4204 13.7043 25.4605 13.7064 25.5005C13.7085 25.5406 13.7189 25.5798 13.7368 25.6157C13.7548 25.6515 13.7799 25.6833 13.8107 25.709L22.808 34.447C22.849 34.4873 22.9011 34.5145 22.9576 34.5252C23.0141 34.5359 23.0725 34.5297 23.1254 34.5072C23.1784 34.4848 23.2235 34.4472 23.2551 34.3992C23.2864 34.3517 23.3031 34.2962 23.3031 34.2394C23.3031 34.2386 23.3022 34.2382 23.3017 34.2388Z" fill="white"/>
</svg>
