<svg viewBox="0 0 50 50" xmlns="http://www.w3.org/2000/svg">
    <path
        d="M22.5051 31.2271C20.3579 31.2271 18.2987 30.3742 16.7804 28.8559C15.2621 27.3376 14.4092 25.2784 14.4092 23.1312C14.4092 20.984 15.2621 18.9248 16.7804 17.4065C18.2987 15.8882 20.3579 15.0353 22.5051 15.0353C24.6523 15.0353 26.7115 15.8882 28.2298 17.4065C29.7481 18.9248 30.601 20.984 30.601 23.1312C30.601 25.2784 29.7481 27.3376 28.2298 28.8559C26.7115 30.3742 24.6523 31.2271 22.5051 31.2271ZM39.6916 25.3749C39.7841 24.6347 39.8535 23.8945 39.8535 23.1312C39.8535 22.3679 39.7841 21.6045 39.6916 20.8181L44.5723 17.0477C45.0118 16.7007 45.1274 16.0762 44.8498 15.5673L40.2236 7.5639C39.946 7.05502 39.3215 6.84683 38.8126 7.05502L33.0529 9.36814C31.8501 8.46602 30.601 7.67956 29.1438 7.10128L28.2879 0.97151C28.1954 0.416362 27.7096 0 27.1313 0H17.8789C17.3006 0 16.8148 0.416362 16.7223 0.97151L15.8665 7.10128C14.4092 7.67956 13.1601 8.46602 11.9573 9.36814L6.19761 7.05502C5.68873 6.84683 5.06419 7.05502 4.78661 7.5639L0.160372 15.5673C-0.140333 16.0762 -0.00154586 16.7007 0.437947 17.0477L5.31863 20.8181C5.22611 21.6045 5.15671 22.3679 5.15671 23.1312C5.15671 23.8945 5.22611 24.6347 5.31863 25.3749L0.437947 29.2147C-0.00154586 29.5617 -0.140333 30.1862 0.160372 30.6951L4.78661 38.6985C5.06419 39.2074 5.68873 39.3924 6.19761 39.2074L11.9573 36.8711C13.1601 37.7964 14.4092 38.5828 15.8665 39.1611L16.7223 45.2909C16.8148 45.846 17.3006 46.2624 17.8789 46.2624H27.1313C27.7096 46.2624 28.1954 45.846 28.2879 45.2909L29.1438 39.1611C30.601 38.5597 31.8501 37.7964 33.0529 36.8711L38.8126 39.2074C39.3215 39.3924 39.946 39.2074 40.2236 38.6985L44.8498 30.6951C45.1274 30.1862 45.0118 29.5617 44.5723 29.2147L39.6916 25.3749Z"
    />
</svg>