<svg width="60" height="70" viewBox="0 0 55 55" fill="none" xmlns="http://www.w3.org/2000/svg">
<path d="M3.78125 13.2344H51.3906C52.9375 13.2344 53.9688 14.2656 53.9688 15.8125V40.3906C53.9688 41.9375 52.9375 42.9687 51.3906 42.9687H3.78125C2.23438 42.9687 1.20313 41.9375 1.20313 40.3906V15.8125C1.20312 14.4375 2.57813 13.2344 3.78125 13.2344Z" stroke="#939598" stroke-miterlimit="10"/>
<path d="M15.125 29.9062C15.125 30.5937 14.9531 31.2812 14.6094 31.7969C14.2656 32.3125 13.75 32.8281 13.0625 33.1719C12.375 33.5156 11.5156 33.6875 10.4844 33.6875C9.28125 33.6875 8.42188 33.5156 7.5625 33C7.04688 32.6563 6.53125 32.3125 6.1875 31.7969C5.84375 31.2812 5.67188 30.7656 5.67188 30.25C5.67188 29.9062 5.84375 29.7344 6.01563 29.5625C6.1875 29.3906 6.53125 29.2187 6.875 29.2187C7.04688 29.2187 7.39063 29.2188 7.5625 29.3906C7.73438 29.5625 7.90625 29.7344 8.07812 30.0781C8.25 30.4219 8.42188 30.7656 8.59375 31.1094C8.76562 31.2812 8.9375 31.625 9.28125 31.7969C9.625 31.9687 9.96875 31.9688 10.4844 31.9688C11.1719 31.9688 11.6875 31.7969 12.2031 31.4531C12.7188 31.1094 12.8906 30.7656 12.8906 30.25C12.8906 29.9062 12.7188 29.5625 12.5469 29.2187C12.375 29.0469 12.0313 28.7031 11.6875 28.7031C11.3438 28.5313 10.8281 28.3594 10.1406 28.3594C9.28125 28.1875 8.59375 27.8438 8.07812 27.6719C7.5625 27.3281 7.04688 26.9844 6.70313 26.6406C6.35938 26.2969 6.1875 25.6094 6.1875 24.9219C6.1875 24.2344 6.35938 23.7187 6.70313 23.2031C7.04688 22.6875 7.5625 22.3437 8.25 22C8.9375 21.6562 9.79687 21.6562 10.6562 21.6562C11.3438 21.6562 12.0312 21.8281 12.5469 22C13.0625 22.1719 13.5781 22.3437 13.9219 22.6875C14.2656 23.0312 14.6094 23.375 14.6094 23.5469C14.7812 23.8906 14.7812 24.2344 14.7812 24.5781C14.7812 24.9219 14.6094 25.0937 14.4375 25.2656C14.2656 25.4375 13.9219 25.6094 13.75 25.6094C13.4062 25.6094 13.2344 25.6094 13.0625 25.4375C12.8906 25.2656 12.7188 25.0937 12.5469 24.75C12.2031 24.0625 12.0313 23.7187 11.6875 23.5469C11.3438 23.375 10.8281 23.2031 10.3125 23.2031C9.625 23.2031 9.10938 23.375 8.76562 23.5469C8.42188 23.8906 8.25 24.0625 8.25 24.5781C8.25 24.75 8.25 25.0937 8.42188 25.2656C8.59375 25.4375 8.76562 25.6094 8.9375 25.7812C9.10937 25.7812 9.45312 25.7812 9.625 25.9531C9.79688 25.9531 10.3125 26.125 10.8281 26.2969C11.5156 26.4687 12.0313 26.6406 12.7188 26.8125C13.2344 26.9844 13.75 27.1562 14.0937 27.5C14.4375 27.8437 14.7812 28.1875 14.9531 28.5312C15.125 28.875 15.125 29.3906 15.125 29.9062Z" fill="#F7941E"/>
<path d="M22.3438 21.4844C23.5469 21.4844 24.5781 21.6562 25.4375 22.1719C26.2969 22.6875 26.9844 23.375 27.5 24.2344C28.0156 25.0938 28.1875 26.2969 28.1875 27.5C28.1875 28.3594 28.0156 29.2188 27.8438 30.0781C27.6719 30.7656 27.1563 31.4531 26.8125 31.9688C26.2969 32.4844 25.7812 33 24.9219 33.1719C24.2344 33.5156 23.375 33.6875 22.5156 33.6875C21.6563 33.6875 20.7969 33.5156 20.1094 33.1719C19.4219 32.8281 18.7344 32.4844 18.2188 31.9688C17.7031 31.4531 17.3594 30.7656 17.1875 30.0781C16.8438 29.2188 16.6719 28.3594 16.6719 27.5C16.6719 26.6406 16.8437 25.7812 17.0156 24.9219C17.1875 24.0625 17.7031 23.5469 18.2188 23.0312C18.7344 22.5156 19.25 22.1719 20.1094 21.8281C20.625 21.6562 21.4844 21.4844 22.3438 21.4844ZM25.7812 27.5C25.7812 26.6406 25.6094 25.9531 25.4375 25.2656C25.0938 24.5781 24.75 24.2344 24.2344 23.8906C23.7188 23.5469 23.2031 23.375 22.5156 23.375C22 23.375 21.6563 23.5469 21.1406 23.7188C20.7969 23.8906 20.4531 24.2344 20.1094 24.5781C19.7656 24.9219 19.5938 25.4375 19.4219 25.9531C19.25 26.4688 19.25 27.1563 19.25 27.8438C19.25 28.5313 19.25 29.0469 19.4219 29.7344C19.5938 30.25 19.7656 30.7656 20.1094 31.1094C20.4531 31.4531 20.7969 31.7969 21.1406 31.9688C21.4844 32.1406 22 32.3125 22.5156 32.3125C23.2031 32.3125 23.7188 32.1406 24.2344 31.7969C24.75 31.4531 25.0938 30.9375 25.4375 30.4219C25.6094 29.2188 25.7812 28.5312 25.7812 27.5Z" fill="#F7941E"/>
<path d="M37.2969 32.1406L36.7812 30.5937H31.9688L31.4531 32.1406C31.2812 32.6563 31.1094 33.1719 30.9375 33.3437C30.7656 33.5156 30.5938 33.6875 30.25 33.6875C29.9063 33.6875 29.7344 33.5156 29.3906 33.3437C29.0469 33.1719 29.0469 32.8281 29.0469 32.6562C29.0469 32.4844 29.0469 32.3125 29.0469 32.1406C29.0469 31.9688 29.2188 31.7969 29.3906 31.4531L32.4844 23.7188C32.6562 23.5469 32.6563 23.2031 32.8281 22.8594C33 22.5156 33 22.3437 33.1719 22.1719C33.3437 22 33.5156 21.8281 33.6875 21.6563C33.8594 21.4844 34.2031 21.4844 34.5469 21.4844C34.8906 21.4844 35.2344 21.4844 35.4063 21.6563C35.5781 21.8281 35.75 22 35.9219 22.1719C36.0938 22.3437 36.0938 22.5156 36.2656 22.8594C36.4375 23.0313 36.4375 23.375 36.6094 23.7188L39.7031 31.2813C39.875 31.7969 40.0469 32.3125 40.0469 32.4844C40.0469 32.8281 39.875 33 39.7031 33.1719C39.5313 33.3437 39.1875 33.5156 38.8438 33.5156C38.6719 33.5156 38.5 33.5156 38.3281 33.3437C38.1562 33.3437 38.1563 33.1719 37.9844 33C37.8125 32.8281 37.8125 32.6562 37.6406 32.4844C37.4688 32.4844 37.2969 32.3125 37.2969 32.1406ZM32.4844 28.875H36.0938L34.375 24.0625L32.4844 28.875Z" fill="#F7941E"/>
<path d="M46.2344 28.875H44V32.3125C44 32.8281 43.8281 33.1719 43.6562 33.3437C43.4844 33.5156 43.1406 33.6875 42.7969 33.6875C42.4531 33.6875 42.1094 33.5156 41.9375 33.3437C41.7656 33.1719 41.5938 32.6562 41.5938 32.3125V23.2031C41.5938 22.6875 41.7656 22.3437 41.9375 22C42.1094 21.6562 42.625 21.6563 43.1406 21.6563H46.2344C47.0937 21.6563 47.7812 21.6562 48.2969 21.8281C48.8125 22 49.1562 22.1719 49.5 22.5156C49.8437 22.8594 50.1875 23.2031 50.3594 23.7187C50.5312 24.2344 50.7031 24.75 50.7031 25.2656C50.7031 26.4687 50.3594 27.3281 49.6719 28.0156C48.8125 28.5312 47.6094 28.875 46.2344 28.875ZM45.5469 23.375H44V26.9844H45.5469C46.0625 26.9844 46.5781 26.9844 46.9219 26.8125C47.2656 26.6406 47.6094 26.4687 47.7812 26.2969C47.9531 25.9531 48.125 25.6094 48.125 25.2656C48.125 24.75 47.9531 24.2344 47.6094 24.0625C47.4375 23.5469 46.5781 23.375 45.5469 23.375Z" fill="#F7941E"/>
<path d="M15.4688 30.25C15.4688 30.9375 15.2969 31.7969 14.9531 32.3125C14.6094 33 13.9219 33.3438 13.2344 33.6875C12.5469 34.0313 11.5156 34.2031 10.4844 34.2031C9.28125 34.2031 8.25 34.0312 7.39063 33.5156C6.875 33.1719 6.35937 32.6563 6.01562 32.1406C5.67187 31.625 5.5 30.9375 5.5 30.4219C5.5 30.0781 5.67188 29.9063 5.84375 29.5625C6.01563 29.3906 6.35938 29.2188 6.70313 29.2188C7.04688 29.2188 7.21875 29.3906 7.39063 29.5625C7.5625 29.7344 7.73437 30.0781 7.90625 30.4219C8.07812 30.7656 8.25 31.1094 8.42188 31.4531C8.59375 31.7969 8.9375 31.9688 9.28125 32.1406C9.625 32.3125 10.1406 32.4844 10.6562 32.4844C11.3437 32.4844 12.0313 32.3125 12.5469 31.9688C13.0625 31.625 13.2344 31.1094 13.2344 30.5937C13.2344 30.25 13.0625 29.9063 12.8906 29.5625C12.375 29.2188 12.0312 29.0469 11.5156 28.875C11.1719 28.7031 10.4844 28.5313 9.79687 28.3594C8.9375 28.1875 8.07812 27.8438 7.5625 27.6719C6.875 27.3281 6.53125 26.9844 6.01562 26.4687C5.5 25.9531 5.5 25.4375 5.5 24.5781C5.5 23.8906 5.67187 23.2031 6.01562 22.6875C6.35937 22.1719 6.875 21.6563 7.73438 21.4844C8.42188 21.1406 9.28125 20.9688 10.3125 20.9688C11.1719 20.9688 11.6875 21.1406 12.375 21.3125C12.8906 21.4844 13.4063 21.8281 13.75 22.1719C14.0938 22.5156 14.4375 22.8594 14.6094 23.2031C14.7812 23.5469 14.9531 23.8906 14.9531 24.2344C14.9531 24.5781 14.7812 24.75 14.6094 25.0938C14.4375 25.2656 14.0938 25.4375 13.75 25.4375C13.4063 25.4375 13.2344 25.4375 13.0625 25.2656C12.8906 25.0938 12.7188 24.9219 12.5469 24.5781C12.375 24.0625 12.0313 23.7188 11.6875 23.375C11.3438 23.0313 10.8281 23.0312 10.1406 23.0312C9.45312 23.0312 8.9375 23.2031 8.59375 23.5469C8.25 23.8906 7.90625 24.2344 7.90625 24.5781C7.90625 24.75 7.90625 25.0938 8.07812 25.2656C8.25 25.4375 8.42188 25.6094 8.59375 25.7813C9.10938 25.6094 9.28125 25.7813 9.625 25.7813C9.79687 25.7813 10.3125 25.9531 10.8281 26.125C11.5156 26.2969 12.2031 26.4688 12.7187 26.6406C13.2344 26.9844 13.75 27.1563 14.2656 27.5C14.6094 27.8438 14.9531 28.1875 15.2969 28.5313C15.4688 29.0469 15.4688 29.5625 15.4688 30.25Z" fill="#F7941E"/>
<path d="M22.3438 21.1406C23.7188 21.1406 24.75 21.4844 25.7812 22C26.8125 22.5156 27.5 23.375 28.0156 24.2344C28.5312 25.2656 28.7031 26.4688 28.7031 27.6719C28.7031 28.7031 28.5312 29.5625 28.3594 30.4219C28.0156 31.2813 27.6719 31.9687 27.1562 32.4844C26.6406 33 25.9531 33.5156 25.2656 33.8594C24.4062 34.2031 23.5469 34.375 22.5156 34.375C21.4844 34.375 20.625 34.2031 19.7656 33.8594C18.9062 33.5156 18.3906 33 17.875 32.4844C17.3594 31.9687 17.0156 31.1094 16.6719 30.4219C16.3281 29.5625 16.3281 28.7031 16.3281 27.6719C16.3281 26.6406 16.5 25.7812 16.6719 24.9219C17.0156 24.0625 17.3594 23.375 17.875 22.8594C18.3906 22.3438 19.0781 21.8281 19.7656 21.4844C20.625 21.3125 21.4844 21.1406 22.3438 21.1406ZM26.125 27.6719C26.125 26.8125 25.9531 25.9531 25.6094 25.2656C25.2656 24.5781 24.9219 24.0625 24.2344 23.7188C23.7188 23.375 23.0312 23.2031 22.3438 23.2031C21.8281 23.2031 21.3125 23.375 20.9687 23.5469C20.4531 23.7187 20.1094 24.0625 19.7656 24.4062C19.4219 24.75 19.25 25.2656 19.0781 25.7812C18.9063 26.2969 18.7344 26.9844 18.7344 27.6719C18.7344 28.3594 18.9063 29.0469 19.0781 29.5625C19.25 30.0781 19.5938 30.5938 19.9375 30.9375C20.2813 31.2812 20.625 31.625 21.1406 31.7969C21.6563 31.9688 22 32.1406 22.5156 32.1406C23.2031 32.1406 23.7187 31.9687 24.4062 31.625C24.9219 31.2812 25.4375 30.7656 25.7812 30.0781C25.9531 29.5625 26.125 28.7031 26.125 27.6719Z" fill="#F7941E"/>
<path d="M37.4687 32.6562L36.7812 30.9375H31.625L30.9375 32.6562C30.7656 33.3438 30.4219 33.6875 30.25 34.0312C30.0781 34.2031 29.7344 34.375 29.3906 34.375C29.0469 34.375 28.7031 34.2031 28.5313 34.0312C28.3594 33.8594 28.1875 33.5156 28.1875 33.1719C28.1875 33 28.1875 32.8281 28.3594 32.6562C28.3594 32.4844 28.5313 32.1406 28.7031 31.7969L31.9688 23.5469C32.1406 23.375 32.1406 23.0312 32.3125 22.6875C32.4844 22.3437 32.6563 22 32.6563 21.8281C32.8281 21.6562 33 21.4844 33.1719 21.3125C33.3437 21.1406 33.6875 21.1406 34.0312 21.1406C34.375 21.1406 34.7187 21.1406 34.8906 21.3125C35.0625 21.4844 35.4063 21.6562 35.4063 21.8281C35.5781 22 35.75 22.3438 35.75 22.5156C35.75 22.6875 35.9219 23.0312 36.0938 23.5469L39.3594 31.7969C39.7031 32.4844 39.7031 32.8281 39.7031 33.1719C39.7031 33.5156 39.5312 33.6875 39.3594 34.0312C39.1875 34.2031 38.8438 34.375 38.5 34.375C38.3281 34.375 38.1563 34.375 37.9844 34.2031C37.8125 34.2031 37.6406 34.0313 37.6406 33.8594C37.6406 33.6875 37.8125 33.5156 37.8125 33.3437C37.6406 33 37.4687 32.8281 37.4687 32.6562ZM32.3125 29.0469H36.0938L34.2031 23.7188L32.3125 29.0469Z" fill="#F7941E"/>
<path d="M46.2344 29.0469H43.8281V32.6563C43.8281 33.1719 43.6562 33.5156 43.4844 33.8594C43.3125 34.2031 42.9687 34.2031 42.625 34.2031C42.2812 34.2031 41.9375 34.0313 41.7656 33.8594C41.4219 33.6875 41.25 33.1719 41.25 32.6563V22.8594C41.25 22.3438 41.4219 21.8281 41.5938 21.6563C41.9375 21.4844 42.2812 21.3125 42.7969 21.3125H46.0625C47.0937 21.3125 47.7813 21.3125 48.2969 21.4844C48.8125 21.6563 49.3281 21.8281 49.6719 22.1719C50.0156 22.5156 50.3594 22.8594 50.5312 23.375C50.7031 23.8906 50.875 24.4063 50.875 25.0938C50.875 26.4688 50.5312 27.3281 49.6719 28.0156C48.9844 28.7031 47.7812 29.0469 46.2344 29.0469ZM45.5469 23.2031H43.8281V27.1563H45.5469C46.2344 27.1563 46.75 27.1563 47.0937 26.9844C47.4375 26.8125 47.7812 26.6406 47.9531 26.2969C48.125 25.9531 48.2969 25.6094 48.2969 25.0938C48.2969 24.5781 48.125 24.0625 47.7812 23.7188C47.4375 23.375 46.75 23.2031 45.5469 23.2031Z" fill="#F7941E"/>
</svg>
