<svg id="A" xmlns="http://www.w3.org/2000/svg" viewBox="0 0 12.21 11.67"><defs><style>.cls-1{isolation:isolate;}.cls-2,.cls-3{fill:#807f7f;}.cls-2{fill-rule:evenodd;}</style></defs><title>icon-sort-type</title><g id="Forma_1_copy_2" data-name="Forma 1 copy 2" class="cls-1"><g id="Forma_1_copy_2-2" data-name="Forma 1 copy 2"><path class="cls-2" d="M5.58,8.82L5.33,8.56a0.37,0.37,0,0,0-.52,0L3.55,9.81V1.57A0.37,0.37,0,0,0,3.18,1.2H2.82a0.37,0.37,0,0,0-.37.37V9.81L1.2,8.56a0.37,0.37,0,0,0-.52,0l-0.26.26a0.37,0.37,0,0,0,0,.52l2.32,2.32a0.37,0.37,0,0,0,.52,0L5.58,9.33A0.37,0.37,0,0,0,5.58,8.82Z" transform="translate(-0.31 -0.35)"/></g></g><path class="cls-3" d="M11.14,4.22H9.05L8.76,5H7.67L9.47,0.35h1.25L12.52,5H11.44ZM9.32,3.35h1.55L10.1,1.21Z" transform="translate(-0.31 -0.35)"/><g id="Rectangle_2" data-name="Rectangle 2" class="cls-1"><g id="Rectangle_2-2" data-name="Rectangle 2"><rect class="cls-3" x="2.19" y="0.15" width="4.5" height="1"/></g></g><path class="cls-3" d="M8.5,11.22l2.21-3H8.5V7.35H12v0.8l-2.21,3h2.26V12H8.5V11.22Z" transform="translate(-0.31 -0.35)"/></svg>