<?xml version="1.0" encoding="utf-8"?>
<!-- Generator: Adobe Illustrator 23.0.2, SVG Export Plug-In . SVG Version: 6.00 Build 0)  -->
<svg version="1.1" id="A" xmlns="http://www.w3.org/2000/svg" xmlns:xlink="http://www.w3.org/1999/xlink" x="0px" y="0px"
	 viewBox="0 0 12.2 11.7" style="enable-background:new 0 0 12.2 11.7;" xml:space="preserve">
<style type="text/css">
	.st0{enable-background:new    ;}
</style>
<title>icon-sort-type</title>
<g>
	<g id="Forma_1_copy_2">
		<g id="Forma_1_copy_2-2">
			<path d="M5.3,3.1L5,3.4c-0.1,0.1-0.4,0.1-0.5,0L3.2,2.1v8.3c0,0.2-0.2,0.4-0.4,0.4H2.5c-0.2,0-0.4-0.2-0.4-0.4l0,0V2.2L0.9,3.4
				c-0.1,0.1-0.4,0.1-0.5,0L0.1,3.1C0,3,0,2.8,0.1,2.6l2.3-2.3c0.1-0.1,0.4-0.1,0.5,0l2.4,2.3C5.4,2.8,5.4,3,5.3,3.1z"/>
		</g>
	</g>
	<g id="Rectangle_2">
		<g id="Rectangle_2-2">
			<rect x="2.1" y="10.4" width="4.5" height="1"/>
		</g>
	</g>
</g>
<line x1="7.9" y1="-1" x2="10.8" y2="-1"/>
<g class="st0">
	<path d="M9.7,8L9,8.8L8.4,8.2l1.5-1.5h0.9v4.7h-1L9.7,8L9.7,8z"/>
</g>
<g class="st0">
	<path d="M8.9,3.7c0.3,0.2,0.5,0.4,0.9,0.4c0.7,0,1.2-0.6,1.2-1.3V2.7C10.8,3,10.3,3.3,9.8,3.3C9,3.3,8.2,2.8,8.2,1.8
		c0-0.9,0.7-1.6,1.8-1.6c1.4,0,2,1.1,2,2.4C12,4,11.2,5,9.8,5c-0.6,0-1-0.2-1.4-0.5L8.9,3.7z M10,1C9.5,1,9.2,1.4,9.2,1.7
		c0,0.5,0.4,0.7,0.9,0.7c0.4,0,0.7-0.2,0.9-0.4C10.9,1.5,10.7,1,10,1z"/>
</g>
</svg>
