<svg width="35" height="35" viewBox="0 0 40 41" fill="none" xmlns="http://www.w3.org/2000/svg">
<rect width="40" height="40.3333" rx="10" fill="#FFE3D2"/>
<circle cx="20" cy="20.1665" r="11.875" stroke="#E09119" stroke-width="1.25"/>
<path d="M24.8163 17.5007C24.4579 16.4255 23.741 15.7086 22.6658 15.2606V13.9165H21.7697V15.171H21.4113C20.4256 15.171 19.6192 15.5294 18.9023 16.2463L18.5439 16.6047L17.2894 16.1566C17.0206 16.067 16.7518 15.9774 16.3934 15.9774C15.8557 15.9774 15.3181 16.1566 14.8701 16.5151C14.3324 16.8735 14.0636 17.3215 13.8844 17.7696C13.7052 18.3968 13.7052 18.9344 13.8844 19.5617C14.1532 20.1889 14.422 20.6369 14.8701 20.9058C14.5116 22.2498 14.7805 23.4147 15.7661 24.4004C16.483 25.1172 17.2894 25.4756 18.2751 25.4756C18.7231 25.4756 18.9919 25.4756 19.2608 25.386C19.7984 26.1029 20.5152 26.5509 21.4113 26.5509C21.6801 26.5509 22.0385 26.5509 22.3073 26.4613C22.845 26.2821 23.2034 25.9237 23.5618 25.4756C23.9203 24.938 24.0995 24.49 24.0995 23.9523C24.0995 23.5939 24.0995 23.3251 24.0099 23.0563L23.5618 21.6226L24.0995 21.2642C24.8163 20.5473 25.1747 19.5617 25.0851 18.4864H26.25V17.5007H24.8163ZM16.1246 19.5617C15.5869 19.2928 15.4077 18.9344 15.5869 18.3968C15.7661 17.8592 16.1246 17.6799 16.6622 17.8592L19.5296 18.9344C18.0959 19.6513 17.0206 19.8305 16.1246 19.5617ZM21.7697 24.5796C21.2321 24.7588 20.8737 24.5796 20.6048 24.042C20.336 23.1459 20.5152 22.0706 21.2321 20.6369L22.3073 23.4147C22.4866 24.042 22.3073 24.4004 21.7697 24.5796ZM22.845 19.8305L22.3073 18.3968V18.3072L22.0385 18.0384H21.9489L20.5152 17.5007C20.8737 17.2319 21.2321 17.0527 21.6801 17.0527C22.1281 17.0527 22.5762 17.2319 22.9346 17.5903C23.293 17.9488 23.4722 18.3072 23.4722 18.7552C23.293 19.024 23.1138 19.4721 22.845 19.8305Z" fill="#E09119"/>
</svg>
