<svg width="31" height="30" viewBox="0 0 31 30" fill="none" xmlns="http://www.w3.org/2000/svg">
<path fill-rule="evenodd" clip-rule="evenodd" d="M14.5634 0.305534C14.8858 0.101931 15.2965 0.101931 15.6189 0.305534L15.9849 0.536705C21.7781 4.19554 24.7689 11.0058 23.5433 17.7472L22.4874 23.5545C22.4019 24.0244 21.9927 24.366 21.515 24.366H8.66725C8.18961 24.366 7.78036 24.0244 7.69492 23.5545L6.63903 17.7472C5.41335 11.0058 8.40422 4.19554 14.1974 0.536705L14.5634 0.305534ZM11.138 13.4948C11.138 11.3115 12.9079 9.5416 15.0911 9.5416C17.2744 9.5416 19.0443 11.3115 19.0443 13.4948C19.0443 15.678 17.2744 17.4479 15.0911 17.4479C12.9079 17.4479 11.138 15.678 11.138 13.4948Z" fill="#CA8A04"/>
<path d="M12.118 27.4132C11.7842 26.7719 11.5141 26.0472 11.3427 25.3545H18.8396C18.6682 26.0472 18.3981 26.7719 18.0643 27.4132C17.7651 27.9878 17.3852 28.5539 16.9241 28.9898C16.4675 29.4215 15.8465 29.8018 15.0911 29.8018C14.3357 29.8018 13.7147 29.4215 13.2582 28.9898C12.7971 28.5539 12.4172 27.9878 12.118 27.4132Z" fill="#CA8A04"/>
<path d="M23.58 24.3661L24.6662 18.5544C24.7902 17.8908 24.8761 17.2267 24.9251 16.5645L25.7161 16.916C28.2698 18.051 29.9155 20.5833 29.9155 23.3778C29.9155 23.9237 29.473 24.3661 28.9272 24.3661H23.58Z" fill="#CA8A04"/>
<path d="M5.51603 18.5544C5.392 17.8908 5.30607 17.2267 5.25715 16.5645L4.46607 16.916C1.91245 18.051 0.266724 20.5833 0.266724 23.3778C0.266724 23.9237 0.709196 24.3661 1.25501 24.3661H6.60226L5.51603 18.5544Z" fill="#CA8A04"/>
</svg>
