<svg width="25" height="25" viewBox="0 0 25 25" fill="none" xmlns="http://www.w3.org/2000/svg">
<g clip-path="url(#clip0_861_1374)">
<path d="M24.6121 12.4542C24.609 11.4982 24.2448 10.5787 23.5923 9.88C22.9398 9.18132 22.0473 8.75511 21.0937 8.68683C20.1639 6.63673 18.5212 4.99406 16.4711 4.06426C16.4708 3.05954 16.0715 2.09608 15.361 1.38575C14.6504 0.675412 13.6869 0.276367 12.6821 0.276367C11.6774 0.276367 10.7138 0.675412 10.0033 1.38575C9.29276 2.09608 8.89344 3.05954 8.89314 4.06426C6.83769 4.99172 5.19322 6.64004 4.27056 8.69766C3.26566 8.69766 2.30191 9.09686 1.59134 9.80743C0.880764 10.518 0.481567 11.4818 0.481567 12.4867C0.481567 13.4916 0.880764 14.4553 1.59134 15.1659C2.30191 15.8765 3.26566 16.2757 4.27056 16.2757C5.19803 18.3311 6.84635 19.9756 8.90397 20.8982C8.90426 21.9029 9.30359 22.8664 10.0141 23.5767C10.7247 24.2871 11.6883 24.6861 12.693 24.6861C13.6977 24.6861 14.6613 24.2871 15.3718 23.5767C16.0823 22.8664 16.4817 21.9029 16.482 20.8982C18.5374 19.9708 20.1819 18.3224 21.1045 16.2648C22.0646 16.1959 22.9621 15.7632 23.614 15.0551C24.2658 14.3469 24.6228 13.4166 24.6121 12.4542ZM12.7038 2.71104C13.1345 2.71104 13.5475 2.88213 13.852 3.18666C14.1566 3.49119 14.3276 3.90423 14.3276 4.3349C14.3333 4.42502 14.3333 4.51542 14.3276 4.60554C14.2762 4.90984 14.1391 5.19318 13.9324 5.42235C13.7256 5.65153 13.4579 5.81705 13.1605 5.89953C12.8631 5.98201 12.5484 5.97803 12.2531 5.88806C11.9579 5.79809 11.6945 5.62586 11.4936 5.39153C11.2928 5.15721 11.1628 4.8705 11.1191 4.56499C11.0753 4.25948 11.1195 3.94783 11.2465 3.66655C11.3735 3.38526 11.578 3.14599 11.8361 2.97676C12.0942 2.80754 12.3952 2.71536 12.7038 2.71104ZM2.96065 12.4542C2.96065 12.133 3.05589 11.8191 3.23432 11.552C3.41276 11.285 3.66637 11.0768 3.96309 10.9539C4.25981 10.831 4.58631 10.7989 4.90131 10.8615C5.21631 10.9242 5.50565 11.0788 5.73275 11.3059C5.95985 11.533 6.11451 11.8224 6.17716 12.1374C6.23982 12.4524 6.20766 12.7789 6.08476 13.0756C5.96185 13.3723 5.75372 13.6259 5.48668 13.8044C5.21964 13.9828 4.90568 14.078 4.58451 14.078C4.15384 14.078 3.7408 13.907 3.43627 13.6024C3.13174 13.2979 2.96065 12.8849 2.96065 12.4542ZM12.7038 22.1973C12.3826 22.1973 12.0687 22.1021 11.8016 21.9236C11.5346 21.7452 11.3264 21.4916 11.2035 21.1949C11.0806 20.8982 11.0485 20.5717 11.1111 20.2567C11.1738 19.9417 11.3285 19.6523 11.5556 19.4252C11.7827 19.1981 12.072 19.0435 12.387 18.9808C12.702 18.9181 13.0285 18.9503 13.3252 19.0732C13.6219 19.1961 13.8755 19.4043 14.054 19.6713C14.2324 19.9383 14.3276 20.2523 14.3276 20.5735C14.3276 21.0041 14.1566 21.4172 13.852 21.7217C13.5475 22.0262 13.1345 22.1973 12.7038 22.1973ZM15.9515 18.6898C15.6211 18.1213 15.1472 17.6495 14.5773 17.3216C14.0073 16.9937 13.3613 16.8211 12.7038 16.8211C12.0463 16.8211 11.4002 16.9937 10.8303 17.3216C10.2604 17.6495 9.78652 18.1213 9.45608 18.6898C8.18607 18.0155 7.14863 16.9743 6.47901 15.7019C7.04748 15.3715 7.51927 14.8976 7.8472 14.3277C8.17513 13.7577 8.34772 13.1117 8.34772 12.4542C8.34772 11.7966 8.17513 11.1506 7.8472 10.5807C7.51927 10.0108 7.04748 9.53691 6.47901 9.20647C7.14364 7.93035 8.18238 6.88783 9.45608 6.21857C9.78506 6.79702 10.2614 7.27801 10.8366 7.6126C11.4118 7.9472 12.0654 8.12346 12.7309 8.12346C13.3963 8.12346 14.0499 7.9472 14.6251 7.6126C15.2003 7.27801 15.6767 6.79702 16.0056 6.21857C17.2604 6.89866 18.2824 7.93946 18.9394 9.20647C18.3709 9.53691 17.8991 10.0108 17.5712 10.5807C17.2433 11.1506 17.0707 11.7966 17.0707 12.4542C17.0707 13.1117 17.2433 13.7577 17.5712 14.3277C17.8991 14.8976 18.3709 15.3715 18.9394 15.7019C18.262 16.9723 17.2219 18.0124 15.9515 18.6898ZM20.8231 14.078C20.5019 14.078 20.1879 13.9828 19.9209 13.8044C19.6539 13.6259 19.4457 13.3723 19.3228 13.0756C19.1999 12.7789 19.1678 12.4524 19.2304 12.1374C19.2931 11.8224 19.4477 11.533 19.6748 11.3059C19.9019 11.0788 20.1913 10.9242 20.5063 10.8615C20.8213 10.7989 21.1478 10.831 21.4445 10.9539C21.7412 11.0768 21.9948 11.285 22.1733 11.552C22.3517 11.8191 22.4469 12.133 22.4469 12.4542C22.4469 12.8849 22.2758 13.2979 21.9713 13.6024C21.6668 13.907 21.2537 14.078 20.8231 14.078Z" fill="#B91C1C"/>
</g>
<defs>
<clipPath id="clip0_861_1374">
<rect width="24.8669" height="25" fill="white"/>
</clipPath>
</defs>
</svg>
