<svg width="15" height="15" viewBox="0 0 22 25" fill="none" xmlns="http://www.w3.org/2000/svg">
<path d="M21.2848 18.0963C21.2848 18.5456 21.0364 18.9358 20.658 19.1368L11.3164 24.3871C11.1272 24.529 10.8907 24.5999 10.6424 24.5999C10.3941 24.5999 10.1576 24.529 9.96837 24.3871L0.626718 19.1368C0.248322 18.9358 0 18.5456 0 18.0963V7.45387C0 7.00453 0.248322 6.61431 0.626718 6.41329L9.96837 1.16304C10.1576 1.02114 10.3941 0.950195 10.6424 0.950195C10.8907 0.950195 11.1272 1.02114 11.3164 1.16304L20.658 6.41329C21.0364 6.61431 21.2848 7.00453 21.2848 7.45387V18.0963ZM3.59476 7.45387L10.6424 11.4152L17.69 7.45387L10.6424 3.49254L3.59476 7.45387ZM2.36497 17.3986L9.4599 21.3954V13.4609L2.36497 9.47593V17.3986ZM18.9198 17.3986V9.47593L11.8249 13.4609V21.3954L18.9198 17.3986Z" fill="#D1A7F4"/>
</svg>
