<svg width="4" height="6" viewBox="0 0 4 6" fill="none" xmlns="http://www.w3.org/2000/svg">
<path fill-rule="evenodd" clip-rule="evenodd" d="M1.15201 4.70711C1.02717 4.58227 0.857852 4.51214 0.681303 4.51214C0.504754 4.51214 0.335437 4.58227 0.210598 4.70711C0.0857589 4.83195 0.015625 5.00126 0.015625 5.17781C0.015625 5.35436 0.0857589 5.52368 0.210598 5.64852C0.335437 5.77336 0.504754 5.84349 0.681303 5.84349C0.857852 5.84349 1.02717 5.77336 1.15201 5.64852C1.27685 5.52368 1.34698 5.35436 1.34698 5.17781C1.34698 5.00126 1.27685 4.83195 1.15201 4.70711ZM1.15201 2.71007C1.02717 2.58523 0.857852 2.5151 0.681303 2.5151C0.504754 2.5151 0.335437 2.58523 0.210598 2.71007C0.0857589 2.83491 0.015625 3.00423 0.015625 3.18078C0.015625 3.35733 0.0857589 3.52665 0.210598 3.65148C0.335437 3.77632 0.504754 3.84646 0.681303 3.84646C0.857852 3.84646 1.02717 3.77632 1.15201 3.65148C1.27685 3.52665 1.34698 3.35733 1.34698 3.18078C1.34698 3.00423 1.27685 2.83491 1.15201 2.71007ZM1.15201 0.713039C1.02717 0.5882 0.857852 0.518066 0.681303 0.518066C0.504754 0.518066 0.335437 0.5882 0.210598 0.713039C0.0857589 0.837878 0.015625 1.0072 0.015625 1.18374C0.015625 1.36029 0.0857589 1.52961 0.210598 1.65445C0.335437 1.77929 0.504754 1.84942 0.681303 1.84942C0.857852 1.84942 1.02717 1.77929 1.15201 1.65445C1.27685 1.52961 1.34698 1.36029 1.34698 1.18374C1.34698 1.0072 1.27685 0.837878 1.15201 0.713039ZM3.14904 4.70711C3.0242 4.58227 2.85489 4.51214 2.67834 4.51214C2.50179 4.51214 2.33247 4.58227 2.20763 4.70711C2.08279 4.83195 2.01266 5.00126 2.01266 5.17781C2.01266 5.35436 2.08279 5.52368 2.20763 5.64852C2.33247 5.77336 2.50179 5.84349 2.67834 5.84349C2.85489 5.84349 3.0242 5.77336 3.14904 5.64852C3.27388 5.52368 3.34402 5.35436 3.34402 5.17781C3.34402 5.00126 3.27388 4.83195 3.14904 4.70711ZM3.14904 2.71007C3.0242 2.58523 2.85489 2.5151 2.67834 2.5151C2.50179 2.5151 2.33247 2.58523 2.20763 2.71007C2.08279 2.83491 2.01266 3.00423 2.01266 3.18078C2.01266 3.35733 2.08279 3.52665 2.20763 3.65148C2.33247 3.77632 2.50179 3.84646 2.67834 3.84646C2.85489 3.84646 3.0242 3.77632 3.14904 3.65148C3.27388 3.52665 3.34402 3.35733 3.34402 3.18078C3.34402 3.00423 3.27388 2.83491 3.14904 2.71007ZM3.14904 0.713039C3.0242 0.5882 2.85489 0.518066 2.67834 0.518066C2.50179 0.518066 2.33247 0.5882 2.20763 0.713039C2.08279 0.837878 2.01266 1.0072 2.01266 1.18374C2.01266 1.36029 2.08279 1.52961 2.20763 1.65445C2.33247 1.77929 2.50179 1.84942 2.67834 1.84942C2.85489 1.84942 3.0242 1.77929 3.14904 1.65445C3.27388 1.52961 3.34402 1.36029 3.34402 1.18374C3.34402 1.0072 3.27388 0.837878 3.14904 0.713039Z" fill="white" fill-opacity="0.35"/>
</svg>
