<svg width="50" height="65" viewBox="0 0 100 100" fill="red" xmlns="http://www.w3.org/2000/svg">
<path d="M29.0642 47.6361C19.0627 47.6361 10.9258 39.5006 10.9258 29.5007C10.9258 19.4992 19.0627 11.3623 29.0642 11.3623C33.8093 11.3623 38.2964 13.1834 41.6994 16.4901C42.1056 16.8848 42.1149 17.534 41.7203 17.94C41.3255 18.3459 40.6766 18.3556 40.2704 17.9608C37.2522 15.0281 33.2727 13.4131 29.0644 13.4131C20.1936 13.4131 12.9767 20.6301 12.9767 29.5007C12.9767 38.3698 20.1937 45.5853 29.0644 45.5853C32.413 45.5853 35.6197 44.5677 38.338 42.6424C38.8 42.315 39.4398 42.4243 39.7674 42.8865C40.0948 43.3485 39.9855 43.9885 39.5233 44.3159C36.4562 46.4879 32.8398 47.6361 29.0642 47.6361Z" fill="#9A93B9"/>
<path d="M50.8534 49.3422C40.8523 49.3422 32.7158 41.2056 32.7158 31.2045C32.7158 21.2037 40.8523 13.0674 50.8534 13.0674C60.8543 13.0674 68.9906 21.2037 68.9906 31.2045C68.9906 41.2056 60.8543 49.3422 50.8534 49.3422ZM50.8534 15.118C41.983 15.118 34.7666 22.3344 34.7666 31.2043C34.7666 40.0747 41.9832 47.2913 50.8534 47.2913C59.7236 47.2913 66.9398 40.0746 66.9398 31.2043C66.9398 22.3344 59.7234 15.118 50.8534 15.118Z" fill="#9A93B9"/>
<path d="M29.063 58.5536C28.4967 58.5536 28.0376 58.0945 28.0376 57.5282V51.29C28.0376 50.7237 28.4967 50.2646 29.063 50.2646C29.6293 50.2646 30.0884 50.7237 30.0884 51.29V57.5282C30.0884 58.0945 29.6293 58.5536 29.063 58.5536Z" fill="#9A93B9"/>
<path d="M29.063 8.73569C28.4967 8.73569 28.0376 8.27661 28.0376 7.7103V1.47168C28.0376 0.905372 28.4967 0.446289 29.063 0.446289C29.6293 0.446289 30.0884 0.905372 30.0884 1.47168V7.7103C30.0884 8.27661 29.6293 8.73569 29.063 8.73569Z" fill="#9A93B9"/>
<path d="M7.27349 30.5254H1.03516C0.468848 30.5254 0.00976562 30.0663 0.00976562 29.5C0.00976562 28.9337 0.468848 28.4746 1.03516 28.4746H7.27349C7.8398 28.4746 8.29888 28.9337 8.29888 29.5C8.29888 30.0663 7.8398 30.5254 7.27349 30.5254Z" fill="#9A93B9"/>
<path d="M9.24373 50.3454C8.98123 50.3454 8.71887 50.2452 8.51863 50.0451C8.11814 49.6446 8.11814 48.9954 8.51863 48.5951L12.9309 44.1827C13.3312 43.7822 13.9806 43.7823 14.3809 44.1825C14.7814 44.583 14.7814 45.2322 14.3809 45.6326L9.96868 50.045C9.76858 50.2452 9.50608 50.3454 9.24373 50.3454Z" fill="#9A93B9"/>
<path d="M13.656 15.1178C13.3935 15.1178 13.1311 15.0177 12.9309 14.8175L8.51863 10.4051C8.11814 10.0046 8.11814 9.35538 8.51863 8.95504C8.91912 8.5547 9.56848 8.5547 9.96868 8.95504L14.3809 13.3674C14.7814 13.7679 14.7814 14.4172 14.3809 14.8175C14.1808 15.0177 13.9183 15.1178 13.656 15.1178Z" fill="#9A93B9"/>
</svg>
