<svg width="50" height="65" viewBox="0 0 100 100" fill="none" xmlns="http://www.w3.org/2000/svg">
<path d="M15.6697 29.8808C16.8288 29.8808 17.7685 28.9411 17.7685 27.782C17.7685 26.6228 16.8288 25.6831 15.6697 25.6831C14.5105 25.6831 13.5708 26.6228 13.5708 27.782C13.5708 28.9411 14.5105 29.8808 15.6697 29.8808Z" fill="black"/>
<path d="M22.6284 29.8808C23.7876 29.8808 24.7272 28.9411 24.7272 27.782C24.7272 26.6228 23.7876 25.6831 22.6284 25.6831C21.4692 25.6831 20.5295 26.6228 20.5295 27.782C20.5295 28.9411 21.4692 29.8808 22.6284 29.8808Z" fill="black"/>
<path d="M29.5881 29.8808C30.7473 29.8808 31.687 28.9411 31.687 27.782C31.687 26.6228 30.7473 25.6831 29.5881 25.6831C28.4289 25.6831 27.4893 26.6228 27.4893 27.782C27.4893 28.9411 28.4289 29.8808 29.5881 29.8808Z" fill="black"/>
<path d="M42.5399 58.3696C35.1845 58.3696 28.3842 54.4832 24.6324 48.1828C23.909 48.2582 23.181 48.2965 22.4601 48.2965C18.5003 48.2965 14.6653 47.1863 11.338 45.0816L4.07095 47.0284C3.72905 47.1207 3.3631 47.0225 3.11285 46.771C2.86195 46.5207 2.7638 46.1561 2.85545 45.8129L4.80675 38.5303C2.72545 35.2166 1.62695 31.3998 1.62695 27.464C1.62695 15.9766 10.972 6.63086 22.4595 6.63086C30.0593 6.63086 36.7224 10.7226 40.3611 16.8177C41.0872 16.7423 41.8178 16.7039 42.5393 16.7039C54.0267 16.7039 63.3718 26.0496 63.3718 37.5364C63.3718 41.4735 62.2739 45.2903 60.192 48.6033L62.1433 55.8859C62.2349 56.2278 62.1368 56.5931 61.8859 56.8447C61.6356 57.0956 61.2703 57.1931 60.9278 57.1014L53.6608 55.154C50.3347 57.2594 46.4997 58.3696 42.5399 58.3696ZM25.1667 46.1281C25.5242 46.1281 25.8583 46.3218 26.0345 46.6397C29.3573 52.6509 35.6824 56.3851 42.5406 56.3851C46.2605 56.3851 49.8583 55.3029 52.9451 53.2554C53.1824 53.0981 53.4755 53.0506 53.7505 53.1241L59.7831 54.74L58.1633 48.693C58.0899 48.4194 58.1367 48.1269 58.2927 47.8903C60.3181 44.8158 61.3886 41.2349 61.3886 37.5364C61.3886 27.1436 52.9334 18.6877 42.5406 18.6877C42.2617 18.6877 41.9809 18.6949 41.6995 18.7066C42.9026 21.38 43.5325 24.3089 43.5325 27.2593C43.5325 33.4011 40.8395 39.1998 36.1452 43.1706C35.7292 43.5229 35.1072 43.4735 34.7523 43.0601C34.3967 42.6461 34.4416 42.024 34.8517 41.6652C38.9552 38.0818 41.3095 32.9052 41.3095 27.4634C41.3095 17.0699 32.8536 8.61401 22.4608 8.61401C12.0679 8.61401 3.6127 17.0705 3.6127 27.464C3.6127 31.1619 4.6826 34.7427 6.70865 37.8179C6.86465 38.0545 6.9121 38.3463 6.838 38.62L5.2182 44.6676L11.2509 43.051C11.5258 42.9776 11.819 43.025 12.0562 43.1823C15.1431 45.2298 18.7408 46.3121 22.4608 46.3121C23.3142 46.3121 24.1794 46.2529 25.0322 46.1366C25.077 46.1307 25.1219 46.1281 25.1667 46.1281Z" fill="black"/>
</svg>
