<svg width="65" height="80" viewBox="0 0 65 80" fill="none" xmlns="http://www.w3.org/2000/svg">
<path d="M56.5057 28.0681H56.4133C54.0128 16.8042 44.1337 8.6792 32.4998 8.6792C20.866 8.6792 10.9872 16.8042 8.58634 28.0681H8.49401C6.92444 28.0681 5.72412 29.2684 5.72412 30.838V40.0709C5.72412 41.6405 6.92438 42.8408 8.49401 42.8408H14.5875C16.8957 48.4729 21.7895 52.8124 27.9751 54.2897L31.6683 61.6761C31.8529 61.953 32.1299 62.23 32.4992 62.23C32.8685 62.23 33.1456 62.0454 33.3302 61.6761L37.0233 54.2897C40.5319 53.4588 43.5789 51.7045 45.9792 49.3039H50.965C52.9962 49.3039 54.6581 47.642 54.6581 45.6107V42.8408H56.5047C58.0743 42.8408 59.2746 41.6406 59.2746 40.0709V30.838C59.2746 29.2684 58.0744 28.0681 56.5047 28.0681H56.5057ZM32.5 10.5252C43.118 10.5252 52.166 17.8194 54.5669 28.0681H53.3666C50.6891 18.8352 42.1949 12.3724 32.5005 12.3724C22.806 12.3724 14.3117 18.8357 11.6343 28.0681H10.434C12.8346 17.8194 21.8829 10.5252 32.5009 10.5252H32.5ZM8.4943 40.9937C7.94033 40.9937 7.57101 40.6243 7.57101 40.0704V30.8374C7.57101 30.2834 7.94033 29.9141 8.4943 29.9141H13.9418C13.3878 31.6684 13.1108 33.515 13.1108 35.4539C13.1108 37.3928 13.3878 39.2394 13.9418 40.9937H8.4943ZM14.5878 28.0675H13.5721C16.1573 19.8503 23.7286 14.2178 32.4995 14.2178C41.2704 14.2178 48.8417 19.8499 51.4269 28.0675H50.4113C47.549 21.0505 40.5319 16.065 32.4996 16.065C24.4674 16.065 17.4495 21.0508 14.5878 28.0675ZM45.2412 47.4564H36.0082C35.6389 46.3485 34.6232 45.6098 33.423 45.6098H31.5764C30.0068 45.6098 28.8065 46.8101 28.8065 48.3797C28.8065 49.9493 30.0068 51.1496 31.5764 51.1496H33.423C34.6232 51.1496 35.6389 50.411 36.0082 49.303H43.2102C41.179 50.8726 38.7784 52.0729 36.1932 52.6269C35.9162 52.7192 35.7315 52.9039 35.5468 53.0885L32.5 59.2747L29.4531 53.0885C29.3608 52.8115 29.0838 52.6269 28.8068 52.6269C20.774 50.8726 14.9571 43.6711 14.9571 35.4539C14.9571 25.7594 22.8049 17.911 32.5 17.911C42.195 17.911 50.0429 25.7588 50.0429 35.4539C50.0429 39.978 48.1963 44.3175 45.2418 47.4564H45.2412ZM34.346 48.3797C34.346 48.9337 33.9767 49.303 33.4227 49.303H31.5761C31.0221 49.303 30.6528 48.9337 30.6528 48.3797C30.6528 47.8257 31.0221 47.4564 31.5761 47.4564H33.4227C33.9767 47.4564 34.346 47.8257 34.346 48.3797ZM52.8119 45.6098C52.8119 46.6255 51.981 47.4564 50.9653 47.4564H47.7337C48.8417 46.0714 49.765 44.5019 50.4113 42.8399H52.8118L52.8119 45.6098ZM57.4284 40.0701C57.4284 40.624 57.0591 40.9934 56.5051 40.9934H51.0576C51.6116 39.2391 51.8885 37.3925 51.8885 35.4536C51.8885 33.5147 51.6116 31.6681 51.0576 29.9138H56.5051C57.0591 29.9138 57.4284 30.2831 57.4284 30.8371V40.0701Z" fill="black"/>
<path d="M32.4999 31.7612C30.4687 31.7612 28.8068 33.4232 28.8068 35.4544C28.8068 37.4857 30.4687 39.1476 32.4999 39.1476C34.5312 39.1476 36.1931 37.4857 36.1931 35.4544C36.1931 33.4232 34.5312 31.7612 32.4999 31.7612ZM32.4999 37.301C31.4843 37.301 30.6534 36.4701 30.6534 35.4544C30.6534 34.4388 31.4843 33.6078 32.4999 33.6078C33.5156 33.6078 34.3465 34.4388 34.3465 35.4544C34.3465 36.4701 33.5156 37.301 32.4999 37.301Z" fill="black"/>
<path d="M43.5795 31.7612C41.5483 31.7612 39.8864 33.4232 39.8864 35.4544C39.8864 37.4857 41.5483 39.1476 43.5795 39.1476C45.6108 39.1476 47.2727 37.4857 47.2727 35.4544C47.2727 33.4232 45.6108 31.7612 43.5795 31.7612ZM43.5795 37.301C42.5639 37.301 41.7329 36.4701 41.7329 35.4544C41.7329 34.4388 42.5639 33.6078 43.5795 33.6078C44.5952 33.6078 45.4261 34.4388 45.4261 35.4544C45.4261 36.4701 44.5952 37.301 43.5795 37.301Z" fill="black"/>
<path d="M21.4205 31.7612C19.3892 31.7612 17.7273 33.4232 17.7273 35.4544C17.7273 37.4857 19.3892 39.1476 21.4205 39.1476C23.4517 39.1476 25.1137 37.4857 25.1137 35.4544C25.1137 33.4232 23.4517 31.7612 21.4205 31.7612ZM21.4205 37.301C20.4048 37.301 19.5739 36.4701 19.5739 35.4544C19.5739 34.4388 20.4048 33.6078 21.4205 33.6078C22.4361 33.6078 23.2671 34.4388 23.2671 35.4544C23.2671 36.4701 22.4361 37.301 21.4205 37.301Z" fill="black"/>
</svg>
