<svg width="50" height="65" viewBox="0 0 100 100" fill="none" xmlns="http://www.w3.org/2000/svg">
<path d="M18.65 0.52002H3.95C2.05 0.52002 0.5 2.13202 0.5 4.10802V19.396C0.5 21.372 2.05 22.984 3.95 22.984H18.65C20.55 22.984 22.1 21.372 22.1 19.396V4.10802C22.15 2.13202 20.6 0.52002 18.65 0.52002ZM19.95 19.448C19.95 20.176 19.4 20.8 18.65 20.8H3.95C3.25 20.8 2.65 20.228 2.65 19.448V4.10802C2.65 3.38002 3.2 2.75602 3.95 2.75602H18.65C19.35 2.75602 19.95 3.32802 19.95 4.10802V19.448Z" fill="#282F79"/>
<path d="M18.65 28.7041H3.95C2.05 28.7041 0.5 30.3161 0.5 32.2921V47.5801C0.5 49.5561 2.05 51.1681 3.95 51.1681H18.65C20.55 51.1681 22.1 49.5561 22.1 47.5801V32.3441C22.15 30.3681 20.6 28.7041 18.65 28.7041ZM19.95 47.6321C19.95 48.3601 19.4 48.9841 18.65 48.9841H3.95C3.25 48.9841 2.65 48.4121 2.65 47.6321V32.3441C2.65 31.6161 3.2 30.9921 3.95 30.9921H18.65C19.35 30.9921 19.95 31.5641 19.95 32.3441V47.6321Z" fill="#282F79"/>
<path d="M46.05 0.52002H31.3C29.4 0.52002 27.85 2.13202 27.85 4.10802V19.396C27.85 21.372 29.4 22.984 31.3 22.984H46C47.9 22.984 49.45 21.372 49.45 19.396V4.10802C49.5 2.13202 47.95 0.52002 46.05 0.52002ZM47.3 19.448C47.3 20.176 46.75 20.8 46 20.8H31.3C30.6 20.8 30 20.228 30 19.448V4.10802C30 3.38002 30.55 2.75602 31.3 2.75602H46C46.7 2.75602 47.3 3.32802 47.3 4.10802V19.448Z" fill="#A4A8C9"/>
<path d="M46.05 28.7041H31.3C29.4 28.7041 27.85 30.3161 27.85 32.2921V47.5801C27.85 49.5561 29.4 51.1681 31.3 51.1681H46C47.9 51.1681 49.45 49.5561 49.45 47.5801V32.3441C49.5 30.3681 47.95 28.7041 46.05 28.7041ZM47.3 47.6321C47.3 48.3601 46.75 48.9841 46 48.9841H31.3C30.6 48.9841 30 48.4121 30 47.6321V32.3441C30 31.6161 30.55 30.9921 31.3 30.9921H46C46.7 30.9921 47.3 31.5641 47.3 32.3441V47.6321Z" fill="#282F79"/>
</svg>
