<svg width="50" height="65" viewBox="0 0 100 100" fill="none" xmlns="http://www.w3.org/2000/svg">
<path d="M32.5 63.375C49.5241 63.375 63.375 49.5241 63.375 32.5C63.375 15.4759 49.5241 1.625 32.5 1.625C15.4759 1.625 1.625 15.4759 1.625 32.5C1.625 49.5241 15.4759 63.375 32.5 63.375ZM32.5 3.8083C48.3198 3.8083 61.1905 16.679 61.1905 32.5C61.1905 48.3198 48.3198 61.1905 32.5 61.1905C16.6802 61.1905 3.80831 48.3198 3.80831 32.5C3.80831 16.6802 16.679 3.8083 32.5 3.8083Z" fill="black"/>
<path d="M26.7036 46.4146C27.5484 46.4146 28.4318 46.1409 29.3292 45.6029L45.0669 36.1584C46.5941 35.2423 47.4704 33.9085 47.4709 32.4986C47.4709 31.0881 46.5941 29.7534 45.0669 28.8373L29.3292 19.3957C28.4319 18.8573 27.5479 18.584 26.7036 18.584C24.9271 18.584 23.1353 19.9192 23.1353 22.9018V42.0958C23.1348 45.0789 24.9271 46.4146 26.7036 46.4146ZM25.3195 22.9018C25.3195 22.2605 25.454 20.7683 26.7036 20.7683C27.1416 20.7683 27.6599 20.941 28.2055 21.2684L43.9444 30.711C44.7972 31.2226 45.2864 31.8754 45.2864 32.4991C45.2864 33.1227 44.7972 33.774 43.9444 34.2856L28.2055 43.7292C27.6599 44.0571 27.1411 44.2293 26.7036 44.2293C25.4541 44.2293 25.3195 42.7361 25.3195 42.0958V22.9018Z" fill="black"/>
</svg>
