<svg width="50" height="65" viewBox="0 0 100 100" fill="none" xmlns="http://www.w3.org/2000/svg">
<path d="M47.9994 12.3857C47.7714 12.7366 47.5465 13.0682 47.3262 13.3807C47.1066 13.6924 46.8839 13.9964 46.6582 14.2928C50.5821 17.4105 53.104 21.4234 54.3293 25.7126C55.5638 30.0357 55.4794 34.6435 54.1873 38.8998C52.8944 43.1568 50.3909 47.0661 46.7887 49.9919C43.1129 52.9775 38.2962 54.9375 32.4615 55.1978L32.4454 55.1993L32.4285 55.2001L32.4116 55.2008H32.3955H32.3786L32.3709 55.2001H32.3625L32.3548 55.1993H32.3456L32.3379 55.1985L32.3295 55.1978L32.3218 55.197L32.3133 55.1962L32.3057 55.1947L32.2972 55.1939L32.2581 55.1863L32.2504 55.1847L32.2427 55.1832L32.2189 55.177L32.2043 55.1724L32.1966 55.1701L32.189 55.1678L32.1736 55.1625L32.159 55.1571L32.1375 55.1479L32.1299 55.1448L32.116 55.1387L32.1091 55.1348L32.1014 55.1318L32.0876 55.1241L32.0746 55.1172L32.0677 55.1126L32.0608 55.1087L32.0477 55.101L32.0408 55.0964L32.0277 55.088L32.0216 55.0834L32.0155 55.0788L32.0086 55.0742L31.9963 55.065L31.9901 55.0596L31.9786 55.0504L31.9725 55.0458L31.9663 55.0404L31.9602 55.035L31.9494 55.025L31.9433 55.0189L31.9325 55.0081L31.9218 54.9966L31.9111 54.9851L31.9011 54.9736L31.8911 54.9621L31.8857 54.9559L31.8811 54.9498L31.8719 54.9375L31.8673 54.9314L31.8627 54.9245L31.8581 54.9183L31.8535 54.9114L31.845 54.8984L31.8373 54.8853L31.8327 54.8784L31.8289 54.8715L31.8212 54.8584L31.8174 54.8515L31.8143 54.8439L31.8105 54.8369L31.8036 54.8231L31.8005 54.8154L31.7944 54.8009L31.789 54.7863L31.7851 54.7786L31.7798 54.764L31.7782 54.7563L31.7752 54.7487L31.7729 54.741L31.7706 54.7333L31.7683 54.7256L31.766 54.7179L31.7644 54.7103L31.7621 54.7018L31.7606 54.6941L31.759 54.6865L31.7575 54.6788L31.756 54.6703L31.7544 54.6627L31.7529 54.6542L31.7521 54.6465L31.7506 54.6381L31.7498 54.6304L31.7483 54.6212L31.7468 54.6051L31.746 54.5882V54.5805C31.7207 54.1406 31.7068 53.7337 31.703 53.3606C30.9007 53.898 30.0762 54.4454 29.2363 54.9982C28.4194 55.5356 27.6425 56.0415 26.9078 56.5136C27.8421 57.1854 28.7649 57.8234 29.6724 58.4237C30.4777 58.9565 31.2685 59.4602 32.0446 59.9331L32.0431 59.7419C32.0431 59.3458 32.06 58.9734 32.0899 58.6272L32.0907 58.6111L32.0915 58.6034L32.0922 58.5949L32.093 58.5865L32.0945 58.5788L32.0953 58.5704L32.0968 58.5627L32.0976 58.5543L32.0991 58.5466L32.1007 58.5381L32.1022 58.5305L32.1038 58.522L32.1076 58.5059L32.1114 58.4905L32.116 58.4752L32.1206 58.4598L32.126 58.4445L32.1375 58.4145L32.1506 58.3854L32.1575 58.3715L32.1644 58.3577L32.1721 58.3439L32.1805 58.3301L32.1882 58.3163L32.1997 58.3001L32.2059 58.2909L32.2151 58.2779L32.2243 58.2656L32.2343 58.2533L32.2442 58.241L32.2542 58.2295L32.265 58.218L32.2757 58.2072L32.2865 58.1965L32.298 58.1858L32.3095 58.175L32.3218 58.165L32.3333 58.155L32.3456 58.1458L32.3586 58.1366L32.3709 58.1274L32.384 58.119L32.397 58.1105L32.4108 58.1028L32.4285 58.0921L32.4377 58.0875L32.4523 58.0806L32.4661 58.0737L32.4807 58.0675L32.4945 58.0614L32.5099 58.0552L32.5245 58.0499L32.539 58.0453L32.5544 58.0407L32.5698 58.036L32.5851 58.0322L32.6005 58.0291L32.6158 58.0253L32.6319 58.023L32.6481 58.0207L32.6634 58.0184L32.6711 58.0176L32.6795 58.0169L32.688 58.0161L32.6957 58.0153H32.7041L32.7126 58.0145H32.721H32.7448C40.0927 57.8364 45.8444 55.2316 49.9779 51.3085C53.5186 47.9489 55.8824 43.6136 57.054 39.0019C58.2278 34.3825 58.2071 29.4883 56.9803 25.0201C55.5761 19.9071 52.5874 15.3445 47.9994 12.3857ZM44.5301 35.5065C44.61 35.2738 44.8096 35.1157 45.0368 35.0765L45.0491 35.0742C46.0203 34.8554 46.8018 34.6858 47.3845 34.5698C47.7469 34.4977 48.0685 34.4378 48.3465 34.3902V30.7182C48.0685 30.6706 47.7469 30.6107 47.3845 30.5385C46.798 30.4218 46.0141 30.2522 45.0345 30.0303L45.0191 30.0272L45.0038 30.0242L44.9884 30.0203L44.9731 30.0165L44.9539 30.0103L44.9431 30.0073L44.9286 30.0027L44.914 29.9973L44.8994 29.9911L44.8779 29.9819L44.8633 29.975L44.8487 29.9681L44.8349 29.9604L44.8211 29.9528L44.8073 29.9443L44.7934 29.9359L44.7804 29.9274L44.7673 29.9182L44.7551 29.909L44.7428 29.8998L44.7305 29.8898L44.7182 29.8791L44.7067 29.8691L44.6952 29.8583L44.6844 29.8476L44.6737 29.8361L44.6629 29.8245L44.633 29.7885L44.5969 29.7378L44.5892 29.7247L44.5777 29.7055L44.5739 29.6979L44.5662 29.6841L44.5531 29.6556L44.5493 29.648L44.5432 29.6326L44.537 29.6173L44.5316 29.6019L44.5263 29.5866L44.5217 29.5704L44.5171 29.5543L44.5132 29.5374C44.3566 28.9394 44.1601 28.3728 43.9297 27.8415C43.7033 27.3195 43.4361 26.8212 43.1344 26.3506L43.1298 26.3437L43.106 26.3076L43.0998 26.2984L43.0745 26.2493L43.0707 26.2424L43.0676 26.2347L43.0492 26.1894L43.0438 26.1748L43.0346 26.1441L43.0307 26.1287L43.0269 26.1134L43.0231 26.0973L43.0177 26.0665L43.0154 26.0512L43.0139 26.0351L43.0123 26.0197L43.0116 26.0044L43.0108 25.9882C43.0085 25.9414 43.0131 25.8953 43.0215 25.8485L43.0246 25.8339C43.0338 25.7863 43.0492 25.7387 43.0707 25.6934L43.0745 25.6865L43.0968 25.6451L43.1021 25.6351L43.1106 25.6205C43.6081 24.8359 44.0533 24.1503 44.4364 23.5768C44.6453 23.2651 44.8311 22.9941 44.9923 22.7669L42.3997 20.1658C42.1701 20.3278 41.8968 20.5136 41.5813 20.7232C41.0393 21.0833 40.3575 21.5224 39.5391 22.0368L39.5246 22.0452L39.5107 22.0529L39.4969 22.0606L39.4831 22.0675L39.4693 22.0744L39.4263 22.0928L39.4117 22.0982L39.3672 22.112L39.3219 22.1228L39.3142 22.1251L39.3065 22.1258L39.2758 22.1304L39.2674 22.132L39.2597 22.1327L39.252 22.1335L39.2359 22.135L39.2205 22.1358H39.1822H39.1737L39.166 22.135H39.1584L39.1507 22.1343H39.1422L39.1346 22.1335L39.1269 22.1327L39.1192 22.132L39.1115 22.1312L39.1038 22.1297L39.0962 22.1289L39.0877 22.1274L39.0724 22.1243L39.0562 22.1212L39.0409 22.1181L39.0255 22.1135L39.0102 22.1097L38.9948 22.1051L38.9795 22.0997L38.9641 22.0943L38.9488 22.0882L38.9334 22.0813L38.9042 22.0682L38.8766 22.0537L38.8682 22.0491L38.849 22.0375C38.4152 21.8072 37.9246 21.5738 37.3841 21.3351C36.8275 21.0886 36.2518 20.8537 35.6614 20.6326L35.6468 20.628L35.6314 20.6226L35.6115 20.6142L35.603 20.6111L35.5884 20.605L35.5808 20.6011L35.5662 20.5942L35.5516 20.5865L35.537 20.5789L35.5232 20.5712L35.5094 20.5627L35.4955 20.5535L35.4825 20.5451L35.4694 20.5359L35.4564 20.5259L35.4441 20.5159L35.4318 20.5059L35.4203 20.4959L35.4088 20.4852L35.3973 20.4737L35.3865 20.4629L35.3758 20.4514L35.365 20.4399L35.3551 20.4276L35.3451 20.4153L35.3359 20.4031L35.3266 20.3908L35.3174 20.3777L35.309 20.3647L35.3005 20.3516L35.2929 20.3386L35.2852 20.3247L35.2775 20.3109L35.2706 20.2971L35.2645 20.2833L35.2522 20.2549L35.246 20.2403L35.2361 20.2104L35.2314 20.1958L35.2291 20.1881L35.2245 20.172L35.2207 20.1558C34.9965 19.1624 34.8223 18.3617 34.7048 17.7713C34.6334 17.4105 34.5735 17.0903 34.5259 16.8117H30.8539C30.8071 17.0896 30.7472 17.4097 30.675 17.7713C30.5591 18.3532 30.391 19.1309 30.1714 20.1029L30.1691 20.1182C30.1269 20.3747 29.9334 20.5911 29.6655 20.6487C29.0497 20.7823 28.474 20.965 27.9396 21.1923C27.4122 21.4172 26.9209 21.6875 26.4687 21.9999L26.4541 22.0107L26.441 22.0191L26.3996 22.046L26.3873 22.0537L26.3266 22.0828L26.3174 22.0874L26.2967 22.0951L26.2882 22.099L26.2737 22.1036L26.2591 22.1082L26.2514 22.1097L26.2437 22.1128L26.236 22.1143L26.2284 22.1166L26.2207 22.1181L26.1746 22.1274L26.1593 22.1297L26.1124 22.1343L26.0971 22.135L26.081 22.1358L26.0188 22.1335L26.0034 22.132L25.9881 22.1304L25.9574 22.1258L25.9497 22.1251L25.942 22.1228L25.9343 22.122L25.9267 22.1197L25.9029 22.1143C25.8783 22.1074 25.8468 22.0974 25.823 22.0867L25.8123 22.0828L25.7969 22.0759L25.7823 22.069L25.7677 22.0613L25.7531 22.0537L25.7393 22.0452L25.7255 22.0368L25.7125 22.0283C24.8979 21.5155 24.2192 21.0794 23.6795 20.7209C23.3648 20.5121 23.0922 20.3263 22.8642 20.1658L20.2716 22.7661C20.4328 22.9934 20.6179 23.2628 20.8259 23.5745C21.2105 24.1495 21.6558 24.8343 22.1541 25.6205C22.3068 25.8608 22.2815 26.164 22.1126 26.3744C21.8232 26.7943 21.5752 27.2627 21.3695 27.774C21.1599 28.2991 20.994 28.8733 20.8766 29.4906L20.8735 29.5067L20.8674 29.5374L20.8635 29.5528L20.8597 29.5674L20.8582 29.575L20.8551 29.5827L20.8451 29.6127L20.8428 29.6211L20.8167 29.6802C20.786 29.7409 20.7445 29.7992 20.6985 29.846L20.6869 29.8576L20.6762 29.8675L20.6639 29.8783L20.6524 29.8883L20.6401 29.8982L20.6278 29.9075L20.6156 29.9167L20.6025 29.9259L20.5902 29.9343L20.5764 29.9428L20.5633 29.9512L20.5495 29.9589L20.5365 29.9658L20.5219 29.9727L20.5081 29.9796L20.4881 29.9881L20.4797 29.9919L20.4651 29.9981L20.4574 30.0004L20.442 30.0057L20.4267 30.0103L20.4106 30.0149L20.3944 30.0195L20.3783 30.0234L20.3591 30.028L20.3438 30.0311C19.3642 30.2529 18.5819 30.4218 17.9961 30.5385C17.6337 30.6107 17.312 30.6706 17.0341 30.7182V34.3902C17.312 34.4378 17.6337 34.4977 17.9961 34.5698C18.5811 34.6865 19.3619 34.8562 20.3384 35.0765L20.3538 35.0796L20.3691 35.0827L20.3783 35.085L20.3944 35.0888L20.4106 35.0934L20.442 35.1026L20.4574 35.108L20.4728 35.1142L20.4881 35.1203L20.5027 35.1264L20.5173 35.1326L20.5311 35.1395L20.5449 35.1472L20.558 35.1548L20.5718 35.1625L20.5848 35.171L20.5979 35.1794L20.6109 35.1879L20.6232 35.1971L20.6355 35.2063L20.6478 35.2163L20.6624 35.2293L20.6716 35.237L20.6831 35.247L20.6946 35.2585C20.7599 35.3222 20.8113 35.4044 20.8451 35.4957L20.8505 35.5111L20.8658 35.5617L20.8674 35.5709C21.0017 36.1084 21.1775 36.6304 21.3909 37.1302C21.5998 37.6223 21.8477 38.0983 22.1326 38.552C22.1809 38.6196 22.2162 38.6948 22.2354 38.7739C22.2738 38.9328 22.2523 39.1109 22.1633 39.2614L22.1541 39.2783C21.6527 40.0683 21.209 40.7515 20.8236 41.3273C20.6171 41.6367 20.4321 41.9054 20.2716 42.1319L22.8642 44.7322C23.0922 44.5717 23.3632 44.3867 23.6772 44.1787C24.22 43.8178 24.904 43.3779 25.7247 42.8612L25.7393 42.8528L25.7531 42.8444L25.7677 42.8367C25.8437 42.7975 25.9267 42.773 26.008 42.7653C26.038 42.7622 26.0718 42.7614 26.1017 42.763L26.1332 42.7653L26.1493 42.7668L26.1646 42.7691L26.18 42.7714L26.1961 42.7745L26.2115 42.7776L26.2268 42.7814L26.2422 42.7852L26.2575 42.7898L26.2882 42.7991L26.3489 42.8252L26.3596 42.8298L26.3781 42.8397L26.3873 42.8444L26.4149 42.8605L26.428 42.8689C26.9285 43.1545 27.4529 43.4155 27.9972 43.6474C28.5484 43.8823 29.1188 44.0888 29.7038 44.2608L29.7192 44.2654L29.7338 44.27L29.7422 44.2723L29.7584 44.2785L29.7883 44.2907L29.8182 44.3046C29.8466 44.3184 29.875 44.336 29.9004 44.3537L29.961 44.4028L29.9725 44.4136L29.9841 44.4243L29.9948 44.4351L30.0056 44.4466L30.0155 44.4581L30.0263 44.4704L30.0363 44.4827L30.0455 44.495L30.0547 44.5072L30.0639 44.5203L30.0724 44.5333L30.0892 44.5602L30.0969 44.574L30.1038 44.5871L30.1107 44.6017L30.1177 44.6155L30.1238 44.6293L30.1299 44.6439L30.1353 44.6585L30.1407 44.6731L30.1453 44.6884L30.1499 44.703L30.1545 44.7184L30.156 44.726L30.1599 44.7422L30.1645 44.7637L30.1676 44.779C30.3887 45.7586 30.5583 46.5417 30.675 47.1267C30.7472 47.4883 30.8071 47.8084 30.8539 48.0864H34.5259C34.5735 47.8077 34.6334 47.4875 34.7048 47.1267C34.8215 46.5379 34.9942 45.744 35.2184 44.7537L35.2207 44.7422L35.2245 44.726L35.2291 44.7099L35.2338 44.6938L35.2384 44.6784L35.2437 44.6639L35.2491 44.6493L35.2552 44.6347L35.2614 44.6201L35.2675 44.6063L35.2744 44.5925L35.2814 44.5786L35.289 44.5648L35.2967 44.5518L35.3052 44.5379L35.3136 44.5249L35.322 44.5126L35.3313 44.4996L35.3405 44.4873L35.3504 44.475L35.3604 44.4635L35.3704 44.4512L35.3812 44.4397L35.3919 44.4289L35.4034 44.4174L35.4149 44.4067L35.4265 44.3967L35.4556 44.3729L35.4633 44.3667L35.4756 44.3575L35.4886 44.3483L35.5193 44.3291L35.5293 44.323L35.5431 44.3153L35.5577 44.3076L35.5869 44.2938L35.6015 44.2869L35.6168 44.2808L35.6314 44.2754L35.6468 44.27L35.6614 44.2654L35.6767 44.2608L35.6913 44.257L35.7067 44.2531C36.2802 44.0927 36.8322 43.8946 37.358 43.662C37.8847 43.4294 38.3791 43.1645 38.8359 42.8689L38.849 42.8605L38.8628 42.852L38.8766 42.8444L38.8835 42.8405L38.8981 42.8328L38.9127 42.8252L38.9273 42.8182L38.9426 42.8121L38.9572 42.806L38.9726 42.7998L39.0025 42.7898L39.0179 42.7852L39.0332 42.7814L39.0486 42.7776L39.08 42.7714L39.1269 42.7653L39.1422 42.7637L39.1737 42.7622L39.1891 42.7614H39.2044H39.2205L39.2359 42.7622L39.2512 42.7637L39.2666 42.7653L39.2827 42.7676L39.2981 42.7699L39.3134 42.7722L39.328 42.7753L39.3434 42.7791L39.3733 42.7868L39.3887 42.7914L39.4033 42.796L39.4178 42.8014L39.4324 42.8067L39.447 42.8129L39.4616 42.819L39.4816 42.829L39.4892 42.8328L39.4962 42.8367L39.5107 42.8444L39.5391 42.8612L39.5568 42.8728C40.3675 43.3825 41.0446 43.8186 41.5828 44.1756C41.8984 44.3852 42.1709 44.571 42.3997 44.7322L44.9923 42.1319C44.8318 41.9054 44.6468 41.6367 44.4395 41.3266C44.061 40.76 43.6234 40.0875 43.1336 39.3151L43.129 39.3075L43.1206 39.2944L43.1106 39.2783L43.0876 39.2407L43.0806 39.2268L43.0737 39.213L43.0707 39.2053L43.0668 39.1984L43.0638 39.1908L43.0576 39.1762L43.0515 39.1608L43.0461 39.1455L43.0407 39.1301L43.0361 39.1148L43.0315 39.0994L43.0277 39.084L43.0246 39.0687L43.0215 39.0533L43.0185 39.038L43.0162 39.0219L43.0139 39.0065L43.0123 38.9912L43.0108 38.975L43.01 38.9597V38.9436L43.0093 38.9282L43.0146 38.8499L43.0169 38.8345L43.0192 38.8192L43.0223 38.8038L43.0338 38.7532L43.0369 38.7439L43.0415 38.7286L43.0522 38.6994L43.0545 38.6917L43.0607 38.6764L43.0975 38.6027C43.4008 38.0837 43.671 37.5678 43.9052 37.0611C44.1416 36.549 44.3505 36.03 44.5301 35.5065ZM45.6372 36.2696C45.4736 36.7141 45.2886 37.1601 45.0829 37.6046C44.8787 38.0476 44.656 38.4845 44.4173 38.9136C44.8533 39.5984 45.2195 40.1619 45.5159 40.6049C45.8644 41.1262 46.1423 41.52 46.345 41.7849L46.355 41.7972L46.365 41.8102L46.3749 41.8241L46.3834 41.8371L46.3926 41.8509L46.401 41.864L46.4087 41.8778L46.4164 41.8924L46.4233 41.9062L46.4302 41.9208L46.4371 41.9354L46.4433 41.95L46.4494 41.9645L46.4548 41.9791L46.4594 41.9937L46.464 42.0091L46.4686 42.0237L46.4724 42.039L46.4763 42.0544L46.4794 42.0697L46.4817 42.0851L46.4847 42.1004L46.4863 42.1158L46.4886 42.1311L46.4893 42.1465L46.4909 42.1626V42.178V42.2164V42.2248L46.4901 42.2402L46.4886 42.2555L46.487 42.2709L46.4855 42.2785L46.4847 42.287L46.4824 42.3023L46.4801 42.3177L46.4771 42.333L46.4732 42.3476L46.4694 42.363L46.4655 42.3783L46.4609 42.3929L46.4556 42.4083L46.451 42.4229L46.4448 42.4375L46.4387 42.452L46.4325 42.4666L46.4256 42.4812L46.4187 42.495L46.411 42.5096L46.4034 42.5234L46.3949 42.5373L46.3865 42.5503L46.3773 42.5641L46.368 42.5772L46.3581 42.5902L46.3481 42.6033L46.3373 42.6156L46.3266 42.6279L46.3151 42.6401L46.3035 42.6524L46.2897 42.6655L42.9501 46.0158L42.9386 46.0281L42.9271 46.0396L42.9156 46.0511L42.9041 46.0626L42.8918 46.0734L42.8795 46.0834L42.8672 46.0934L42.8542 46.1033L42.8411 46.1125L42.8281 46.1218L42.815 46.1302L42.8012 46.1386L42.7881 46.1471L42.7697 46.1563L42.7597 46.1617L42.7459 46.1686L42.7267 46.177L42.7175 46.1816L42.7029 46.187L42.6883 46.1932L42.6738 46.1978L42.6584 46.2024L42.6438 46.207L42.6285 46.2116L42.6131 46.2147L42.5985 46.2185L42.5678 46.2239L42.5525 46.2262L42.5363 46.2277L42.521 46.2292L42.5056 46.2308L42.4749 46.2315H42.4588H42.4434L42.4281 46.2308L42.3912 46.2269L42.3813 46.2262L42.3659 46.2239L42.3498 46.2216L42.3344 46.2185L42.2884 46.207L42.2738 46.2024L42.2584 46.1978L42.2431 46.1924L42.2285 46.187L42.2139 46.1809L42.1993 46.1747L42.1839 46.1678L42.1701 46.1601L42.1555 46.1525L42.141 46.1448L42.1271 46.1363L42.1133 46.1271L42.0995 46.1179L42.0857 46.1087L42.0726 46.0987L42.0596 46.0887C41.7909 45.8845 41.3924 45.6051 40.8673 45.2565C40.4036 44.9487 39.8439 44.5863 39.1921 44.174C38.773 44.4251 38.3354 44.65 37.8816 44.8504C37.4156 45.0562 36.9212 45.2396 36.4007 45.3993C36.2379 46.1287 36.0967 46.7881 35.9792 47.3801C35.8587 47.9866 35.7758 48.4472 35.7328 48.7581L35.732 48.7704C35.7128 49.1113 35.4288 49.3869 35.0825 49.3869H30.2981C29.9503 49.3869 29.6655 49.1128 29.6486 48.7696C29.6056 48.4564 29.5219 47.9912 29.4006 47.3801C29.2824 46.7881 29.1419 46.1241 28.9791 45.3932C28.4693 45.2304 27.9711 45.0462 27.489 44.8404C27.0137 44.6378 26.5485 44.412 26.0909 44.1625C25.4299 44.5817 24.8634 44.9471 24.3927 45.2596C23.8715 45.6059 23.4738 45.8838 23.2066 46.0864L23.192 46.098L23.179 46.1079L23.1659 46.1172L23.1521 46.1264L23.1391 46.1348L23.1252 46.1433L23.1114 46.1509L23.0968 46.1586L23.083 46.1655L23.0684 46.1724L23.0538 46.1786L23.0392 46.1847L23.0247 46.1909L23.0101 46.1955L22.9947 46.2008L22.9801 46.2054L22.9348 46.217L22.9195 46.22L22.9041 46.2223L22.8888 46.2246L22.8727 46.2269L22.8419 46.23L22.8266 46.2308L22.8112 46.2315H22.7951L22.7644 46.2308L22.7483 46.2292L22.7329 46.2285L22.7176 46.2262L22.7022 46.2246L22.6715 46.2193L22.6562 46.2162L22.6408 46.2124L22.6254 46.2085L22.6109 46.2039L22.5955 46.1993L22.5809 46.1947L22.5663 46.1893L22.5517 46.1832L22.5372 46.177L22.5226 46.1701L22.508 46.1632L22.4942 46.1563L22.4796 46.1486L22.4658 46.141L22.4527 46.1325L22.4389 46.1233L22.4258 46.1148L22.412 46.1049L22.399 46.0949L22.3867 46.0849L22.3736 46.0742L22.3613 46.0634L22.3498 46.0519L22.3375 46.0404L22.3253 46.0281L22.3138 46.0158L18.9742 42.6655L18.9619 42.654L18.9504 42.6424L18.9396 42.6302L18.9289 42.6186L18.9189 42.6064L18.9089 42.5933L18.8989 42.581L18.8897 42.568L18.8805 42.5549L18.8721 42.5411L18.8636 42.5281L18.8559 42.5142L18.8483 42.5004L18.8413 42.4866L18.8344 42.472L18.8275 42.4582L18.8214 42.4436L18.816 42.429L18.8106 42.4144L18.8053 42.3998L18.8007 42.3845L18.7968 42.3699L18.7922 42.3545L18.7891 42.3392L18.7853 42.3246L18.783 42.3092L18.7799 42.2939L18.7776 42.2785L18.7769 42.2709L18.7761 42.2624L18.7745 42.2471L18.7738 42.2317L18.773 42.2164V42.1849V42.1695L18.7738 42.1534L18.7753 42.138L18.7769 42.1227L18.7784 42.1073L18.7807 42.0912L18.7838 42.0759L18.7868 42.0605L18.7899 42.0452L18.7937 42.0298L18.7984 42.0144L18.803 41.9999L18.8076 41.9845L18.8129 41.9699L18.8183 41.9546L18.8245 41.94L18.8314 41.9254L18.8383 41.9108L18.8452 41.8962L18.8529 41.8816L18.8613 41.8678L18.8697 41.854L18.8782 41.8402L18.8874 41.8264L18.8974 41.8125L18.9074 41.7995L18.9173 41.7872C19.1208 41.5231 19.3987 41.1254 19.7473 40.6057C20.0421 40.165 20.4083 39.6038 20.8428 38.9221C20.601 38.5067 20.3852 38.0776 20.1979 37.6384C20.0083 37.1939 19.8455 36.7348 19.7112 36.2627C18.9864 36.1014 18.3285 35.9617 17.7427 35.8443C17.1293 35.7222 16.6648 35.6385 16.3509 35.5955C16.0077 35.5786 15.7336 35.2938 15.7336 34.946V30.1623C15.7336 29.8146 16.0077 29.5297 16.3509 29.5128C16.6648 29.4699 17.1293 29.3862 17.7427 29.2641C18.3224 29.1482 18.9711 29.01 19.6858 28.8511C19.8102 28.2991 19.9714 27.7778 20.1657 27.2918C20.3545 26.8212 20.5772 26.3767 20.8336 25.9637C20.4037 25.2896 20.0421 24.7338 19.7496 24.2962C19.4002 23.7741 19.1231 23.3787 18.9197 23.1139L18.9089 23.1008L18.8989 23.0878L18.8889 23.074L18.8805 23.0609L18.8713 23.0471L18.8628 23.034L18.8552 23.0202L18.8475 23.0056L18.8406 22.9918L18.8337 22.9772L18.8268 22.9626L18.8206 22.9481L18.8145 22.9335L18.8091 22.9189L18.8045 22.9043L18.7999 22.8889L18.7953 22.8744L18.7914 22.859L18.7876 22.8436L18.7845 22.8283L18.7822 22.8129L18.7792 22.7976L18.7776 22.7822L18.7753 22.7669L18.7745 22.7515L18.773 22.7354V22.72V22.6817V22.6732L18.7738 22.6579L18.7753 22.6425L18.7769 22.6271L18.7792 22.611L18.7815 22.5957L18.7838 22.5803L18.7868 22.565L18.7907 22.5504L18.7945 22.535L18.7984 22.5197L18.803 22.5051L18.8083 22.4897L18.8129 22.4751L18.8191 22.4606L18.8252 22.446L18.8314 22.4314L18.8383 22.4168L18.8452 22.403L18.8529 22.3884L18.8605 22.3746L18.869 22.3607L18.8774 22.3477L18.8866 22.3339L18.8958 22.3208L18.9058 22.3078L18.9158 22.2947L18.9266 22.2824L18.9373 22.2702L18.9488 22.2579L18.9603 22.2456L18.9742 22.2325L22.3138 18.883L22.3253 18.8707L22.3368 18.8592L22.3483 18.8476L22.3598 18.8361L22.3721 18.8254L22.3844 18.8154L22.3967 18.8054L22.4097 18.7954L22.4228 18.7862L22.4358 18.777L22.4489 18.7686L22.4627 18.7601L22.4757 18.7517L22.4942 18.7425L22.5041 18.7371L22.518 18.7302L22.5372 18.7217L22.5464 18.7171L22.561 18.7118L22.5755 18.7056L22.5901 18.701L22.6055 18.6964L22.6201 18.6918L22.6354 18.6872L22.6508 18.6841L22.6654 18.6803L22.6961 18.6749L22.7114 18.6726L22.7276 18.6711L22.7429 18.6695L22.7583 18.668L22.789 18.6672H22.8051H22.8204L22.8358 18.668L22.8727 18.6718L22.8826 18.6726L22.898 18.6749L22.9141 18.6772L22.9295 18.6803L22.9755 18.6918L22.9901 18.6964L23.0055 18.701L23.0208 18.7064L23.0354 18.7118L23.05 18.7179L23.0646 18.724L23.0799 18.731L23.0938 18.7386L23.1083 18.7463L23.1229 18.754L23.1367 18.7624L23.1506 18.7716L23.1644 18.7809L23.1782 18.7901L23.1913 18.8001L23.2035 18.81C23.4707 19.0135 23.8722 19.2929 24.395 19.6399C24.8572 19.947 25.4138 20.3071 26.0618 20.7171C26.4955 20.4437 26.9531 20.2042 27.4314 19.9992C27.9266 19.7889 28.4448 19.6131 28.9853 19.4749C29.1449 18.7555 29.2839 18.1014 29.4006 17.518C29.5219 16.9068 29.6056 16.4416 29.6486 16.1284C29.6655 15.7852 29.9503 15.5111 30.2981 15.5111H35.0825C35.4288 15.5111 35.712 15.7837 35.7312 16.1245L35.7328 16.1399C35.7758 16.4508 35.8587 16.9115 35.9792 17.518C36.099 18.1191 36.2425 18.7893 36.4084 19.5325C36.9527 19.7413 37.454 19.9463 37.9077 20.1466C38.3415 20.3378 38.7599 20.5366 39.163 20.7424C39.8263 20.3232 40.3952 19.9547 40.8658 19.6422C41.3917 19.2937 41.7901 19.015 42.0588 18.8108L42.0719 18.8008L42.0849 18.7908L42.098 18.7816L42.1118 18.7724L42.1248 18.764L42.1387 18.7555L42.1525 18.7478L42.1671 18.7402L42.1809 18.7333L42.1955 18.7263L42.21 18.7202L42.2246 18.7141L42.2392 18.7079L42.2538 18.7033L42.2692 18.6979L42.2838 18.6933L42.329 18.6818L42.3444 18.6788L42.3598 18.6764L42.3751 18.6741L42.3912 18.6718L42.4219 18.6688L42.4373 18.668L42.4526 18.6672H42.4688L42.4995 18.668L42.5156 18.6695L42.531 18.6703L42.5463 18.6726L42.5617 18.6741L42.5924 18.6795L42.6077 18.6826L42.6231 18.6864L42.6384 18.6903L42.653 18.6949L42.6684 18.6995L42.683 18.7041L42.6976 18.7095L42.7121 18.7156L42.7267 18.7217L42.7413 18.7287L42.7559 18.7356L42.7697 18.7425L42.7843 18.7501L42.7981 18.7578L42.8112 18.7663L42.825 18.7755L42.838 18.7839L42.8519 18.7939L42.8649 18.8039L42.8772 18.8139L42.8903 18.8246L42.9025 18.8354L42.9141 18.8469L42.9263 18.8584L42.9386 18.8707L42.9501 18.883L46.2897 22.2325L46.302 22.2441L46.3135 22.2556L46.3243 22.2679L46.335 22.2794L46.345 22.2917L46.355 22.3047L46.365 22.317L46.3742 22.33L46.3834 22.3431L46.3918 22.3569L46.4003 22.37L46.408 22.3838L46.4156 22.3976L46.4225 22.4114L46.4295 22.426L46.4364 22.4398L46.4425 22.4544L46.4479 22.469L46.4533 22.4836L46.4586 22.4982L46.4632 22.5135L46.4671 22.5281L46.4717 22.5435L46.4747 22.5588L46.4786 22.5734L46.4809 22.5888L46.484 22.6041L46.4855 22.6202L46.4878 22.6356L46.4893 22.6509L46.4901 22.6663L46.4909 22.6817V22.7131V22.7285L46.4901 22.7446L46.4886 22.76L46.487 22.7753L46.4855 22.7907L46.4832 22.8068L46.4801 22.8221L46.4771 22.8375L46.474 22.8529L46.4701 22.8682L46.4655 22.8836L46.4609 22.8982L46.4563 22.9135L46.451 22.9281L46.4456 22.9435L46.4394 22.958L46.4325 22.9726L46.4256 22.9872L46.4187 23.0018L46.411 23.0164L46.4026 23.0302L46.3941 23.044L46.3857 23.0578L46.3765 23.0717L46.3665 23.0855L46.3565 23.0985L46.3465 23.1108C46.1423 23.3764 45.8636 23.7749 45.5128 24.2985C45.2195 24.7368 44.8564 25.2958 44.4249 25.9729C44.6806 26.402 44.9124 26.8542 45.1182 27.3287C45.3285 27.8139 45.5113 28.3198 45.6648 28.8449C46.3911 29.0062 47.0505 29.1466 47.6378 29.2641C48.2513 29.3862 48.7157 29.4699 49.0297 29.5128C49.3729 29.5297 49.647 29.8146 49.647 30.1623V34.946C49.647 35.2938 49.3729 35.5786 49.0297 35.5955C48.7157 35.6385 48.2513 35.7222 47.6378 35.8443C47.0429 35.9633 46.3742 36.1053 45.6372 36.2696ZM32.9866 39.1117C31.131 39.1117 29.449 38.3578 28.2321 37.1417C27.013 35.9218 26.2591 34.2397 26.2591 32.3841C26.2591 30.5285 27.013 28.8465 28.2291 27.6296C29.449 26.4105 31.131 25.6566 32.9866 25.6566C34.8422 25.6566 36.5243 26.4105 37.7411 27.6266C38.9603 28.8465 39.7142 30.5285 39.7142 32.3841C39.7142 34.2397 38.9603 35.9218 37.7442 37.1386C36.5243 38.3578 34.8422 39.1117 32.9866 39.1117ZM29.1472 36.2235C30.1292 37.2039 31.4873 37.8112 32.9866 37.8112C34.486 37.8112 35.8441 37.2039 36.826 36.2235C37.8064 35.2416 38.4137 33.8835 38.4137 32.3841C38.4137 30.8848 37.8064 29.5267 36.826 28.5448C35.8441 27.5644 34.486 26.9571 32.9866 26.9571C31.4873 26.9571 30.1292 27.5644 29.1472 28.5448C28.1669 29.5267 27.5596 30.8848 27.5596 32.3841C27.5596 33.8835 28.1669 35.2416 29.1472 36.2235ZM32.1882 3.94462C32.1859 3.91545 32.1874 3.88627 32.189 3.8571L32.192 3.82409L32.1966 3.79261L32.2066 3.74501L32.2105 3.72966C32.2258 3.67131 32.2488 3.61603 32.2819 3.56229C32.308 3.5193 32.3387 3.48092 32.3725 3.44714L32.3832 3.43639C32.4131 3.40721 32.4469 3.38111 32.4807 3.35808L32.4938 3.34964L32.5068 3.34196L32.5206 3.33428L32.5344 3.3266L32.5483 3.31969L32.5767 3.30587L32.5913 3.29973L32.6058 3.29436L32.6212 3.28899L32.6365 3.28361L32.6511 3.279L32.6673 3.2744L32.6826 3.27056L32.698 3.26672L32.7133 3.26365L32.7287 3.26058L32.744 3.25828C32.787 3.25137 32.8346 3.2506 32.8784 3.25367L32.9114 3.25674L32.9429 3.26135L32.9905 3.27133L33.0058 3.27517C33.0642 3.29129 33.1202 3.31432 33.1732 3.34656C34.2779 4.02139 35.4149 4.76378 36.5819 5.57066C37.7442 6.37369 38.9173 7.22817 40.0973 8.13101L40.1103 8.14022L40.1226 8.1502L40.1349 8.16018L40.1472 8.17017L40.1587 8.18091L40.1702 8.19243L40.1817 8.20394L40.1932 8.21546L40.204 8.22698L40.2147 8.23926L40.2247 8.25231L40.2347 8.26536L40.2447 8.27841L40.2539 8.29147L40.2631 8.30605L40.2723 8.31987L40.2808 8.33446L40.2892 8.34904L40.2969 8.36363L40.3038 8.37822L40.3107 8.39204L40.3168 8.40662L40.3284 8.43503L40.333 8.45038L40.3376 8.46574L40.3422 8.48032L40.3468 8.49568L40.3499 8.51103L40.3537 8.52562L40.3568 8.54097L40.3591 8.55633L40.3614 8.57168L40.3629 8.58781L40.3644 8.60316L40.366 8.61851L40.3667 8.63387V8.64922V8.6807L40.366 8.69605L40.3652 8.71218L40.3637 8.72753L40.3614 8.74289L40.3591 8.75824L40.3568 8.77436L40.3537 8.78972L40.3506 8.80507L40.3468 8.82043L40.3422 8.83578L40.3376 8.85037L40.333 8.86572L40.3276 8.88108L40.3222 8.89566L40.3161 8.91025L40.3099 8.92484L40.303 8.94019L40.2954 8.95401L40.2877 8.9686L40.28 8.98318L40.2716 8.997L40.2631 9.01005L40.2547 9.0231L40.2454 9.03616L40.2362 9.04921L40.2263 9.06149L40.2163 9.07377L40.2063 9.08606L40.1955 9.09757L40.184 9.10909L40.1725 9.1206L40.161 9.13212L40.1495 9.14287L40.1372 9.15362L40.1241 9.1636L40.1111 9.17358L40.098 9.18356L40.085 9.19277L40.0704 9.20198L40.0566 9.2112L40.0405 9.22118L40.0266 9.22885C39.0332 9.83382 37.9922 10.4802 36.9043 11.1651C35.808 11.8568 34.6334 12.6061 33.382 13.4168L33.369 13.426L33.3559 13.4344L33.3429 13.4429L33.3298 13.4506L33.316 13.4582L33.3022 13.4659L33.2883 13.4728L33.2745 13.4797L33.2599 13.4866L33.2377 13.4951L33.2223 13.5012L33.2077 13.5066L33.1924 13.5112L33.177 13.5158L33.1617 13.5197L33.1463 13.5235L33.1302 13.5273L33.1148 13.5296L33.0995 13.5327L33.0841 13.535L33.068 13.5365L33.0527 13.5381L33.045 13.5388L33.0289 13.5396H32.9743H32.9628L32.9467 13.5381L32.9298 13.5365L32.9129 13.5342L32.8968 13.5319L32.8815 13.5289L32.8669 13.5258L32.8515 13.522L32.8362 13.5189L32.8216 13.5143L32.8062 13.5097L32.7709 13.4982L32.7625 13.4943L32.7333 13.482L32.7195 13.4759L32.6918 13.4613L32.678 13.4536L32.6642 13.446L32.6573 13.4421L32.6511 13.4375L32.6312 13.4245L32.625 13.4199L32.6189 13.4152L32.612 13.4106L32.6058 13.406L32.5997 13.4007L32.5936 13.3961L32.5874 13.3907L32.5751 13.3799L32.5628 13.3692L32.5513 13.3584L32.5398 13.3469L32.5283 13.3354L32.5176 13.3239L32.5068 13.3108L32.4968 13.2986L32.4861 13.2855L32.4769 13.2724L32.4669 13.2594L32.4584 13.2463L32.45 13.2333L32.4423 13.2202L32.4346 13.2064L32.427 13.1926L32.42 13.1788L32.4131 13.165L32.4062 13.1504L32.3978 13.1281L32.3916 13.1128L32.3863 13.0982L32.3817 13.0828L32.3771 13.0675L32.3732 13.0521L32.3694 13.0368L32.3655 13.0206L32.3632 13.0053L32.3602 12.9899L32.3579 12.9746L32.3563 12.9585L32.3548 12.9431L32.354 12.9354V12.9277L32.3533 12.9193V12.9116V12.8648V12.8533L32.3548 12.8371L32.3563 12.8203C32.3901 12.5155 32.4108 12.1731 32.4185 11.7984C32.4224 11.5888 32.4224 11.3631 32.4185 11.1228C27.1489 11.3693 22.7606 13.1012 19.3634 15.7507C15.9163 18.4392 13.4826 22.0813 12.1844 26.075C10.8847 30.071 10.7188 34.4209 11.8044 38.5259C12.9245 42.7622 15.3797 46.7436 19.2958 49.8099L19.3066 49.8176L19.3196 49.8283L19.3327 49.8391L19.345 49.8498L19.3565 49.8606L19.368 49.8721L19.3795 49.8844L19.3926 49.899L19.401 49.9082L19.431 49.9458L19.4402 49.9588L19.4509 49.9757L19.4578 49.9857L19.4678 50.0026L19.4739 50.0126L19.5016 50.0686L19.5131 50.0978L19.5185 50.1124L19.5246 50.1323L19.5285 50.1423L19.5323 50.1569L19.54 50.1876L19.543 50.203L19.5461 50.2183L19.5484 50.2337L19.5507 50.249L19.5523 50.2644C19.5553 50.2897 19.5553 50.3204 19.5546 50.3465V50.3573L19.5538 50.3734L19.5453 50.4394L19.5438 50.4502L19.5407 50.4663L19.5331 50.4962L19.5192 50.5415L19.5139 50.5569L19.5 50.5899L19.4954 50.6014L19.4885 50.6152L19.4809 50.6298L19.4732 50.6444L19.4478 50.6859L19.4386 50.6997L19.4286 50.7135L19.4187 50.7266L19.4079 50.7396L19.3972 50.7527L19.3895 50.7619C19.0479 51.1734 18.7008 51.6202 18.3561 52.0862C18.0199 52.5438 17.6805 53.0328 17.3404 53.5518C17.1447 53.852 16.7416 53.9356 16.4414 53.7399L16.4123 53.7191C11.3031 50.4901 8.05638 45.4439 6.62841 39.8111C5.4346 35.1042 5.51368 29.9812 6.83646 25.1721C8.16155 20.3562 10.7357 15.852 14.5298 12.3919C18.8506 8.44885 24.7528 5.85778 32.1874 5.69887C32.1951 5.55377 32.2012 5.40253 32.2043 5.24591C32.212 4.86589 32.2066 4.43596 32.1897 3.96074L32.1882 3.94462ZM38.5695 8.60086C37.6413 7.90453 36.7323 7.2489 35.8464 6.63626C35.0602 6.09271 34.2787 5.57373 33.5018 5.08008L33.4987 5.27201C33.4903 5.70808 33.4672 6.08887 33.4319 6.40978C33.3935 6.75525 33.0887 7.0086 32.7448 6.98557C25.4061 7.02396 19.6106 9.51368 15.4035 13.3515C11.7952 16.6428 9.34615 20.9289 8.08478 25.513C6.82188 30.104 6.74664 34.9982 7.88748 39.4963C9.19107 44.6362 12.0892 49.2548 16.6134 52.3027C16.8391 51.9726 17.0717 51.6455 17.3097 51.3215C17.5331 51.0183 17.7619 50.7197 17.9961 50.4248C14.1337 47.2304 11.69 43.1683 10.5499 38.856C9.40066 34.5077 9.57416 29.9021 10.9499 25.6742C12.3249 21.4449 14.906 17.584 18.5665 14.7296C22.3038 11.8145 27.1635 9.94821 33.0089 9.80618L33.0258 9.80541H33.0335H33.0427H33.0588H33.0757L33.0834 9.80618H33.0918L33.0995 9.80695L33.1087 9.80772L33.1248 9.80925L33.1409 9.81156L33.1563 9.81386L33.164 9.81539L33.1724 9.81693L33.1801 9.81847L33.1878 9.82L33.1955 9.8223L33.2039 9.82384L33.2192 9.82768L33.2346 9.83228L33.25 9.83689L33.2645 9.84226L33.2791 9.84764L33.2937 9.85301L33.3083 9.85915L33.3152 9.86299L33.3229 9.86606L33.3367 9.87297L33.3505 9.87988L33.3574 9.88372L33.3643 9.88756L33.3713 9.8914L33.3782 9.89524L33.3912 9.90368L33.3981 9.90752L33.4043 9.91213L33.4173 9.92057L33.4235 9.92518L33.4304 9.92978L33.4427 9.939L33.4488 9.9436L33.4726 9.96356L33.4787 9.96894L33.4903 9.97892L33.5018 9.98967L33.5233 10.0119L33.5332 10.0234L33.5386 10.0296L33.5486 10.0411L33.554 10.0472L33.5632 10.0595L33.5724 10.0718L33.5816 10.0849L33.5908 10.0979L33.5993 10.111L33.6069 10.124L33.6108 10.1309L33.6146 10.1378L33.6185 10.1447L33.6223 10.1517L33.6292 10.1655L33.6361 10.1801L33.6515 10.2161L33.6568 10.2307L33.6599 10.2384L33.6653 10.2538L33.6699 10.2684L33.6714 10.276L33.6745 10.2845L33.6783 10.2998L33.6799 10.3075L33.6822 10.3152L33.683 10.3229L33.6853 10.3313L33.686 10.339L33.6883 10.3474L33.6891 10.3551L33.6906 10.3635L33.6914 10.3712L33.6922 10.3797L33.6929 10.3873L33.6937 10.3966L33.6945 10.4042L33.6952 10.4127V10.4204L33.696 10.4296V10.4372C33.7129 10.8764 33.719 11.2848 33.7152 11.6595C34.575 11.1059 35.4096 10.5762 36.2134 10.0687C37.0425 9.54669 37.8294 9.05612 38.5695 8.60086ZM25.3662 56.9942L25.3539 56.9843L25.3056 56.942L25.2618 56.8944C25.2311 56.8576 25.2012 56.8138 25.1804 56.7716L25.1735 56.757L25.1551 56.714L25.1497 56.6994L25.1436 56.6802L25.1397 56.6695L25.1344 56.6495L25.1313 56.6396L25.1244 56.6096L25.1167 56.5566L25.1152 56.5482L25.1136 56.5328L25.1121 56.463V56.4545L25.1129 56.4392L25.119 56.3854L25.1198 56.377C25.1321 56.301 25.1597 56.2204 25.2004 56.1521L25.2365 56.0968L25.2449 56.0868L25.2549 56.0745L25.2971 56.0261L25.3447 55.9824C25.3739 55.9586 25.4077 55.934 25.4399 55.9156L25.4537 55.9079C26.4249 55.2899 27.4513 54.6243 28.5254 53.9172C29.5227 53.2608 30.6873 52.4831 32.03 51.5757C32.3272 51.3753 32.731 51.4536 32.9314 51.7507C33.0266 51.892 33.0596 52.0593 33.0342 52.2152C32.9966 52.6605 32.9882 53.2178 33.0104 53.8704C38.2747 53.5203 42.6292 51.7016 45.9719 48.9861C49.3675 46.2285 51.7283 42.5403 52.9482 38.5236C54.1681 34.5046 54.2472 30.1524 53.081 26.0673C51.8787 21.8579 49.3506 17.931 45.383 14.9438L45.37 14.9346L45.3585 14.9254L45.3431 14.9146C45.2825 14.8662 45.2341 14.8094 45.1957 14.7472L45.1873 14.7334C45.1689 14.7012 45.1527 14.6689 45.1404 14.6344L45.1351 14.6198C45.0944 14.5008 45.0875 14.3726 45.1182 14.2505C45.1266 14.2152 45.1397 14.1784 45.1543 14.1453L45.1681 14.1162L45.1834 14.0878L45.2003 14.0594L45.2095 14.0455L45.2188 14.0325L45.2287 14.0187L45.2395 14.0033C45.5873 13.5665 45.9304 13.1089 46.2652 12.6345C46.6037 12.1539 46.9254 11.6748 47.2225 11.2027L47.2448 11.1627C47.429 10.8564 47.829 10.7574 48.1353 10.9416C53.3274 14.0663 56.6855 19.0611 58.2286 24.6793C59.5161 29.367 59.5399 34.4915 58.313 39.3213C57.0839 44.1587 54.5988 48.7121 50.8715 52.2482C46.6275 56.2764 40.7782 58.9826 33.3498 59.289L33.3436 59.7419C33.3436 60.1603 33.3574 60.6018 33.3835 61.0647C33.3866 61.1261 33.3812 61.186 33.3682 61.2428L33.3605 61.2743L33.3559 61.2889L33.3513 61.3042L33.3459 61.3196L33.3283 61.3634L33.3221 61.3772L33.3183 61.3841L33.3106 61.3987L33.3029 61.4133L33.2945 61.4278L33.286 61.4424L33.2768 61.4562L33.2676 61.4701L33.2584 61.4831L33.2484 61.4962L33.2392 61.5092L33.2292 61.5207L33.2185 61.533L33.2085 61.5438L33.197 61.5553L33.1862 61.566L33.1747 61.5768L33.1632 61.5875L33.1479 61.5998L33.1394 61.6075L33.1271 61.6167L33.0972 61.6374L33.0887 61.6436L33.0757 61.652C33.0104 61.6912 32.9321 61.7211 32.8538 61.7365L32.7717 61.7472C32.7103 61.7503 32.6504 61.7449 32.5936 61.7319L32.5621 61.7242L32.5475 61.7196L32.5321 61.715L32.5168 61.7096L32.473 61.6919L32.4592 61.6858L32.4523 61.682L32.4377 61.6743L32.4231 61.6666L32.4085 61.6582L32.3909 61.6482L32.3778 61.6397C31.2508 60.981 30.1092 60.2686 28.9569 59.5047C27.7861 58.7293 26.5907 57.894 25.3762 57.0027L25.3662 56.9942Z" fill="black"/>
</svg>
