<svg width="15" height="12" viewBox="0 0 22 22" fill="none" xmlns="http://www.w3.org/2000/svg">
<path d="M20.2327 9.82984C20.2327 4.46629 15.8682 0.103028 10.5058 0.103028C5.14228 0.10187 0.777832 4.46658 0.777832 9.82984C0.777832 15.1934 5.14228 19.5567 10.5046 19.5567C12.7801 19.5567 14.875 18.7684 16.5313 17.456L20.2975 21.1955L21.551 19.9328L17.8206 16.2291C19.3195 14.5173 20.2327 12.2802 20.2327 9.82984ZM2.55561 9.82984C2.55561 5.44792 6.12272 1.88081 10.5046 1.88081C14.8878 1.87965 18.4549 5.44436 18.4549 9.82984C18.4549 14.2153 14.8901 17.7789 10.5046 17.7789C6.12035 17.7789 2.55561 14.2118 2.55561 9.82984Z" fill="#A4A8C9"/>
</svg>
