<svg width="40" height="40" viewBox="0 0 62 38" fill="none" xmlns="http://www.w3.org/2000/svg">
<path d="M35.7801 37.3844C42.13 36.7031 47.8952 34.7102 52.9716 31.6801L52.7784 31.7869C53.7317 31.2276 54.6239 30.5667 55.5289 29.916C56.3982 29.3059 55.9102 27.7248 54.1816 28.4619C48.2232 31.0777 41.3039 32.7503 34.0363 33.0909L33.9067 33.096C33.1441 33.1341 32.2518 33.1545 31.3545 33.1545C28.4261 33.1545 25.5486 32.9308 22.7397 32.4986L23.0523 32.5393C15.1289 31.398 7.99355 28.8331 1.62585 25.0989L1.90293 25.2489C1.67924 25.0989 1.42249 24.9769 1.14796 24.8955L1.12762 24.8904C0.542964 24.7608 0.209963 25.4497 0.840378 26.0445C8.64176 33.2587 19.1148 37.6818 30.6224 37.6818H30.658H30.6554C32.3713 37.5852 34.0871 37.575 35.7776 37.3844H35.7801ZM56.5914 26.4029C58.3556 26.4995 58.9021 27.1071 58.4623 28.8077C58.0098 30.5718 57.354 32.2877 56.8075 34.0264C56.7007 34.3721 56.3067 34.7763 56.7109 35.0762C57.1532 35.3863 57.4862 34.9567 57.7836 34.6848C58.9402 33.5841 59.8502 32.2394 60.4375 30.732L60.4629 30.6582C61.1187 29.2245 61.5 27.5468 61.5 25.7801C61.5 25.7395 61.5 25.7013 61.5 25.6607V25.6658C61.4746 24.9286 61.2865 24.6159 60.5696 24.4151C60.0002 24.2397 59.3317 24.105 58.6453 24.0389L58.6047 24.0363C58.1395 23.9779 57.6031 23.9448 57.0566 23.9448C54.9315 23.9448 52.9233 24.4456 51.1414 25.3328L51.2176 25.2972C50.8236 25.5107 50.483 25.7446 50.1703 26.0089L50.1805 26.0013C50.0509 26.1081 49.7992 26.6317 50.4677 26.7283C50.5288 26.7334 50.6025 26.7359 50.6736 26.7359C50.849 26.7359 51.0219 26.7207 51.1871 26.6902L51.1693 26.6927C52.5064 26.5021 54.052 26.3928 55.6204 26.3928C55.961 26.3928 56.2991 26.3978 56.6372 26.408H56.5889L56.5914 26.4029Z" fill="#FFA13C"/>
<path d="M31.6404 4.78645C29.9729 11.6346 30.0796 11.2685 28.5671 17.532C28.5341 18.1091 28.0562 18.5641 27.4741 18.5641C27.4105 18.5641 27.347 18.559 27.286 18.5488H27.2936H25.5777C25.5269 18.559 25.4659 18.5641 25.4074 18.5641C24.8914 18.5641 24.4669 18.1802 24.4008 17.6845V17.6795C22.9341 12.9869 20.9691 6.46926 19.6473 2.10973C19.1592 0.500651 19.4795 0.538781 20.7556 0.571827C21.1979 0.584537 21.6249 0.571827 22.0647 0.571827C22.0952 0.569285 22.1308 0.566743 22.1689 0.566743C22.6672 0.566743 23.079 0.935331 23.1476 1.41323V1.41831C23.5772 2.95622 23.8619 4.1357 26.3149 13.8232C26.3607 14.0139 26.4217 14.1944 26.4827 14.3698H26.6123C26.6708 14.1308 26.742 13.9071 26.803 13.6656C27.7317 9.74589 28.6569 5.82274 29.5788 1.89621C29.8661 0.676048 30.377 0.561658 31.6124 0.561658H32.5174C33.3308 0.574368 33.5901 0.739599 33.7935 1.5505C34.5078 4.33906 36.5947 13.6758 36.9735 14.7028C37.5836 12.5217 36.76 15.6433 40.3696 1.71827C40.6187 0.754851 40.8577 0.564201 41.8363 0.564201H43.3387C43.9818 0.576911 44.1724 0.777728 44.0174 1.41068C43.7301 2.54441 43.6717 2.59017 39.0986 17.2422C38.7275 18.4217 38.5978 18.5285 37.3599 18.5285H36.0965C35.2272 18.5285 35.0009 18.3734 34.7874 17.5269C34.2739 15.5976 32.0115 6.12609 31.6404 4.79154V4.78645ZM15.4631 18.0328C15.636 18.3861 15.9919 18.6251 16.4037 18.6251C16.6935 18.6251 16.9528 18.5081 17.1434 18.3175L17.8933 17.8167C18.7067 17.2804 18.7627 17.0668 18.3229 16.2076C17.8501 15.3078 17.5705 14.2427 17.5705 13.1115C17.5705 13.0734 17.5705 13.0352 17.5705 12.9971V13.0022C17.5705 12.6311 17.6416 6.36758 17.4637 5.04574C17.3061 2.8342 15.7733 1.01922 13.7244 0.442185L13.6888 0.434559C12.7915 0.185444 11.762 0.0430911 10.6969 0.0430911C10.3766 0.0430911 10.0563 0.055802 9.74366 0.0812219L9.78433 0.0786801C7.91342 0.152398 6.1747 0.648087 4.63679 1.46915L4.70034 1.43865C4.46902 1.5632 4.29616 1.76911 4.21482 2.01568L4.21228 2.02331C4.14618 2.32326 4.10805 2.66897 4.10805 3.02231C4.10805 3.17737 4.11568 3.33243 4.12839 3.48495L4.12585 3.46462C4.19702 4.16875 4.43597 4.29839 5.10197 4.0747C5.71205 3.87134 6.29417 3.61205 6.90171 3.43157C7.7787 3.1062 8.79041 2.91809 9.84788 2.91809C10.6689 2.91809 11.462 3.03248 12.2145 3.24346L12.1535 3.22821C12.9593 3.4697 13.5872 4.07724 13.8515 4.85255L13.8566 4.87034C14.0523 5.52618 14.1667 6.27861 14.1667 7.059C14.1667 7.29795 14.1566 7.53689 14.1362 7.77076L14.1388 7.74025C14.1388 8.39609 14.1261 8.39609 13.4829 8.27661C12.3899 8.00462 11.1367 7.84702 9.84534 7.84702C9.36998 7.84702 8.89717 7.86735 8.43199 7.91057L8.493 7.90548C6.64751 8.04021 5.03588 8.93753 3.95045 10.2772L3.94028 10.2899C3.27936 11.205 2.88281 12.3514 2.88281 13.5894C2.88281 14.0902 2.94636 14.5731 3.06838 15.0358L3.06075 14.9951C3.32512 16.7287 4.55545 18.1167 6.1747 18.6098L6.2052 18.6175C6.91696 18.8717 7.73802 19.0191 8.59467 19.0191C10.2902 19.0191 11.8535 18.4421 13.094 17.4736L13.0788 17.4863C13.5312 17.1533 13.9379 16.7491 14.4006 16.3525C14.7717 16.9474 15.092 17.5066 15.4606 18.0201L15.4631 18.0328ZM13.6329 10.694H13.6456C13.9278 10.694 14.1566 10.9228 14.1566 11.205C14.1566 11.2406 14.154 11.2736 14.1464 11.3092V11.3067C14.121 11.7591 14.1591 12.2116 14.1108 12.6641C13.9837 13.9936 13.1525 15.1019 12.0009 15.623L11.9781 15.6331C11.2307 16.0246 10.3487 16.2559 9.41066 16.2559C9.22001 16.2559 9.0319 16.2458 8.84633 16.228L8.86921 16.2305C7.5245 16.1517 6.46448 15.0434 6.46448 13.686C6.46448 13.4775 6.4899 13.2742 6.5382 13.0784L6.53566 13.0962C6.60175 11.7032 7.70498 10.5873 9.08782 10.5009H9.09545C9.62927 10.4144 10.2444 10.3661 10.8698 10.3661C11.8561 10.3661 12.8169 10.4881 13.732 10.7169L13.6507 10.6991L13.6329 10.694ZM55.1844 18.4497C57.2815 17.7455 58.7635 15.7984 58.7635 13.5055C58.7635 13.1471 58.7279 12.7963 58.6593 12.4582L58.6643 12.4912C58.3924 10.8313 57.2307 9.49931 55.6928 8.98583L55.6623 8.97566C53.344 8.24865 51.4451 7.51402 49.6047 6.67516L49.9326 6.80988C49.4013 6.54297 49.0404 6.00915 49.0276 5.38891C49.0124 5.29485 49.0048 5.18555 49.0048 5.07624C49.0048 4.01115 49.8131 3.1367 50.8503 3.02994H50.8579C51.3942 2.90284 52.0094 2.83166 52.6424 2.83166C53.194 2.83166 53.7354 2.88758 54.2565 2.99181L54.2057 2.98418C55.0751 3.15195 55.9088 3.48495 56.7553 3.73407C57.0883 3.84083 57.4594 3.98318 57.6857 3.54342C57.8026 3.29685 57.8712 3.00706 57.8712 2.70456C57.8712 1.94705 57.4493 1.28867 56.8265 0.953126L56.8163 0.948042C55.5606 0.348132 54.0862 -0.00012207 52.5305 -0.00012207C51.1426 -0.00012207 49.8207 0.279498 48.6158 0.782813L48.6819 0.757392C46.839 1.48949 45.5604 3.25871 45.5604 5.32536C45.5604 7.30557 46.7348 9.01379 48.4252 9.78656L48.4557 9.79927C49.3734 10.2416 50.3724 10.5034 51.3383 10.8593C52.3043 11.2152 53.2677 11.5507 54.2108 11.9422C54.8615 12.3031 55.2962 12.9869 55.2962 13.7724C55.2962 14.4994 54.9251 15.1375 54.3608 15.5111L54.3531 15.5162C51.0536 17.3465 46.6255 15.229 46.1094 15.0637C45.718 14.9341 45.479 15.0892 45.3595 15.506C45.263 15.7323 45.207 15.9967 45.207 16.2737C45.207 17.2117 45.8552 17.9997 46.7297 18.2082L46.7424 18.2107C48.0922 18.7522 49.6555 19.0648 51.2926 19.0648C52.6805 19.0648 54.0176 18.8386 55.2657 18.4217L55.1767 18.4471L55.1844 18.4497Z" fill="white"/>
</svg>
