<svg width="70" height="30" viewBox="0 0 107 31" fill="none" xmlns="http://www.w3.org/2000/svg">
<path d="M18.4116 29.1798C23.5248 28.2766 27.7479 27.5292 27.7964 27.5189L27.8846 27.5002L23.0573 21.7582C20.4023 18.6002 18.23 16.0041 18.23 15.9891C18.23 15.9608 23.2146 2.23424 23.2426 2.18537C23.252 2.16908 26.6442 8.02557 31.4655 16.3819C35.9793 24.2053 39.7007 30.6557 39.7353 30.7162L39.7982 30.8261L24.4566 30.8241L9.115 30.8221L18.4116 29.1798ZM77.2448 27.7912C74.9095 27.6415 73.5513 26.3117 73.1914 23.8227C73.0956 23.1605 73.0953 23.1434 73.0855 18.8449L73.076 14.6847H74.1095H75.143L75.1512 18.7087C75.1585 22.3354 75.1631 22.7606 75.1978 23.0157C75.3385 24.0512 75.6187 24.7475 76.0956 25.2472C76.4773 25.6472 76.9242 25.8814 77.5428 26.0057C77.8346 26.0643 78.6648 26.0645 78.9308 26.006C79.558 25.8679 80.0606 25.595 80.504 25.1518C81.0093 24.6466 81.3832 23.9299 81.5641 23.1194L81.6251 22.8462L81.6319 18.7882L81.6387 14.7301H82.6938H83.749V21.1095V27.4889H82.7047H81.6604V26.4767C81.6604 25.789 81.6529 25.4671 81.6369 25.4724C81.624 25.4767 81.5703 25.5588 81.5177 25.6547C81.1578 26.3111 80.5582 26.9113 79.9012 27.2729C79.1137 27.7063 78.3239 27.8604 77.2448 27.7912ZM100.948 27.7809C100.124 27.7189 99.2558 27.4355 98.5463 26.9966C97.051 26.0717 96.1663 24.5471 95.9072 22.4489C95.8176 21.7228 95.8068 20.7476 95.8816 20.1306C96.0488 18.7521 96.5904 17.3989 97.3618 16.4328C97.5596 16.1851 98.0082 15.7365 98.2558 15.5388C98.9246 15.0048 99.7068 14.6314 100.537 14.4497C101.021 14.3439 101.874 14.2942 102.388 14.3418C103.679 14.4615 104.863 15.0696 105.667 16.0267C106.485 16.9991 106.934 18.3579 106.992 20.0311C107.001 20.2933 107.003 20.753 106.996 21.0527L106.985 21.5976L102.461 21.6033L97.938 21.609V21.8109C97.938 22.4254 98.0874 23.1253 98.3457 23.7208C98.5684 24.2343 98.9518 24.795 99.2657 25.0664C99.9093 25.6228 100.697 25.9558 101.559 26.036C101.879 26.0657 102.693 26.0344 103.057 25.9784C104.097 25.8187 105.084 25.4112 105.882 24.813C105.976 24.7426 106.066 24.6769 106.082 24.6669C106.105 24.6523 106.111 24.8362 106.11 25.6091L106.109 26.5694L105.896 26.7016C104.993 27.2598 103.959 27.6182 102.864 27.7524C102.538 27.7924 101.339 27.8102 100.948 27.7809ZM104.885 19.6816C104.885 18.6523 104.451 17.5088 103.837 16.92C103.399 16.4998 102.87 16.243 102.24 16.1455C101.942 16.0994 101.314 16.1171 101 16.1806C100.337 16.3147 99.7876 16.6066 99.3087 17.0798C98.8047 17.5778 98.4268 18.1827 98.1891 18.8719C98.1037 19.1198 98.0037 19.5267 97.9727 19.753L97.9579 19.8608H101.421H104.885V19.6816ZM43.5252 27.4604C43.5305 27.4448 45.0666 23.4095 46.9387 18.4931L50.3425 9.55397H51.4362H52.5298L52.6206 9.78666C52.8979 10.4978 59.4348 27.4694 59.4348 27.4782C59.4348 27.4841 58.9112 27.4886 58.2713 27.4886L57.1078 27.4884L56.1656 24.98L55.2235 22.4716L51.43 22.4716L47.6364 22.4715L47.6035 22.5567C47.5853 22.6035 47.1828 23.7322 46.709 25.0649L45.8474 27.488L44.6815 27.4884C43.7586 27.4886 43.5176 27.4829 43.5252 27.4604ZM54.5311 20.5574C54.5311 20.5534 53.897 18.8345 53.1221 16.7377C51.6724 12.8149 51.5913 12.5788 51.4767 11.949C51.423 11.6537 51.3958 11.6455 51.364 11.915C51.3412 12.1076 51.2424 12.5386 51.1662 12.7777C51.1284 12.8963 50.4755 14.6881 49.7154 16.7596C48.9553 18.831 48.3333 20.5345 48.3333 20.5452C48.3333 20.5559 49.7278 20.5646 51.4322 20.5646C53.1366 20.5646 54.5311 20.5613 54.5311 20.5574ZM60.1385 27.1621V26.8354L63.9181 21.6398L67.6976 16.4441L64.2756 16.4328L60.8537 16.4214L60.8477 15.553L60.8418 14.6847H65.7912H70.7406V14.978V15.2713L66.9606 20.4953C64.8816 23.3685 63.1807 25.7241 63.1807 25.73C63.1807 25.7359 64.8612 25.7407 66.9152 25.7407H70.6497V26.6148V27.4888H65.3941H60.1385V27.1621ZM87.8733 27.4737C87.865 27.4654 87.8581 24.5844 87.8581 21.0716V14.6847H88.8911H89.924V16.0014C89.924 16.7256 89.9329 17.3182 89.9436 17.3182C89.9544 17.3182 90.0047 17.1996 90.0553 17.0547C90.2876 16.3908 90.6903 15.7704 91.2092 15.2774C91.6767 14.8332 92.2109 14.5676 92.8413 14.4659C93.0184 14.4374 93.1682 14.4319 93.5224 14.4411C93.9672 14.4527 94.1997 14.4852 94.4702 14.5737L94.5553 14.6015V15.6737V16.7459L94.3113 16.6237C93.8802 16.4079 93.4548 16.3225 92.9435 16.3491C92.6107 16.3664 92.3922 16.4092 92.1262 16.509C91.5788 16.7145 91.1347 17.0771 90.8244 17.5721C90.3753 18.2887 90.0549 19.2098 89.9605 20.0563C89.9435 20.2083 89.9335 21.4456 89.9295 23.8848L89.9236 27.4888H88.906C88.3463 27.4888 87.8816 27.482 87.8733 27.4737ZM0 27.4288C0 27.4207 2.2746 23.4722 5.05468 18.6543L10.1093 9.89448L16 4.95104C19.2398 2.23215 21.8994 0.0042805 21.91 0.000105719C21.9207 -0.00384489 21.8781 0.103423 21.8153 0.238592C21.7526 0.373761 18.8742 6.54759 15.4189 13.9582L9.13659 27.4321L4.5683 27.4378C2.05573 27.4409 0 27.4369 0 27.4288Z" fill="#31B5FF"/>
</svg>
