<svg width="25" height="18" viewBox="0 0 29 30" fill="none" xmlns="http://www.w3.org/2000/svg">
<path d="M16.1919 26.1071C20.6886 25.3127 24.4026 24.6554 24.4452 24.6463L24.5228 24.6299L20.2775 19.5802C17.9425 16.8029 16.0321 14.5198 16.0321 14.5066C16.0321 14.4817 20.4158 2.41007 20.4404 2.36709C20.4487 2.35276 23.4319 7.50319 27.6719 14.8521C31.6415 21.7323 34.9143 27.405 34.9447 27.4582L35 27.5548L21.508 27.5531L8.01607 27.5513L16.1919 26.1071ZM0 24.5671C0 24.56 2.00037 21.0875 4.44527 16.8505L8.89054 9.14677L14.071 4.79932C16.9202 2.40823 19.2591 0.448955 19.2685 0.445283C19.2779 0.441809 19.2404 0.536145 19.1852 0.655017C19.13 0.77389 16.5987 6.20339 13.56 12.7206L8.03506 24.57L4.01753 24.575C1.80789 24.5778 0 24.5742 0 24.5671Z" fill="#31B5FF"/>
</svg>
