<svg width="70" height="30" viewBox="0 0 130 73" fill="none" xmlns="http://www.w3.org/2000/svg">
<path d="M49.6053 31.9737L42.5 38.9368V18.9474H49.6053M61.4474 27.6158L57.7289 24.4421L54.3421 27.5684V9.47368H61.4474M73.2895 23.6842L66.1842 30.7895V0H73.2895M79.9447 23.2342L75.6579 18.9474H87.5V30.7895L83.2605 26.55L66.1842 43.4842L57.9658 36.3316L49.0132 45H42.5L57.8237 29.9842L66.1842 37.0421" fill="#FFAB3E"/>
<path d="M5.17148 51.16V62.64H10.6515L10.3315 65H2.23148V51.16H5.17148ZM16.2995 54.08C17.8861 54.08 19.1261 54.58 20.0195 55.58C20.9128 56.5667 21.3595 57.94 21.3595 59.7C21.3595 60.82 21.1528 61.8067 20.7395 62.66C20.3395 63.5 19.7528 64.1533 18.9795 64.62C18.2195 65.0867 17.3195 65.32 16.2795 65.32C14.6928 65.32 13.4461 64.8267 12.5395 63.84C11.6461 62.84 11.1995 61.46 11.1995 59.7C11.1995 58.58 11.3995 57.6 11.7995 56.76C12.2128 55.9067 12.7995 55.2467 13.5595 54.78C14.3328 54.3133 15.2461 54.08 16.2995 54.08ZM16.2995 56.2C15.5795 56.2 15.0395 56.4867 14.6795 57.06C14.3328 57.62 14.1595 58.5 14.1595 59.7C14.1595 60.9 14.3328 61.7867 14.6795 62.36C15.0395 62.92 15.5728 63.2 16.2795 63.2C16.9861 63.2 17.5128 62.92 17.8595 62.36C18.2195 61.7867 18.3995 60.9 18.3995 59.7C18.3995 58.5 18.2261 57.62 17.8795 57.06C17.5328 56.4867 17.0061 56.2 16.2995 56.2ZM31.4238 62.06C31.4238 62.4733 31.4838 62.78 31.6038 62.98C31.7238 63.1667 31.9238 63.3067 32.2038 63.4L31.6038 65.28C30.9772 65.2267 30.4638 65.08 30.0638 64.84C29.6772 64.6 29.3772 64.2267 29.1638 63.72C28.4705 64.7867 27.4105 65.32 25.9838 65.32C24.9305 65.32 24.0905 65.02 23.4638 64.42C22.8505 63.8067 22.5438 63.0133 22.5438 62.04C22.5438 60.88 22.9638 59.9933 23.8038 59.38C24.6438 58.7667 25.8505 58.46 27.4238 58.46H28.6438V57.94C28.6438 57.2867 28.4972 56.8333 28.2038 56.58C27.9105 56.3267 27.4238 56.2 26.7438 56.2C25.9972 56.2 25.0638 56.3867 23.9438 56.76L23.3038 54.86C24.6238 54.34 25.9305 54.08 27.2238 54.08C28.6638 54.08 29.7238 54.3933 30.4038 55.02C31.0838 55.6333 31.4238 56.5533 31.4238 57.78V62.06ZM26.7638 63.28C27.5638 63.28 28.1905 62.8867 28.6438 62.1V60.08H27.7038C26.1705 60.08 25.4038 60.6533 25.4038 61.8C25.4038 62.2667 25.5172 62.6333 25.7438 62.9C25.9838 63.1533 26.3238 63.28 26.7638 63.28ZM43.4413 50.18V65H40.9413L40.7813 63.7C40.0347 64.78 39.0213 65.32 37.7413 65.32C36.4347 65.32 35.4347 64.82 34.7413 63.82C34.0613 62.8067 33.7213 61.4333 33.7213 59.7C33.7213 58.6067 33.8947 57.64 34.2413 56.8C34.6013 55.9467 35.108 55.28 35.7613 54.8C36.4147 54.32 37.168 54.08 38.0213 54.08C39.008 54.08 39.868 54.4333 40.6013 55.14V49.86L43.4413 50.18ZM38.5813 63.2C38.9947 63.2 39.3613 63.1 39.6813 62.9C40.0013 62.6867 40.308 62.36 40.6013 61.92V57.18C40.3213 56.8467 40.0347 56.6 39.7413 56.44C39.4613 56.2667 39.1347 56.18 38.7613 56.18C38.108 56.18 37.5947 56.4667 37.2213 57.04C36.8613 57.6133 36.6813 58.5 36.6813 59.7C36.6813 60.9667 36.8413 61.8667 37.1613 62.4C37.4947 62.9333 37.968 63.2 38.5813 63.2ZM58.2568 57.68C59.1901 57.8533 59.9435 58.1933 60.5168 58.7C61.1035 59.1933 61.3968 59.9533 61.3968 60.98C61.3968 62.4333 60.8768 63.4667 59.8368 64.08C58.7968 64.6933 57.3501 65 55.4968 65H51.1768V51.16H54.9568C56.8501 51.16 58.2968 51.44 59.2968 52C60.2968 52.56 60.7968 53.46 60.7968 54.7C60.7968 55.5133 60.5501 56.1733 60.0568 56.68C59.5768 57.1733 58.9768 57.5067 58.2568 57.68ZM54.1168 53.28V56.78H55.5568C56.2768 56.78 56.8301 56.6333 57.2168 56.34C57.6035 56.0333 57.7968 55.5733 57.7968 54.96C57.7968 54.3467 57.5901 53.9133 57.1768 53.66C56.7635 53.4067 56.1168 53.28 55.2368 53.28H54.1168ZM55.5168 62.82C56.4368 62.82 57.1368 62.6867 57.6168 62.42C58.0968 62.14 58.3368 61.62 58.3368 60.86C58.3368 59.4733 57.4835 58.78 55.7768 58.78H54.1168V62.82H55.5168ZM71.5215 62.06C71.5215 62.4733 71.5815 62.78 71.7015 62.98C71.8215 63.1667 72.0215 63.3067 72.3015 63.4L71.7015 65.28C71.0748 65.2267 70.5615 65.08 70.1615 64.84C69.7748 64.6 69.4748 64.2267 69.2615 63.72C68.5682 64.7867 67.5082 65.32 66.0815 65.32C65.0282 65.32 64.1882 65.02 63.5615 64.42C62.9482 63.8067 62.6415 63.0133 62.6415 62.04C62.6415 60.88 63.0615 59.9933 63.9015 59.38C64.7415 58.7667 65.9482 58.46 67.5215 58.46H68.7415V57.94C68.7415 57.2867 68.5948 56.8333 68.3015 56.58C68.0082 56.3267 67.5215 56.2 66.8415 56.2C66.0948 56.2 65.1615 56.3867 64.0415 56.76L63.4015 54.86C64.7215 54.34 66.0282 54.08 67.3215 54.08C68.7615 54.08 69.8215 54.3933 70.5015 55.02C71.1815 55.6333 71.5215 56.5533 71.5215 57.78V62.06ZM66.8615 63.28C67.6615 63.28 68.2882 62.8867 68.7415 62.1V60.08H67.8015C66.2682 60.08 65.5015 60.6533 65.5015 61.8C65.5015 62.2667 65.6148 62.6333 65.8415 62.9C66.0815 63.1533 66.4215 63.28 66.8615 63.28ZM76.8037 65.32C75.937 65.32 75.2637 65.0733 74.7837 64.58C74.3037 64.0733 74.0637 63.36 74.0637 62.44V50.18L76.9037 49.86V62.36C76.9037 62.8267 77.097 63.06 77.4837 63.06C77.697 63.06 77.8837 63.02 78.0437 62.94L78.6237 64.96C78.077 65.2 77.4703 65.32 76.8037 65.32ZM88.084 62.06C88.084 62.4733 88.144 62.78 88.264 62.98C88.384 63.1667 88.584 63.3067 88.864 63.4L88.264 65.28C87.6373 65.2267 87.124 65.08 86.724 64.84C86.3373 64.6 86.0373 64.2267 85.824 63.72C85.1307 64.7867 84.0707 65.32 82.644 65.32C81.5907 65.32 80.7507 65.02 80.124 64.42C79.5107 63.8067 79.204 63.0133 79.204 62.04C79.204 60.88 79.624 59.9933 80.464 59.38C81.304 58.7667 82.5107 58.46 84.084 58.46H85.304V57.94C85.304 57.2867 85.1573 56.8333 84.864 56.58C84.5707 56.3267 84.084 56.2 83.404 56.2C82.6573 56.2 81.724 56.3867 80.604 56.76L79.964 54.86C81.284 54.34 82.5907 54.08 83.884 54.08C85.324 54.08 86.384 54.3933 87.064 55.02C87.744 55.6333 88.084 56.5533 88.084 57.78V62.06ZM83.424 63.28C84.224 63.28 84.8507 62.8867 85.304 62.1V60.08H84.364C82.8307 60.08 82.064 60.6533 82.064 61.8C82.064 62.2667 82.1773 62.6333 82.404 62.9C82.644 63.1533 82.984 63.28 83.424 63.28ZM96.8415 54.08C97.7748 54.08 98.5015 54.3667 99.0215 54.94C99.5415 55.5 99.8015 56.28 99.8015 57.28V65H96.9615V57.76C96.9615 57.1867 96.8615 56.7867 96.6615 56.56C96.4748 56.32 96.1882 56.2 95.8015 56.2C95.4015 56.2 95.0348 56.3267 94.7015 56.58C94.3815 56.82 94.0682 57.1867 93.7615 57.68V65H90.9215V54.4H93.3815L93.6015 55.74C94.0415 55.1933 94.5215 54.78 95.0415 54.5C95.5748 54.22 96.1748 54.08 96.8415 54.08ZM106.924 54.08C107.63 54.08 108.264 54.1867 108.824 54.4C109.397 54.6 109.937 54.92 110.444 55.36L109.204 57.04C108.857 56.7733 108.517 56.58 108.184 56.46C107.864 56.34 107.51 56.28 107.124 56.28C105.617 56.28 104.864 57.44 104.864 59.76C104.864 60.9333 105.057 61.7733 105.444 62.28C105.83 62.7867 106.384 63.04 107.104 63.04C107.477 63.04 107.817 62.9867 108.124 62.88C108.43 62.76 108.79 62.5667 109.204 62.3L110.444 64.08C109.43 64.9067 108.27 65.32 106.964 65.32C105.924 65.32 105.017 65.0933 104.244 64.64C103.484 64.1867 102.897 63.5467 102.484 62.72C102.07 61.88 101.864 60.9 101.864 59.78C101.864 58.66 102.07 57.6733 102.484 56.82C102.897 55.9533 103.484 55.28 104.244 54.8C105.017 54.32 105.91 54.08 106.924 54.08ZM120.624 59.46C120.624 59.5933 120.604 59.96 120.564 60.56H113.944C114.037 61.52 114.297 62.2 114.724 62.6C115.15 63 115.73 63.2 116.464 63.2C116.917 63.2 117.344 63.1267 117.744 62.98C118.144 62.8333 118.577 62.6 119.044 62.28L120.224 63.88C119.037 64.84 117.697 65.32 116.204 65.32C114.537 65.32 113.257 64.82 112.364 63.82C111.47 62.82 111.024 61.4667 111.024 59.76C111.024 58.68 111.21 57.7133 111.584 56.86C111.97 55.9933 112.524 55.3133 113.244 54.82C113.977 54.3267 114.844 54.08 115.844 54.08C117.35 54.08 118.524 54.5533 119.364 55.5C120.204 56.4467 120.624 57.7667 120.624 59.46ZM117.804 58.66C117.804 56.9 117.17 56.02 115.904 56.02C115.317 56.02 114.857 56.24 114.524 56.68C114.204 57.1067 114.01 57.8067 113.944 58.78H117.804V58.66ZM128.159 54.1C128.479 54.1 128.833 54.1533 129.219 54.26L128.739 57C128.366 56.9067 128.053 56.86 127.799 56.86C127.173 56.86 126.686 57.08 126.339 57.52C125.993 57.96 125.719 58.6267 125.519 59.52V65H122.679V54.4H125.139L125.399 56.46C125.653 55.7133 126.019 55.1333 126.499 54.72C126.993 54.3067 127.546 54.1 128.159 54.1Z" fill="white"/>
</svg>
