<svg width="30" height="30" viewBox="0 0 56 50" fill="none" xmlns="http://www.w3.org/2000/svg">
<path fill-rule="evenodd" clip-rule="evenodd" d="M3.3583 26.1745C4.05796 39.2442 14.9123 49.6631 28.1533 49.6631C41.846 49.6631 52.9856 38.5235 52.9856 24.8322C52.9856 11.1396 41.846 0 28.1533 0C20.9573 0 14.4661 3.07732 9.92676 7.98522L8.84092 8.49278C8.86299 8.54025 8.94017 8.70243 9.07583 8.95412C5.75312 12.94 3.65324 17.9793 3.3583 23.4899H3V26.1745H3.3583ZM13.4317 41.364C16.3725 43.9857 20.0149 45.8363 24.0382 46.5953C22.1401 44.339 19.6235 40.8673 17.7692 36.5425C15.5359 38.276 14.1292 40.2345 13.4317 41.364ZM26.8111 33.0881V45.6766C24.967 43.5881 22.0541 39.8296 20.0715 35.0356C21.9182 34.0331 24.1529 33.278 26.8111 33.0881ZM26.8111 30.3962C23.7955 30.5777 21.2521 31.3745 19.1368 32.4593C18.5221 30.4888 18.0955 28.3819 17.9699 26.1745H26.8111V30.3962ZM6.04723 26.1745H15.2795C15.4178 28.9247 15.9708 31.5177 16.7648 33.9042C14.1824 35.7455 12.4691 37.9152 11.4895 39.4044C8.35314 35.8223 6.3505 31.2238 6.04723 26.1745ZM6.04723 23.4899H15.2802C15.4045 21.0699 15.8574 18.7834 16.5177 16.6597C13.7834 15.0439 11.8534 12.9785 10.6116 11.3272C7.98156 14.7358 6.32116 18.9291 6.04723 23.4899ZM18.973 17.8788C18.4479 19.646 18.0863 21.5241 17.971 23.4899H26.8111V19.3054C26.7066 19.3068 26.6015 19.3075 26.496 19.3075C23.5939 19.3075 21.0977 18.7461 18.973 17.8788ZM24.5742 2.97358C22.4748 5.28504 19.4755 9.13649 17.4493 14.0752C15.0399 12.5536 13.4027 10.6519 12.4217 9.25825C15.6418 6.0054 19.8604 3.74275 24.5742 2.97358ZM19.8651 15.3331C21.8263 10.4761 24.8451 6.67883 26.8111 4.53354V16.6191C26.7071 16.6208 26.6025 16.6216 26.4973 16.6216C23.9297 16.6216 21.7294 16.1127 19.8651 15.3331ZM29.4956 45.6714C31.3388 43.5798 34.2494 39.818 36.2322 35.0295C34.4009 34.0355 32.1705 33.2845 29.4956 33.0907V45.6714ZM38.5367 36.5454C36.6822 40.8689 34.1661 44.3396 32.2682 46.5953C36.2617 45.8421 39.8799 44.0134 42.8095 41.4227C42.1784 40.3423 40.8102 38.3283 38.5367 36.5454ZM39.5331 33.932C40.3322 31.5378 40.889 28.9354 41.028 26.1745H50.2608C49.9556 31.2552 47.9296 35.8795 44.7593 39.4711C43.8243 38.0088 42.1347 35.8058 39.5331 33.932ZM38.3374 26.1745C38.2108 28.3865 37.7806 30.499 37.1613 32.4752C35.0573 31.389 32.5182 30.5875 29.4956 30.3993V26.1745H38.3374ZM41.0274 23.4899H50.2608C49.9246 17.8935 47.5003 12.8506 43.7588 9.13157C43.1857 10.1894 41.7185 12.5742 39.1337 14.7694C40.1447 17.4059 40.8654 20.3344 41.0274 23.4899ZM36.8613 16.4326C37.64 18.6095 38.1894 20.9782 38.3366 23.4899H29.4956V19.0998C32.4417 18.6814 34.879 17.6707 36.8613 16.4326ZM37.9958 12.1496C40.4714 9.84926 41.5743 7.51339 41.5953 7.46728L42.2631 7.77362C39.3008 5.31911 35.6913 3.61979 31.733 2.97371C33.5513 4.97573 36.0443 8.13233 37.9958 12.1496ZM29.4956 4.53257C31.261 6.45868 33.8749 9.71622 35.81 13.8767C34.1221 14.9992 32.0315 15.9457 29.4956 16.3749V4.53257Z" fill="white" fill-opacity="0.75"/>
<rect y="15.9632" width="56" height="19.3536" rx="3.38255" fill="url(#paint0_linear_1_3982)"/>
<path d="M13.3366 29.5824V26.256H11.007V29.5824H9.17017V21.8208H11.007V24.8224H13.3366V21.8208H15.1734V29.5824H13.3366Z" fill="white"/>
<path d="M21.9383 21.8208L21.7591 23.232H19.8439V29.5824H18.0071V23.232H16.0023V21.8208H21.9383Z" fill="white"/>
<path d="M27.9868 21.8208L27.8076 23.232H25.8924V29.5824H24.0556V23.232H22.0508V21.8208H27.9868Z" fill="white"/>
<path d="M31.2352 21.8208C32.2581 21.8208 33.0533 22.0336 33.6208 22.4592C34.1883 22.8848 34.472 23.5157 34.472 24.352C34.472 25.2256 34.192 25.8864 33.632 26.3344C33.0795 26.7749 32.3365 26.9952 31.4032 26.9952H30.5632V29.5824H28.7264V21.8208H31.2352ZM31.2464 25.6736C31.6795 25.6736 32.008 25.5728 32.232 25.3712C32.4635 25.1621 32.5792 24.8224 32.5792 24.352C32.5792 23.5381 32.1237 23.1312 31.2128 23.1312H30.5632V25.6736H31.2464Z" fill="white"/>
<path d="M36.0033 27.7456C36.2796 27.7456 36.5148 27.8464 36.709 28.048C36.9106 28.2421 37.0114 28.4773 37.0114 28.7536C37.0114 29.0373 36.9106 29.28 36.709 29.4816C36.5148 29.6757 36.2796 29.7728 36.0033 29.7728C35.7196 29.7728 35.4769 29.6757 35.2754 29.4816C35.0812 29.28 34.9841 29.0373 34.9841 28.7536C34.9841 28.4773 35.0812 28.2421 35.2754 28.048C35.4769 27.8464 35.7196 27.7456 36.0033 27.7456ZM36.0033 23.8704C36.2796 23.8704 36.5148 23.9712 36.709 24.1728C36.9106 24.3669 37.0114 24.6021 37.0114 24.8784C37.0114 25.1621 36.9106 25.4048 36.709 25.6064C36.5148 25.8005 36.2796 25.8976 36.0033 25.8976C35.7196 25.8976 35.4769 25.8005 35.2754 25.6064C35.0812 25.4048 34.9841 25.1621 34.9841 24.8784C34.9841 24.6021 35.0812 24.3669 35.2754 24.1728C35.4769 23.9712 35.7196 23.8704 36.0033 23.8704Z" fill="white"/>
<path d="M40.8108 20.4432L42.3564 20.7904L39.7244 30.8368L38.1676 30.4784L40.8108 20.4432Z" fill="white"/>
<path d="M45.2842 20.4432L46.8298 20.7904L44.1978 30.8368L42.641 30.4784L45.2842 20.4432Z" fill="white"/>
<defs>
<linearGradient id="paint0_linear_1_3982" x1="28" y1="15.9632" x2="28" y2="35.3168" gradientUnits="userSpaceOnUse">
<stop stop-color="#199F49"/>
<stop offset="1" stop-color="#12813A"/>
</linearGradient>
</defs>
</svg>
