<svg width="151" height="80" viewBox="0 0 151 145" fill="none" xmlns="http://www.w3.org/2000/svg">
<path fill-rule="evenodd" clip-rule="evenodd" d="M98.1453 143.865C89.2476 146.678 79.8567 143.091 74.9392 135.683C69.8862 143.009 60.4207 146.428 51.5702 143.444C42.7728 140.479 37.321 132.111 37.6618 123.28C29.3066 126.15 19.7264 123.345 14.3498 115.781C9.09641 108.39 9.45308 98.702 14.5629 91.7813C6.39612 89.0962 0.5 81.4105 0.5 72.3482C0.5 63.077 6.67104 55.2466 15.1311 52.7375C9.75409 45.731 9.36525 35.7593 14.8231 28.2562C20.2748 20.7616 29.8662 18.0587 38.1816 21.0009C37.946 12.1993 43.4534 3.91801 52.244 1.02841C61.1557 -1.90099 70.6391 1.63215 75.6195 9.06289C80.6112 1.67544 90.0659 -1.82933 98.9523 1.09175C107.77 3.99026 113.284 12.3138 113.012 21.1458C121.338 18.2338 130.92 20.9717 136.345 28.4863C141.822 36.0748 141.342 46.1534 135.805 53.1483C144.356 55.6534 150.572 63.5862 150.499 72.9357C150.428 82.185 144.226 89.9528 135.777 92.4157C141.071 99.4588 141.375 109.408 135.873 116.856C130.36 124.32 120.732 126.95 112.431 123.929C112.622 132.779 107.01 141.062 98.1453 143.865Z" fill="#199F49"/>
<rect x="32.3154" y="75.6592" width="15.1502" height="42.5522" rx="7.57511" transform="rotate(-45 32.3154 75.6592)" fill="#F3F3F3"/>
<rect x="107.604" y="39.3491" width="15.1502" height="78.6206" rx="7.57511" transform="rotate(45 107.604 39.3491)" fill="#F3F3F3"/>
</svg>
