<svg width="30" height="30" viewBox="0 0 52 52" fill="none" xmlns="http://www.w3.org/2000/svg">
<path d="M26 1C12.2146 1 1 12.2146 1 26C1 39.7854 12.2146 51 26 51C39.7833 51 51 39.7854 51 26C51 12.2146 39.7833 1 26 1ZM26 3.38333C38.4896 3.38333 48.6167 13.5083 48.6167 26C48.6167 38.4896 38.4917 48.6167 26 48.6167C13.5083 48.6167 3.38333 38.4917 3.38333 26C3.38333 13.5083 13.5083 3.38333 26 3.38333ZM18.4375 13.225C18.1437 13.2192 17.8498 13.2227 17.5562 13.2354C15.5083 13.3521 14.2792 14.3125 13.9417 16.3021C13.7021 17.6875 13.7417 19.1104 13.6437 20.5042C13.6167 21.2333 13.5396 21.9562 13.4042 22.6667C13.125 23.9354 12.5771 24.3292 11.2875 24.3958C11.1168 24.4171 10.9472 24.4463 10.7792 24.4833V27.5312C13.125 27.6458 13.4417 28.4729 13.6333 30.925C13.7021 31.8188 13.6062 32.7125 13.6646 33.6062C13.7021 34.4521 13.8167 35.2896 13.9896 36.1062C14.5292 38.3458 16.7125 39.0958 19.3542 38.6437V35.9708C18.9312 35.9708 18.5562 35.9812 18.1917 35.9708C17.2958 35.9437 16.9604 35.7208 16.875 34.8562C16.7583 33.7417 16.7875 32.6062 16.7188 31.4812C16.5854 29.3958 16.3542 27.3396 14.3167 26.0125C15.3646 25.2417 16.125 24.3208 16.3646 23.1C16.5375 22.2458 16.6437 21.3896 16.7104 20.5229C16.7687 19.6583 16.6625 18.7729 16.7396 17.9188C16.8646 16.5333 16.9521 15.9667 18.6146 16.0229C18.8646 16.0229 19.1042 15.9875 19.3833 15.9667V13.2375C19.05 13.2375 18.7375 13.2292 18.4375 13.225ZM34.2562 13.2437C33.689 13.231 33.1218 13.2729 32.5625 13.3687V16.0229C33.0729 16.0229 33.4667 16.0229 33.8604 16.0333C34.5437 16.0417 35.0625 16.3042 35.1312 17.0625C35.1979 17.7542 35.1958 18.4562 35.2646 19.1583C35.4 20.5521 35.475 21.9646 35.7167 23.3396C35.9292 24.4729 36.7062 25.3187 37.6771 26.0125C35.975 27.1562 35.475 28.7896 35.3896 30.6271C35.3417 31.8854 35.3125 33.1542 35.2458 34.4229C35.1875 35.5771 34.7833 35.9521 33.6208 35.9813C33.2937 35.9896 32.975 36.0187 32.6125 36.0396V38.7583C33.2937 38.7583 33.9187 38.7979 34.5437 38.7583C36.4854 38.6437 37.6583 37.7021 38.0438 35.8167C38.2062 34.7792 38.3021 33.7333 38.3312 32.6833C38.3979 31.7229 38.3896 30.7521 38.4854 29.8C38.6292 28.3104 39.3125 27.6958 40.8021 27.5979C40.9433 27.5806 41.0822 27.5485 41.2167 27.5021V24.4542C40.9667 24.425 40.7917 24.3979 40.6104 24.3875C39.4937 24.3396 38.9354 23.9646 38.6583 22.9083C38.4856 22.2307 38.3795 21.5378 38.3417 20.8396C38.2646 19.5521 38.2729 18.2542 38.1875 16.9646C38.0208 14.4812 36.5333 13.3125 34.2562 13.2437ZM19.9021 24.2437C19.4504 24.2432 19.0158 24.4166 18.6885 24.7278C18.3612 25.0391 18.1662 25.4644 18.1439 25.9155C18.1217 26.3667 18.2739 26.8091 18.5691 27.151C18.8642 27.4929 19.2796 27.7082 19.7292 27.7521H19.8438C20.3015 27.7788 20.7512 27.6227 21.0938 27.3179C21.4364 27.0132 21.644 26.5848 21.6708 26.1271V26.0312C21.6781 25.5651 21.5001 25.115 21.1759 24.7799C20.8517 24.4448 20.4078 24.252 19.9417 24.2437H19.9021ZM25.9667 24.2437C25.5209 24.2291 25.0875 24.3921 24.7617 24.6967C24.4359 25.0014 24.2444 25.423 24.2292 25.8687C24.2292 25.925 24.2292 25.9729 24.2375 26.0312C24.2375 27.0792 24.95 27.7521 26.0271 27.7521C27.0833 27.7521 27.7479 27.0604 27.7479 25.975C27.7375 24.9271 27.0354 24.2333 25.9667 24.2437ZM32.1396 24.2437C31.6677 24.2353 31.2115 24.4132 30.8699 24.7388C30.5283 25.0644 30.3288 25.5116 30.3146 25.9833C30.3146 26.9625 31.1021 27.7521 32.0833 27.7521H32.1021C32.9875 27.9062 33.8792 27.05 33.9375 26.0229C33.9854 25.0708 33.1208 24.2437 32.1396 24.2437Z" fill="#12EB3D" stroke="#12EB3D"/>
</svg>
