<svg
    viewBox="0 0 800 224"
    fill="none"
    xmlns="http://www.w3.org/2000/svg"
    id="svg-96459862_2233"
>
    <path
        d="M377 178C379.16 178 381 176.209 381 174V81C381 81 386 90 395 105L434 172C435.785 175.74 439.744 178 443 178H470V28H443C441.202 28 439 29.4941 439 32V126L421 94L385 33C383.248 29.8912 379.479 28 376 28H350V178H377Z"
        fill="white"
    ></path>
    <path
        d="M726 70H739C742.314 70 745 67.3137 745 64V38H773V70H800V94H773V137C773 147.5 778.057 152 787 152H800V178H783C759.948 178 745 163.071 745 138V94H726V70Z"
        fill="white"
    ></path>
    <path
        d="M591 70V132C591 146.004 585.742 157.809 578 166C570.258 174.191 559.566 178 545 178C530.434 178 518.742 174.191 511 166C503.389 157.809 498 146.004 498 132V70H514C517.412 70 520.769 70.622 523 73C525.231 75.2459 526 76.5652 526 80V132C526 140.059 526.457 145.037 530 149C533.543 152.831 537.914 154 545 154C552.217 154 555.457 152.831 559 149C562.543 145.037 563 140.059 563 132V80C563 76.5652 563.769 74.378 566 72C567.96 69.9107 570.028 69.9599 573 70C573.411 70.0055 574.586 70 575 70H591Z"
        fill="white"
    ></path>
    <path
        d="M676 122L710 70H684C680.723 70 677.812 71.1758 676 74L660 98L645 75C643.188 72.1758 639.277 70 636 70H611L645 121L608 178H634C637.25 178 640.182 174.787 642 172L660 145L679 173C680.818 175.787 683.75 178 687 178H713L676 122Z"
        fill="white"
    ></path>
    <path
        d="M151.2 181H251.1C254.288 181 257.339 179.88 260.1 178.3C262.861 176.72 265.707 174.737 267.3 172C268.893 169.263 270.002 166.159 270 162.999C269.998 159.839 268.896 156.736 267.3 154.001L199.8 37.9C198.207 35.164 196.26 33.1797 193.5 31.6C190.74 30.0203 186.788 28.9 183.6 28.9C180.412 28.9 177.36 30.0203 174.6 31.6C171.84 33.1797 169.893 35.164 168.3 37.9L151.2 67.6L117 9.99788C115.405 7.26206 113.461 4.37942 110.7 2.8C107.939 1.22058 104.888 1 101.7 1C98.5122 1 95.4612 1.22058 92.7 2.8C89.9391 4.37942 87.0945 7.26206 85.5 9.99788L1.80001 154.001C0.204286 156.736 0.00139394 159.839 6.84724e-06 162.999C-0.00138024 166.159 0.206688 169.263 1.80001 172C3.39332 174.736 6.23921 176.72 9 178.3C11.7608 179.88 14.812 181 18 181H81C105.963 181 124.132 169.802 136.8 148.6L167.4 95.5L183.6 67.6L233.1 152.2H167.4L151.2 181ZM80.1 152.2H36L101.7 38.8L135 95.5L112.942 133.953C104.53 147.709 94.9392 152.2 80.1 152.2Z"
        fill="#00DC82"
    ></path>
</svg>