<?xml version="1.0" encoding="UTF-8" standalone="no"?>
<!-- Created with Inkscape (http://www.inkscape.org/) -->

<svg
   width="510mm"
   height="100mm"
   viewBox="0 0 510 100"
   version="1.1"
   id="svg1"
   inkscape:version="1.3 (0e150ed, 2023-07-21)"
   sodipodi:docname="api_flow_logo.svg"
   xmlns:inkscape="http://www.inkscape.org/namespaces/inkscape"
   xmlns:sodipodi="http://sodipodi.sourceforge.net/DTD/sodipodi-0.dtd"
   xmlns="http://www.w3.org/2000/svg"
   xmlns:svg="http://www.w3.org/2000/svg">
  <sodipodi:namedview
     id="namedview1"
     pagecolor="#ffffff"
     bordercolor="#000000"
     borderopacity="0.25"
     inkscape:showpageshadow="2"
     inkscape:pageopacity="0.0"
     inkscape:pagecheckerboard="0"
     inkscape:deskcolor="#d1d1d1"
     inkscape:document-units="mm"
     inkscape:zoom="0.2102413"
     inkscape:cx="813.35114"
     inkscape:cy="744.38276"
     inkscape:window-width="1424"
     inkscape:window-height="678"
     inkscape:window-x="121"
     inkscape:window-y="364"
     inkscape:window-maximized="0"
     inkscape:current-layer="layer1">
    <inkscape:page
       x="0"
       y="0"
       width="510"
       height="100"
       id="page1"
       margin="0"
       bleed="0" />
  </sodipodi:namedview>
  <defs
     id="defs1" />
  <g
     inkscape:label="Layer 1"
     inkscape:groupmode="layer"
     id="layer1"
     transform="translate(-198.83898,-8.809322)">
    <g
       id="group-R5"
       transform="matrix(0.28248367,0,0,0.3094427,49.448605,-123.52402)">
      <path
         id="path4"
         d="m 6270.06,6444.94 -304.3,-364.5 -192.5,-230.5 h -1503.6 v 335.95 c 0,143.07 115.98,259.05 259.05,259.05 h 1741.35"
         style="fill:#75389f;fill-opacity:1;fill-rule:nonzero;stroke:none"
         transform="matrix(0.13333333,0,0,-0.13333333,0,1333.3333)" />
      <path
         id="path7"
         d="m 5580.59,5849.89 -484.86,-580.8 -11.9,-14.23 h -814.17 v 595.03 h 1310.93"
         style="fill:#ee2128;fill-opacity:1;fill-rule:nonzero;stroke:none"
         transform="matrix(0.13333333,0,0,-0.13333333,0,1333.3333)" />
      <path
         id="path10"
         d="m 4942.16,5254.86 -0.86,-1.01 -484.06,-579.79 -11.9,-14.22 h -84.39 c -50.42,0 -91.29,40.87 -91.29,91.29 v 503.73 h 672.5"
         style="fill:#f9a630;fill-opacity:1;fill-rule:nonzero;stroke:none"
         transform="matrix(0.13333333,0,0,-0.13333333,0,1333.3333)" />
    </g>
    <text
       xml:space="preserve"
       style="font-weight:bold;font-size:69.64px;font-family:sans-serif;-inkscape-font-specification:'sans-serif Bold';fill:#f9f9f9;stroke:#000000;stroke-width:0;stroke-opacity:0.598315"
       x="290.38531"
       y="87.858513"
       id="text2"
       transform="scale(1.0268979,0.97380664)"><tspan
         sodipodi:role="line"
         id="tspan2"
         x="290.38531"
         y="87.858513"
         style="font-size:69.64px;fill:#f9f9f9;stroke-width:0">API FLOW</tspan></text>
  </g>
</svg>
