<?xml version="1.0" encoding="UTF-8" standalone="no"?>
<!-- Created with Inkscape (http://www.inkscape.org/) -->

<svg
   version="1.1"
   id="svg1"
   width="303.84149"
   height="282.43832"
   viewBox="0 0 303.8415 282.43833"
   sodipodi:docname="logo.svg"
   inkscape:version="1.3 (0e150ed, 2023-07-21)"
   xmlns:inkscape="http://www.inkscape.org/namespaces/inkscape"
   xmlns:sodipodi="http://sodipodi.sourceforge.net/DTD/sodipodi-0.dtd"
   xmlns="http://www.w3.org/2000/svg"
   xmlns:svg="http://www.w3.org/2000/svg">
  <sodipodi:namedview
     id="namedview1"
     pagecolor="#ffffff"
     bordercolor="#000000"
     borderopacity="0.25"
     inkscape:showpageshadow="2"
     inkscape:pageopacity="0.0"
     inkscape:pagecheckerboard="0"
     inkscape:deskcolor="#d1d1d1"
     inkscape:zoom="0.83558066"
     inkscape:cx="151.99012"
     inkscape:cy="140.62078"
     inkscape:window-width="1688"
     inkscape:window-height="834"
     inkscape:window-x="0"
     inkscape:window-y="200"
     inkscape:window-maximized="0"
     inkscape:current-layer="g1" />
  <defs
     id="defs1">
    <rect
       x="96.938577"
       y="75.396671"
       width="13.164498"
       height="144.80948"
       id="rect1" />
    <radialGradient
       fx="0"
       fy="0"
       cx="0"
       cy="0"
       r="1"
       gradientUnits="userSpaceOnUse"
       gradientTransform="matrix(5000,0,0,-5000,5000,5000)"
       spreadMethod="pad"
       id="radialGradient3">
      <stop
         style="stop-opacity:1;stop-color:#ffffff"
         offset="0"
         id="stop2" />
      <stop
         style="stop-opacity:1;stop-color:#edf9fe"
         offset="1"
         id="stop3" />
    </radialGradient>
    <clipPath
       clipPathUnits="userSpaceOnUse"
       id="clipPath3">
      <path
         d="M 10000,0 H 0 V 10000 H 10000 V 0 M 5000,4438.5 c -764.53,0 -1384.3,-61.06 -1384.3,-136.38 0,-75.32 619.77,-136.38 1384.3,-136.38 764.53,0 1384.3,61.06 1384.3,136.38 0,75.32 -619.77,136.38 -1384.3,136.38 m -730.34,312.63 v 0 c 0,-50.42 40.87,-91.29 91.29,-91.29 h 84.39 l 11.9,14.22 484.06,579.79 0.86,1.01 h 141.67 l 11.9,14.23 484.86,580.8 h 192.67 l 11.9,14.22 h -0.06 l 180.66,216.33 304.3,364.5 H 4528.71 c -143.07,0 -259.05,-115.98 -259.05,-259.05 v -335.95 -0.05 -595.03 -503.73 0"
         transform="translate(0,-2.5000001e-4)"
         id="path3" />
    </clipPath>
    <linearGradient
       x1="0"
       y1="0"
       x2="1"
       y2="0"
       gradientUnits="userSpaceOnUse"
       gradientTransform="matrix(2000.4,0,0,-2000.4,4269.66,6147.44)"
       spreadMethod="pad"
       id="linearGradient6">
      <stop
         style="stop-opacity:1;stop-color:#75379e"
         offset="0"
         id="stop5" />
      <stop
         style="stop-opacity:1;stop-color:#4e2779"
         offset="1"
         id="stop6" />
    </linearGradient>
    <clipPath
       clipPathUnits="userSpaceOnUse"
       id="clipPath6">
      <path
         d="m 4269.66,5849.94 v 0 335.95 c 0,143.07 115.98,259.05 259.05,259.05 h 1741.35 l -304.3,-364.5 -180.66,-216.33 H 4269.66 v -14.17"
         transform="translate(0,-2.5000001e-4)"
         id="path6" />
    </clipPath>
    <linearGradient
       x1="0"
       y1="0"
       x2="1"
       y2="0"
       gradientUnits="userSpaceOnUse"
       gradientTransform="matrix(1310.92,0,0,-1310.92,4269.66,5552.38)"
       spreadMethod="pad"
       id="linearGradient9">
      <stop
         style="stop-opacity:1;stop-color:#ee2228"
         offset="0"
         id="stop8" />
      <stop
         style="stop-opacity:1;stop-color:#a41c21"
         offset="1"
         id="stop9" />
    </linearGradient>
    <clipPath
       clipPathUnits="userSpaceOnUse"
       id="clipPath9">
      <path
         d="m 4269.66,5254.86 v 0 595.03 -112.49 l 1310.93,112.49 -484.86,-580.8 h -826.07 v -14.23"
         transform="translate(0,-2.5000001e-4)"
         id="path9" />
    </clipPath>
    <linearGradient
       x1="0"
       y1="0"
       x2="1"
       y2="0"
       gradientUnits="userSpaceOnUse"
       gradientTransform="matrix(672.491,0,0,-672.491,4269.66,4957.35)"
       spreadMethod="pad"
       id="linearGradient12">
      <stop
         style="stop-opacity:1;stop-color:#f9a630"
         offset="0"
         id="stop11" />
      <stop
         style="stop-opacity:1;stop-color:#9f6e21"
         offset="1"
         id="stop12" />
    </linearGradient>
    <clipPath
       clipPathUnits="userSpaceOnUse"
       id="clipPath12">
      <path
         d="m 4445.34,4659.84 h -84.39 c -50.42,0 -91.29,40.87 -91.29,91.29 v 503.73 -58.65 l 671.64,57.64 -484.06,-579.79 -11.9,-14.22"
         transform="translate(0,-2.5000001e-4)"
         id="path12" />
    </clipPath>
    <clipPath
       clipPathUnits="userSpaceOnUse"
       id="clipPath13">
      <path
         d="m 4269.66,5737.4 v 112.49 H 5580.59 L 4269.66,5737.4"
         transform="matrix(7.5403407e-4,0,0,-0.00768049,-3.2136178,44.993088)"
         id="path13" />
    </clipPath>
    <clipPath
       clipPathUnits="userSpaceOnUse"
       id="clipPath14">
      <path
         d="m 4269.66,5196.21 v 58.65 h 672.5 l -0.86,-1.01 -671.64,-57.64"
         transform="matrix(0.00145518,0,0,-0.01366116,-6.2018335,71.900079)"
         id="path14" />
    </clipPath>
    <clipPath
       clipPathUnits="userSpaceOnUse"
       id="clipPath15">
      <path
         d="m 5083.83,5254.86 h -814.17 v 14.23 h 826.07 l -11.9,-14.23"
         transform="matrix(0.00118878,0,0,-0.03424634,-5.0664527,180.72137)"
         id="path15" />
    </clipPath>
    <clipPath
       clipPathUnits="userSpaceOnUse"
       id="clipPath16">
      <path
         d="m 5773.26,5849.89 h -1503.6 v 0.05 h 1503.6 l 11.84,14.17 h 0.06 l -11.9,-14.22"
         transform="matrix(6.5265632e-4,0,0,-0.03424634,-2.781556,201.09794)"
         id="path16" />
    </clipPath>
    <clipPath
       clipPathUnits="userSpaceOnUse"
       id="clipPath17">
      <path
         d="m 5773.26,5849.94 h -1503.6 v 14.17 H 5785.1 l -11.84,-14.17"
         transform="matrix(6.5265632e-4,0,0,-0.03424634,-2.781556,201.09794)"
         id="path17" />
    </clipPath>
    <clipPath
       clipPathUnits="userSpaceOnUse"
       id="clipPath18">
      <path
         d="m 5000,4165.74 c -764.53,0 -1384.3,61.06 -1384.3,136.38 0,75.32 619.77,136.38 1384.3,136.38 764.53,0 1384.3,-61.06 1384.3,-136.38 0,-75.32 -619.77,-136.38 -1384.3,-136.38"
         transform="matrix(3.5904064e-4,0,0,-0.00345781,-1.2957418,15.377247)"
         id="path18" />
    </clipPath>
  </defs>
  <g
     id="g1"
     transform="translate(-545.78044,-447.32594)">
    <g
       id="group-R5"
       transform="matrix(0.14747003,0,0,0.17035119,485.33508,490.19874)">
      <path
         id="path4"
         d="m 6270.06,6444.94 -304.3,-364.5 -192.5,-230.5 h -1503.6 v 335.95 c 0,143.07 115.98,259.05 259.05,259.05 h 1741.35"
         style="fill:#75389f;fill-opacity:1;fill-rule:nonzero;stroke:none"
         transform="matrix(0.13333333,0,0,-0.13333333,0,1333.3333)" />
      <path
         id="path7"
         d="m 5580.59,5849.89 -484.86,-580.8 -11.9,-14.23 h -814.17 v 595.03 h 1310.93"
         style="fill:#ee2128;fill-opacity:1;fill-rule:nonzero;stroke:none"
         transform="matrix(0.13333333,0,0,-0.13333333,0,1333.3333)" />
      <path
         id="path10"
         d="m 4942.16,5254.86 -0.86,-1.01 -484.06,-579.79 -11.9,-14.22 h -84.39 c -50.42,0 -91.29,40.87 -91.29,91.29 v 503.73 h 672.5"
         style="fill:#f9a630;fill-opacity:1;fill-rule:nonzero;stroke:none"
         transform="matrix(0.13333333,0,0,-0.13333333,0,1333.3333)" />
    </g>
    <text
       xml:space="preserve"
       transform="translate(545.78044,447.32594)"
       id="text1"
       style="fill:#ffffff;font-size:13.33333333px;-inkscape-font-specification:'sans-serif Bold';font-family:sans-serif;font-weight:bold;stroke-width:0;stroke:#000000;stroke-opacity:0.59831458;white-space:pre;shape-inside:url(#rect1)" />
    <text
       xml:space="preserve"
       style="font-weight:bold;font-size:37.3333px;font-family:sans-serif;-inkscape-font-specification:'sans-serif Bold';fill:#f9f9f9;stroke:#000000;stroke-width:0;stroke-opacity:0.598315"
       x="615.19324"
       y="605.29993"
       id="text2"><tspan
         sodipodi:role="line"
         id="tspan2"
         x="615.19324"
         y="605.29993"
         style="font-size:37.3333px;fill:#f9f9f9">API FLOW</tspan></text>
  </g>
</svg>
