<svg xmlns="http://www.w3.org/2000/svg" xmlns:xlink="http://www.w3.org/1999/xlink"
    viewBox="0 0 24 24">
    <path
        d="M 13.202 0.17 L 12.71 6.249 C 12.477 6.221 12.241 6.206 12 6.206 C 11.7 6.206 11.406 6.228 11.119 6.273 L 10.838 3.325 C 10.829 3.233 10.903 3.152 10.996 3.153 L 11.499 3.153 L 11.256 0.17 C 11.248 0.079 11.32 0 11.412 0 L 13.044 0 C 13.135 0 13.207 0.079 13.2 0.17 Z M 9.084 0.472 C 9.059 0.383 8.965 0.335 8.878 0.366 L 7.344 0.925 C 7.257 0.956 7.217 1.055 7.255 1.139 L 8.503 3.858 L 8.029 4.03 C 7.942 4.061 7.9 4.161 7.94 4.246 L 9.211 6.92 C 9.672 6.666 10.171 6.475 10.698 6.354 Z M 5.318 2.165 L 8.848 7.138 C 8.4 7.429 7.995 7.78 7.645 8.181 L 5.534 6.101 C 5.467 6.036 5.472 5.928 5.543 5.868 L 5.929 5.545 L 3.828 3.417 C 3.763 3.351 3.768 3.245 3.839 3.186 L 5.088 2.136 C 5.159 2.076 5.265 2.091 5.318 2.165 Z M 2.357 5.044 C 2.282 4.993 2.178 5.016 2.131 5.095 L 1.315 6.509 C 1.269 6.588 1.301 6.69 1.384 6.729 L 4.088 8.011 L 3.835 8.447 C 3.788 8.527 3.82 8.63 3.905 8.669 L 6.599 9.9 C 6.794 9.399 7.055 8.932 7.373 8.51 Z M 0.366 8.886 C 0.382 8.796 0.47 8.738 0.56 8.761 L 6.46 10.302 C 6.307 10.801 6.222 11.328 6.209 11.874 L 3.256 11.637 C 3.163 11.629 3.097 11.544 3.114 11.452 L 3.202 10.957 L 0.224 10.677 C 0.133 10.668 0.068 10.584 0.084 10.493 L 0.367 8.885 Z M 0.143 12.871 C 0.051 12.88 -0.014 12.965 0.002 13.055 L 0.286 14.663 C 0.302 14.753 0.392 14.811 0.48 14.788 L 3.375 14.031 L 3.461 14.527 C 3.478 14.618 3.569 14.676 3.658 14.651 L 6.513 13.862 C 6.345 13.367 6.241 12.843 6.214 12.299 Z M 1.087 17.095 C 1.04 17.015 1.072 16.914 1.155 16.874 L 6.663 14.262 C 6.873 14.757 7.15 15.215 7.482 15.627 L 5.068 17.344 C 4.992 17.399 4.886 17.374 4.841 17.295 L 4.59 16.858 L 2.129 18.559 C 2.054 18.612 1.95 18.589 1.903 18.509 Z M 7.76 15.95 L 3.476 20.29 C 3.411 20.356 3.416 20.461 3.487 20.521 L 4.737 21.57 C 4.808 21.629 4.914 21.615 4.967 21.54 L 6.698 19.1 L 7.083 19.425 C 7.153 19.484 7.261 19.47 7.314 19.393 L 8.994 16.956 C 8.538 16.678 8.124 16.338 7.76 15.95 Z M 6.914 22.918 C 6.828 22.887 6.787 22.788 6.826 22.704 L 9.367 17.16 C 9.835 17.399 10.339 17.577 10.87 17.682 L 10.124 20.548 C 10.101 20.638 10.005 20.688 9.919 20.656 L 9.446 20.483 L 8.653 23.368 C 8.629 23.457 8.534 23.505 8.447 23.474 L 6.913 22.916 Z M 11.291 17.75 L 10.799 23.83 C 10.792 23.921 10.864 24 10.955 24 L 12.587 24 C 12.679 24 12.751 23.921 12.743 23.83 L 12.5 20.848 L 13.003 20.848 C 13.096 20.849 13.169 20.769 13.161 20.676 L 12.88 17.729 C 12.593 17.772 12.299 17.795 11.999 17.795 C 11.759 17.795 11.523 17.779 11.29 17.751 Z M 17.175 1.295 C 17.214 1.211 17.172 1.113 17.087 1.081 L 15.553 0.523 C 15.467 0.492 15.371 0.541 15.347 0.629 L 14.554 3.514 L 14.081 3.341 C 13.995 3.309 13.899 3.359 13.876 3.449 L 13.13 6.315 C 13.661 6.42 14.165 6.598 14.633 6.837 L 17.175 1.294 Z M 20.524 3.711 L 16.239 8.051 C 15.877 7.662 15.463 7.322 15.006 7.044 L 16.686 4.607 C 16.739 4.531 16.847 4.516 16.917 4.576 L 17.302 4.901 L 19.033 2.461 C 19.086 2.386 19.192 2.372 19.263 2.431 L 20.513 3.48 C 20.584 3.54 20.589 3.647 20.524 3.711 Z M 22.845 7.127 C 22.929 7.087 22.96 6.986 22.914 6.906 L 22.097 5.492 C 22.05 5.412 21.946 5.389 21.871 5.442 L 19.41 7.143 L 19.159 6.706 C 19.113 6.625 19.007 6.602 18.932 6.657 L 16.518 8.374 C 16.85 8.787 17.127 9.244 17.337 9.739 Z M 23.714 9.339 L 23.997 10.947 C 24.014 11.038 23.948 11.123 23.857 11.131 L 17.786 11.701 C 17.759 11.156 17.655 10.633 17.487 10.138 L 20.342 9.35 C 20.431 9.325 20.522 9.384 20.538 9.474 L 20.624 9.969 L 23.518 9.213 C 23.607 9.19 23.697 9.247 23.713 9.338 Z M 23.44 15.24 C 23.529 15.263 23.618 15.205 23.635 15.115 L 23.917 13.507 C 23.933 13.416 23.868 13.332 23.777 13.323 L 20.799 13.043 L 20.888 12.548 C 20.904 12.456 20.838 12.372 20.745 12.364 L 17.792 12.127 C 17.78 12.673 17.694 13.2 17.542 13.699 L 23.441 15.239 Z M 21.869 18.907 C 21.822 18.986 21.718 19.009 21.643 18.958 L 16.625 15.492 C 16.943 15.07 17.205 14.603 17.399 14.102 L 20.093 15.334 C 20.177 15.373 20.211 15.477 20.163 15.556 L 19.91 15.992 L 22.614 17.274 C 22.697 17.313 22.729 17.415 22.682 17.495 L 21.867 18.908 Z M 15.152 16.863 L 18.682 21.837 C 18.736 21.912 18.84 21.926 18.912 21.866 L 20.161 20.816 C 20.232 20.757 20.237 20.65 20.173 20.585 L 18.071 18.457 L 18.457 18.134 C 18.528 18.074 18.533 17.967 18.466 17.902 L 16.356 15.823 C 16.005 16.222 15.6 16.573 15.152 16.864 Z M 15.122 23.635 C 15.037 23.666 14.941 23.618 14.917 23.529 L 13.301 17.648 C 13.828 17.527 14.328 17.335 14.788 17.082 L 16.059 19.756 C 16.099 19.84 16.058 19.941 15.97 19.972 L 15.496 20.144 L 16.744 22.863 C 16.782 22.947 16.741 23.045 16.655 23.077 L 15.121 23.636 Z"
        fill="rgb(255, 255, 255)"></path>
</svg>