<svg xmlns="http://www.w3.org/2000/svg" xmlns:xlink="http://www.w3.org/1999/xlink"
    viewBox="0 0 24 24">
    <path
        d="M 0 20.099 C 0 17.463 2.514 7.63 7.713 1.041 C 4.043 7.968 1.909 12.658 3.466 16.314 C 4.689 19.186 10.975 18.274 14.373 17.125 C 8.325 19.862 2.118 20.234 0 20.099 Z"
        fill="rgb(255, 255, 255)"></path>
    <path
        d="M 11.26 0.75 C 13.556 2.068 20.861 9.15 24 16.922 C 19.802 10.298 16.785 6.114 12.823 5.627 C 9.71 5.245 7.362 11.114 6.664 14.615 C 7.304 8.038 10.084 2.506 11.26 0.75 Z"
        fill="rgb(255, 255, 255)"></path>
    <path
        d="M 22.532 20.075 C 20.237 21.393 10.417 24.144 2.08 22.961 C 9.947 22.658 15.098 22.152 17.503 18.983 C 19.393 16.493 15.456 11.536 12.756 9.184 C 18.164 13.024 21.591 18.184 22.532 20.075 Z"
        fill="rgb(255, 255, 255)"></path>
</svg>