<svg xmlns="http://www.w3.org/2000/svg" xmlns:xlink="http://www.w3.org/1999/xlink"
    viewBox="0 0 24 24">
    <path
        d="M 24 13.799 L 23.4 8.399 L 21.66 9.539 C 20.04 8.519 18 7.799 15.72 7.439 C 15.72 7.439 14.58 7.199 13.08 7.199 C 11.58 7.199 10.2 7.379 10.2 7.379 C 4.38 8.099 0 11.399 0 15.359 C 0 19.439 4.5 22.799 11.4 23.399 L 11.4 21.059 C 6.66 20.399 3.66 18.179 3.66 15.359 C 3.66 12.719 6.42 10.499 10.2 9.779 C 10.2 9.779 13.14 9.119 15.72 9.899 C 16.98 10.199 18.12 10.619 19.08 11.219 L 16.8 12.599 Z"
        fill="rgb(255, 255, 255)"></path>
    <path d="M 11.4 2.4 L 11.4 23.4 L 15 21.6 L 15 0.6 Z" fill="rgb(255, 255, 255)"></path>
</svg>