<svg xmlns="http://www.w3.org/2000/svg" xmlns:xlink="http://www.w3.org/1999/xlink"
    viewBox="0 0 24 24">
    <path
        d="M 5.069 18.709 C 5.587 19.032 6.447 19.39 7.356 19.39 C 8.184 19.39 8.953 19.151 9.591 18.741 C 9.591 18.741 9.592 18.741 9.593 18.74 L 12 17.236 L 12 22.666 C 11.619 22.666 11.235 22.563 10.901 22.355 Z"
        fill="rgba(255,255,255,0.8)"></path>
    <path
        d="M 10.471 2.01 L 0.471 13.29 C -0.301 14.162 -0.1 15.479 0.901 16.104 C 0.901 16.104 4.603 18.418 5.069 18.709 C 5.587 19.032 6.447 19.391 7.356 19.391 C 8.184 19.391 8.953 19.151 9.591 18.741 C 9.591 18.741 9.592 18.741 9.593 18.74 L 12 17.236 L 6.181 13.599 L 12.001 7.034 L 12.001 1.333 C 11.436 1.333 10.871 1.559 10.471 2.01 Z"
        fill="rgba(255,255,255,0.4)"></path>
    <path d="M 6.182 13.599 L 6.251 13.642 L 12 17.236 L 12.002 17.236 L 12.002 7.035 L 12 7.034 Z"
        fill="rgba(255,255,255,0.2)"></path>
    <path
        d="M 23.098 16.104 C 24.1 15.479 24.301 14.161 23.529 13.289 L 16.968 5.888 C 16.438 5.641 15.845 5.5 15.217 5.5 C 13.984 5.5 12.881 6.032 12.148 6.868 L 12.002 7.032 L 17.821 13.597 L 12.001 17.235 L 12.001 22.665 C 12.384 22.665 12.765 22.561 13.098 22.353 L 23.098 16.103 Z"
        fill="rgb(255,255,255)"></path>
    <path
        d="M 12.001 1.333 L 12.001 7.034 L 12.147 6.87 C 12.88 6.034 13.983 5.502 15.216 5.502 C 15.845 5.502 16.437 5.644 16.967 5.889 L 13.528 2.011 C 13.129 1.56 12.564 1.335 12 1.335 Z"
        fill="rgba(255,255,255,0.7)"></path>
    <path d="M 17.819 13.564 L 12 7 L 12 17.2 Z" fill="rgba(255,255,255,0.3)"></path>
</svg>